M48
;GenerationSoftware,Autodesk,EAGLE,9.6.2*%
;CreationDate,2020-11-06T00:39:19Z*%
FMAT,2
ICI,OFF
METRIC,TZ,000.000
T3C0.381
T2C0.750
T1C0.991
%
G90
M71
T1
X39550Y63130
X38534Y68210
X40566Y68210
T2
X3500Y47620
X3500Y50670
T3
X17500Y31000
X15900Y28500
X13000Y27200
X9300Y30800
X25000Y50760
X1200Y72500
X22000Y47500
X3400Y74700
X26290Y52210
X1200Y57200
X14400Y51700
X13900Y71000
X16200Y50100
X12300Y69900
X14200Y49900
X7200Y70400
X19600Y48900
X5500Y68800
X17300Y47691
X8500Y80100
X20500Y47500
X6000Y76500
X14400Y53800
X32600Y78500
X28400Y51800
X8100Y67900
X20000Y75000
X24100Y44600
X3500Y43900
X7800Y44600
X25900Y53800
X33300Y68300
X41200Y72200
X27300Y60600
X33209Y65900
X27700Y61900
X35600Y69900
X24200Y59800
X35700Y71300
X24100Y61400
X35700Y73500
X22600Y61100
X35600Y75000
X20700Y61000
X14100Y59800
X34000Y76900
X20100Y63900
X18500Y61100
X18400Y64000
X17500Y61900
X16900Y64207
X16600Y60600
X15800Y64900
X15300Y61800
X14400Y64300
X15200Y59000
X13300Y53100
X17800Y32900
X12200Y53791
X26100Y79500
X19703Y61897
X21303Y63193
X34300Y63900
X42223Y66478
X43000Y58800
X37100Y64600
X38600Y56500
X26300Y77300
X33100Y56600
X27600Y17400
X35400Y43800
X1100Y55800
X2300Y42100
X8200Y32600
X9700Y35200
X12900Y35800
X15800Y35800
X40900Y58800
M30