G04 EAGLE Gerber RS-274X export*
G75*
%MOMM*%
%FSLAX34Y34*%
%LPD*%
%INSilkscreen Top*%
%IPPOS*%
%AMOC8*
5,1,8,0,0,1.08239X$1,22.5*%
G01*
%ADD10C,0.203200*%
%ADD11C,0.076200*%
%ADD12C,0.101600*%
%ADD13R,7.000000X21.200000*%
%ADD14C,0.127000*%
%ADD15C,0.300000*%
%ADD16R,0.150000X0.300000*%
%ADD17R,0.300000X0.300000*%
%ADD18R,0.300000X0.150000*%
%ADD19R,0.200000X0.200000*%
%ADD20R,3.100000X6.800000*%
%ADD21R,1.500000X1.300000*%
%ADD22R,5.900000X6.000000*%
%ADD23C,0.152400*%

G36*
X189932Y602321D02*
X189932Y602321D01*
X189934Y602320D01*
X189977Y602340D01*
X190021Y602358D01*
X190021Y602360D01*
X190023Y602361D01*
X190056Y602446D01*
X190056Y604986D01*
X190055Y604988D01*
X190056Y604990D01*
X190036Y605033D01*
X190018Y605077D01*
X190016Y605077D01*
X190015Y605079D01*
X189930Y605112D01*
X186120Y605112D01*
X186118Y605111D01*
X186116Y605112D01*
X186073Y605092D01*
X186029Y605074D01*
X186029Y605072D01*
X186027Y605071D01*
X185994Y604986D01*
X185994Y602446D01*
X185995Y602444D01*
X185994Y602442D01*
X186014Y602399D01*
X186032Y602355D01*
X186034Y602355D01*
X186035Y602353D01*
X186120Y602320D01*
X189930Y602320D01*
X189932Y602321D01*
G37*
G36*
X254913Y544070D02*
X254913Y544070D01*
X254915Y544069D01*
X254958Y544089D01*
X255002Y544107D01*
X255002Y544109D01*
X255004Y544110D01*
X255037Y544195D01*
X255037Y548005D01*
X255036Y548007D01*
X255037Y548009D01*
X255017Y548052D01*
X254999Y548096D01*
X254997Y548096D01*
X254996Y548098D01*
X254911Y548131D01*
X252371Y548131D01*
X252369Y548130D01*
X252367Y548131D01*
X252324Y548111D01*
X252280Y548093D01*
X252280Y548091D01*
X252278Y548090D01*
X252245Y548005D01*
X252245Y544195D01*
X252246Y544193D01*
X252245Y544191D01*
X252265Y544148D01*
X252283Y544104D01*
X252285Y544104D01*
X252286Y544102D01*
X252371Y544069D01*
X254911Y544069D01*
X254913Y544070D01*
G37*
G36*
X181932Y495089D02*
X181932Y495089D01*
X181934Y495088D01*
X181977Y495108D01*
X182021Y495126D01*
X182021Y495128D01*
X182023Y495129D01*
X182056Y495214D01*
X182056Y497754D01*
X182055Y497756D01*
X182056Y497758D01*
X182036Y497801D01*
X182018Y497845D01*
X182016Y497845D01*
X182015Y497847D01*
X181930Y497880D01*
X178120Y497880D01*
X178118Y497879D01*
X178116Y497880D01*
X178073Y497860D01*
X178029Y497842D01*
X178029Y497840D01*
X178027Y497839D01*
X177994Y497754D01*
X177994Y495214D01*
X177995Y495212D01*
X177994Y495210D01*
X178014Y495167D01*
X178032Y495123D01*
X178034Y495123D01*
X178035Y495121D01*
X178120Y495088D01*
X181930Y495088D01*
X181932Y495089D01*
G37*
D10*
X214362Y125000D02*
X214380Y126488D01*
X214435Y127975D01*
X214526Y129461D01*
X214654Y130944D01*
X214818Y132423D01*
X215018Y133897D01*
X215255Y135367D01*
X215527Y136830D01*
X215835Y138286D01*
X216179Y139734D01*
X216559Y141173D01*
X216973Y142602D01*
X217423Y144021D01*
X217907Y145428D01*
X218425Y146823D01*
X218978Y148205D01*
X219564Y149573D01*
X220184Y150926D01*
X220837Y152264D01*
X221522Y153585D01*
X222240Y154888D01*
X222989Y156174D01*
X223770Y157441D01*
X224581Y158689D01*
X225423Y159916D01*
X226295Y161122D01*
X227196Y162306D01*
X228126Y163468D01*
X229084Y164607D01*
X230070Y165722D01*
X231083Y166812D01*
X232122Y167878D01*
X233188Y168917D01*
X234278Y169930D01*
X235393Y170916D01*
X236532Y171874D01*
X237694Y172804D01*
X238878Y173705D01*
X240084Y174577D01*
X241311Y175419D01*
X242559Y176230D01*
X243826Y177011D01*
X245112Y177760D01*
X246415Y178478D01*
X247736Y179163D01*
X249074Y179816D01*
X250427Y180436D01*
X251795Y181022D01*
X253177Y181575D01*
X254572Y182093D01*
X255979Y182577D01*
X257398Y183027D01*
X258827Y183441D01*
X260266Y183821D01*
X261714Y184165D01*
X263170Y184473D01*
X264633Y184745D01*
X266103Y184982D01*
X267577Y185182D01*
X269056Y185346D01*
X270539Y185474D01*
X272025Y185565D01*
X273512Y185620D01*
X275000Y185638D01*
X276488Y185620D01*
X277975Y185565D01*
X279461Y185474D01*
X280944Y185346D01*
X282423Y185182D01*
X283897Y184982D01*
X285367Y184745D01*
X286830Y184473D01*
X288286Y184165D01*
X289734Y183821D01*
X291173Y183441D01*
X292602Y183027D01*
X294021Y182577D01*
X295428Y182093D01*
X296823Y181575D01*
X298205Y181022D01*
X299573Y180436D01*
X300926Y179816D01*
X302264Y179163D01*
X303585Y178478D01*
X304888Y177760D01*
X306174Y177011D01*
X307441Y176230D01*
X308689Y175419D01*
X309916Y174577D01*
X311122Y173705D01*
X312306Y172804D01*
X313468Y171874D01*
X314607Y170916D01*
X315722Y169930D01*
X316812Y168917D01*
X317878Y167878D01*
X318917Y166812D01*
X319930Y165722D01*
X320916Y164607D01*
X321874Y163468D01*
X322804Y162306D01*
X323705Y161122D01*
X324577Y159916D01*
X325419Y158689D01*
X326230Y157441D01*
X327011Y156174D01*
X327760Y154888D01*
X328478Y153585D01*
X329163Y152264D01*
X329816Y150926D01*
X330436Y149573D01*
X331022Y148205D01*
X331575Y146823D01*
X332093Y145428D01*
X332577Y144021D01*
X333027Y142602D01*
X333441Y141173D01*
X333821Y139734D01*
X334165Y138286D01*
X334473Y136830D01*
X334745Y135367D01*
X334982Y133897D01*
X335182Y132423D01*
X335346Y130944D01*
X335474Y129461D01*
X335565Y127975D01*
X335620Y126488D01*
X335638Y125000D01*
X335620Y123512D01*
X335565Y122025D01*
X335474Y120539D01*
X335346Y119056D01*
X335182Y117577D01*
X334982Y116103D01*
X334745Y114633D01*
X334473Y113170D01*
X334165Y111714D01*
X333821Y110266D01*
X333441Y108827D01*
X333027Y107398D01*
X332577Y105979D01*
X332093Y104572D01*
X331575Y103177D01*
X331022Y101795D01*
X330436Y100427D01*
X329816Y99074D01*
X329163Y97736D01*
X328478Y96415D01*
X327760Y95112D01*
X327011Y93826D01*
X326230Y92559D01*
X325419Y91311D01*
X324577Y90084D01*
X323705Y88878D01*
X322804Y87694D01*
X321874Y86532D01*
X320916Y85393D01*
X319930Y84278D01*
X318917Y83188D01*
X317878Y82122D01*
X316812Y81083D01*
X315722Y80070D01*
X314607Y79084D01*
X313468Y78126D01*
X312306Y77196D01*
X311122Y76295D01*
X309916Y75423D01*
X308689Y74581D01*
X307441Y73770D01*
X306174Y72989D01*
X304888Y72240D01*
X303585Y71522D01*
X302264Y70837D01*
X300926Y70184D01*
X299573Y69564D01*
X298205Y68978D01*
X296823Y68425D01*
X295428Y67907D01*
X294021Y67423D01*
X292602Y66973D01*
X291173Y66559D01*
X289734Y66179D01*
X288286Y65835D01*
X286830Y65527D01*
X285367Y65255D01*
X283897Y65018D01*
X282423Y64818D01*
X280944Y64654D01*
X279461Y64526D01*
X277975Y64435D01*
X276488Y64380D01*
X275000Y64362D01*
X273512Y64380D01*
X272025Y64435D01*
X270539Y64526D01*
X269056Y64654D01*
X267577Y64818D01*
X266103Y65018D01*
X264633Y65255D01*
X263170Y65527D01*
X261714Y65835D01*
X260266Y66179D01*
X258827Y66559D01*
X257398Y66973D01*
X255979Y67423D01*
X254572Y67907D01*
X253177Y68425D01*
X251795Y68978D01*
X250427Y69564D01*
X249074Y70184D01*
X247736Y70837D01*
X246415Y71522D01*
X245112Y72240D01*
X243826Y72989D01*
X242559Y73770D01*
X241311Y74581D01*
X240084Y75423D01*
X238878Y76295D01*
X237694Y77196D01*
X236532Y78126D01*
X235393Y79084D01*
X234278Y80070D01*
X233188Y81083D01*
X232122Y82122D01*
X231083Y83188D01*
X230070Y84278D01*
X229084Y85393D01*
X228126Y86532D01*
X227196Y87694D01*
X226295Y88878D01*
X225423Y90084D01*
X224581Y91311D01*
X223770Y92559D01*
X222989Y93826D01*
X222240Y95112D01*
X221522Y96415D01*
X220837Y97736D01*
X220184Y99074D01*
X219564Y100427D01*
X218978Y101795D01*
X218425Y103177D01*
X217907Y104572D01*
X217423Y105979D01*
X216973Y107398D01*
X216559Y108827D01*
X216179Y110266D01*
X215835Y111714D01*
X215527Y113170D01*
X215255Y114633D01*
X215018Y116103D01*
X214818Y117577D01*
X214654Y119056D01*
X214526Y120539D01*
X214435Y122025D01*
X214380Y123512D01*
X214362Y125000D01*
X177051Y125000D02*
X177081Y127404D01*
X177169Y129806D01*
X177316Y132206D01*
X177523Y134601D01*
X177788Y136990D01*
X178111Y139372D01*
X178493Y141746D01*
X178933Y144109D01*
X179431Y146461D01*
X179986Y148800D01*
X180599Y151124D01*
X181269Y153433D01*
X181995Y155725D01*
X182777Y157998D01*
X183614Y160251D01*
X184507Y162483D01*
X185454Y164693D01*
X186455Y166879D01*
X187510Y169039D01*
X188617Y171173D01*
X189776Y173279D01*
X190986Y175356D01*
X192247Y177402D01*
X193558Y179418D01*
X194918Y181400D01*
X196327Y183348D01*
X197782Y185261D01*
X199284Y187138D01*
X200832Y188978D01*
X202425Y190779D01*
X204061Y192540D01*
X205740Y194260D01*
X207460Y195939D01*
X209221Y197575D01*
X211022Y199168D01*
X212862Y200716D01*
X214739Y202218D01*
X216652Y203673D01*
X218600Y205082D01*
X220582Y206442D01*
X222598Y207753D01*
X224644Y209014D01*
X226721Y210224D01*
X228827Y211383D01*
X230961Y212490D01*
X233121Y213545D01*
X235307Y214546D01*
X237517Y215493D01*
X239749Y216386D01*
X242002Y217223D01*
X244275Y218005D01*
X246567Y218731D01*
X248876Y219401D01*
X251200Y220014D01*
X253539Y220569D01*
X255891Y221067D01*
X258254Y221507D01*
X260628Y221889D01*
X263010Y222212D01*
X265399Y222477D01*
X267794Y222684D01*
X270194Y222831D01*
X272596Y222919D01*
X275000Y222949D01*
X277404Y222919D01*
X279806Y222831D01*
X282206Y222684D01*
X284601Y222477D01*
X286990Y222212D01*
X289372Y221889D01*
X291746Y221507D01*
X294109Y221067D01*
X296461Y220569D01*
X298800Y220014D01*
X301124Y219401D01*
X303433Y218731D01*
X305725Y218005D01*
X307998Y217223D01*
X310251Y216386D01*
X312483Y215493D01*
X314693Y214546D01*
X316879Y213545D01*
X319039Y212490D01*
X321173Y211383D01*
X323279Y210224D01*
X325356Y209014D01*
X327402Y207753D01*
X329418Y206442D01*
X331400Y205082D01*
X333348Y203673D01*
X335261Y202218D01*
X337138Y200716D01*
X338978Y199168D01*
X340779Y197575D01*
X342540Y195939D01*
X344260Y194260D01*
X345939Y192540D01*
X347575Y190779D01*
X349168Y188978D01*
X350716Y187138D01*
X352218Y185261D01*
X353673Y183348D01*
X355082Y181400D01*
X356442Y179418D01*
X357753Y177402D01*
X359014Y175356D01*
X360224Y173279D01*
X361383Y171173D01*
X362490Y169039D01*
X363545Y166879D01*
X364546Y164693D01*
X365493Y162483D01*
X366386Y160251D01*
X367223Y157998D01*
X368005Y155725D01*
X368731Y153433D01*
X369401Y151124D01*
X370014Y148800D01*
X370569Y146461D01*
X371067Y144109D01*
X371507Y141746D01*
X371889Y139372D01*
X372212Y136990D01*
X372477Y134601D01*
X372684Y132206D01*
X372831Y129806D01*
X372919Y127404D01*
X372949Y125000D01*
X372919Y122596D01*
X372831Y120194D01*
X372684Y117794D01*
X372477Y115399D01*
X372212Y113010D01*
X371889Y110628D01*
X371507Y108254D01*
X371067Y105891D01*
X370569Y103539D01*
X370014Y101200D01*
X369401Y98876D01*
X368731Y96567D01*
X368005Y94275D01*
X367223Y92002D01*
X366386Y89749D01*
X365493Y87517D01*
X364546Y85307D01*
X363545Y83121D01*
X362490Y80961D01*
X361383Y78827D01*
X360224Y76721D01*
X359014Y74644D01*
X357753Y72598D01*
X356442Y70582D01*
X355082Y68600D01*
X353673Y66652D01*
X352218Y64739D01*
X350716Y62862D01*
X349168Y61022D01*
X347575Y59221D01*
X345939Y57460D01*
X344260Y55740D01*
X342540Y54061D01*
X340779Y52425D01*
X338978Y50832D01*
X337138Y49284D01*
X335261Y47782D01*
X333348Y46327D01*
X331400Y44918D01*
X329418Y43558D01*
X327402Y42247D01*
X325356Y40986D01*
X323279Y39776D01*
X321173Y38617D01*
X319039Y37510D01*
X316879Y36455D01*
X314693Y35454D01*
X312483Y34507D01*
X310251Y33614D01*
X307998Y32777D01*
X305725Y31995D01*
X303433Y31269D01*
X301124Y30599D01*
X298800Y29986D01*
X296461Y29431D01*
X294109Y28933D01*
X291746Y28493D01*
X289372Y28111D01*
X286990Y27788D01*
X284601Y27523D01*
X282206Y27316D01*
X279806Y27169D01*
X277404Y27081D01*
X275000Y27051D01*
X272596Y27081D01*
X270194Y27169D01*
X267794Y27316D01*
X265399Y27523D01*
X263010Y27788D01*
X260628Y28111D01*
X258254Y28493D01*
X255891Y28933D01*
X253539Y29431D01*
X251200Y29986D01*
X248876Y30599D01*
X246567Y31269D01*
X244275Y31995D01*
X242002Y32777D01*
X239749Y33614D01*
X237517Y34507D01*
X235307Y35454D01*
X233121Y36455D01*
X230961Y37510D01*
X228827Y38617D01*
X226721Y39776D01*
X224644Y40986D01*
X222598Y42247D01*
X220582Y43558D01*
X218600Y44918D01*
X216652Y46327D01*
X214739Y47782D01*
X212862Y49284D01*
X211022Y50832D01*
X209221Y52425D01*
X207460Y54061D01*
X205740Y55740D01*
X204061Y57460D01*
X202425Y59221D01*
X200832Y61022D01*
X199284Y62862D01*
X197782Y64739D01*
X196327Y66652D01*
X194918Y68600D01*
X193558Y70582D01*
X192247Y72598D01*
X190986Y74644D01*
X189776Y76721D01*
X188617Y78827D01*
X187510Y80961D01*
X186455Y83121D01*
X185454Y85307D01*
X184507Y87517D01*
X183614Y89749D01*
X182777Y92002D01*
X181995Y94275D01*
X181269Y96567D01*
X180599Y98876D01*
X179986Y101200D01*
X179431Y103539D01*
X178933Y105891D01*
X178493Y108254D01*
X178111Y110628D01*
X177788Y113010D01*
X177523Y115399D01*
X177316Y117794D01*
X177169Y120194D01*
X177081Y122596D01*
X177051Y125000D01*
X162000Y418000D02*
X162000Y435000D01*
X162000Y418000D02*
X179000Y418000D01*
X179000Y435000D01*
X162000Y435000D01*
X170000Y432000D02*
X170000Y422000D01*
X175000Y427000D02*
X165000Y427000D01*
X162000Y198000D02*
X162000Y182000D01*
X178000Y182000D01*
X178000Y198000D01*
X162000Y198000D01*
X170000Y195000D02*
X170000Y185000D01*
X165000Y190000D02*
X175000Y190000D01*
X171000Y304000D02*
X171000Y333000D01*
X171000Y304000D02*
X200000Y304000D01*
X200000Y333000D01*
X171000Y333000D01*
X175000Y319000D02*
X194000Y319000D01*
D11*
X9381Y537381D02*
X9381Y546779D01*
X11992Y546779D01*
X12093Y546777D01*
X12194Y546771D01*
X12295Y546761D01*
X12395Y546748D01*
X12495Y546730D01*
X12594Y546709D01*
X12692Y546683D01*
X12789Y546654D01*
X12885Y546622D01*
X12979Y546585D01*
X13072Y546545D01*
X13164Y546501D01*
X13253Y546454D01*
X13341Y546403D01*
X13427Y546349D01*
X13510Y546292D01*
X13592Y546232D01*
X13670Y546168D01*
X13747Y546102D01*
X13820Y546032D01*
X13891Y545960D01*
X13959Y545885D01*
X14024Y545807D01*
X14086Y545727D01*
X14145Y545645D01*
X14201Y545560D01*
X14253Y545474D01*
X14302Y545385D01*
X14348Y545294D01*
X14389Y545202D01*
X14428Y545108D01*
X14462Y545013D01*
X14493Y544917D01*
X14520Y544819D01*
X14544Y544721D01*
X14563Y544621D01*
X14579Y544521D01*
X14591Y544421D01*
X14599Y544320D01*
X14603Y544219D01*
X14603Y544117D01*
X14599Y544016D01*
X14591Y543915D01*
X14579Y543815D01*
X14563Y543715D01*
X14544Y543615D01*
X14520Y543517D01*
X14493Y543419D01*
X14462Y543323D01*
X14428Y543228D01*
X14389Y543134D01*
X14348Y543042D01*
X14302Y542951D01*
X14253Y542863D01*
X14201Y542776D01*
X14145Y542691D01*
X14086Y542609D01*
X14024Y542529D01*
X13959Y542451D01*
X13891Y542376D01*
X13820Y542304D01*
X13747Y542234D01*
X13670Y542168D01*
X13592Y542104D01*
X13510Y542044D01*
X13427Y541987D01*
X13341Y541933D01*
X13253Y541882D01*
X13164Y541835D01*
X13072Y541791D01*
X12979Y541751D01*
X12885Y541714D01*
X12789Y541682D01*
X12692Y541653D01*
X12594Y541627D01*
X12495Y541606D01*
X12395Y541588D01*
X12295Y541575D01*
X12194Y541565D01*
X12093Y541559D01*
X11992Y541557D01*
X11992Y541558D02*
X9381Y541558D01*
X17742Y546779D02*
X19830Y537381D01*
X21919Y543646D01*
X24007Y537381D01*
X26096Y546779D01*
X30033Y546779D02*
X30033Y537381D01*
X30033Y546779D02*
X32644Y546779D01*
X32745Y546777D01*
X32846Y546771D01*
X32947Y546761D01*
X33047Y546748D01*
X33147Y546730D01*
X33246Y546709D01*
X33344Y546683D01*
X33441Y546654D01*
X33537Y546622D01*
X33631Y546585D01*
X33724Y546545D01*
X33816Y546501D01*
X33905Y546454D01*
X33993Y546403D01*
X34079Y546349D01*
X34162Y546292D01*
X34244Y546232D01*
X34322Y546168D01*
X34399Y546102D01*
X34472Y546032D01*
X34543Y545960D01*
X34611Y545885D01*
X34676Y545807D01*
X34738Y545727D01*
X34797Y545645D01*
X34853Y545560D01*
X34905Y545474D01*
X34954Y545385D01*
X35000Y545294D01*
X35041Y545202D01*
X35080Y545108D01*
X35114Y545013D01*
X35145Y544917D01*
X35172Y544819D01*
X35196Y544721D01*
X35215Y544621D01*
X35231Y544521D01*
X35243Y544421D01*
X35251Y544320D01*
X35255Y544219D01*
X35255Y544117D01*
X35251Y544016D01*
X35243Y543915D01*
X35231Y543815D01*
X35215Y543715D01*
X35196Y543615D01*
X35172Y543517D01*
X35145Y543419D01*
X35114Y543323D01*
X35080Y543228D01*
X35041Y543134D01*
X35000Y543042D01*
X34954Y542951D01*
X34905Y542863D01*
X34853Y542776D01*
X34797Y542691D01*
X34738Y542609D01*
X34676Y542529D01*
X34611Y542451D01*
X34543Y542376D01*
X34472Y542304D01*
X34399Y542234D01*
X34322Y542168D01*
X34244Y542104D01*
X34162Y542044D01*
X34079Y541987D01*
X33993Y541933D01*
X33905Y541882D01*
X33816Y541835D01*
X33724Y541791D01*
X33631Y541751D01*
X33537Y541714D01*
X33441Y541682D01*
X33344Y541653D01*
X33246Y541627D01*
X33147Y541606D01*
X33047Y541588D01*
X32947Y541575D01*
X32846Y541565D01*
X32745Y541559D01*
X32644Y541557D01*
X32644Y541558D02*
X30033Y541558D01*
X33166Y541558D02*
X35254Y537381D01*
D10*
X211000Y911000D02*
X225000Y925000D01*
X211000Y911000D02*
X239000Y911000D01*
X225000Y925000D01*
X225000Y885000D01*
X388000Y469000D02*
X388000Y172000D01*
X443000Y172000D01*
X443000Y469000D01*
X388000Y469000D01*
D12*
X399284Y191508D02*
X412492Y191508D01*
X406622Y195911D02*
X399284Y191508D01*
X406622Y195911D02*
X399284Y200313D01*
X412492Y200313D01*
X412492Y206152D02*
X403687Y206152D01*
X400018Y205785D02*
X399284Y205785D01*
X399284Y206519D01*
X400018Y206519D01*
X400018Y205785D01*
X412492Y213540D02*
X412492Y216475D01*
X412492Y213540D02*
X412490Y213449D01*
X412484Y213358D01*
X412475Y213268D01*
X412462Y213178D01*
X412445Y213088D01*
X412425Y213000D01*
X412400Y212912D01*
X412373Y212825D01*
X412341Y212740D01*
X412307Y212656D01*
X412268Y212573D01*
X412227Y212492D01*
X412182Y212413D01*
X412134Y212336D01*
X412082Y212261D01*
X412028Y212188D01*
X411971Y212117D01*
X411910Y212049D01*
X411847Y211984D01*
X411782Y211921D01*
X411714Y211860D01*
X411643Y211803D01*
X411570Y211749D01*
X411495Y211697D01*
X411418Y211649D01*
X411339Y211604D01*
X411258Y211563D01*
X411175Y211524D01*
X411091Y211490D01*
X411006Y211458D01*
X410919Y211431D01*
X410831Y211406D01*
X410743Y211386D01*
X410653Y211369D01*
X410563Y211356D01*
X410473Y211347D01*
X410382Y211341D01*
X410291Y211339D01*
X405888Y211339D01*
X405797Y211341D01*
X405706Y211347D01*
X405616Y211356D01*
X405526Y211369D01*
X405436Y211386D01*
X405348Y211406D01*
X405260Y211431D01*
X405173Y211458D01*
X405088Y211490D01*
X405004Y211524D01*
X404921Y211563D01*
X404840Y211604D01*
X404761Y211649D01*
X404684Y211697D01*
X404609Y211749D01*
X404536Y211803D01*
X404465Y211860D01*
X404397Y211921D01*
X404332Y211984D01*
X404269Y212049D01*
X404208Y212117D01*
X404151Y212188D01*
X404097Y212261D01*
X404045Y212336D01*
X403997Y212413D01*
X403952Y212492D01*
X403911Y212573D01*
X403872Y212656D01*
X403838Y212740D01*
X403806Y212825D01*
X403779Y212912D01*
X403754Y213000D01*
X403734Y213088D01*
X403717Y213178D01*
X403704Y213268D01*
X403695Y213358D01*
X403689Y213449D01*
X403687Y213540D01*
X403687Y216475D01*
X399284Y221566D02*
X412492Y221566D01*
X403687Y221566D02*
X403687Y225235D01*
X403689Y225328D01*
X403695Y225422D01*
X403705Y225515D01*
X403719Y225607D01*
X403736Y225699D01*
X403758Y225790D01*
X403783Y225879D01*
X403813Y225968D01*
X403846Y226056D01*
X403882Y226142D01*
X403923Y226226D01*
X403966Y226308D01*
X404014Y226389D01*
X404064Y226467D01*
X404118Y226544D01*
X404176Y226618D01*
X404236Y226689D01*
X404299Y226758D01*
X404365Y226824D01*
X404434Y226887D01*
X404505Y226947D01*
X404579Y227005D01*
X404655Y227059D01*
X404734Y227109D01*
X404815Y227156D01*
X404897Y227200D01*
X404981Y227241D01*
X405067Y227277D01*
X405155Y227310D01*
X405243Y227340D01*
X405333Y227365D01*
X405424Y227387D01*
X405516Y227404D01*
X405608Y227418D01*
X405701Y227428D01*
X405795Y227434D01*
X405888Y227436D01*
X412492Y227436D01*
X407356Y235593D02*
X407356Y238895D01*
X407356Y235593D02*
X407358Y235493D01*
X407364Y235394D01*
X407373Y235295D01*
X407387Y235196D01*
X407404Y235098D01*
X407425Y235001D01*
X407450Y234904D01*
X407479Y234809D01*
X407511Y234715D01*
X407547Y234622D01*
X407586Y234530D01*
X407629Y234440D01*
X407676Y234352D01*
X407725Y234266D01*
X407778Y234182D01*
X407835Y234100D01*
X407894Y234020D01*
X407957Y233942D01*
X408022Y233867D01*
X408091Y233795D01*
X408162Y233725D01*
X408235Y233658D01*
X408312Y233594D01*
X408390Y233533D01*
X408472Y233475D01*
X408555Y233421D01*
X408640Y233369D01*
X408727Y233321D01*
X408816Y233276D01*
X408907Y233235D01*
X408999Y233197D01*
X409093Y233163D01*
X409187Y233133D01*
X409283Y233106D01*
X409380Y233083D01*
X409478Y233064D01*
X409576Y233049D01*
X409675Y233037D01*
X409775Y233029D01*
X409874Y233025D01*
X409974Y233025D01*
X410073Y233029D01*
X410173Y233037D01*
X410272Y233049D01*
X410370Y233064D01*
X410468Y233083D01*
X410565Y233106D01*
X410661Y233133D01*
X410755Y233163D01*
X410849Y233197D01*
X410941Y233235D01*
X411032Y233276D01*
X411121Y233321D01*
X411208Y233369D01*
X411293Y233421D01*
X411376Y233475D01*
X411458Y233533D01*
X411536Y233594D01*
X411613Y233658D01*
X411686Y233725D01*
X411757Y233795D01*
X411826Y233867D01*
X411891Y233942D01*
X411954Y234020D01*
X412013Y234100D01*
X412070Y234182D01*
X412123Y234266D01*
X412172Y234352D01*
X412219Y234440D01*
X412262Y234530D01*
X412301Y234622D01*
X412337Y234715D01*
X412369Y234809D01*
X412398Y234904D01*
X412423Y235001D01*
X412444Y235098D01*
X412461Y235196D01*
X412475Y235295D01*
X412484Y235394D01*
X412490Y235493D01*
X412492Y235593D01*
X412492Y238895D01*
X405888Y238895D01*
X405797Y238893D01*
X405706Y238887D01*
X405616Y238878D01*
X405526Y238865D01*
X405436Y238848D01*
X405348Y238828D01*
X405260Y238803D01*
X405173Y238776D01*
X405088Y238744D01*
X405004Y238710D01*
X404921Y238671D01*
X404840Y238630D01*
X404761Y238585D01*
X404684Y238537D01*
X404609Y238485D01*
X404536Y238431D01*
X404465Y238374D01*
X404397Y238313D01*
X404332Y238250D01*
X404269Y238185D01*
X404208Y238117D01*
X404151Y238046D01*
X404097Y237973D01*
X404045Y237898D01*
X403997Y237821D01*
X403952Y237742D01*
X403911Y237661D01*
X403872Y237578D01*
X403838Y237494D01*
X403806Y237409D01*
X403779Y237322D01*
X403754Y237234D01*
X403734Y237146D01*
X403717Y237056D01*
X403704Y236966D01*
X403695Y236876D01*
X403689Y236785D01*
X403687Y236694D01*
X403687Y233758D01*
X412492Y246810D02*
X412492Y250479D01*
X412492Y246810D02*
X412490Y246719D01*
X412484Y246628D01*
X412475Y246538D01*
X412462Y246448D01*
X412445Y246358D01*
X412425Y246270D01*
X412400Y246182D01*
X412373Y246095D01*
X412341Y246010D01*
X412307Y245926D01*
X412268Y245843D01*
X412227Y245762D01*
X412182Y245683D01*
X412134Y245606D01*
X412082Y245531D01*
X412028Y245458D01*
X411971Y245387D01*
X411910Y245319D01*
X411847Y245254D01*
X411782Y245191D01*
X411714Y245130D01*
X411643Y245073D01*
X411570Y245019D01*
X411495Y244967D01*
X411418Y244919D01*
X411339Y244874D01*
X411258Y244833D01*
X411175Y244794D01*
X411091Y244760D01*
X411006Y244728D01*
X410919Y244701D01*
X410831Y244676D01*
X410743Y244656D01*
X410653Y244639D01*
X410563Y244626D01*
X410473Y244617D01*
X410382Y244611D01*
X410291Y244609D01*
X406622Y244609D01*
X406515Y244611D01*
X406408Y244617D01*
X406301Y244627D01*
X406195Y244640D01*
X406089Y244658D01*
X405984Y244679D01*
X405880Y244704D01*
X405776Y244733D01*
X405674Y244766D01*
X405574Y244803D01*
X405474Y244843D01*
X405376Y244887D01*
X405280Y244934D01*
X405186Y244985D01*
X405093Y245039D01*
X405003Y245096D01*
X404914Y245157D01*
X404828Y245221D01*
X404745Y245288D01*
X404663Y245358D01*
X404585Y245431D01*
X404509Y245507D01*
X404436Y245585D01*
X404366Y245667D01*
X404299Y245750D01*
X404235Y245836D01*
X404174Y245925D01*
X404117Y246015D01*
X404063Y246108D01*
X404012Y246202D01*
X403965Y246298D01*
X403921Y246396D01*
X403881Y246496D01*
X403844Y246596D01*
X403811Y246698D01*
X403782Y246802D01*
X403757Y246906D01*
X403736Y247011D01*
X403718Y247117D01*
X403705Y247223D01*
X403695Y247330D01*
X403689Y247437D01*
X403687Y247544D01*
X403689Y247651D01*
X403695Y247758D01*
X403705Y247865D01*
X403718Y247971D01*
X403736Y248077D01*
X403757Y248182D01*
X403782Y248286D01*
X403811Y248390D01*
X403844Y248492D01*
X403881Y248592D01*
X403921Y248692D01*
X403965Y248790D01*
X404012Y248886D01*
X404063Y248980D01*
X404117Y249073D01*
X404174Y249163D01*
X404235Y249252D01*
X404299Y249338D01*
X404366Y249421D01*
X404436Y249503D01*
X404509Y249581D01*
X404585Y249657D01*
X404663Y249730D01*
X404745Y249800D01*
X404828Y249867D01*
X404914Y249931D01*
X405003Y249992D01*
X405093Y250049D01*
X405186Y250103D01*
X405280Y250154D01*
X405376Y250201D01*
X405474Y250245D01*
X405574Y250285D01*
X405674Y250322D01*
X405776Y250355D01*
X405880Y250384D01*
X405984Y250409D01*
X406089Y250430D01*
X406195Y250448D01*
X406301Y250461D01*
X406408Y250471D01*
X406515Y250477D01*
X406622Y250479D01*
X408089Y250479D01*
X408089Y244609D01*
X410291Y255885D02*
X399284Y255885D01*
X410291Y255885D02*
X410382Y255887D01*
X410473Y255893D01*
X410563Y255902D01*
X410653Y255915D01*
X410743Y255932D01*
X410831Y255952D01*
X410919Y255977D01*
X411006Y256004D01*
X411091Y256036D01*
X411175Y256070D01*
X411258Y256109D01*
X411339Y256150D01*
X411418Y256195D01*
X411495Y256243D01*
X411570Y256295D01*
X411643Y256349D01*
X411714Y256406D01*
X411782Y256467D01*
X411847Y256530D01*
X411910Y256595D01*
X411971Y256663D01*
X412028Y256734D01*
X412082Y256807D01*
X412134Y256882D01*
X412182Y256959D01*
X412227Y257038D01*
X412268Y257119D01*
X412307Y257202D01*
X412341Y257286D01*
X412373Y257371D01*
X412400Y257458D01*
X412425Y257546D01*
X412445Y257634D01*
X412462Y257724D01*
X412475Y257814D01*
X412484Y257904D01*
X412490Y257995D01*
X412492Y258086D01*
X405154Y270084D02*
X405154Y273753D01*
X405156Y273873D01*
X405162Y273993D01*
X405172Y274113D01*
X405185Y274232D01*
X405203Y274351D01*
X405224Y274469D01*
X405250Y274586D01*
X405279Y274703D01*
X405312Y274818D01*
X405349Y274932D01*
X405389Y275045D01*
X405433Y275157D01*
X405481Y275267D01*
X405532Y275376D01*
X405587Y275483D01*
X405646Y275588D01*
X405707Y275690D01*
X405772Y275791D01*
X405841Y275890D01*
X405912Y275987D01*
X405987Y276081D01*
X406064Y276172D01*
X406145Y276261D01*
X406229Y276347D01*
X406315Y276431D01*
X406404Y276512D01*
X406495Y276589D01*
X406589Y276664D01*
X406686Y276735D01*
X406785Y276804D01*
X406886Y276869D01*
X406989Y276930D01*
X407093Y276989D01*
X407200Y277044D01*
X407309Y277095D01*
X407419Y277143D01*
X407531Y277187D01*
X407644Y277227D01*
X407758Y277264D01*
X407873Y277297D01*
X407990Y277326D01*
X408107Y277352D01*
X408225Y277373D01*
X408344Y277391D01*
X408463Y277404D01*
X408583Y277414D01*
X408703Y277420D01*
X408823Y277422D01*
X408943Y277420D01*
X409063Y277414D01*
X409183Y277404D01*
X409302Y277391D01*
X409421Y277373D01*
X409539Y277352D01*
X409656Y277326D01*
X409773Y277297D01*
X409888Y277264D01*
X410002Y277227D01*
X410115Y277187D01*
X410227Y277143D01*
X410337Y277095D01*
X410446Y277044D01*
X410553Y276989D01*
X410658Y276930D01*
X410760Y276869D01*
X410861Y276804D01*
X410960Y276735D01*
X411057Y276664D01*
X411151Y276589D01*
X411242Y276512D01*
X411331Y276431D01*
X411417Y276347D01*
X411501Y276261D01*
X411582Y276172D01*
X411659Y276081D01*
X411734Y275987D01*
X411805Y275890D01*
X411874Y275791D01*
X411939Y275690D01*
X412000Y275588D01*
X412059Y275483D01*
X412114Y275376D01*
X412165Y275267D01*
X412213Y275157D01*
X412257Y275045D01*
X412297Y274932D01*
X412334Y274818D01*
X412367Y274703D01*
X412396Y274586D01*
X412422Y274469D01*
X412443Y274351D01*
X412461Y274232D01*
X412474Y274113D01*
X412484Y273993D01*
X412490Y273873D01*
X412492Y273753D01*
X412492Y270084D01*
X399284Y270084D01*
X399284Y273753D01*
X399286Y273860D01*
X399292Y273967D01*
X399302Y274074D01*
X399315Y274180D01*
X399333Y274286D01*
X399354Y274391D01*
X399379Y274495D01*
X399408Y274599D01*
X399441Y274701D01*
X399478Y274801D01*
X399518Y274901D01*
X399562Y274999D01*
X399609Y275095D01*
X399660Y275189D01*
X399714Y275282D01*
X399771Y275372D01*
X399832Y275461D01*
X399896Y275547D01*
X399963Y275630D01*
X400033Y275712D01*
X400106Y275790D01*
X400182Y275866D01*
X400260Y275939D01*
X400342Y276009D01*
X400425Y276076D01*
X400511Y276140D01*
X400600Y276201D01*
X400690Y276258D01*
X400783Y276312D01*
X400877Y276363D01*
X400973Y276410D01*
X401071Y276454D01*
X401171Y276494D01*
X401271Y276531D01*
X401373Y276564D01*
X401477Y276593D01*
X401581Y276618D01*
X401686Y276639D01*
X401792Y276657D01*
X401898Y276670D01*
X402005Y276680D01*
X402112Y276686D01*
X402219Y276688D01*
X402326Y276686D01*
X402433Y276680D01*
X402540Y276670D01*
X402646Y276657D01*
X402752Y276639D01*
X402857Y276618D01*
X402961Y276593D01*
X403065Y276564D01*
X403167Y276531D01*
X403267Y276494D01*
X403367Y276454D01*
X403465Y276410D01*
X403561Y276363D01*
X403655Y276312D01*
X403748Y276258D01*
X403838Y276201D01*
X403927Y276140D01*
X404013Y276076D01*
X404096Y276009D01*
X404178Y275939D01*
X404256Y275866D01*
X404332Y275790D01*
X404405Y275712D01*
X404475Y275630D01*
X404542Y275547D01*
X404606Y275461D01*
X404667Y275372D01*
X404724Y275282D01*
X404778Y275189D01*
X404829Y275095D01*
X404876Y274999D01*
X404920Y274901D01*
X404960Y274801D01*
X404997Y274701D01*
X405030Y274599D01*
X405059Y274495D01*
X405084Y274391D01*
X405105Y274286D01*
X405123Y274180D01*
X405136Y274074D01*
X405146Y273967D01*
X405152Y273860D01*
X405154Y273753D01*
X403687Y282108D02*
X412492Y282108D01*
X400018Y281741D02*
X399284Y281741D01*
X399284Y282475D01*
X400018Y282475D01*
X400018Y281741D01*
X407356Y288381D02*
X408823Y292050D01*
X407356Y288381D02*
X407322Y288302D01*
X407284Y288224D01*
X407243Y288147D01*
X407199Y288073D01*
X407151Y288001D01*
X407100Y287931D01*
X407046Y287864D01*
X406989Y287799D01*
X406928Y287736D01*
X406866Y287677D01*
X406800Y287620D01*
X406732Y287567D01*
X406662Y287516D01*
X406589Y287469D01*
X406514Y287425D01*
X406438Y287385D01*
X406359Y287348D01*
X406280Y287315D01*
X406198Y287285D01*
X406116Y287259D01*
X406032Y287237D01*
X405947Y287219D01*
X405862Y287205D01*
X405776Y287194D01*
X405690Y287188D01*
X405603Y287185D01*
X405516Y287186D01*
X405430Y287192D01*
X405344Y287201D01*
X405258Y287214D01*
X405173Y287231D01*
X405089Y287252D01*
X405006Y287276D01*
X404925Y287305D01*
X404844Y287337D01*
X404765Y287372D01*
X404688Y287412D01*
X404613Y287454D01*
X404540Y287501D01*
X404468Y287550D01*
X404400Y287602D01*
X404333Y287658D01*
X404270Y287717D01*
X404209Y287778D01*
X404150Y287842D01*
X404095Y287909D01*
X404043Y287978D01*
X403994Y288050D01*
X403949Y288123D01*
X403907Y288199D01*
X403868Y288276D01*
X403833Y288355D01*
X403801Y288436D01*
X403773Y288518D01*
X403749Y288601D01*
X403729Y288685D01*
X403713Y288770D01*
X403700Y288856D01*
X403692Y288942D01*
X403687Y289029D01*
X403686Y289115D01*
X403687Y289115D02*
X403692Y289315D01*
X403702Y289515D01*
X403717Y289715D01*
X403737Y289915D01*
X403761Y290114D01*
X403791Y290312D01*
X403825Y290509D01*
X403863Y290706D01*
X403907Y290901D01*
X403955Y291096D01*
X404008Y291289D01*
X404065Y291481D01*
X404127Y291672D01*
X404194Y291861D01*
X404265Y292048D01*
X404341Y292233D01*
X404421Y292417D01*
X408823Y292050D02*
X408857Y292129D01*
X408895Y292207D01*
X408936Y292284D01*
X408980Y292358D01*
X409028Y292430D01*
X409079Y292500D01*
X409133Y292567D01*
X409190Y292632D01*
X409251Y292695D01*
X409313Y292754D01*
X409379Y292811D01*
X409447Y292864D01*
X409517Y292915D01*
X409590Y292962D01*
X409665Y293006D01*
X409741Y293046D01*
X409820Y293083D01*
X409899Y293116D01*
X409981Y293146D01*
X410063Y293172D01*
X410147Y293194D01*
X410232Y293212D01*
X410317Y293226D01*
X410403Y293237D01*
X410489Y293243D01*
X410576Y293246D01*
X410663Y293245D01*
X410749Y293239D01*
X410835Y293230D01*
X410921Y293217D01*
X411006Y293200D01*
X411090Y293179D01*
X411173Y293155D01*
X411254Y293126D01*
X411335Y293094D01*
X411414Y293059D01*
X411491Y293019D01*
X411566Y292977D01*
X411639Y292930D01*
X411711Y292881D01*
X411779Y292829D01*
X411846Y292773D01*
X411909Y292714D01*
X411970Y292653D01*
X412029Y292589D01*
X412084Y292522D01*
X412136Y292453D01*
X412185Y292381D01*
X412230Y292308D01*
X412272Y292232D01*
X412311Y292155D01*
X412346Y292076D01*
X412378Y291995D01*
X412406Y291913D01*
X412430Y291830D01*
X412450Y291746D01*
X412466Y291661D01*
X412479Y291575D01*
X412487Y291489D01*
X412492Y291402D01*
X412493Y291316D01*
X412492Y291316D02*
X412484Y291022D01*
X412469Y290728D01*
X412448Y290434D01*
X412419Y290141D01*
X412384Y289849D01*
X412341Y289558D01*
X412292Y289268D01*
X412236Y288979D01*
X412173Y288691D01*
X412104Y288405D01*
X412027Y288121D01*
X411944Y287839D01*
X411854Y287559D01*
X411758Y287280D01*
X412492Y298864D02*
X399284Y298864D01*
X412492Y298864D02*
X412492Y302533D01*
X412490Y302624D01*
X412484Y302715D01*
X412475Y302805D01*
X412462Y302895D01*
X412445Y302985D01*
X412425Y303073D01*
X412400Y303161D01*
X412373Y303248D01*
X412341Y303333D01*
X412307Y303417D01*
X412268Y303500D01*
X412227Y303581D01*
X412182Y303660D01*
X412134Y303737D01*
X412082Y303812D01*
X412028Y303885D01*
X411971Y303956D01*
X411910Y304024D01*
X411847Y304089D01*
X411782Y304152D01*
X411714Y304213D01*
X411643Y304270D01*
X411570Y304324D01*
X411495Y304376D01*
X411418Y304424D01*
X411339Y304469D01*
X411258Y304510D01*
X411175Y304549D01*
X411091Y304583D01*
X411006Y304615D01*
X410919Y304642D01*
X410831Y304667D01*
X410743Y304687D01*
X410653Y304704D01*
X410563Y304717D01*
X410473Y304726D01*
X410382Y304732D01*
X410291Y304734D01*
X410291Y304735D02*
X405888Y304735D01*
X405888Y304734D02*
X405797Y304732D01*
X405706Y304726D01*
X405616Y304717D01*
X405526Y304704D01*
X405436Y304687D01*
X405348Y304667D01*
X405260Y304642D01*
X405173Y304615D01*
X405088Y304583D01*
X405004Y304549D01*
X404921Y304510D01*
X404840Y304469D01*
X404761Y304424D01*
X404684Y304376D01*
X404609Y304324D01*
X404536Y304270D01*
X404465Y304213D01*
X404397Y304152D01*
X404332Y304089D01*
X404269Y304024D01*
X404208Y303956D01*
X404151Y303885D01*
X404097Y303812D01*
X404045Y303737D01*
X403997Y303660D01*
X403952Y303581D01*
X403911Y303500D01*
X403872Y303417D01*
X403838Y303333D01*
X403806Y303248D01*
X403779Y303161D01*
X403754Y303073D01*
X403734Y302985D01*
X403717Y302895D01*
X403704Y302805D01*
X403695Y302715D01*
X403689Y302624D01*
X403687Y302533D01*
X403687Y298864D01*
X407356Y312402D02*
X407356Y315704D01*
X407356Y312402D02*
X407358Y312302D01*
X407364Y312203D01*
X407373Y312104D01*
X407387Y312005D01*
X407404Y311907D01*
X407425Y311810D01*
X407450Y311713D01*
X407479Y311618D01*
X407511Y311524D01*
X407547Y311431D01*
X407586Y311339D01*
X407629Y311249D01*
X407676Y311161D01*
X407725Y311075D01*
X407778Y310991D01*
X407835Y310909D01*
X407894Y310829D01*
X407957Y310751D01*
X408022Y310676D01*
X408091Y310604D01*
X408162Y310534D01*
X408235Y310467D01*
X408312Y310403D01*
X408390Y310342D01*
X408472Y310284D01*
X408555Y310230D01*
X408640Y310178D01*
X408727Y310130D01*
X408816Y310085D01*
X408907Y310044D01*
X408999Y310006D01*
X409093Y309972D01*
X409187Y309942D01*
X409283Y309915D01*
X409380Y309892D01*
X409478Y309873D01*
X409576Y309858D01*
X409675Y309846D01*
X409775Y309838D01*
X409874Y309834D01*
X409974Y309834D01*
X410073Y309838D01*
X410173Y309846D01*
X410272Y309858D01*
X410370Y309873D01*
X410468Y309892D01*
X410565Y309915D01*
X410661Y309942D01*
X410755Y309972D01*
X410849Y310006D01*
X410941Y310044D01*
X411032Y310085D01*
X411121Y310130D01*
X411208Y310178D01*
X411293Y310230D01*
X411376Y310284D01*
X411458Y310342D01*
X411536Y310403D01*
X411613Y310467D01*
X411686Y310534D01*
X411757Y310604D01*
X411826Y310676D01*
X411891Y310751D01*
X411954Y310829D01*
X412013Y310909D01*
X412070Y310991D01*
X412123Y311075D01*
X412172Y311161D01*
X412219Y311249D01*
X412262Y311339D01*
X412301Y311431D01*
X412337Y311524D01*
X412369Y311618D01*
X412398Y311713D01*
X412423Y311810D01*
X412444Y311907D01*
X412461Y312005D01*
X412475Y312104D01*
X412484Y312203D01*
X412490Y312302D01*
X412492Y312402D01*
X412492Y315704D01*
X405888Y315704D01*
X405797Y315702D01*
X405706Y315696D01*
X405616Y315687D01*
X405526Y315674D01*
X405436Y315657D01*
X405348Y315637D01*
X405260Y315612D01*
X405173Y315585D01*
X405088Y315553D01*
X405004Y315519D01*
X404921Y315480D01*
X404840Y315439D01*
X404761Y315394D01*
X404684Y315346D01*
X404609Y315294D01*
X404536Y315240D01*
X404465Y315183D01*
X404397Y315122D01*
X404332Y315059D01*
X404269Y314994D01*
X404208Y314926D01*
X404151Y314855D01*
X404097Y314782D01*
X404045Y314707D01*
X403997Y314630D01*
X403952Y314551D01*
X403911Y314470D01*
X403872Y314387D01*
X403838Y314303D01*
X403806Y314218D01*
X403779Y314131D01*
X403754Y314043D01*
X403734Y313955D01*
X403717Y313865D01*
X403704Y313775D01*
X403695Y313685D01*
X403689Y313594D01*
X403687Y313503D01*
X403687Y310568D01*
X403687Y321845D02*
X412492Y321845D01*
X403687Y321845D02*
X403687Y325514D01*
X403689Y325607D01*
X403695Y325701D01*
X403705Y325794D01*
X403719Y325886D01*
X403736Y325978D01*
X403758Y326069D01*
X403783Y326158D01*
X403813Y326247D01*
X403846Y326335D01*
X403882Y326421D01*
X403923Y326505D01*
X403966Y326587D01*
X404014Y326668D01*
X404064Y326746D01*
X404118Y326823D01*
X404176Y326897D01*
X404236Y326968D01*
X404299Y327037D01*
X404365Y327103D01*
X404434Y327166D01*
X404505Y327226D01*
X404579Y327284D01*
X404655Y327338D01*
X404734Y327388D01*
X404815Y327435D01*
X404897Y327479D01*
X404981Y327520D01*
X405067Y327556D01*
X405155Y327589D01*
X405243Y327619D01*
X405333Y327644D01*
X405424Y327666D01*
X405516Y327683D01*
X405608Y327697D01*
X405701Y327707D01*
X405795Y327713D01*
X405888Y327715D01*
X412492Y327715D01*
X409557Y333366D02*
X406622Y333366D01*
X406515Y333368D01*
X406408Y333374D01*
X406301Y333384D01*
X406195Y333397D01*
X406089Y333415D01*
X405984Y333436D01*
X405880Y333461D01*
X405776Y333490D01*
X405674Y333523D01*
X405574Y333560D01*
X405474Y333600D01*
X405376Y333644D01*
X405280Y333691D01*
X405186Y333742D01*
X405093Y333796D01*
X405003Y333853D01*
X404914Y333914D01*
X404828Y333978D01*
X404745Y334045D01*
X404663Y334115D01*
X404585Y334188D01*
X404509Y334264D01*
X404436Y334342D01*
X404366Y334424D01*
X404299Y334507D01*
X404235Y334593D01*
X404174Y334682D01*
X404117Y334772D01*
X404063Y334865D01*
X404012Y334959D01*
X403965Y335055D01*
X403921Y335153D01*
X403881Y335253D01*
X403844Y335353D01*
X403811Y335455D01*
X403782Y335559D01*
X403757Y335663D01*
X403736Y335768D01*
X403718Y335874D01*
X403705Y335980D01*
X403695Y336087D01*
X403689Y336194D01*
X403687Y336301D01*
X403689Y336408D01*
X403695Y336515D01*
X403705Y336622D01*
X403718Y336728D01*
X403736Y336834D01*
X403757Y336939D01*
X403782Y337043D01*
X403811Y337147D01*
X403844Y337249D01*
X403881Y337349D01*
X403921Y337449D01*
X403965Y337547D01*
X404012Y337643D01*
X404063Y337737D01*
X404117Y337830D01*
X404174Y337920D01*
X404235Y338009D01*
X404299Y338095D01*
X404366Y338178D01*
X404436Y338260D01*
X404509Y338338D01*
X404585Y338414D01*
X404663Y338487D01*
X404745Y338557D01*
X404828Y338624D01*
X404914Y338688D01*
X405003Y338749D01*
X405093Y338806D01*
X405186Y338860D01*
X405280Y338911D01*
X405376Y338958D01*
X405474Y339002D01*
X405574Y339042D01*
X405674Y339079D01*
X405776Y339112D01*
X405880Y339141D01*
X405984Y339166D01*
X406089Y339187D01*
X406195Y339205D01*
X406301Y339218D01*
X406408Y339228D01*
X406515Y339234D01*
X406622Y339236D01*
X409557Y339236D01*
X409664Y339234D01*
X409771Y339228D01*
X409878Y339218D01*
X409984Y339205D01*
X410090Y339187D01*
X410195Y339166D01*
X410299Y339141D01*
X410403Y339112D01*
X410505Y339079D01*
X410605Y339042D01*
X410705Y339002D01*
X410803Y338958D01*
X410899Y338911D01*
X410993Y338860D01*
X411086Y338806D01*
X411176Y338749D01*
X411265Y338688D01*
X411351Y338624D01*
X411434Y338557D01*
X411516Y338487D01*
X411594Y338414D01*
X411670Y338338D01*
X411743Y338260D01*
X411813Y338178D01*
X411880Y338095D01*
X411944Y338009D01*
X412005Y337920D01*
X412062Y337830D01*
X412116Y337737D01*
X412167Y337643D01*
X412214Y337547D01*
X412258Y337449D01*
X412298Y337349D01*
X412335Y337249D01*
X412368Y337147D01*
X412397Y337043D01*
X412422Y336939D01*
X412443Y336834D01*
X412461Y336728D01*
X412474Y336622D01*
X412484Y336515D01*
X412490Y336408D01*
X412492Y336301D01*
X412490Y336194D01*
X412484Y336087D01*
X412474Y335980D01*
X412461Y335874D01*
X412443Y335768D01*
X412422Y335663D01*
X412397Y335559D01*
X412368Y335455D01*
X412335Y335353D01*
X412298Y335253D01*
X412258Y335153D01*
X412214Y335055D01*
X412167Y334959D01*
X412116Y334865D01*
X412062Y334772D01*
X412005Y334682D01*
X411944Y334593D01*
X411880Y334507D01*
X411813Y334424D01*
X411743Y334342D01*
X411670Y334264D01*
X411594Y334188D01*
X411516Y334115D01*
X411434Y334045D01*
X411351Y333978D01*
X411265Y333914D01*
X411176Y333853D01*
X411086Y333796D01*
X410993Y333742D01*
X410899Y333691D01*
X410803Y333644D01*
X410705Y333600D01*
X410605Y333560D01*
X410505Y333523D01*
X410403Y333490D01*
X410299Y333461D01*
X410195Y333436D01*
X410090Y333415D01*
X409984Y333397D01*
X409878Y333384D01*
X409771Y333374D01*
X409664Y333368D01*
X409557Y333366D01*
X407356Y351528D02*
X407356Y360333D01*
X408823Y373171D02*
X399284Y373171D01*
X408823Y373171D02*
X408943Y373173D01*
X409063Y373179D01*
X409183Y373189D01*
X409302Y373202D01*
X409421Y373220D01*
X409539Y373241D01*
X409656Y373267D01*
X409773Y373296D01*
X409888Y373329D01*
X410002Y373366D01*
X410115Y373406D01*
X410227Y373450D01*
X410337Y373498D01*
X410446Y373549D01*
X410553Y373604D01*
X410658Y373663D01*
X410760Y373724D01*
X410861Y373789D01*
X410960Y373858D01*
X411057Y373929D01*
X411151Y374004D01*
X411242Y374081D01*
X411331Y374162D01*
X411417Y374246D01*
X411501Y374332D01*
X411582Y374421D01*
X411659Y374512D01*
X411734Y374606D01*
X411805Y374703D01*
X411874Y374802D01*
X411939Y374903D01*
X412000Y375006D01*
X412059Y375110D01*
X412114Y375217D01*
X412165Y375326D01*
X412213Y375436D01*
X412257Y375548D01*
X412297Y375661D01*
X412334Y375775D01*
X412367Y375890D01*
X412396Y376007D01*
X412422Y376124D01*
X412443Y376242D01*
X412461Y376361D01*
X412474Y376480D01*
X412484Y376600D01*
X412490Y376720D01*
X412492Y376840D01*
X412490Y376960D01*
X412484Y377080D01*
X412474Y377200D01*
X412461Y377319D01*
X412443Y377438D01*
X412422Y377556D01*
X412396Y377673D01*
X412367Y377790D01*
X412334Y377905D01*
X412297Y378019D01*
X412257Y378132D01*
X412213Y378244D01*
X412165Y378354D01*
X412114Y378463D01*
X412059Y378570D01*
X412000Y378675D01*
X411939Y378777D01*
X411874Y378878D01*
X411805Y378977D01*
X411734Y379074D01*
X411659Y379168D01*
X411582Y379259D01*
X411501Y379348D01*
X411417Y379434D01*
X411331Y379518D01*
X411242Y379599D01*
X411151Y379676D01*
X411057Y379751D01*
X410960Y379822D01*
X410861Y379891D01*
X410760Y379956D01*
X410657Y380017D01*
X410553Y380076D01*
X410446Y380131D01*
X410337Y380182D01*
X410227Y380230D01*
X410115Y380274D01*
X410002Y380314D01*
X409888Y380351D01*
X409773Y380384D01*
X409656Y380413D01*
X409539Y380439D01*
X409421Y380460D01*
X409302Y380478D01*
X409183Y380491D01*
X409063Y380501D01*
X408943Y380507D01*
X408823Y380509D01*
X399284Y380509D01*
X399284Y386946D02*
X412492Y386946D01*
X406622Y391348D02*
X399284Y386946D01*
X406622Y391348D02*
X399284Y395751D01*
X412492Y395751D01*
X407356Y404147D02*
X407356Y407449D01*
X407356Y404147D02*
X407358Y404047D01*
X407364Y403948D01*
X407373Y403849D01*
X407387Y403750D01*
X407404Y403652D01*
X407425Y403555D01*
X407450Y403458D01*
X407479Y403363D01*
X407511Y403269D01*
X407547Y403176D01*
X407586Y403084D01*
X407629Y402994D01*
X407676Y402906D01*
X407725Y402820D01*
X407778Y402736D01*
X407835Y402654D01*
X407894Y402574D01*
X407957Y402496D01*
X408022Y402421D01*
X408091Y402349D01*
X408162Y402279D01*
X408235Y402212D01*
X408312Y402148D01*
X408390Y402087D01*
X408472Y402029D01*
X408555Y401975D01*
X408640Y401923D01*
X408727Y401875D01*
X408816Y401830D01*
X408907Y401789D01*
X408999Y401751D01*
X409093Y401717D01*
X409187Y401687D01*
X409283Y401660D01*
X409380Y401637D01*
X409478Y401618D01*
X409576Y401603D01*
X409675Y401591D01*
X409775Y401583D01*
X409874Y401579D01*
X409974Y401579D01*
X410073Y401583D01*
X410173Y401591D01*
X410272Y401603D01*
X410370Y401618D01*
X410468Y401637D01*
X410565Y401660D01*
X410661Y401687D01*
X410755Y401717D01*
X410849Y401751D01*
X410941Y401789D01*
X411032Y401830D01*
X411121Y401875D01*
X411208Y401923D01*
X411293Y401975D01*
X411376Y402029D01*
X411458Y402087D01*
X411536Y402148D01*
X411613Y402212D01*
X411686Y402279D01*
X411757Y402349D01*
X411826Y402421D01*
X411891Y402496D01*
X411954Y402574D01*
X412013Y402654D01*
X412070Y402736D01*
X412123Y402820D01*
X412172Y402906D01*
X412219Y402994D01*
X412262Y403084D01*
X412301Y403176D01*
X412337Y403269D01*
X412369Y403363D01*
X412398Y403458D01*
X412423Y403555D01*
X412444Y403652D01*
X412461Y403750D01*
X412475Y403849D01*
X412484Y403948D01*
X412490Y404047D01*
X412492Y404147D01*
X412492Y407449D01*
X405888Y407449D01*
X405797Y407447D01*
X405706Y407441D01*
X405616Y407432D01*
X405526Y407419D01*
X405436Y407402D01*
X405348Y407382D01*
X405260Y407357D01*
X405173Y407330D01*
X405088Y407298D01*
X405004Y407264D01*
X404921Y407225D01*
X404840Y407184D01*
X404761Y407139D01*
X404684Y407091D01*
X404609Y407039D01*
X404536Y406985D01*
X404465Y406928D01*
X404397Y406867D01*
X404332Y406804D01*
X404269Y406739D01*
X404208Y406671D01*
X404151Y406600D01*
X404097Y406527D01*
X404045Y406452D01*
X403997Y406375D01*
X403952Y406296D01*
X403911Y406215D01*
X403872Y406132D01*
X403838Y406048D01*
X403806Y405963D01*
X403779Y405876D01*
X403754Y405788D01*
X403734Y405700D01*
X403717Y405610D01*
X403704Y405520D01*
X403695Y405430D01*
X403689Y405339D01*
X403687Y405248D01*
X403687Y402313D01*
X407356Y414263D02*
X408823Y417932D01*
X407356Y414263D02*
X407322Y414184D01*
X407284Y414106D01*
X407243Y414029D01*
X407199Y413955D01*
X407151Y413883D01*
X407100Y413813D01*
X407046Y413746D01*
X406989Y413681D01*
X406928Y413618D01*
X406866Y413559D01*
X406800Y413502D01*
X406732Y413449D01*
X406662Y413398D01*
X406589Y413351D01*
X406514Y413307D01*
X406438Y413267D01*
X406359Y413230D01*
X406280Y413197D01*
X406198Y413167D01*
X406116Y413141D01*
X406032Y413119D01*
X405947Y413101D01*
X405862Y413087D01*
X405776Y413076D01*
X405690Y413070D01*
X405603Y413067D01*
X405516Y413068D01*
X405430Y413074D01*
X405344Y413083D01*
X405258Y413096D01*
X405173Y413113D01*
X405089Y413134D01*
X405006Y413158D01*
X404925Y413187D01*
X404844Y413219D01*
X404765Y413254D01*
X404688Y413294D01*
X404613Y413336D01*
X404540Y413383D01*
X404468Y413432D01*
X404400Y413484D01*
X404333Y413540D01*
X404270Y413599D01*
X404209Y413660D01*
X404150Y413724D01*
X404095Y413791D01*
X404043Y413860D01*
X403994Y413932D01*
X403949Y414005D01*
X403907Y414081D01*
X403868Y414158D01*
X403833Y414237D01*
X403801Y414318D01*
X403773Y414400D01*
X403749Y414483D01*
X403729Y414567D01*
X403713Y414652D01*
X403700Y414738D01*
X403692Y414824D01*
X403687Y414911D01*
X403686Y414997D01*
X403687Y414997D02*
X403692Y415197D01*
X403702Y415397D01*
X403717Y415597D01*
X403737Y415797D01*
X403761Y415996D01*
X403791Y416194D01*
X403825Y416391D01*
X403863Y416588D01*
X403907Y416783D01*
X403955Y416978D01*
X404008Y417171D01*
X404065Y417363D01*
X404127Y417554D01*
X404194Y417743D01*
X404265Y417930D01*
X404341Y418115D01*
X404421Y418299D01*
X408823Y417933D02*
X408857Y418012D01*
X408895Y418090D01*
X408936Y418167D01*
X408980Y418241D01*
X409028Y418313D01*
X409079Y418383D01*
X409133Y418450D01*
X409190Y418515D01*
X409251Y418578D01*
X409313Y418637D01*
X409379Y418694D01*
X409447Y418747D01*
X409517Y418798D01*
X409590Y418845D01*
X409665Y418889D01*
X409741Y418929D01*
X409820Y418966D01*
X409899Y418999D01*
X409981Y419029D01*
X410063Y419055D01*
X410147Y419077D01*
X410232Y419095D01*
X410317Y419109D01*
X410403Y419120D01*
X410489Y419126D01*
X410576Y419129D01*
X410663Y419128D01*
X410749Y419122D01*
X410835Y419113D01*
X410921Y419100D01*
X411006Y419083D01*
X411090Y419062D01*
X411173Y419038D01*
X411254Y419009D01*
X411335Y418977D01*
X411414Y418942D01*
X411491Y418902D01*
X411566Y418860D01*
X411639Y418813D01*
X411711Y418764D01*
X411779Y418712D01*
X411846Y418656D01*
X411909Y418597D01*
X411970Y418536D01*
X412029Y418472D01*
X412084Y418405D01*
X412136Y418336D01*
X412185Y418264D01*
X412230Y418191D01*
X412272Y418115D01*
X412311Y418038D01*
X412346Y417959D01*
X412378Y417878D01*
X412406Y417796D01*
X412430Y417713D01*
X412450Y417629D01*
X412466Y417544D01*
X412479Y417458D01*
X412487Y417372D01*
X412492Y417285D01*
X412493Y417199D01*
X412492Y417198D02*
X412484Y416904D01*
X412469Y416610D01*
X412448Y416316D01*
X412419Y416023D01*
X412384Y415731D01*
X412341Y415440D01*
X412292Y415150D01*
X412236Y414861D01*
X412173Y414573D01*
X412104Y414287D01*
X412027Y414003D01*
X411944Y413721D01*
X411854Y413441D01*
X411758Y413162D01*
X407356Y425358D02*
X408823Y429027D01*
X407356Y425358D02*
X407322Y425279D01*
X407284Y425201D01*
X407243Y425124D01*
X407199Y425050D01*
X407151Y424978D01*
X407100Y424908D01*
X407046Y424841D01*
X406989Y424776D01*
X406928Y424713D01*
X406866Y424654D01*
X406800Y424597D01*
X406732Y424544D01*
X406662Y424493D01*
X406589Y424446D01*
X406514Y424402D01*
X406438Y424362D01*
X406359Y424325D01*
X406280Y424292D01*
X406198Y424262D01*
X406116Y424236D01*
X406032Y424214D01*
X405947Y424196D01*
X405862Y424182D01*
X405776Y424171D01*
X405690Y424165D01*
X405603Y424162D01*
X405516Y424163D01*
X405430Y424169D01*
X405344Y424178D01*
X405258Y424191D01*
X405173Y424208D01*
X405089Y424229D01*
X405006Y424253D01*
X404925Y424282D01*
X404844Y424314D01*
X404765Y424349D01*
X404688Y424389D01*
X404613Y424431D01*
X404540Y424478D01*
X404468Y424527D01*
X404400Y424579D01*
X404333Y424635D01*
X404270Y424694D01*
X404209Y424755D01*
X404150Y424819D01*
X404095Y424886D01*
X404043Y424955D01*
X403994Y425027D01*
X403949Y425100D01*
X403907Y425176D01*
X403868Y425253D01*
X403833Y425332D01*
X403801Y425413D01*
X403773Y425495D01*
X403749Y425578D01*
X403729Y425662D01*
X403713Y425747D01*
X403700Y425833D01*
X403692Y425919D01*
X403687Y426006D01*
X403686Y426092D01*
X403687Y426092D02*
X403692Y426292D01*
X403702Y426492D01*
X403717Y426692D01*
X403737Y426892D01*
X403761Y427091D01*
X403791Y427289D01*
X403825Y427486D01*
X403863Y427683D01*
X403907Y427878D01*
X403955Y428073D01*
X404008Y428266D01*
X404065Y428458D01*
X404127Y428649D01*
X404194Y428838D01*
X404265Y429025D01*
X404341Y429210D01*
X404421Y429394D01*
X408823Y429027D02*
X408857Y429106D01*
X408895Y429184D01*
X408936Y429261D01*
X408980Y429335D01*
X409028Y429407D01*
X409079Y429477D01*
X409133Y429544D01*
X409190Y429609D01*
X409251Y429672D01*
X409313Y429731D01*
X409379Y429788D01*
X409447Y429841D01*
X409517Y429892D01*
X409590Y429939D01*
X409665Y429983D01*
X409741Y430023D01*
X409820Y430060D01*
X409899Y430093D01*
X409981Y430123D01*
X410063Y430149D01*
X410147Y430171D01*
X410232Y430189D01*
X410317Y430203D01*
X410403Y430214D01*
X410489Y430220D01*
X410576Y430223D01*
X410663Y430222D01*
X410749Y430216D01*
X410835Y430207D01*
X410921Y430194D01*
X411006Y430177D01*
X411090Y430156D01*
X411173Y430132D01*
X411254Y430103D01*
X411335Y430071D01*
X411414Y430036D01*
X411491Y429996D01*
X411566Y429954D01*
X411639Y429907D01*
X411711Y429858D01*
X411779Y429806D01*
X411846Y429750D01*
X411909Y429691D01*
X411970Y429630D01*
X412029Y429566D01*
X412084Y429499D01*
X412136Y429430D01*
X412185Y429358D01*
X412230Y429285D01*
X412272Y429209D01*
X412311Y429132D01*
X412346Y429053D01*
X412378Y428972D01*
X412406Y428890D01*
X412430Y428807D01*
X412450Y428723D01*
X412466Y428638D01*
X412479Y428552D01*
X412487Y428466D01*
X412492Y428379D01*
X412493Y428293D01*
X412492Y428293D02*
X412484Y427999D01*
X412469Y427705D01*
X412448Y427411D01*
X412419Y427118D01*
X412384Y426826D01*
X412341Y426535D01*
X412292Y426245D01*
X412236Y425956D01*
X412173Y425668D01*
X412104Y425382D01*
X412027Y425098D01*
X411944Y424816D01*
X411854Y424536D01*
X411758Y424257D01*
X412492Y435899D02*
X399284Y435899D01*
X399284Y439567D01*
X399286Y439687D01*
X399292Y439807D01*
X399302Y439927D01*
X399315Y440046D01*
X399333Y440165D01*
X399354Y440283D01*
X399380Y440400D01*
X399409Y440517D01*
X399442Y440632D01*
X399479Y440746D01*
X399519Y440859D01*
X399563Y440971D01*
X399611Y441081D01*
X399662Y441190D01*
X399717Y441297D01*
X399776Y441402D01*
X399837Y441504D01*
X399902Y441605D01*
X399971Y441704D01*
X400042Y441801D01*
X400117Y441895D01*
X400195Y441986D01*
X400275Y442075D01*
X400359Y442161D01*
X400445Y442245D01*
X400534Y442326D01*
X400625Y442403D01*
X400719Y442478D01*
X400816Y442549D01*
X400915Y442618D01*
X401016Y442683D01*
X401119Y442744D01*
X401223Y442803D01*
X401330Y442858D01*
X401439Y442909D01*
X401549Y442957D01*
X401661Y443001D01*
X401774Y443041D01*
X401888Y443078D01*
X402003Y443111D01*
X402120Y443140D01*
X402237Y443166D01*
X402355Y443187D01*
X402474Y443205D01*
X402593Y443218D01*
X402713Y443228D01*
X402833Y443234D01*
X402953Y443236D01*
X408823Y443236D01*
X408943Y443234D01*
X409063Y443228D01*
X409183Y443218D01*
X409302Y443205D01*
X409421Y443187D01*
X409539Y443166D01*
X409656Y443140D01*
X409773Y443111D01*
X409888Y443078D01*
X410002Y443041D01*
X410115Y443001D01*
X410227Y442957D01*
X410337Y442909D01*
X410446Y442858D01*
X410553Y442803D01*
X410658Y442744D01*
X410760Y442683D01*
X410861Y442618D01*
X410960Y442549D01*
X411057Y442478D01*
X411151Y442403D01*
X411242Y442326D01*
X411331Y442245D01*
X411417Y442161D01*
X411501Y442075D01*
X411582Y441986D01*
X411659Y441895D01*
X411734Y441801D01*
X411805Y441704D01*
X411874Y441605D01*
X411939Y441504D01*
X412000Y441402D01*
X412059Y441297D01*
X412114Y441190D01*
X412165Y441081D01*
X412213Y440971D01*
X412257Y440859D01*
X412297Y440746D01*
X412334Y440632D01*
X412367Y440517D01*
X412396Y440400D01*
X412422Y440283D01*
X412443Y440165D01*
X412461Y440046D01*
X412474Y439927D01*
X412484Y439807D01*
X412490Y439687D01*
X412492Y439567D01*
X412492Y435899D01*
D11*
X433619Y220558D02*
X433619Y216381D01*
X424221Y216381D01*
X424221Y220558D01*
X428398Y219514D02*
X428398Y216381D01*
X433619Y226046D02*
X433619Y228135D01*
X433619Y226046D02*
X433617Y225957D01*
X433611Y225869D01*
X433602Y225781D01*
X433589Y225693D01*
X433572Y225606D01*
X433552Y225520D01*
X433527Y225435D01*
X433500Y225350D01*
X433468Y225267D01*
X433434Y225186D01*
X433395Y225106D01*
X433354Y225028D01*
X433309Y224951D01*
X433261Y224877D01*
X433210Y224804D01*
X433156Y224734D01*
X433098Y224667D01*
X433038Y224601D01*
X432976Y224539D01*
X432910Y224479D01*
X432843Y224421D01*
X432773Y224367D01*
X432700Y224316D01*
X432626Y224268D01*
X432549Y224223D01*
X432471Y224182D01*
X432391Y224143D01*
X432310Y224109D01*
X432227Y224077D01*
X432142Y224050D01*
X432057Y224025D01*
X431971Y224005D01*
X431884Y223988D01*
X431796Y223975D01*
X431708Y223966D01*
X431620Y223960D01*
X431531Y223958D01*
X426309Y223958D01*
X426309Y223957D02*
X426218Y223959D01*
X426127Y223965D01*
X426036Y223975D01*
X425946Y223989D01*
X425857Y224007D01*
X425768Y224028D01*
X425681Y224054D01*
X425595Y224083D01*
X425510Y224116D01*
X425426Y224153D01*
X425344Y224193D01*
X425265Y224237D01*
X425187Y224284D01*
X425111Y224335D01*
X425037Y224389D01*
X424966Y224446D01*
X424898Y224506D01*
X424832Y224569D01*
X424769Y224635D01*
X424709Y224703D01*
X424652Y224774D01*
X424598Y224848D01*
X424547Y224924D01*
X424500Y225001D01*
X424456Y225081D01*
X424416Y225163D01*
X424379Y225247D01*
X424346Y225331D01*
X424317Y225418D01*
X424291Y225505D01*
X424270Y225594D01*
X424252Y225683D01*
X424238Y225773D01*
X424228Y225864D01*
X424222Y225955D01*
X424220Y226046D01*
X424221Y226046D02*
X424221Y228135D01*
X433619Y231926D02*
X433619Y236103D01*
X433619Y231926D02*
X424221Y231926D01*
X424221Y236103D01*
X428398Y235058D02*
X428398Y231926D01*
X433619Y244405D02*
X433619Y247015D01*
X433617Y247116D01*
X433611Y247217D01*
X433601Y247318D01*
X433588Y247418D01*
X433570Y247518D01*
X433549Y247617D01*
X433523Y247715D01*
X433494Y247812D01*
X433462Y247908D01*
X433425Y248002D01*
X433385Y248095D01*
X433341Y248187D01*
X433294Y248276D01*
X433243Y248364D01*
X433189Y248450D01*
X433132Y248533D01*
X433072Y248615D01*
X433008Y248693D01*
X432942Y248770D01*
X432872Y248843D01*
X432800Y248914D01*
X432725Y248982D01*
X432647Y249047D01*
X432567Y249109D01*
X432485Y249168D01*
X432400Y249224D01*
X432314Y249276D01*
X432225Y249325D01*
X432134Y249371D01*
X432042Y249412D01*
X431948Y249451D01*
X431853Y249485D01*
X431757Y249516D01*
X431659Y249543D01*
X431561Y249567D01*
X431461Y249586D01*
X431361Y249602D01*
X431261Y249614D01*
X431160Y249622D01*
X431059Y249626D01*
X430957Y249626D01*
X430856Y249622D01*
X430755Y249614D01*
X430655Y249602D01*
X430555Y249586D01*
X430455Y249567D01*
X430357Y249543D01*
X430259Y249516D01*
X430163Y249485D01*
X430068Y249451D01*
X429974Y249412D01*
X429882Y249371D01*
X429791Y249325D01*
X429703Y249276D01*
X429616Y249224D01*
X429531Y249168D01*
X429449Y249109D01*
X429369Y249047D01*
X429291Y248982D01*
X429216Y248914D01*
X429144Y248843D01*
X429074Y248770D01*
X429008Y248693D01*
X428944Y248615D01*
X428884Y248533D01*
X428827Y248450D01*
X428773Y248364D01*
X428722Y248276D01*
X428675Y248187D01*
X428631Y248095D01*
X428591Y248002D01*
X428554Y247908D01*
X428522Y247812D01*
X428493Y247715D01*
X428467Y247617D01*
X428446Y247518D01*
X428428Y247418D01*
X428415Y247318D01*
X428405Y247217D01*
X428399Y247116D01*
X428397Y247015D01*
X424221Y247538D02*
X424221Y244405D01*
X424221Y247538D02*
X424223Y247628D01*
X424229Y247717D01*
X424238Y247807D01*
X424252Y247896D01*
X424269Y247984D01*
X424290Y248071D01*
X424315Y248158D01*
X424344Y248243D01*
X424376Y248327D01*
X424411Y248409D01*
X424451Y248490D01*
X424493Y248569D01*
X424539Y248646D01*
X424589Y248721D01*
X424641Y248794D01*
X424697Y248865D01*
X424755Y248933D01*
X424817Y248998D01*
X424881Y249061D01*
X424948Y249121D01*
X425017Y249178D01*
X425089Y249232D01*
X425163Y249283D01*
X425239Y249331D01*
X425317Y249375D01*
X425397Y249416D01*
X425479Y249454D01*
X425562Y249488D01*
X425647Y249518D01*
X425733Y249545D01*
X425819Y249568D01*
X425907Y249587D01*
X425996Y249602D01*
X426085Y249614D01*
X426174Y249622D01*
X426264Y249626D01*
X426354Y249626D01*
X426444Y249622D01*
X426533Y249614D01*
X426622Y249602D01*
X426711Y249587D01*
X426799Y249568D01*
X426885Y249545D01*
X426971Y249518D01*
X427056Y249488D01*
X427139Y249454D01*
X427221Y249416D01*
X427301Y249375D01*
X427379Y249331D01*
X427455Y249283D01*
X427529Y249232D01*
X427601Y249178D01*
X427670Y249121D01*
X427737Y249061D01*
X427801Y248998D01*
X427863Y248933D01*
X427921Y248865D01*
X427977Y248794D01*
X428029Y248721D01*
X428079Y248646D01*
X428125Y248569D01*
X428167Y248490D01*
X428207Y248409D01*
X428242Y248327D01*
X428274Y248243D01*
X428303Y248158D01*
X428328Y248071D01*
X428349Y247984D01*
X428366Y247896D01*
X428380Y247807D01*
X428389Y247717D01*
X428395Y247628D01*
X428397Y247538D01*
X428398Y247538D02*
X428398Y245449D01*
X431008Y253548D02*
X430907Y253550D01*
X430806Y253556D01*
X430705Y253566D01*
X430605Y253579D01*
X430505Y253597D01*
X430406Y253618D01*
X430308Y253644D01*
X430211Y253673D01*
X430115Y253705D01*
X430021Y253742D01*
X429928Y253782D01*
X429836Y253826D01*
X429747Y253873D01*
X429659Y253924D01*
X429573Y253978D01*
X429490Y254035D01*
X429408Y254095D01*
X429330Y254159D01*
X429253Y254225D01*
X429180Y254295D01*
X429109Y254367D01*
X429041Y254442D01*
X428976Y254520D01*
X428914Y254600D01*
X428855Y254682D01*
X428799Y254767D01*
X428747Y254854D01*
X428698Y254942D01*
X428652Y255033D01*
X428611Y255125D01*
X428572Y255219D01*
X428538Y255314D01*
X428507Y255410D01*
X428480Y255508D01*
X428456Y255606D01*
X428437Y255706D01*
X428421Y255806D01*
X428409Y255906D01*
X428401Y256007D01*
X428397Y256108D01*
X428397Y256210D01*
X428401Y256311D01*
X428409Y256412D01*
X428421Y256512D01*
X428437Y256612D01*
X428456Y256712D01*
X428480Y256810D01*
X428507Y256908D01*
X428538Y257004D01*
X428572Y257099D01*
X428611Y257193D01*
X428652Y257285D01*
X428698Y257376D01*
X428747Y257465D01*
X428799Y257551D01*
X428855Y257636D01*
X428914Y257718D01*
X428976Y257798D01*
X429041Y257876D01*
X429109Y257951D01*
X429180Y258023D01*
X429253Y258093D01*
X429330Y258159D01*
X429408Y258223D01*
X429490Y258283D01*
X429573Y258340D01*
X429659Y258394D01*
X429747Y258445D01*
X429836Y258492D01*
X429928Y258536D01*
X430021Y258576D01*
X430115Y258613D01*
X430211Y258645D01*
X430308Y258674D01*
X430406Y258700D01*
X430505Y258721D01*
X430605Y258739D01*
X430705Y258752D01*
X430806Y258762D01*
X430907Y258768D01*
X431008Y258770D01*
X431109Y258768D01*
X431210Y258762D01*
X431311Y258752D01*
X431411Y258739D01*
X431511Y258721D01*
X431610Y258700D01*
X431708Y258674D01*
X431805Y258645D01*
X431901Y258613D01*
X431995Y258576D01*
X432088Y258536D01*
X432180Y258492D01*
X432269Y258445D01*
X432357Y258394D01*
X432443Y258340D01*
X432526Y258283D01*
X432608Y258223D01*
X432686Y258159D01*
X432763Y258093D01*
X432836Y258023D01*
X432907Y257951D01*
X432975Y257876D01*
X433040Y257798D01*
X433102Y257718D01*
X433161Y257636D01*
X433217Y257551D01*
X433269Y257464D01*
X433318Y257376D01*
X433364Y257285D01*
X433405Y257193D01*
X433444Y257099D01*
X433478Y257004D01*
X433509Y256908D01*
X433536Y256810D01*
X433560Y256712D01*
X433579Y256612D01*
X433595Y256512D01*
X433607Y256412D01*
X433615Y256311D01*
X433619Y256210D01*
X433619Y256108D01*
X433615Y256007D01*
X433607Y255906D01*
X433595Y255806D01*
X433579Y255706D01*
X433560Y255606D01*
X433536Y255508D01*
X433509Y255410D01*
X433478Y255314D01*
X433444Y255219D01*
X433405Y255125D01*
X433364Y255033D01*
X433318Y254942D01*
X433269Y254853D01*
X433217Y254767D01*
X433161Y254682D01*
X433102Y254600D01*
X433040Y254520D01*
X432975Y254442D01*
X432907Y254367D01*
X432836Y254295D01*
X432763Y254225D01*
X432686Y254159D01*
X432608Y254095D01*
X432526Y254035D01*
X432443Y253978D01*
X432357Y253924D01*
X432269Y253873D01*
X432180Y253826D01*
X432088Y253782D01*
X431995Y253742D01*
X431901Y253705D01*
X431805Y253673D01*
X431708Y253644D01*
X431610Y253618D01*
X431511Y253597D01*
X431411Y253579D01*
X431311Y253566D01*
X431210Y253556D01*
X431109Y253550D01*
X431008Y253548D01*
X426309Y254071D02*
X426219Y254073D01*
X426130Y254079D01*
X426040Y254088D01*
X425951Y254102D01*
X425863Y254119D01*
X425776Y254140D01*
X425689Y254165D01*
X425604Y254194D01*
X425520Y254226D01*
X425438Y254261D01*
X425357Y254301D01*
X425278Y254343D01*
X425201Y254389D01*
X425126Y254439D01*
X425053Y254491D01*
X424982Y254547D01*
X424914Y254605D01*
X424849Y254667D01*
X424786Y254731D01*
X424726Y254798D01*
X424669Y254867D01*
X424615Y254939D01*
X424564Y255013D01*
X424516Y255089D01*
X424472Y255167D01*
X424431Y255247D01*
X424393Y255329D01*
X424359Y255412D01*
X424329Y255497D01*
X424302Y255583D01*
X424279Y255669D01*
X424260Y255757D01*
X424245Y255846D01*
X424233Y255935D01*
X424225Y256024D01*
X424221Y256114D01*
X424221Y256204D01*
X424225Y256294D01*
X424233Y256383D01*
X424245Y256472D01*
X424260Y256561D01*
X424279Y256649D01*
X424302Y256735D01*
X424329Y256821D01*
X424359Y256906D01*
X424393Y256989D01*
X424431Y257071D01*
X424472Y257151D01*
X424516Y257229D01*
X424564Y257305D01*
X424615Y257379D01*
X424669Y257451D01*
X424726Y257520D01*
X424786Y257587D01*
X424849Y257651D01*
X424914Y257713D01*
X424982Y257771D01*
X425053Y257827D01*
X425126Y257879D01*
X425201Y257929D01*
X425278Y257975D01*
X425357Y258017D01*
X425438Y258057D01*
X425520Y258092D01*
X425604Y258124D01*
X425689Y258153D01*
X425776Y258178D01*
X425863Y258199D01*
X425951Y258216D01*
X426040Y258230D01*
X426130Y258239D01*
X426219Y258245D01*
X426309Y258247D01*
X426399Y258245D01*
X426488Y258239D01*
X426578Y258230D01*
X426667Y258216D01*
X426755Y258199D01*
X426842Y258178D01*
X426929Y258153D01*
X427014Y258124D01*
X427098Y258092D01*
X427180Y258057D01*
X427261Y258017D01*
X427340Y257975D01*
X427417Y257929D01*
X427492Y257879D01*
X427565Y257827D01*
X427636Y257771D01*
X427704Y257713D01*
X427769Y257651D01*
X427832Y257587D01*
X427892Y257520D01*
X427949Y257451D01*
X428003Y257379D01*
X428054Y257305D01*
X428102Y257229D01*
X428146Y257151D01*
X428187Y257071D01*
X428225Y256989D01*
X428259Y256906D01*
X428289Y256821D01*
X428316Y256735D01*
X428339Y256649D01*
X428358Y256561D01*
X428373Y256472D01*
X428385Y256383D01*
X428393Y256294D01*
X428397Y256204D01*
X428397Y256114D01*
X428393Y256024D01*
X428385Y255935D01*
X428373Y255846D01*
X428358Y255757D01*
X428339Y255669D01*
X428316Y255583D01*
X428289Y255497D01*
X428259Y255412D01*
X428225Y255329D01*
X428187Y255247D01*
X428146Y255167D01*
X428102Y255089D01*
X428054Y255013D01*
X428003Y254939D01*
X427949Y254867D01*
X427892Y254798D01*
X427832Y254731D01*
X427769Y254667D01*
X427704Y254605D01*
X427636Y254547D01*
X427565Y254491D01*
X427492Y254439D01*
X427417Y254389D01*
X427340Y254343D01*
X427261Y254301D01*
X427180Y254261D01*
X427098Y254226D01*
X427014Y254194D01*
X426929Y254165D01*
X426842Y254140D01*
X426755Y254119D01*
X426667Y254102D01*
X426578Y254088D01*
X426488Y254079D01*
X426399Y254073D01*
X426309Y254071D01*
X431008Y262692D02*
X430907Y262694D01*
X430806Y262700D01*
X430705Y262710D01*
X430605Y262723D01*
X430505Y262741D01*
X430406Y262762D01*
X430308Y262788D01*
X430211Y262817D01*
X430115Y262849D01*
X430021Y262886D01*
X429928Y262926D01*
X429836Y262970D01*
X429747Y263017D01*
X429659Y263068D01*
X429573Y263122D01*
X429490Y263179D01*
X429408Y263239D01*
X429330Y263303D01*
X429253Y263369D01*
X429180Y263439D01*
X429109Y263511D01*
X429041Y263586D01*
X428976Y263664D01*
X428914Y263744D01*
X428855Y263826D01*
X428799Y263911D01*
X428747Y263998D01*
X428698Y264086D01*
X428652Y264177D01*
X428611Y264269D01*
X428572Y264363D01*
X428538Y264458D01*
X428507Y264554D01*
X428480Y264652D01*
X428456Y264750D01*
X428437Y264850D01*
X428421Y264950D01*
X428409Y265050D01*
X428401Y265151D01*
X428397Y265252D01*
X428397Y265354D01*
X428401Y265455D01*
X428409Y265556D01*
X428421Y265656D01*
X428437Y265756D01*
X428456Y265856D01*
X428480Y265954D01*
X428507Y266052D01*
X428538Y266148D01*
X428572Y266243D01*
X428611Y266337D01*
X428652Y266429D01*
X428698Y266520D01*
X428747Y266609D01*
X428799Y266695D01*
X428855Y266780D01*
X428914Y266862D01*
X428976Y266942D01*
X429041Y267020D01*
X429109Y267095D01*
X429180Y267167D01*
X429253Y267237D01*
X429330Y267303D01*
X429408Y267367D01*
X429490Y267427D01*
X429573Y267484D01*
X429659Y267538D01*
X429747Y267589D01*
X429836Y267636D01*
X429928Y267680D01*
X430021Y267720D01*
X430115Y267757D01*
X430211Y267789D01*
X430308Y267818D01*
X430406Y267844D01*
X430505Y267865D01*
X430605Y267883D01*
X430705Y267896D01*
X430806Y267906D01*
X430907Y267912D01*
X431008Y267914D01*
X431109Y267912D01*
X431210Y267906D01*
X431311Y267896D01*
X431411Y267883D01*
X431511Y267865D01*
X431610Y267844D01*
X431708Y267818D01*
X431805Y267789D01*
X431901Y267757D01*
X431995Y267720D01*
X432088Y267680D01*
X432180Y267636D01*
X432269Y267589D01*
X432357Y267538D01*
X432443Y267484D01*
X432526Y267427D01*
X432608Y267367D01*
X432686Y267303D01*
X432763Y267237D01*
X432836Y267167D01*
X432907Y267095D01*
X432975Y267020D01*
X433040Y266942D01*
X433102Y266862D01*
X433161Y266780D01*
X433217Y266695D01*
X433269Y266608D01*
X433318Y266520D01*
X433364Y266429D01*
X433405Y266337D01*
X433444Y266243D01*
X433478Y266148D01*
X433509Y266052D01*
X433536Y265954D01*
X433560Y265856D01*
X433579Y265756D01*
X433595Y265656D01*
X433607Y265556D01*
X433615Y265455D01*
X433619Y265354D01*
X433619Y265252D01*
X433615Y265151D01*
X433607Y265050D01*
X433595Y264950D01*
X433579Y264850D01*
X433560Y264750D01*
X433536Y264652D01*
X433509Y264554D01*
X433478Y264458D01*
X433444Y264363D01*
X433405Y264269D01*
X433364Y264177D01*
X433318Y264086D01*
X433269Y263998D01*
X433217Y263911D01*
X433161Y263826D01*
X433102Y263744D01*
X433040Y263664D01*
X432975Y263586D01*
X432907Y263511D01*
X432836Y263439D01*
X432763Y263369D01*
X432686Y263303D01*
X432608Y263239D01*
X432526Y263179D01*
X432443Y263122D01*
X432357Y263068D01*
X432269Y263017D01*
X432180Y262970D01*
X432088Y262926D01*
X431995Y262886D01*
X431901Y262849D01*
X431805Y262817D01*
X431708Y262788D01*
X431610Y262762D01*
X431511Y262741D01*
X431411Y262723D01*
X431311Y262710D01*
X431210Y262700D01*
X431109Y262694D01*
X431008Y262692D01*
X426309Y263215D02*
X426219Y263217D01*
X426130Y263223D01*
X426040Y263232D01*
X425951Y263246D01*
X425863Y263263D01*
X425776Y263284D01*
X425689Y263309D01*
X425604Y263338D01*
X425520Y263370D01*
X425438Y263405D01*
X425357Y263445D01*
X425278Y263487D01*
X425201Y263533D01*
X425126Y263583D01*
X425053Y263635D01*
X424982Y263691D01*
X424914Y263749D01*
X424849Y263811D01*
X424786Y263875D01*
X424726Y263942D01*
X424669Y264011D01*
X424615Y264083D01*
X424564Y264157D01*
X424516Y264233D01*
X424472Y264311D01*
X424431Y264391D01*
X424393Y264473D01*
X424359Y264556D01*
X424329Y264641D01*
X424302Y264727D01*
X424279Y264813D01*
X424260Y264901D01*
X424245Y264990D01*
X424233Y265079D01*
X424225Y265168D01*
X424221Y265258D01*
X424221Y265348D01*
X424225Y265438D01*
X424233Y265527D01*
X424245Y265616D01*
X424260Y265705D01*
X424279Y265793D01*
X424302Y265879D01*
X424329Y265965D01*
X424359Y266050D01*
X424393Y266133D01*
X424431Y266215D01*
X424472Y266295D01*
X424516Y266373D01*
X424564Y266449D01*
X424615Y266523D01*
X424669Y266595D01*
X424726Y266664D01*
X424786Y266731D01*
X424849Y266795D01*
X424914Y266857D01*
X424982Y266915D01*
X425053Y266971D01*
X425126Y267023D01*
X425201Y267073D01*
X425278Y267119D01*
X425357Y267161D01*
X425438Y267201D01*
X425520Y267236D01*
X425604Y267268D01*
X425689Y267297D01*
X425776Y267322D01*
X425863Y267343D01*
X425951Y267360D01*
X426040Y267374D01*
X426130Y267383D01*
X426219Y267389D01*
X426309Y267391D01*
X426399Y267389D01*
X426488Y267383D01*
X426578Y267374D01*
X426667Y267360D01*
X426755Y267343D01*
X426842Y267322D01*
X426929Y267297D01*
X427014Y267268D01*
X427098Y267236D01*
X427180Y267201D01*
X427261Y267161D01*
X427340Y267119D01*
X427417Y267073D01*
X427492Y267023D01*
X427565Y266971D01*
X427636Y266915D01*
X427704Y266857D01*
X427769Y266795D01*
X427832Y266731D01*
X427892Y266664D01*
X427949Y266595D01*
X428003Y266523D01*
X428054Y266449D01*
X428102Y266373D01*
X428146Y266295D01*
X428187Y266215D01*
X428225Y266133D01*
X428259Y266050D01*
X428289Y265965D01*
X428316Y265879D01*
X428339Y265793D01*
X428358Y265705D01*
X428373Y265616D01*
X428385Y265527D01*
X428393Y265438D01*
X428397Y265348D01*
X428397Y265258D01*
X428393Y265168D01*
X428385Y265079D01*
X428373Y264990D01*
X428358Y264901D01*
X428339Y264813D01*
X428316Y264727D01*
X428289Y264641D01*
X428259Y264556D01*
X428225Y264473D01*
X428187Y264391D01*
X428146Y264311D01*
X428102Y264233D01*
X428054Y264157D01*
X428003Y264083D01*
X427949Y264011D01*
X427892Y263942D01*
X427832Y263875D01*
X427769Y263811D01*
X427704Y263749D01*
X427636Y263691D01*
X427565Y263635D01*
X427492Y263583D01*
X427417Y263533D01*
X427340Y263487D01*
X427261Y263445D01*
X427180Y263405D01*
X427098Y263370D01*
X427014Y263338D01*
X426929Y263309D01*
X426842Y263284D01*
X426755Y263263D01*
X426667Y263246D01*
X426578Y263232D01*
X426488Y263223D01*
X426399Y263217D01*
X426309Y263215D01*
X429964Y276801D02*
X429964Y283066D01*
X433619Y294016D02*
X433619Y296105D01*
X433619Y294016D02*
X433617Y293927D01*
X433611Y293839D01*
X433602Y293751D01*
X433589Y293663D01*
X433572Y293576D01*
X433552Y293490D01*
X433527Y293405D01*
X433500Y293320D01*
X433468Y293237D01*
X433434Y293156D01*
X433395Y293076D01*
X433354Y292998D01*
X433309Y292921D01*
X433261Y292847D01*
X433210Y292774D01*
X433156Y292704D01*
X433098Y292637D01*
X433038Y292571D01*
X432976Y292509D01*
X432910Y292449D01*
X432843Y292391D01*
X432773Y292337D01*
X432700Y292286D01*
X432626Y292238D01*
X432549Y292193D01*
X432471Y292152D01*
X432391Y292113D01*
X432310Y292079D01*
X432227Y292047D01*
X432142Y292020D01*
X432057Y291995D01*
X431971Y291975D01*
X431884Y291958D01*
X431796Y291945D01*
X431708Y291936D01*
X431620Y291930D01*
X431531Y291928D01*
X426309Y291928D01*
X426309Y291927D02*
X426218Y291929D01*
X426127Y291935D01*
X426036Y291945D01*
X425946Y291959D01*
X425857Y291977D01*
X425768Y291998D01*
X425681Y292024D01*
X425595Y292053D01*
X425510Y292086D01*
X425426Y292123D01*
X425344Y292163D01*
X425265Y292207D01*
X425187Y292254D01*
X425111Y292305D01*
X425037Y292359D01*
X424966Y292416D01*
X424898Y292476D01*
X424832Y292539D01*
X424769Y292605D01*
X424709Y292673D01*
X424652Y292744D01*
X424598Y292818D01*
X424547Y292894D01*
X424500Y292971D01*
X424456Y293051D01*
X424416Y293133D01*
X424379Y293217D01*
X424346Y293301D01*
X424317Y293388D01*
X424291Y293475D01*
X424270Y293564D01*
X424252Y293653D01*
X424238Y293743D01*
X424228Y293834D01*
X424222Y293925D01*
X424220Y294016D01*
X424221Y294016D02*
X424221Y296105D01*
X429964Y301268D02*
X429964Y303617D01*
X429965Y301268D02*
X429967Y301184D01*
X429973Y301099D01*
X429983Y301016D01*
X429996Y300932D01*
X430014Y300850D01*
X430035Y300768D01*
X430060Y300687D01*
X430088Y300608D01*
X430121Y300530D01*
X430157Y300454D01*
X430196Y300379D01*
X430239Y300306D01*
X430285Y300235D01*
X430334Y300167D01*
X430386Y300101D01*
X430442Y300037D01*
X430500Y299976D01*
X430561Y299918D01*
X430625Y299862D01*
X430691Y299810D01*
X430759Y299761D01*
X430830Y299715D01*
X430903Y299672D01*
X430978Y299633D01*
X431054Y299597D01*
X431132Y299564D01*
X431211Y299536D01*
X431292Y299511D01*
X431374Y299490D01*
X431456Y299472D01*
X431540Y299459D01*
X431623Y299449D01*
X431708Y299443D01*
X431792Y299441D01*
X431876Y299443D01*
X431961Y299449D01*
X432044Y299459D01*
X432128Y299472D01*
X432210Y299490D01*
X432292Y299511D01*
X432373Y299536D01*
X432452Y299564D01*
X432530Y299597D01*
X432606Y299633D01*
X432681Y299672D01*
X432754Y299715D01*
X432825Y299761D01*
X432893Y299810D01*
X432959Y299862D01*
X433023Y299918D01*
X433084Y299976D01*
X433142Y300037D01*
X433198Y300101D01*
X433250Y300167D01*
X433299Y300235D01*
X433345Y300306D01*
X433388Y300379D01*
X433427Y300454D01*
X433463Y300530D01*
X433496Y300608D01*
X433524Y300687D01*
X433549Y300768D01*
X433570Y300850D01*
X433588Y300932D01*
X433601Y301016D01*
X433611Y301099D01*
X433617Y301184D01*
X433619Y301268D01*
X433619Y303617D01*
X428920Y303617D01*
X428843Y303615D01*
X428767Y303609D01*
X428690Y303600D01*
X428614Y303587D01*
X428539Y303570D01*
X428465Y303550D01*
X428392Y303525D01*
X428321Y303498D01*
X428250Y303467D01*
X428182Y303432D01*
X428115Y303394D01*
X428050Y303353D01*
X427987Y303309D01*
X427927Y303262D01*
X427868Y303211D01*
X427813Y303158D01*
X427760Y303103D01*
X427709Y303044D01*
X427662Y302984D01*
X427618Y302921D01*
X427577Y302856D01*
X427539Y302789D01*
X427504Y302721D01*
X427473Y302650D01*
X427446Y302579D01*
X427421Y302506D01*
X427401Y302432D01*
X427384Y302357D01*
X427371Y302281D01*
X427362Y302204D01*
X427356Y302128D01*
X427354Y302051D01*
X427354Y299962D01*
X427354Y306947D02*
X427354Y310079D01*
X424221Y307991D02*
X432053Y307991D01*
X432130Y307993D01*
X432206Y307999D01*
X432283Y308008D01*
X432359Y308021D01*
X432434Y308038D01*
X432508Y308058D01*
X432581Y308083D01*
X432652Y308110D01*
X432723Y308141D01*
X432791Y308176D01*
X432858Y308214D01*
X432923Y308255D01*
X432986Y308299D01*
X433046Y308346D01*
X433105Y308397D01*
X433160Y308450D01*
X433213Y308505D01*
X433264Y308564D01*
X433311Y308624D01*
X433355Y308687D01*
X433396Y308752D01*
X433434Y308819D01*
X433469Y308887D01*
X433500Y308958D01*
X433527Y309029D01*
X433552Y309102D01*
X433572Y309176D01*
X433589Y309251D01*
X433602Y309327D01*
X433611Y309404D01*
X433617Y309480D01*
X433619Y309557D01*
X433619Y310079D01*
X433619Y315083D02*
X433619Y317172D01*
X433619Y315083D02*
X433617Y315006D01*
X433611Y314930D01*
X433602Y314853D01*
X433589Y314777D01*
X433572Y314702D01*
X433552Y314628D01*
X433527Y314555D01*
X433500Y314484D01*
X433469Y314413D01*
X433434Y314345D01*
X433396Y314278D01*
X433355Y314213D01*
X433311Y314150D01*
X433264Y314090D01*
X433213Y314031D01*
X433160Y313976D01*
X433105Y313923D01*
X433046Y313872D01*
X432986Y313825D01*
X432923Y313781D01*
X432858Y313740D01*
X432791Y313702D01*
X432723Y313667D01*
X432652Y313636D01*
X432581Y313609D01*
X432508Y313584D01*
X432434Y313564D01*
X432359Y313547D01*
X432283Y313534D01*
X432206Y313525D01*
X432130Y313519D01*
X432053Y313517D01*
X428920Y313517D01*
X428843Y313519D01*
X428767Y313525D01*
X428690Y313534D01*
X428614Y313547D01*
X428539Y313564D01*
X428465Y313584D01*
X428392Y313609D01*
X428321Y313636D01*
X428250Y313667D01*
X428182Y313702D01*
X428115Y313740D01*
X428050Y313781D01*
X427987Y313825D01*
X427927Y313872D01*
X427868Y313923D01*
X427813Y313976D01*
X427760Y314031D01*
X427709Y314090D01*
X427662Y314150D01*
X427618Y314213D01*
X427577Y314278D01*
X427539Y314345D01*
X427504Y314413D01*
X427473Y314484D01*
X427446Y314555D01*
X427421Y314628D01*
X427401Y314702D01*
X427384Y314777D01*
X427371Y314853D01*
X427362Y314930D01*
X427356Y315006D01*
X427354Y315083D01*
X427354Y317172D01*
X424221Y320822D02*
X433619Y320822D01*
X427354Y320822D02*
X427354Y323432D01*
X427356Y323509D01*
X427362Y323585D01*
X427371Y323662D01*
X427384Y323738D01*
X427401Y323813D01*
X427421Y323887D01*
X427446Y323960D01*
X427473Y324031D01*
X427504Y324102D01*
X427539Y324170D01*
X427577Y324237D01*
X427618Y324302D01*
X427662Y324365D01*
X427709Y324425D01*
X427760Y324484D01*
X427813Y324539D01*
X427868Y324592D01*
X427927Y324643D01*
X427987Y324690D01*
X428050Y324734D01*
X428115Y324775D01*
X428182Y324813D01*
X428250Y324848D01*
X428321Y324879D01*
X428392Y324906D01*
X428465Y324931D01*
X428539Y324951D01*
X428614Y324968D01*
X428690Y324981D01*
X428766Y324990D01*
X428843Y324996D01*
X428920Y324998D01*
X428920Y324999D02*
X433619Y324999D01*
X433619Y336017D02*
X424221Y336017D01*
X424221Y338627D02*
X424221Y333406D01*
X424221Y342158D02*
X433619Y342158D01*
X427354Y342158D02*
X427354Y344768D01*
X427356Y344845D01*
X427362Y344921D01*
X427371Y344998D01*
X427384Y345074D01*
X427401Y345149D01*
X427421Y345223D01*
X427446Y345296D01*
X427473Y345367D01*
X427504Y345438D01*
X427539Y345506D01*
X427577Y345573D01*
X427618Y345638D01*
X427662Y345701D01*
X427709Y345761D01*
X427760Y345820D01*
X427813Y345875D01*
X427868Y345928D01*
X427927Y345979D01*
X427987Y346026D01*
X428050Y346070D01*
X428115Y346111D01*
X428182Y346149D01*
X428250Y346184D01*
X428321Y346215D01*
X428392Y346242D01*
X428465Y346267D01*
X428539Y346287D01*
X428614Y346304D01*
X428690Y346317D01*
X428766Y346326D01*
X428843Y346332D01*
X428920Y346334D01*
X428920Y346335D02*
X433619Y346335D01*
X433619Y351954D02*
X433619Y354564D01*
X433619Y351954D02*
X433617Y351877D01*
X433611Y351801D01*
X433602Y351724D01*
X433589Y351648D01*
X433572Y351573D01*
X433552Y351499D01*
X433527Y351426D01*
X433500Y351355D01*
X433469Y351284D01*
X433434Y351216D01*
X433396Y351149D01*
X433355Y351084D01*
X433311Y351021D01*
X433264Y350961D01*
X433213Y350902D01*
X433160Y350847D01*
X433105Y350794D01*
X433046Y350743D01*
X432986Y350696D01*
X432923Y350652D01*
X432858Y350611D01*
X432791Y350573D01*
X432723Y350538D01*
X432652Y350507D01*
X432581Y350480D01*
X432508Y350455D01*
X432434Y350435D01*
X432359Y350418D01*
X432283Y350405D01*
X432206Y350396D01*
X432130Y350390D01*
X432053Y350388D01*
X432053Y350387D02*
X429442Y350387D01*
X429442Y350388D02*
X429352Y350390D01*
X429263Y350396D01*
X429173Y350405D01*
X429084Y350419D01*
X428996Y350436D01*
X428909Y350457D01*
X428822Y350482D01*
X428737Y350511D01*
X428653Y350543D01*
X428571Y350578D01*
X428490Y350618D01*
X428411Y350660D01*
X428334Y350706D01*
X428259Y350756D01*
X428186Y350808D01*
X428115Y350864D01*
X428047Y350922D01*
X427982Y350984D01*
X427919Y351048D01*
X427859Y351115D01*
X427802Y351184D01*
X427748Y351256D01*
X427697Y351330D01*
X427649Y351406D01*
X427605Y351484D01*
X427564Y351564D01*
X427526Y351646D01*
X427492Y351729D01*
X427462Y351814D01*
X427435Y351900D01*
X427412Y351986D01*
X427393Y352074D01*
X427378Y352163D01*
X427366Y352252D01*
X427358Y352341D01*
X427354Y352431D01*
X427354Y352521D01*
X427358Y352611D01*
X427366Y352700D01*
X427378Y352789D01*
X427393Y352878D01*
X427412Y352966D01*
X427435Y353052D01*
X427462Y353138D01*
X427492Y353223D01*
X427526Y353306D01*
X427564Y353388D01*
X427605Y353468D01*
X427649Y353546D01*
X427697Y353622D01*
X427748Y353696D01*
X427802Y353768D01*
X427859Y353837D01*
X427919Y353904D01*
X427982Y353968D01*
X428047Y354030D01*
X428115Y354088D01*
X428186Y354144D01*
X428259Y354196D01*
X428334Y354246D01*
X428411Y354292D01*
X428490Y354334D01*
X428571Y354374D01*
X428653Y354409D01*
X428737Y354441D01*
X428822Y354470D01*
X428909Y354495D01*
X428996Y354516D01*
X429084Y354533D01*
X429173Y354547D01*
X429263Y354556D01*
X429352Y354562D01*
X429442Y354564D01*
X430486Y354564D01*
X430486Y350387D01*
X433619Y363599D02*
X424221Y363599D01*
X433619Y363599D02*
X433619Y367775D01*
X433619Y371068D02*
X427354Y371068D01*
X424743Y370807D02*
X424221Y370807D01*
X424221Y371329D01*
X424743Y371329D01*
X424743Y370807D01*
X433619Y376292D02*
X433619Y378902D01*
X433619Y376292D02*
X433617Y376215D01*
X433611Y376139D01*
X433602Y376062D01*
X433589Y375986D01*
X433572Y375911D01*
X433552Y375837D01*
X433527Y375764D01*
X433500Y375693D01*
X433469Y375622D01*
X433434Y375554D01*
X433396Y375487D01*
X433355Y375422D01*
X433311Y375359D01*
X433264Y375299D01*
X433213Y375240D01*
X433160Y375185D01*
X433105Y375132D01*
X433046Y375081D01*
X432986Y375034D01*
X432923Y374990D01*
X432858Y374949D01*
X432791Y374911D01*
X432723Y374876D01*
X432652Y374845D01*
X432581Y374818D01*
X432508Y374793D01*
X432434Y374773D01*
X432359Y374756D01*
X432283Y374743D01*
X432206Y374734D01*
X432130Y374728D01*
X432053Y374726D01*
X432053Y374725D02*
X428920Y374725D01*
X428920Y374726D02*
X428843Y374728D01*
X428767Y374734D01*
X428690Y374743D01*
X428614Y374756D01*
X428539Y374773D01*
X428465Y374793D01*
X428392Y374818D01*
X428321Y374845D01*
X428250Y374876D01*
X428182Y374911D01*
X428115Y374949D01*
X428050Y374990D01*
X427987Y375034D01*
X427927Y375081D01*
X427868Y375132D01*
X427813Y375185D01*
X427760Y375240D01*
X427709Y375299D01*
X427662Y375359D01*
X427618Y375422D01*
X427577Y375487D01*
X427539Y375554D01*
X427504Y375622D01*
X427473Y375693D01*
X427446Y375764D01*
X427421Y375837D01*
X427401Y375911D01*
X427384Y375986D01*
X427371Y376062D01*
X427362Y376139D01*
X427356Y376215D01*
X427354Y376292D01*
X427354Y378902D01*
X435185Y378902D01*
X435262Y378900D01*
X435338Y378894D01*
X435415Y378885D01*
X435491Y378872D01*
X435566Y378855D01*
X435640Y378835D01*
X435713Y378810D01*
X435784Y378783D01*
X435855Y378752D01*
X435923Y378717D01*
X435990Y378679D01*
X436055Y378638D01*
X436118Y378594D01*
X436178Y378547D01*
X436237Y378496D01*
X436292Y378443D01*
X436345Y378388D01*
X436396Y378329D01*
X436443Y378269D01*
X436487Y378206D01*
X436528Y378141D01*
X436566Y378074D01*
X436601Y378006D01*
X436632Y377935D01*
X436659Y377864D01*
X436684Y377791D01*
X436704Y377717D01*
X436721Y377642D01*
X436734Y377566D01*
X436743Y377489D01*
X436749Y377413D01*
X436751Y377336D01*
X436752Y377336D02*
X436752Y375248D01*
X433619Y383305D02*
X424221Y383305D01*
X427354Y383305D02*
X427354Y385916D01*
X427356Y385993D01*
X427362Y386069D01*
X427371Y386146D01*
X427384Y386222D01*
X427401Y386297D01*
X427421Y386371D01*
X427446Y386444D01*
X427473Y386515D01*
X427504Y386586D01*
X427539Y386654D01*
X427577Y386721D01*
X427618Y386786D01*
X427662Y386849D01*
X427709Y386909D01*
X427760Y386968D01*
X427813Y387023D01*
X427868Y387076D01*
X427927Y387127D01*
X427987Y387174D01*
X428050Y387218D01*
X428115Y387259D01*
X428182Y387297D01*
X428250Y387332D01*
X428321Y387363D01*
X428392Y387390D01*
X428465Y387415D01*
X428539Y387435D01*
X428614Y387452D01*
X428690Y387465D01*
X428766Y387474D01*
X428843Y387480D01*
X428920Y387482D01*
X433619Y387482D01*
X427354Y390766D02*
X427354Y393899D01*
X424221Y391811D02*
X432053Y391811D01*
X432130Y391813D01*
X432206Y391819D01*
X432283Y391828D01*
X432359Y391841D01*
X432434Y391858D01*
X432508Y391878D01*
X432581Y391903D01*
X432652Y391930D01*
X432723Y391961D01*
X432791Y391996D01*
X432858Y392034D01*
X432923Y392075D01*
X432986Y392119D01*
X433046Y392166D01*
X433105Y392217D01*
X433160Y392270D01*
X433213Y392325D01*
X433264Y392384D01*
X433311Y392444D01*
X433355Y392507D01*
X433396Y392572D01*
X433434Y392639D01*
X433469Y392707D01*
X433500Y392778D01*
X433527Y392849D01*
X433552Y392922D01*
X433572Y392996D01*
X433589Y393071D01*
X433602Y393147D01*
X433611Y393224D01*
X433617Y393300D01*
X433619Y393377D01*
X433619Y393899D01*
X433619Y404901D02*
X424221Y401768D01*
X424221Y408034D02*
X433619Y404901D01*
X424221Y414306D02*
X424223Y414401D01*
X424229Y414495D01*
X424238Y414589D01*
X424251Y414683D01*
X424268Y414776D01*
X424289Y414868D01*
X424314Y414960D01*
X424342Y415050D01*
X424374Y415139D01*
X424409Y415227D01*
X424448Y415313D01*
X424490Y415398D01*
X424536Y415481D01*
X424585Y415562D01*
X424637Y415641D01*
X424692Y415718D01*
X424751Y415792D01*
X424812Y415864D01*
X424876Y415934D01*
X424943Y416001D01*
X425013Y416065D01*
X425085Y416126D01*
X425159Y416185D01*
X425236Y416240D01*
X425315Y416292D01*
X425396Y416341D01*
X425479Y416387D01*
X425564Y416429D01*
X425650Y416468D01*
X425738Y416503D01*
X425827Y416535D01*
X425917Y416563D01*
X426009Y416588D01*
X426101Y416609D01*
X426194Y416626D01*
X426288Y416639D01*
X426382Y416648D01*
X426476Y416654D01*
X426571Y416656D01*
X424221Y414306D02*
X424223Y414198D01*
X424229Y414089D01*
X424239Y413981D01*
X424252Y413874D01*
X424270Y413767D01*
X424291Y413660D01*
X424316Y413555D01*
X424345Y413450D01*
X424377Y413347D01*
X424414Y413245D01*
X424454Y413144D01*
X424497Y413045D01*
X424544Y412947D01*
X424595Y412851D01*
X424649Y412757D01*
X424706Y412665D01*
X424767Y412575D01*
X424831Y412487D01*
X424897Y412402D01*
X424967Y412319D01*
X425040Y412239D01*
X425116Y412161D01*
X425194Y412086D01*
X425275Y412014D01*
X425359Y411945D01*
X425445Y411879D01*
X425533Y411816D01*
X425624Y411757D01*
X425716Y411700D01*
X425811Y411647D01*
X425908Y411598D01*
X426006Y411552D01*
X426105Y411509D01*
X426207Y411470D01*
X426309Y411435D01*
X428399Y415873D02*
X428330Y415942D01*
X428259Y416008D01*
X428186Y416072D01*
X428110Y416133D01*
X428031Y416191D01*
X427951Y416245D01*
X427868Y416297D01*
X427784Y416345D01*
X427698Y416391D01*
X427610Y416432D01*
X427520Y416471D01*
X427429Y416506D01*
X427337Y416537D01*
X427244Y416565D01*
X427150Y416589D01*
X427055Y416609D01*
X426959Y416626D01*
X426862Y416639D01*
X426765Y416648D01*
X426668Y416654D01*
X426571Y416656D01*
X428398Y415872D02*
X433619Y411434D01*
X433619Y416655D01*
X91779Y290048D02*
X91779Y287960D01*
X91777Y287871D01*
X91771Y287783D01*
X91762Y287695D01*
X91749Y287607D01*
X91732Y287520D01*
X91712Y287434D01*
X91687Y287349D01*
X91660Y287264D01*
X91628Y287181D01*
X91594Y287100D01*
X91555Y287020D01*
X91514Y286942D01*
X91469Y286865D01*
X91421Y286791D01*
X91370Y286718D01*
X91316Y286648D01*
X91258Y286581D01*
X91198Y286515D01*
X91136Y286453D01*
X91070Y286393D01*
X91003Y286335D01*
X90933Y286281D01*
X90860Y286230D01*
X90786Y286182D01*
X90709Y286137D01*
X90631Y286096D01*
X90551Y286057D01*
X90470Y286023D01*
X90387Y285991D01*
X90302Y285964D01*
X90217Y285939D01*
X90131Y285919D01*
X90044Y285902D01*
X89956Y285889D01*
X89868Y285880D01*
X89780Y285874D01*
X89691Y285872D01*
X84469Y285872D01*
X84469Y285871D02*
X84378Y285873D01*
X84287Y285879D01*
X84196Y285889D01*
X84106Y285903D01*
X84017Y285921D01*
X83928Y285942D01*
X83841Y285968D01*
X83755Y285997D01*
X83670Y286030D01*
X83586Y286067D01*
X83504Y286107D01*
X83425Y286151D01*
X83347Y286198D01*
X83271Y286249D01*
X83197Y286303D01*
X83126Y286360D01*
X83058Y286420D01*
X82992Y286483D01*
X82929Y286549D01*
X82869Y286617D01*
X82812Y286688D01*
X82758Y286762D01*
X82707Y286838D01*
X82660Y286915D01*
X82616Y286995D01*
X82576Y287077D01*
X82539Y287161D01*
X82506Y287245D01*
X82477Y287332D01*
X82451Y287419D01*
X82430Y287508D01*
X82412Y287597D01*
X82398Y287687D01*
X82388Y287778D01*
X82382Y287869D01*
X82380Y287960D01*
X82381Y287960D02*
X82381Y290048D01*
X82381Y293879D02*
X91779Y293879D01*
X82381Y293879D02*
X82381Y296490D01*
X82383Y296591D01*
X82389Y296692D01*
X82399Y296793D01*
X82412Y296893D01*
X82430Y296993D01*
X82451Y297092D01*
X82477Y297190D01*
X82506Y297287D01*
X82538Y297383D01*
X82575Y297477D01*
X82615Y297570D01*
X82659Y297662D01*
X82706Y297751D01*
X82757Y297839D01*
X82811Y297925D01*
X82868Y298008D01*
X82928Y298090D01*
X82992Y298168D01*
X83058Y298245D01*
X83128Y298318D01*
X83200Y298389D01*
X83275Y298457D01*
X83353Y298522D01*
X83433Y298584D01*
X83515Y298643D01*
X83600Y298699D01*
X83687Y298751D01*
X83775Y298800D01*
X83866Y298846D01*
X83958Y298887D01*
X84052Y298926D01*
X84147Y298960D01*
X84243Y298991D01*
X84341Y299018D01*
X84439Y299042D01*
X84539Y299061D01*
X84639Y299077D01*
X84739Y299089D01*
X84840Y299097D01*
X84941Y299101D01*
X85043Y299101D01*
X85144Y299097D01*
X85245Y299089D01*
X85345Y299077D01*
X85445Y299061D01*
X85545Y299042D01*
X85643Y299018D01*
X85741Y298991D01*
X85837Y298960D01*
X85932Y298926D01*
X86026Y298887D01*
X86118Y298846D01*
X86209Y298800D01*
X86298Y298751D01*
X86384Y298699D01*
X86469Y298643D01*
X86551Y298584D01*
X86631Y298522D01*
X86709Y298457D01*
X86784Y298389D01*
X86856Y298318D01*
X86926Y298245D01*
X86992Y298168D01*
X87056Y298090D01*
X87116Y298008D01*
X87173Y297925D01*
X87227Y297839D01*
X87278Y297751D01*
X87325Y297662D01*
X87369Y297570D01*
X87409Y297477D01*
X87446Y297383D01*
X87478Y297287D01*
X87507Y297190D01*
X87533Y297092D01*
X87554Y296993D01*
X87572Y296893D01*
X87585Y296793D01*
X87595Y296692D01*
X87601Y296591D01*
X87603Y296490D01*
X87602Y296490D02*
X87602Y293879D01*
X87602Y297012D02*
X91779Y299100D01*
X84731Y308188D02*
X84636Y308186D01*
X84542Y308180D01*
X84448Y308171D01*
X84354Y308158D01*
X84261Y308141D01*
X84169Y308120D01*
X84077Y308095D01*
X83987Y308067D01*
X83898Y308035D01*
X83810Y308000D01*
X83724Y307961D01*
X83639Y307919D01*
X83556Y307873D01*
X83475Y307824D01*
X83396Y307772D01*
X83319Y307717D01*
X83245Y307658D01*
X83173Y307597D01*
X83103Y307533D01*
X83036Y307466D01*
X82972Y307396D01*
X82911Y307324D01*
X82852Y307250D01*
X82797Y307173D01*
X82745Y307094D01*
X82696Y307013D01*
X82650Y306930D01*
X82608Y306845D01*
X82569Y306759D01*
X82534Y306671D01*
X82502Y306582D01*
X82474Y306492D01*
X82449Y306400D01*
X82428Y306308D01*
X82411Y306215D01*
X82398Y306121D01*
X82389Y306027D01*
X82383Y305933D01*
X82381Y305838D01*
X82383Y305730D01*
X82389Y305621D01*
X82399Y305513D01*
X82412Y305406D01*
X82430Y305299D01*
X82451Y305192D01*
X82476Y305087D01*
X82505Y304982D01*
X82537Y304879D01*
X82574Y304777D01*
X82614Y304676D01*
X82657Y304577D01*
X82704Y304479D01*
X82755Y304383D01*
X82809Y304289D01*
X82866Y304197D01*
X82927Y304107D01*
X82991Y304019D01*
X83057Y303934D01*
X83127Y303851D01*
X83200Y303771D01*
X83276Y303693D01*
X83354Y303618D01*
X83435Y303546D01*
X83519Y303477D01*
X83605Y303411D01*
X83693Y303348D01*
X83784Y303289D01*
X83876Y303232D01*
X83971Y303179D01*
X84068Y303130D01*
X84166Y303084D01*
X84265Y303041D01*
X84367Y303002D01*
X84469Y302967D01*
X86559Y307405D02*
X86490Y307474D01*
X86419Y307540D01*
X86346Y307604D01*
X86270Y307665D01*
X86191Y307723D01*
X86111Y307777D01*
X86028Y307829D01*
X85944Y307877D01*
X85858Y307923D01*
X85770Y307964D01*
X85680Y308003D01*
X85589Y308038D01*
X85497Y308069D01*
X85404Y308097D01*
X85310Y308121D01*
X85215Y308141D01*
X85119Y308158D01*
X85022Y308171D01*
X84925Y308180D01*
X84828Y308186D01*
X84731Y308188D01*
X86558Y307404D02*
X91779Y302966D01*
X91779Y308187D01*
X87080Y312110D02*
X86895Y312112D01*
X86710Y312119D01*
X86526Y312130D01*
X86342Y312145D01*
X86158Y312165D01*
X85974Y312189D01*
X85792Y312218D01*
X85610Y312251D01*
X85429Y312288D01*
X85249Y312330D01*
X85069Y312376D01*
X84891Y312426D01*
X84715Y312480D01*
X84539Y312539D01*
X84365Y312601D01*
X84193Y312668D01*
X84022Y312739D01*
X83853Y312814D01*
X83686Y312893D01*
X83606Y312923D01*
X83527Y312956D01*
X83450Y312993D01*
X83374Y313033D01*
X83300Y313076D01*
X83228Y313122D01*
X83159Y313172D01*
X83091Y313224D01*
X83026Y313280D01*
X82963Y313338D01*
X82904Y313400D01*
X82846Y313463D01*
X82792Y313530D01*
X82741Y313598D01*
X82693Y313669D01*
X82648Y313742D01*
X82606Y313816D01*
X82568Y313893D01*
X82533Y313971D01*
X82501Y314050D01*
X82473Y314131D01*
X82449Y314213D01*
X82428Y314297D01*
X82411Y314380D01*
X82398Y314465D01*
X82389Y314550D01*
X82383Y314635D01*
X82381Y314721D01*
X82383Y314807D01*
X82389Y314892D01*
X82398Y314977D01*
X82411Y315062D01*
X82428Y315145D01*
X82449Y315229D01*
X82473Y315311D01*
X82501Y315392D01*
X82533Y315471D01*
X82568Y315549D01*
X82606Y315626D01*
X82648Y315700D01*
X82693Y315773D01*
X82741Y315844D01*
X82792Y315912D01*
X82846Y315979D01*
X82904Y316042D01*
X82963Y316104D01*
X83026Y316162D01*
X83091Y316218D01*
X83159Y316270D01*
X83228Y316320D01*
X83300Y316366D01*
X83374Y316409D01*
X83450Y316449D01*
X83527Y316486D01*
X83606Y316519D01*
X83686Y316549D01*
X83686Y316548D02*
X83853Y316627D01*
X84022Y316702D01*
X84193Y316773D01*
X84365Y316840D01*
X84539Y316902D01*
X84715Y316961D01*
X84891Y317015D01*
X85069Y317065D01*
X85249Y317111D01*
X85429Y317153D01*
X85610Y317190D01*
X85792Y317223D01*
X85974Y317252D01*
X86158Y317276D01*
X86342Y317296D01*
X86526Y317311D01*
X86710Y317322D01*
X86895Y317329D01*
X87080Y317331D01*
X87080Y312110D02*
X87265Y312112D01*
X87450Y312119D01*
X87634Y312130D01*
X87818Y312145D01*
X88002Y312165D01*
X88186Y312189D01*
X88368Y312218D01*
X88550Y312251D01*
X88731Y312288D01*
X88911Y312330D01*
X89091Y312376D01*
X89269Y312426D01*
X89445Y312480D01*
X89621Y312539D01*
X89795Y312601D01*
X89967Y312668D01*
X90138Y312739D01*
X90307Y312814D01*
X90474Y312893D01*
X90554Y312923D01*
X90633Y312956D01*
X90710Y312993D01*
X90786Y313033D01*
X90860Y313076D01*
X90932Y313122D01*
X91001Y313172D01*
X91069Y313225D01*
X91134Y313280D01*
X91197Y313339D01*
X91256Y313400D01*
X91314Y313463D01*
X91368Y313530D01*
X91419Y313598D01*
X91467Y313669D01*
X91512Y313742D01*
X91554Y313816D01*
X91592Y313893D01*
X91627Y313971D01*
X91659Y314050D01*
X91687Y314131D01*
X91711Y314213D01*
X91732Y314297D01*
X91749Y314380D01*
X91762Y314465D01*
X91771Y314550D01*
X91777Y314635D01*
X91779Y314721D01*
X90474Y316548D02*
X90307Y316627D01*
X90138Y316702D01*
X89967Y316773D01*
X89795Y316840D01*
X89621Y316902D01*
X89445Y316961D01*
X89269Y317015D01*
X89091Y317065D01*
X88911Y317111D01*
X88731Y317153D01*
X88550Y317190D01*
X88368Y317223D01*
X88186Y317252D01*
X88002Y317276D01*
X87818Y317296D01*
X87634Y317311D01*
X87450Y317322D01*
X87265Y317329D01*
X87080Y317331D01*
X90474Y316549D02*
X90554Y316519D01*
X90633Y316486D01*
X90710Y316449D01*
X90786Y316409D01*
X90860Y316366D01*
X90932Y316320D01*
X91001Y316270D01*
X91069Y316218D01*
X91134Y316162D01*
X91197Y316104D01*
X91256Y316042D01*
X91314Y315979D01*
X91368Y315912D01*
X91419Y315844D01*
X91467Y315773D01*
X91512Y315700D01*
X91554Y315626D01*
X91592Y315549D01*
X91627Y315471D01*
X91659Y315392D01*
X91687Y315311D01*
X91711Y315229D01*
X91732Y315145D01*
X91749Y315062D01*
X91762Y314977D01*
X91771Y314892D01*
X91777Y314807D01*
X91779Y314721D01*
X89691Y312632D02*
X84469Y316809D01*
X91779Y321254D02*
X91779Y323864D01*
X91777Y323965D01*
X91771Y324066D01*
X91761Y324167D01*
X91748Y324267D01*
X91730Y324367D01*
X91709Y324466D01*
X91683Y324564D01*
X91654Y324661D01*
X91622Y324757D01*
X91585Y324851D01*
X91545Y324944D01*
X91501Y325036D01*
X91454Y325125D01*
X91403Y325213D01*
X91349Y325299D01*
X91292Y325382D01*
X91232Y325464D01*
X91168Y325542D01*
X91102Y325619D01*
X91032Y325692D01*
X90960Y325763D01*
X90885Y325831D01*
X90807Y325896D01*
X90727Y325958D01*
X90645Y326017D01*
X90560Y326073D01*
X90474Y326125D01*
X90385Y326174D01*
X90294Y326220D01*
X90202Y326261D01*
X90108Y326300D01*
X90013Y326334D01*
X89917Y326365D01*
X89819Y326392D01*
X89721Y326416D01*
X89621Y326435D01*
X89521Y326451D01*
X89421Y326463D01*
X89320Y326471D01*
X89219Y326475D01*
X89117Y326475D01*
X89016Y326471D01*
X88915Y326463D01*
X88815Y326451D01*
X88715Y326435D01*
X88615Y326416D01*
X88517Y326392D01*
X88419Y326365D01*
X88323Y326334D01*
X88228Y326300D01*
X88134Y326261D01*
X88042Y326220D01*
X87951Y326174D01*
X87863Y326125D01*
X87776Y326073D01*
X87691Y326017D01*
X87609Y325958D01*
X87529Y325896D01*
X87451Y325831D01*
X87376Y325763D01*
X87304Y325692D01*
X87234Y325619D01*
X87168Y325542D01*
X87104Y325464D01*
X87044Y325382D01*
X86987Y325299D01*
X86933Y325213D01*
X86882Y325125D01*
X86835Y325036D01*
X86791Y324944D01*
X86751Y324851D01*
X86714Y324757D01*
X86682Y324661D01*
X86653Y324564D01*
X86627Y324466D01*
X86606Y324367D01*
X86588Y324267D01*
X86575Y324167D01*
X86565Y324066D01*
X86559Y323965D01*
X86557Y323864D01*
X82381Y324387D02*
X82381Y321254D01*
X82381Y324387D02*
X82383Y324477D01*
X82389Y324566D01*
X82398Y324656D01*
X82412Y324745D01*
X82429Y324833D01*
X82450Y324920D01*
X82475Y325007D01*
X82504Y325092D01*
X82536Y325176D01*
X82571Y325258D01*
X82611Y325339D01*
X82653Y325418D01*
X82699Y325495D01*
X82749Y325570D01*
X82801Y325643D01*
X82857Y325714D01*
X82915Y325782D01*
X82977Y325847D01*
X83041Y325910D01*
X83108Y325970D01*
X83177Y326027D01*
X83249Y326081D01*
X83323Y326132D01*
X83399Y326180D01*
X83477Y326224D01*
X83557Y326265D01*
X83639Y326303D01*
X83722Y326337D01*
X83807Y326367D01*
X83893Y326394D01*
X83979Y326417D01*
X84067Y326436D01*
X84156Y326451D01*
X84245Y326463D01*
X84334Y326471D01*
X84424Y326475D01*
X84514Y326475D01*
X84604Y326471D01*
X84693Y326463D01*
X84782Y326451D01*
X84871Y326436D01*
X84959Y326417D01*
X85045Y326394D01*
X85131Y326367D01*
X85216Y326337D01*
X85299Y326303D01*
X85381Y326265D01*
X85461Y326224D01*
X85539Y326180D01*
X85615Y326132D01*
X85689Y326081D01*
X85761Y326027D01*
X85830Y325970D01*
X85897Y325910D01*
X85961Y325847D01*
X86023Y325782D01*
X86081Y325714D01*
X86137Y325643D01*
X86189Y325570D01*
X86239Y325495D01*
X86285Y325418D01*
X86327Y325339D01*
X86367Y325258D01*
X86402Y325176D01*
X86434Y325092D01*
X86463Y325007D01*
X86488Y324920D01*
X86509Y324833D01*
X86526Y324745D01*
X86540Y324656D01*
X86549Y324566D01*
X86555Y324477D01*
X86557Y324387D01*
X86558Y324387D02*
X86558Y322298D01*
X82381Y333270D02*
X82383Y333365D01*
X82389Y333459D01*
X82398Y333553D01*
X82411Y333647D01*
X82428Y333740D01*
X82449Y333832D01*
X82474Y333924D01*
X82502Y334014D01*
X82534Y334103D01*
X82569Y334191D01*
X82608Y334277D01*
X82650Y334362D01*
X82696Y334445D01*
X82745Y334526D01*
X82797Y334605D01*
X82852Y334682D01*
X82911Y334756D01*
X82972Y334828D01*
X83036Y334898D01*
X83103Y334965D01*
X83173Y335029D01*
X83245Y335090D01*
X83319Y335149D01*
X83396Y335204D01*
X83475Y335256D01*
X83556Y335305D01*
X83639Y335351D01*
X83724Y335393D01*
X83810Y335432D01*
X83898Y335467D01*
X83987Y335499D01*
X84077Y335527D01*
X84169Y335552D01*
X84261Y335573D01*
X84354Y335590D01*
X84448Y335603D01*
X84542Y335612D01*
X84636Y335618D01*
X84731Y335620D01*
X82381Y333270D02*
X82383Y333162D01*
X82389Y333053D01*
X82399Y332945D01*
X82412Y332838D01*
X82430Y332731D01*
X82451Y332624D01*
X82476Y332519D01*
X82505Y332414D01*
X82537Y332311D01*
X82574Y332209D01*
X82614Y332108D01*
X82657Y332009D01*
X82704Y331911D01*
X82755Y331815D01*
X82809Y331721D01*
X82866Y331629D01*
X82927Y331539D01*
X82991Y331451D01*
X83057Y331366D01*
X83127Y331283D01*
X83200Y331203D01*
X83276Y331125D01*
X83354Y331050D01*
X83435Y330978D01*
X83519Y330909D01*
X83605Y330843D01*
X83693Y330780D01*
X83784Y330721D01*
X83876Y330664D01*
X83971Y330611D01*
X84068Y330562D01*
X84166Y330516D01*
X84265Y330473D01*
X84367Y330434D01*
X84469Y330399D01*
X86559Y334836D02*
X86490Y334905D01*
X86419Y334971D01*
X86346Y335035D01*
X86270Y335096D01*
X86191Y335154D01*
X86111Y335208D01*
X86028Y335260D01*
X85944Y335308D01*
X85858Y335354D01*
X85770Y335395D01*
X85680Y335434D01*
X85589Y335469D01*
X85497Y335500D01*
X85404Y335528D01*
X85310Y335552D01*
X85215Y335572D01*
X85119Y335589D01*
X85022Y335602D01*
X84925Y335611D01*
X84828Y335617D01*
X84731Y335619D01*
X86558Y334836D02*
X91779Y330398D01*
X91779Y335619D01*
D13*
X131200Y309100D03*
D14*
X109967Y539100D02*
X109967Y561100D01*
X89033Y561100D02*
X89033Y539100D01*
D12*
X75068Y545825D02*
X72472Y545825D01*
X72373Y545827D01*
X72273Y545833D01*
X72174Y545842D01*
X72076Y545855D01*
X71978Y545872D01*
X71880Y545893D01*
X71784Y545918D01*
X71689Y545946D01*
X71595Y545978D01*
X71502Y546013D01*
X71410Y546052D01*
X71320Y546095D01*
X71232Y546140D01*
X71145Y546190D01*
X71061Y546242D01*
X70978Y546298D01*
X70898Y546356D01*
X70820Y546418D01*
X70745Y546483D01*
X70672Y546551D01*
X70602Y546621D01*
X70534Y546694D01*
X70469Y546769D01*
X70407Y546847D01*
X70349Y546927D01*
X70293Y547010D01*
X70241Y547094D01*
X70191Y547181D01*
X70146Y547269D01*
X70103Y547359D01*
X70064Y547451D01*
X70029Y547544D01*
X69997Y547638D01*
X69969Y547733D01*
X69944Y547829D01*
X69923Y547927D01*
X69906Y548025D01*
X69893Y548123D01*
X69884Y548222D01*
X69878Y548322D01*
X69876Y548421D01*
X69875Y548421D02*
X69875Y554913D01*
X69876Y554913D02*
X69878Y555012D01*
X69884Y555112D01*
X69893Y555211D01*
X69906Y555309D01*
X69923Y555407D01*
X69944Y555505D01*
X69969Y555601D01*
X69997Y555696D01*
X70029Y555790D01*
X70064Y555883D01*
X70103Y555975D01*
X70146Y556065D01*
X70191Y556153D01*
X70241Y556240D01*
X70293Y556324D01*
X70349Y556407D01*
X70407Y556487D01*
X70469Y556565D01*
X70534Y556640D01*
X70602Y556713D01*
X70672Y556783D01*
X70745Y556851D01*
X70820Y556916D01*
X70898Y556978D01*
X70978Y557036D01*
X71061Y557092D01*
X71145Y557144D01*
X71232Y557194D01*
X71320Y557239D01*
X71410Y557282D01*
X71502Y557321D01*
X71594Y557356D01*
X71689Y557388D01*
X71784Y557416D01*
X71880Y557441D01*
X71978Y557462D01*
X72076Y557479D01*
X72174Y557492D01*
X72273Y557501D01*
X72373Y557507D01*
X72472Y557509D01*
X75068Y557509D01*
X79434Y554913D02*
X82679Y557509D01*
X82679Y545825D01*
X79434Y545825D02*
X85925Y545825D01*
D14*
X301533Y552975D02*
X301533Y530975D01*
X322467Y530975D02*
X322467Y552975D01*
D12*
X314568Y511366D02*
X311972Y511366D01*
X311873Y511368D01*
X311773Y511374D01*
X311674Y511383D01*
X311576Y511396D01*
X311478Y511413D01*
X311380Y511434D01*
X311284Y511459D01*
X311189Y511487D01*
X311095Y511519D01*
X311002Y511554D01*
X310910Y511593D01*
X310820Y511636D01*
X310732Y511681D01*
X310645Y511731D01*
X310561Y511783D01*
X310478Y511839D01*
X310398Y511897D01*
X310320Y511959D01*
X310245Y512024D01*
X310172Y512092D01*
X310102Y512162D01*
X310034Y512235D01*
X309969Y512310D01*
X309907Y512388D01*
X309849Y512468D01*
X309793Y512551D01*
X309741Y512635D01*
X309691Y512722D01*
X309646Y512810D01*
X309603Y512900D01*
X309564Y512992D01*
X309529Y513085D01*
X309497Y513179D01*
X309469Y513274D01*
X309444Y513370D01*
X309423Y513468D01*
X309406Y513566D01*
X309393Y513664D01*
X309384Y513763D01*
X309378Y513863D01*
X309376Y513962D01*
X309375Y513962D02*
X309375Y520454D01*
X309376Y520454D02*
X309378Y520553D01*
X309384Y520653D01*
X309393Y520752D01*
X309406Y520850D01*
X309423Y520948D01*
X309444Y521046D01*
X309469Y521142D01*
X309497Y521237D01*
X309529Y521331D01*
X309564Y521424D01*
X309603Y521516D01*
X309646Y521606D01*
X309691Y521694D01*
X309741Y521781D01*
X309793Y521865D01*
X309849Y521948D01*
X309907Y522028D01*
X309969Y522106D01*
X310034Y522181D01*
X310102Y522254D01*
X310172Y522324D01*
X310245Y522392D01*
X310320Y522457D01*
X310398Y522519D01*
X310478Y522577D01*
X310561Y522633D01*
X310645Y522685D01*
X310732Y522735D01*
X310820Y522780D01*
X310910Y522823D01*
X311002Y522862D01*
X311094Y522897D01*
X311189Y522929D01*
X311284Y522957D01*
X311380Y522982D01*
X311478Y523003D01*
X311576Y523020D01*
X311674Y523033D01*
X311773Y523042D01*
X311873Y523048D01*
X311972Y523050D01*
X314568Y523050D01*
X322504Y523050D02*
X322611Y523048D01*
X322717Y523042D01*
X322823Y523032D01*
X322929Y523019D01*
X323035Y523001D01*
X323139Y522980D01*
X323243Y522955D01*
X323346Y522926D01*
X323447Y522894D01*
X323547Y522857D01*
X323646Y522817D01*
X323744Y522774D01*
X323840Y522727D01*
X323934Y522676D01*
X324026Y522622D01*
X324116Y522565D01*
X324204Y522505D01*
X324289Y522441D01*
X324372Y522374D01*
X324453Y522304D01*
X324531Y522232D01*
X324607Y522156D01*
X324679Y522078D01*
X324749Y521997D01*
X324816Y521914D01*
X324880Y521829D01*
X324940Y521741D01*
X324997Y521651D01*
X325051Y521559D01*
X325102Y521465D01*
X325149Y521369D01*
X325192Y521271D01*
X325232Y521172D01*
X325269Y521072D01*
X325301Y520971D01*
X325330Y520868D01*
X325355Y520764D01*
X325376Y520660D01*
X325394Y520554D01*
X325407Y520448D01*
X325417Y520342D01*
X325423Y520236D01*
X325425Y520129D01*
X322504Y523050D02*
X322383Y523048D01*
X322262Y523042D01*
X322142Y523032D01*
X322021Y523019D01*
X321902Y523001D01*
X321782Y522980D01*
X321664Y522955D01*
X321547Y522926D01*
X321430Y522893D01*
X321315Y522857D01*
X321201Y522816D01*
X321088Y522773D01*
X320976Y522725D01*
X320867Y522674D01*
X320759Y522619D01*
X320652Y522561D01*
X320548Y522500D01*
X320446Y522435D01*
X320346Y522367D01*
X320248Y522296D01*
X320152Y522222D01*
X320059Y522145D01*
X319969Y522064D01*
X319881Y521981D01*
X319796Y521895D01*
X319713Y521806D01*
X319634Y521715D01*
X319557Y521621D01*
X319484Y521525D01*
X319414Y521427D01*
X319347Y521326D01*
X319283Y521223D01*
X319223Y521118D01*
X319166Y521011D01*
X319112Y520903D01*
X319062Y520793D01*
X319016Y520681D01*
X318973Y520568D01*
X318934Y520453D01*
X324451Y517857D02*
X324530Y517934D01*
X324606Y518015D01*
X324679Y518098D01*
X324749Y518183D01*
X324816Y518271D01*
X324880Y518361D01*
X324940Y518453D01*
X324997Y518548D01*
X325051Y518644D01*
X325102Y518742D01*
X325149Y518842D01*
X325193Y518944D01*
X325233Y519047D01*
X325269Y519151D01*
X325301Y519257D01*
X325330Y519363D01*
X325355Y519471D01*
X325377Y519579D01*
X325394Y519689D01*
X325408Y519798D01*
X325417Y519908D01*
X325423Y520019D01*
X325425Y520129D01*
X324451Y517857D02*
X318934Y511366D01*
X325425Y511366D01*
D14*
X277533Y531175D02*
X277533Y553175D01*
X298467Y553175D02*
X298467Y531175D01*
D12*
X285368Y511366D02*
X282772Y511366D01*
X282673Y511368D01*
X282573Y511374D01*
X282474Y511383D01*
X282376Y511396D01*
X282278Y511413D01*
X282180Y511434D01*
X282084Y511459D01*
X281989Y511487D01*
X281895Y511519D01*
X281802Y511554D01*
X281710Y511593D01*
X281620Y511636D01*
X281532Y511681D01*
X281445Y511731D01*
X281361Y511783D01*
X281278Y511839D01*
X281198Y511897D01*
X281120Y511959D01*
X281045Y512024D01*
X280972Y512092D01*
X280902Y512162D01*
X280834Y512235D01*
X280769Y512310D01*
X280707Y512388D01*
X280649Y512468D01*
X280593Y512551D01*
X280541Y512635D01*
X280491Y512722D01*
X280446Y512810D01*
X280403Y512900D01*
X280364Y512992D01*
X280329Y513085D01*
X280297Y513179D01*
X280269Y513274D01*
X280244Y513370D01*
X280223Y513468D01*
X280206Y513566D01*
X280193Y513664D01*
X280184Y513763D01*
X280178Y513863D01*
X280176Y513962D01*
X280175Y513962D02*
X280175Y520454D01*
X280176Y520454D02*
X280178Y520553D01*
X280184Y520653D01*
X280193Y520752D01*
X280206Y520850D01*
X280223Y520948D01*
X280244Y521046D01*
X280269Y521142D01*
X280297Y521237D01*
X280329Y521331D01*
X280364Y521424D01*
X280403Y521516D01*
X280446Y521606D01*
X280491Y521694D01*
X280541Y521781D01*
X280593Y521865D01*
X280649Y521948D01*
X280707Y522028D01*
X280769Y522106D01*
X280834Y522181D01*
X280902Y522254D01*
X280972Y522324D01*
X281045Y522392D01*
X281120Y522457D01*
X281198Y522519D01*
X281278Y522577D01*
X281361Y522633D01*
X281445Y522685D01*
X281532Y522735D01*
X281620Y522780D01*
X281710Y522823D01*
X281802Y522862D01*
X281894Y522897D01*
X281989Y522929D01*
X282084Y522957D01*
X282180Y522982D01*
X282278Y523003D01*
X282376Y523020D01*
X282474Y523033D01*
X282573Y523042D01*
X282673Y523048D01*
X282772Y523050D01*
X285368Y523050D01*
X289734Y511366D02*
X292979Y511366D01*
X293092Y511368D01*
X293205Y511374D01*
X293318Y511384D01*
X293431Y511398D01*
X293543Y511415D01*
X293654Y511437D01*
X293764Y511462D01*
X293874Y511492D01*
X293982Y511525D01*
X294089Y511562D01*
X294195Y511602D01*
X294299Y511647D01*
X294402Y511695D01*
X294503Y511746D01*
X294602Y511801D01*
X294699Y511859D01*
X294794Y511921D01*
X294887Y511986D01*
X294977Y512054D01*
X295065Y512125D01*
X295151Y512200D01*
X295234Y512277D01*
X295314Y512357D01*
X295391Y512440D01*
X295466Y512526D01*
X295537Y512614D01*
X295605Y512704D01*
X295670Y512797D01*
X295732Y512892D01*
X295790Y512989D01*
X295845Y513088D01*
X295896Y513189D01*
X295944Y513292D01*
X295989Y513396D01*
X296029Y513502D01*
X296066Y513609D01*
X296099Y513717D01*
X296129Y513827D01*
X296154Y513937D01*
X296176Y514048D01*
X296193Y514160D01*
X296207Y514273D01*
X296217Y514386D01*
X296223Y514499D01*
X296225Y514612D01*
X296223Y514725D01*
X296217Y514838D01*
X296207Y514951D01*
X296193Y515064D01*
X296176Y515176D01*
X296154Y515287D01*
X296129Y515397D01*
X296099Y515507D01*
X296066Y515615D01*
X296029Y515722D01*
X295989Y515828D01*
X295944Y515932D01*
X295896Y516035D01*
X295845Y516136D01*
X295790Y516235D01*
X295732Y516332D01*
X295670Y516427D01*
X295605Y516520D01*
X295537Y516610D01*
X295466Y516698D01*
X295391Y516784D01*
X295314Y516867D01*
X295234Y516947D01*
X295151Y517024D01*
X295065Y517099D01*
X294977Y517170D01*
X294887Y517238D01*
X294794Y517303D01*
X294699Y517365D01*
X294602Y517423D01*
X294503Y517478D01*
X294402Y517529D01*
X294299Y517577D01*
X294195Y517622D01*
X294089Y517662D01*
X293982Y517699D01*
X293874Y517732D01*
X293764Y517762D01*
X293654Y517787D01*
X293543Y517809D01*
X293431Y517826D01*
X293318Y517840D01*
X293205Y517850D01*
X293092Y517856D01*
X292979Y517858D01*
X293628Y523050D02*
X289734Y523050D01*
X293628Y523050D02*
X293729Y523048D01*
X293829Y523042D01*
X293929Y523032D01*
X294029Y523019D01*
X294128Y523001D01*
X294227Y522980D01*
X294324Y522955D01*
X294421Y522926D01*
X294516Y522893D01*
X294610Y522857D01*
X294702Y522817D01*
X294793Y522774D01*
X294882Y522727D01*
X294969Y522677D01*
X295055Y522623D01*
X295138Y522566D01*
X295218Y522506D01*
X295297Y522443D01*
X295373Y522376D01*
X295446Y522307D01*
X295516Y522235D01*
X295584Y522161D01*
X295649Y522084D01*
X295710Y522004D01*
X295769Y521922D01*
X295824Y521838D01*
X295876Y521752D01*
X295925Y521664D01*
X295970Y521574D01*
X296012Y521482D01*
X296050Y521389D01*
X296084Y521294D01*
X296115Y521199D01*
X296142Y521102D01*
X296165Y521004D01*
X296185Y520905D01*
X296200Y520805D01*
X296212Y520705D01*
X296220Y520605D01*
X296224Y520504D01*
X296224Y520404D01*
X296220Y520303D01*
X296212Y520203D01*
X296200Y520103D01*
X296185Y520003D01*
X296165Y519904D01*
X296142Y519806D01*
X296115Y519709D01*
X296084Y519614D01*
X296050Y519519D01*
X296012Y519426D01*
X295970Y519334D01*
X295925Y519244D01*
X295876Y519156D01*
X295824Y519070D01*
X295769Y518986D01*
X295710Y518904D01*
X295649Y518824D01*
X295584Y518747D01*
X295516Y518673D01*
X295446Y518601D01*
X295373Y518532D01*
X295297Y518465D01*
X295218Y518402D01*
X295138Y518342D01*
X295055Y518285D01*
X294969Y518231D01*
X294882Y518181D01*
X294793Y518134D01*
X294702Y518091D01*
X294610Y518051D01*
X294516Y518015D01*
X294421Y517982D01*
X294324Y517953D01*
X294227Y517928D01*
X294128Y517907D01*
X294029Y517889D01*
X293929Y517876D01*
X293829Y517866D01*
X293729Y517860D01*
X293628Y517858D01*
X293628Y517857D02*
X291032Y517857D01*
D14*
X365020Y607170D02*
X425980Y607170D01*
X425980Y706230D01*
X365020Y706230D01*
X365020Y607170D01*
D15*
X431500Y644200D02*
X431502Y644277D01*
X431508Y644354D01*
X431518Y644431D01*
X431532Y644507D01*
X431549Y644582D01*
X431571Y644656D01*
X431596Y644729D01*
X431626Y644801D01*
X431658Y644871D01*
X431695Y644939D01*
X431734Y645005D01*
X431777Y645069D01*
X431824Y645131D01*
X431873Y645190D01*
X431926Y645247D01*
X431981Y645301D01*
X432039Y645352D01*
X432100Y645400D01*
X432163Y645445D01*
X432228Y645486D01*
X432295Y645524D01*
X432364Y645559D01*
X432435Y645589D01*
X432507Y645617D01*
X432581Y645640D01*
X432655Y645660D01*
X432731Y645676D01*
X432807Y645688D01*
X432884Y645696D01*
X432961Y645700D01*
X433039Y645700D01*
X433116Y645696D01*
X433193Y645688D01*
X433269Y645676D01*
X433345Y645660D01*
X433419Y645640D01*
X433493Y645617D01*
X433565Y645589D01*
X433636Y645559D01*
X433705Y645524D01*
X433772Y645486D01*
X433837Y645445D01*
X433900Y645400D01*
X433961Y645352D01*
X434019Y645301D01*
X434074Y645247D01*
X434127Y645190D01*
X434176Y645131D01*
X434223Y645069D01*
X434266Y645005D01*
X434305Y644939D01*
X434342Y644871D01*
X434374Y644801D01*
X434404Y644729D01*
X434429Y644656D01*
X434451Y644582D01*
X434468Y644507D01*
X434482Y644431D01*
X434492Y644354D01*
X434498Y644277D01*
X434500Y644200D01*
X434498Y644123D01*
X434492Y644046D01*
X434482Y643969D01*
X434468Y643893D01*
X434451Y643818D01*
X434429Y643744D01*
X434404Y643671D01*
X434374Y643599D01*
X434342Y643529D01*
X434305Y643461D01*
X434266Y643395D01*
X434223Y643331D01*
X434176Y643269D01*
X434127Y643210D01*
X434074Y643153D01*
X434019Y643099D01*
X433961Y643048D01*
X433900Y643000D01*
X433837Y642955D01*
X433772Y642914D01*
X433705Y642876D01*
X433636Y642841D01*
X433565Y642811D01*
X433493Y642783D01*
X433419Y642760D01*
X433345Y642740D01*
X433269Y642724D01*
X433193Y642712D01*
X433116Y642704D01*
X433039Y642700D01*
X432961Y642700D01*
X432884Y642704D01*
X432807Y642712D01*
X432731Y642724D01*
X432655Y642740D01*
X432581Y642760D01*
X432507Y642783D01*
X432435Y642811D01*
X432364Y642841D01*
X432295Y642876D01*
X432228Y642914D01*
X432163Y642955D01*
X432100Y643000D01*
X432039Y643048D01*
X431981Y643099D01*
X431926Y643153D01*
X431873Y643210D01*
X431824Y643269D01*
X431777Y643331D01*
X431734Y643395D01*
X431695Y643461D01*
X431658Y643529D01*
X431626Y643599D01*
X431596Y643671D01*
X431571Y643744D01*
X431549Y643818D01*
X431532Y643893D01*
X431518Y643969D01*
X431508Y644046D01*
X431502Y644123D01*
X431500Y644200D01*
D16*
X168900Y951600D03*
X180900Y951600D03*
D17*
X174900Y951600D03*
D18*
X301550Y755950D03*
X301550Y743950D03*
D17*
X301550Y749950D03*
D18*
X301400Y731100D03*
X301400Y719100D03*
D17*
X301400Y725100D03*
D16*
X280950Y698450D03*
X268950Y698450D03*
D17*
X274950Y698450D03*
D16*
X230825Y698450D03*
X218825Y698450D03*
D17*
X224825Y698450D03*
D16*
X180975Y698550D03*
X168975Y698550D03*
D17*
X174975Y698550D03*
D18*
X148425Y719025D03*
X148425Y731025D03*
D17*
X148425Y725025D03*
D18*
X148425Y744025D03*
X148425Y756025D03*
D17*
X148425Y750025D03*
D18*
X148425Y769025D03*
X148425Y781025D03*
D17*
X148425Y775025D03*
D18*
X148425Y794025D03*
X148425Y806025D03*
D17*
X148425Y800025D03*
D18*
X148425Y844025D03*
X148425Y856025D03*
D17*
X148425Y850025D03*
D16*
X219100Y951600D03*
X231100Y951600D03*
D17*
X225100Y951600D03*
D18*
X148550Y869025D03*
X148550Y881025D03*
D17*
X148550Y875025D03*
D18*
X148425Y894025D03*
X148425Y906025D03*
D17*
X148425Y900025D03*
D18*
X148475Y919025D03*
X148475Y931025D03*
D17*
X148475Y925025D03*
D18*
X173475Y819025D03*
X173475Y831025D03*
D17*
X173475Y825025D03*
D16*
X231100Y823600D03*
X219100Y823600D03*
D17*
X225100Y823600D03*
D19*
X276025Y824975D03*
D16*
X268900Y951600D03*
X280900Y951600D03*
D17*
X274900Y951600D03*
D18*
X301600Y931100D03*
X301600Y919100D03*
D17*
X301600Y925100D03*
D18*
X301600Y906100D03*
X301600Y894100D03*
D17*
X301600Y900100D03*
D18*
X301600Y881100D03*
X301600Y869100D03*
D17*
X301600Y875100D03*
D18*
X301600Y856100D03*
X301600Y844100D03*
D17*
X301600Y850100D03*
D18*
X301475Y805975D03*
X301475Y793975D03*
D17*
X301475Y799975D03*
D18*
X301475Y780975D03*
X301475Y768975D03*
D17*
X301475Y774975D03*
D20*
X35000Y491200D03*
D21*
X12000Y488700D03*
D22*
X75100Y103000D03*
D12*
X238008Y752895D02*
X249692Y752895D01*
X238008Y752895D02*
X238008Y756140D01*
X238010Y756253D01*
X238016Y756366D01*
X238026Y756479D01*
X238040Y756592D01*
X238057Y756704D01*
X238079Y756815D01*
X238104Y756925D01*
X238134Y757035D01*
X238167Y757143D01*
X238204Y757250D01*
X238244Y757356D01*
X238289Y757460D01*
X238337Y757563D01*
X238388Y757664D01*
X238443Y757763D01*
X238501Y757860D01*
X238563Y757955D01*
X238628Y758048D01*
X238696Y758138D01*
X238767Y758226D01*
X238842Y758312D01*
X238919Y758395D01*
X238999Y758475D01*
X239082Y758552D01*
X239168Y758627D01*
X239256Y758698D01*
X239346Y758766D01*
X239439Y758831D01*
X239534Y758893D01*
X239631Y758951D01*
X239730Y759006D01*
X239831Y759057D01*
X239934Y759105D01*
X240038Y759150D01*
X240144Y759190D01*
X240251Y759227D01*
X240359Y759260D01*
X240469Y759290D01*
X240579Y759315D01*
X240690Y759337D01*
X240802Y759354D01*
X240915Y759368D01*
X241028Y759378D01*
X241141Y759384D01*
X241254Y759386D01*
X241367Y759384D01*
X241480Y759378D01*
X241593Y759368D01*
X241706Y759354D01*
X241818Y759337D01*
X241929Y759315D01*
X242039Y759290D01*
X242149Y759260D01*
X242257Y759227D01*
X242364Y759190D01*
X242470Y759150D01*
X242574Y759105D01*
X242677Y759057D01*
X242778Y759006D01*
X242877Y758951D01*
X242974Y758893D01*
X243069Y758831D01*
X243162Y758766D01*
X243252Y758698D01*
X243340Y758627D01*
X243426Y758552D01*
X243509Y758475D01*
X243589Y758395D01*
X243666Y758312D01*
X243741Y758226D01*
X243812Y758138D01*
X243880Y758048D01*
X243945Y757955D01*
X244007Y757860D01*
X244065Y757763D01*
X244120Y757664D01*
X244171Y757563D01*
X244219Y757460D01*
X244264Y757356D01*
X244304Y757250D01*
X244341Y757143D01*
X244374Y757035D01*
X244404Y756925D01*
X244429Y756815D01*
X244451Y756704D01*
X244468Y756592D01*
X244482Y756479D01*
X244492Y756366D01*
X244498Y756253D01*
X244500Y756140D01*
X244499Y756140D02*
X244499Y752895D01*
X244499Y756789D02*
X249692Y759386D01*
X240604Y764251D02*
X238008Y767496D01*
X249692Y767496D01*
X249692Y764251D02*
X249692Y770742D01*
X395883Y481445D02*
X407567Y481445D01*
X395883Y481445D02*
X395883Y484690D01*
X395885Y484803D01*
X395891Y484916D01*
X395901Y485029D01*
X395915Y485142D01*
X395932Y485254D01*
X395954Y485365D01*
X395979Y485475D01*
X396009Y485585D01*
X396042Y485693D01*
X396079Y485800D01*
X396119Y485906D01*
X396164Y486010D01*
X396212Y486113D01*
X396263Y486214D01*
X396318Y486313D01*
X396376Y486410D01*
X396438Y486505D01*
X396503Y486598D01*
X396571Y486688D01*
X396642Y486776D01*
X396717Y486862D01*
X396794Y486945D01*
X396874Y487025D01*
X396957Y487102D01*
X397043Y487177D01*
X397131Y487248D01*
X397221Y487316D01*
X397314Y487381D01*
X397409Y487443D01*
X397506Y487501D01*
X397605Y487556D01*
X397706Y487607D01*
X397809Y487655D01*
X397913Y487700D01*
X398019Y487740D01*
X398126Y487777D01*
X398234Y487810D01*
X398344Y487840D01*
X398454Y487865D01*
X398565Y487887D01*
X398677Y487904D01*
X398790Y487918D01*
X398903Y487928D01*
X399016Y487934D01*
X399129Y487936D01*
X399242Y487934D01*
X399355Y487928D01*
X399468Y487918D01*
X399581Y487904D01*
X399693Y487887D01*
X399804Y487865D01*
X399914Y487840D01*
X400024Y487810D01*
X400132Y487777D01*
X400239Y487740D01*
X400345Y487700D01*
X400449Y487655D01*
X400552Y487607D01*
X400653Y487556D01*
X400752Y487501D01*
X400849Y487443D01*
X400944Y487381D01*
X401037Y487316D01*
X401127Y487248D01*
X401215Y487177D01*
X401301Y487102D01*
X401384Y487025D01*
X401464Y486945D01*
X401541Y486862D01*
X401616Y486776D01*
X401687Y486688D01*
X401755Y486598D01*
X401820Y486505D01*
X401882Y486410D01*
X401940Y486313D01*
X401995Y486214D01*
X402046Y486113D01*
X402094Y486010D01*
X402139Y485906D01*
X402179Y485800D01*
X402216Y485693D01*
X402249Y485585D01*
X402279Y485475D01*
X402304Y485365D01*
X402326Y485254D01*
X402343Y485142D01*
X402357Y485029D01*
X402367Y484916D01*
X402373Y484803D01*
X402375Y484690D01*
X402374Y484690D02*
X402374Y481445D01*
X402374Y485339D02*
X407567Y487936D01*
X407567Y492801D02*
X407567Y496046D01*
X407565Y496159D01*
X407559Y496272D01*
X407549Y496385D01*
X407535Y496498D01*
X407518Y496610D01*
X407496Y496721D01*
X407471Y496831D01*
X407441Y496941D01*
X407408Y497049D01*
X407371Y497156D01*
X407331Y497262D01*
X407286Y497366D01*
X407238Y497469D01*
X407187Y497570D01*
X407132Y497669D01*
X407074Y497766D01*
X407012Y497861D01*
X406947Y497954D01*
X406879Y498044D01*
X406808Y498132D01*
X406733Y498218D01*
X406656Y498301D01*
X406576Y498381D01*
X406493Y498458D01*
X406407Y498533D01*
X406319Y498604D01*
X406229Y498672D01*
X406136Y498737D01*
X406041Y498799D01*
X405944Y498857D01*
X405845Y498912D01*
X405744Y498963D01*
X405641Y499011D01*
X405537Y499056D01*
X405431Y499096D01*
X405324Y499133D01*
X405216Y499166D01*
X405106Y499196D01*
X404996Y499221D01*
X404885Y499243D01*
X404773Y499260D01*
X404660Y499274D01*
X404547Y499284D01*
X404434Y499290D01*
X404321Y499292D01*
X404208Y499290D01*
X404095Y499284D01*
X403982Y499274D01*
X403869Y499260D01*
X403757Y499243D01*
X403646Y499221D01*
X403536Y499196D01*
X403426Y499166D01*
X403318Y499133D01*
X403211Y499096D01*
X403105Y499056D01*
X403001Y499011D01*
X402898Y498963D01*
X402797Y498912D01*
X402698Y498857D01*
X402601Y498799D01*
X402506Y498737D01*
X402413Y498672D01*
X402323Y498604D01*
X402235Y498533D01*
X402149Y498458D01*
X402066Y498381D01*
X401986Y498301D01*
X401909Y498218D01*
X401834Y498132D01*
X401763Y498044D01*
X401695Y497954D01*
X401630Y497861D01*
X401568Y497766D01*
X401510Y497669D01*
X401455Y497570D01*
X401404Y497469D01*
X401356Y497366D01*
X401311Y497262D01*
X401271Y497156D01*
X401234Y497049D01*
X401201Y496941D01*
X401171Y496831D01*
X401146Y496721D01*
X401124Y496610D01*
X401107Y496498D01*
X401093Y496385D01*
X401083Y496272D01*
X401077Y496159D01*
X401075Y496046D01*
X395883Y496696D02*
X395883Y492801D01*
X395883Y496696D02*
X395885Y496797D01*
X395891Y496897D01*
X395901Y496997D01*
X395914Y497097D01*
X395932Y497196D01*
X395953Y497295D01*
X395978Y497392D01*
X396007Y497489D01*
X396040Y497584D01*
X396076Y497678D01*
X396116Y497770D01*
X396159Y497861D01*
X396206Y497950D01*
X396256Y498037D01*
X396310Y498123D01*
X396367Y498206D01*
X396427Y498286D01*
X396490Y498365D01*
X396557Y498441D01*
X396626Y498514D01*
X396698Y498584D01*
X396772Y498652D01*
X396849Y498717D01*
X396929Y498778D01*
X397011Y498837D01*
X397095Y498892D01*
X397181Y498944D01*
X397269Y498993D01*
X397359Y499038D01*
X397451Y499080D01*
X397544Y499118D01*
X397639Y499152D01*
X397734Y499183D01*
X397831Y499210D01*
X397929Y499233D01*
X398028Y499253D01*
X398128Y499268D01*
X398228Y499280D01*
X398328Y499288D01*
X398429Y499292D01*
X398529Y499292D01*
X398630Y499288D01*
X398730Y499280D01*
X398830Y499268D01*
X398930Y499253D01*
X399029Y499233D01*
X399127Y499210D01*
X399224Y499183D01*
X399319Y499152D01*
X399414Y499118D01*
X399507Y499080D01*
X399599Y499038D01*
X399689Y498993D01*
X399777Y498944D01*
X399863Y498892D01*
X399947Y498837D01*
X400029Y498778D01*
X400109Y498717D01*
X400186Y498652D01*
X400260Y498584D01*
X400332Y498514D01*
X400401Y498441D01*
X400468Y498365D01*
X400531Y498286D01*
X400591Y498206D01*
X400648Y498123D01*
X400702Y498037D01*
X400752Y497950D01*
X400799Y497861D01*
X400842Y497770D01*
X400882Y497678D01*
X400918Y497584D01*
X400951Y497489D01*
X400980Y497392D01*
X401005Y497295D01*
X401026Y497196D01*
X401044Y497097D01*
X401057Y496997D01*
X401067Y496897D01*
X401073Y496797D01*
X401075Y496696D01*
X401076Y496696D02*
X401076Y494099D01*
X420758Y480995D02*
X432442Y480995D01*
X420758Y480995D02*
X420758Y484240D01*
X420760Y484353D01*
X420766Y484466D01*
X420776Y484579D01*
X420790Y484692D01*
X420807Y484804D01*
X420829Y484915D01*
X420854Y485025D01*
X420884Y485135D01*
X420917Y485243D01*
X420954Y485350D01*
X420994Y485456D01*
X421039Y485560D01*
X421087Y485663D01*
X421138Y485764D01*
X421193Y485863D01*
X421251Y485960D01*
X421313Y486055D01*
X421378Y486148D01*
X421446Y486238D01*
X421517Y486326D01*
X421592Y486412D01*
X421669Y486495D01*
X421749Y486575D01*
X421832Y486652D01*
X421918Y486727D01*
X422006Y486798D01*
X422096Y486866D01*
X422189Y486931D01*
X422284Y486993D01*
X422381Y487051D01*
X422480Y487106D01*
X422581Y487157D01*
X422684Y487205D01*
X422788Y487250D01*
X422894Y487290D01*
X423001Y487327D01*
X423109Y487360D01*
X423219Y487390D01*
X423329Y487415D01*
X423440Y487437D01*
X423552Y487454D01*
X423665Y487468D01*
X423778Y487478D01*
X423891Y487484D01*
X424004Y487486D01*
X424117Y487484D01*
X424230Y487478D01*
X424343Y487468D01*
X424456Y487454D01*
X424568Y487437D01*
X424679Y487415D01*
X424789Y487390D01*
X424899Y487360D01*
X425007Y487327D01*
X425114Y487290D01*
X425220Y487250D01*
X425324Y487205D01*
X425427Y487157D01*
X425528Y487106D01*
X425627Y487051D01*
X425724Y486993D01*
X425819Y486931D01*
X425912Y486866D01*
X426002Y486798D01*
X426090Y486727D01*
X426176Y486652D01*
X426259Y486575D01*
X426339Y486495D01*
X426416Y486412D01*
X426491Y486326D01*
X426562Y486238D01*
X426630Y486148D01*
X426695Y486055D01*
X426757Y485960D01*
X426815Y485863D01*
X426870Y485764D01*
X426921Y485663D01*
X426969Y485560D01*
X427014Y485456D01*
X427054Y485350D01*
X427091Y485243D01*
X427124Y485135D01*
X427154Y485025D01*
X427179Y484915D01*
X427201Y484804D01*
X427218Y484692D01*
X427232Y484579D01*
X427242Y484466D01*
X427248Y484353D01*
X427250Y484240D01*
X427249Y484240D02*
X427249Y480995D01*
X427249Y484889D02*
X432442Y487486D01*
X429846Y492351D02*
X420758Y494947D01*
X429846Y492351D02*
X429846Y498842D01*
X427249Y496895D02*
X432442Y496895D01*
X381567Y481670D02*
X369883Y481670D01*
X369883Y484915D01*
X369885Y485028D01*
X369891Y485141D01*
X369901Y485254D01*
X369915Y485367D01*
X369932Y485479D01*
X369954Y485590D01*
X369979Y485700D01*
X370009Y485810D01*
X370042Y485918D01*
X370079Y486025D01*
X370119Y486131D01*
X370164Y486235D01*
X370212Y486338D01*
X370263Y486439D01*
X370318Y486538D01*
X370376Y486635D01*
X370438Y486730D01*
X370503Y486823D01*
X370571Y486913D01*
X370642Y487001D01*
X370717Y487087D01*
X370794Y487170D01*
X370874Y487250D01*
X370957Y487327D01*
X371043Y487402D01*
X371131Y487473D01*
X371221Y487541D01*
X371314Y487606D01*
X371409Y487668D01*
X371506Y487726D01*
X371605Y487781D01*
X371706Y487832D01*
X371809Y487880D01*
X371913Y487925D01*
X372019Y487965D01*
X372126Y488002D01*
X372234Y488035D01*
X372344Y488065D01*
X372454Y488090D01*
X372565Y488112D01*
X372677Y488129D01*
X372790Y488143D01*
X372903Y488153D01*
X373016Y488159D01*
X373129Y488161D01*
X373242Y488159D01*
X373355Y488153D01*
X373468Y488143D01*
X373581Y488129D01*
X373693Y488112D01*
X373804Y488090D01*
X373914Y488065D01*
X374024Y488035D01*
X374132Y488002D01*
X374239Y487965D01*
X374345Y487925D01*
X374449Y487880D01*
X374552Y487832D01*
X374653Y487781D01*
X374752Y487726D01*
X374849Y487668D01*
X374944Y487606D01*
X375037Y487541D01*
X375127Y487473D01*
X375215Y487402D01*
X375301Y487327D01*
X375384Y487250D01*
X375464Y487170D01*
X375541Y487087D01*
X375616Y487001D01*
X375687Y486913D01*
X375755Y486823D01*
X375820Y486730D01*
X375882Y486635D01*
X375940Y486538D01*
X375995Y486439D01*
X376046Y486338D01*
X376094Y486235D01*
X376139Y486131D01*
X376179Y486025D01*
X376216Y485918D01*
X376249Y485810D01*
X376279Y485700D01*
X376304Y485590D01*
X376326Y485479D01*
X376343Y485367D01*
X376357Y485254D01*
X376367Y485141D01*
X376373Y485028D01*
X376375Y484915D01*
X376374Y484915D02*
X376374Y481670D01*
X376374Y485564D02*
X381567Y488161D01*
X381567Y493026D02*
X381567Y496921D01*
X381565Y497020D01*
X381559Y497120D01*
X381550Y497219D01*
X381537Y497317D01*
X381520Y497415D01*
X381499Y497513D01*
X381474Y497609D01*
X381446Y497704D01*
X381414Y497798D01*
X381379Y497891D01*
X381340Y497983D01*
X381297Y498073D01*
X381252Y498161D01*
X381202Y498248D01*
X381150Y498332D01*
X381094Y498415D01*
X381036Y498495D01*
X380974Y498573D01*
X380909Y498648D01*
X380841Y498721D01*
X380771Y498791D01*
X380698Y498859D01*
X380623Y498924D01*
X380545Y498986D01*
X380465Y499044D01*
X380382Y499100D01*
X380298Y499152D01*
X380211Y499202D01*
X380123Y499247D01*
X380033Y499290D01*
X379941Y499329D01*
X379848Y499364D01*
X379754Y499396D01*
X379659Y499424D01*
X379563Y499449D01*
X379465Y499470D01*
X379367Y499487D01*
X379269Y499500D01*
X379170Y499509D01*
X379070Y499515D01*
X378971Y499517D01*
X377672Y499517D01*
X377573Y499515D01*
X377473Y499509D01*
X377374Y499500D01*
X377276Y499487D01*
X377178Y499470D01*
X377080Y499449D01*
X376984Y499424D01*
X376889Y499396D01*
X376795Y499364D01*
X376702Y499329D01*
X376610Y499290D01*
X376520Y499247D01*
X376432Y499202D01*
X376345Y499152D01*
X376261Y499100D01*
X376178Y499044D01*
X376098Y498986D01*
X376020Y498924D01*
X375945Y498859D01*
X375872Y498791D01*
X375802Y498721D01*
X375734Y498648D01*
X375669Y498573D01*
X375607Y498495D01*
X375549Y498415D01*
X375493Y498332D01*
X375441Y498248D01*
X375391Y498161D01*
X375346Y498073D01*
X375303Y497983D01*
X375264Y497891D01*
X375229Y497798D01*
X375197Y497704D01*
X375169Y497609D01*
X375144Y497513D01*
X375123Y497415D01*
X375106Y497317D01*
X375093Y497219D01*
X375084Y497120D01*
X375078Y497020D01*
X375076Y496921D01*
X375076Y493026D01*
X369883Y493026D01*
X369883Y499517D01*
X71295Y576508D02*
X71295Y588192D01*
X74540Y588192D01*
X74653Y588190D01*
X74766Y588184D01*
X74879Y588174D01*
X74992Y588160D01*
X75104Y588143D01*
X75215Y588121D01*
X75325Y588096D01*
X75435Y588066D01*
X75543Y588033D01*
X75650Y587996D01*
X75756Y587956D01*
X75860Y587911D01*
X75963Y587863D01*
X76064Y587812D01*
X76163Y587757D01*
X76260Y587699D01*
X76355Y587637D01*
X76448Y587572D01*
X76538Y587504D01*
X76626Y587433D01*
X76712Y587358D01*
X76795Y587281D01*
X76875Y587201D01*
X76952Y587118D01*
X77027Y587032D01*
X77098Y586944D01*
X77166Y586854D01*
X77231Y586761D01*
X77293Y586666D01*
X77351Y586569D01*
X77406Y586470D01*
X77457Y586369D01*
X77505Y586266D01*
X77550Y586162D01*
X77590Y586056D01*
X77627Y585949D01*
X77660Y585841D01*
X77690Y585731D01*
X77715Y585621D01*
X77737Y585510D01*
X77754Y585398D01*
X77768Y585285D01*
X77778Y585172D01*
X77784Y585059D01*
X77786Y584946D01*
X77784Y584833D01*
X77778Y584720D01*
X77768Y584607D01*
X77754Y584494D01*
X77737Y584382D01*
X77715Y584271D01*
X77690Y584161D01*
X77660Y584051D01*
X77627Y583943D01*
X77590Y583836D01*
X77550Y583730D01*
X77505Y583626D01*
X77457Y583523D01*
X77406Y583422D01*
X77351Y583323D01*
X77293Y583226D01*
X77231Y583131D01*
X77166Y583038D01*
X77098Y582948D01*
X77027Y582860D01*
X76952Y582774D01*
X76875Y582691D01*
X76795Y582611D01*
X76712Y582534D01*
X76626Y582459D01*
X76538Y582388D01*
X76448Y582320D01*
X76355Y582255D01*
X76260Y582193D01*
X76163Y582135D01*
X76064Y582080D01*
X75963Y582029D01*
X75860Y581981D01*
X75756Y581936D01*
X75650Y581896D01*
X75543Y581859D01*
X75435Y581826D01*
X75325Y581796D01*
X75215Y581771D01*
X75104Y581749D01*
X74992Y581732D01*
X74879Y581718D01*
X74766Y581708D01*
X74653Y581702D01*
X74540Y581700D01*
X74540Y581701D02*
X71295Y581701D01*
X75189Y581701D02*
X77786Y576508D01*
X82651Y582999D02*
X86546Y582999D01*
X86645Y582997D01*
X86745Y582991D01*
X86844Y582982D01*
X86942Y582969D01*
X87040Y582952D01*
X87138Y582931D01*
X87234Y582906D01*
X87329Y582878D01*
X87423Y582846D01*
X87516Y582811D01*
X87608Y582772D01*
X87698Y582729D01*
X87786Y582684D01*
X87873Y582634D01*
X87957Y582582D01*
X88040Y582526D01*
X88120Y582468D01*
X88198Y582406D01*
X88273Y582341D01*
X88346Y582273D01*
X88416Y582203D01*
X88484Y582130D01*
X88549Y582055D01*
X88611Y581977D01*
X88669Y581897D01*
X88725Y581814D01*
X88777Y581730D01*
X88827Y581643D01*
X88872Y581555D01*
X88915Y581465D01*
X88954Y581373D01*
X88989Y581280D01*
X89021Y581186D01*
X89049Y581091D01*
X89074Y580995D01*
X89095Y580897D01*
X89112Y580799D01*
X89125Y580701D01*
X89134Y580602D01*
X89140Y580502D01*
X89142Y580403D01*
X89142Y579754D01*
X89140Y579641D01*
X89134Y579528D01*
X89124Y579415D01*
X89110Y579302D01*
X89093Y579190D01*
X89071Y579079D01*
X89046Y578969D01*
X89016Y578859D01*
X88983Y578751D01*
X88946Y578644D01*
X88906Y578538D01*
X88861Y578434D01*
X88813Y578331D01*
X88762Y578230D01*
X88707Y578131D01*
X88649Y578034D01*
X88587Y577939D01*
X88522Y577846D01*
X88454Y577756D01*
X88383Y577668D01*
X88308Y577582D01*
X88231Y577499D01*
X88151Y577419D01*
X88068Y577342D01*
X87982Y577267D01*
X87894Y577196D01*
X87804Y577128D01*
X87711Y577063D01*
X87616Y577001D01*
X87519Y576943D01*
X87420Y576888D01*
X87319Y576837D01*
X87216Y576789D01*
X87112Y576744D01*
X87006Y576704D01*
X86899Y576667D01*
X86791Y576634D01*
X86681Y576604D01*
X86571Y576579D01*
X86460Y576557D01*
X86348Y576540D01*
X86235Y576526D01*
X86122Y576516D01*
X86009Y576510D01*
X85896Y576508D01*
X85783Y576510D01*
X85670Y576516D01*
X85557Y576526D01*
X85444Y576540D01*
X85332Y576557D01*
X85221Y576579D01*
X85111Y576604D01*
X85001Y576634D01*
X84893Y576667D01*
X84786Y576704D01*
X84680Y576744D01*
X84576Y576789D01*
X84473Y576837D01*
X84372Y576888D01*
X84273Y576943D01*
X84176Y577001D01*
X84081Y577063D01*
X83988Y577128D01*
X83898Y577196D01*
X83810Y577267D01*
X83724Y577342D01*
X83641Y577419D01*
X83561Y577499D01*
X83484Y577582D01*
X83409Y577668D01*
X83338Y577756D01*
X83270Y577846D01*
X83205Y577939D01*
X83143Y578034D01*
X83085Y578131D01*
X83030Y578230D01*
X82979Y578331D01*
X82931Y578434D01*
X82886Y578538D01*
X82846Y578644D01*
X82809Y578751D01*
X82776Y578859D01*
X82746Y578969D01*
X82721Y579079D01*
X82699Y579190D01*
X82682Y579302D01*
X82668Y579415D01*
X82658Y579528D01*
X82652Y579641D01*
X82650Y579754D01*
X82651Y579754D02*
X82651Y582999D01*
X82653Y583142D01*
X82659Y583285D01*
X82669Y583428D01*
X82683Y583570D01*
X82700Y583712D01*
X82722Y583854D01*
X82747Y583995D01*
X82777Y584135D01*
X82810Y584274D01*
X82847Y584412D01*
X82888Y584549D01*
X82932Y584685D01*
X82981Y584820D01*
X83033Y584953D01*
X83088Y585085D01*
X83148Y585215D01*
X83211Y585344D01*
X83277Y585471D01*
X83347Y585595D01*
X83420Y585718D01*
X83497Y585839D01*
X83577Y585958D01*
X83660Y586074D01*
X83746Y586189D01*
X83835Y586300D01*
X83928Y586410D01*
X84023Y586516D01*
X84122Y586620D01*
X84223Y586721D01*
X84327Y586820D01*
X84433Y586915D01*
X84543Y587008D01*
X84654Y587097D01*
X84769Y587183D01*
X84885Y587266D01*
X85004Y587346D01*
X85125Y587423D01*
X85247Y587496D01*
X85372Y587566D01*
X85499Y587632D01*
X85628Y587695D01*
X85758Y587755D01*
X85890Y587810D01*
X86023Y587862D01*
X86158Y587911D01*
X86294Y587955D01*
X86431Y587996D01*
X86569Y588033D01*
X86708Y588066D01*
X86848Y588096D01*
X86989Y588121D01*
X87131Y588143D01*
X87273Y588160D01*
X87415Y588174D01*
X87558Y588184D01*
X87701Y588190D01*
X87844Y588192D01*
X317358Y608808D02*
X317358Y620492D01*
X320604Y620492D01*
X320717Y620490D01*
X320830Y620484D01*
X320943Y620474D01*
X321056Y620460D01*
X321168Y620443D01*
X321279Y620421D01*
X321389Y620396D01*
X321499Y620366D01*
X321607Y620333D01*
X321714Y620296D01*
X321820Y620256D01*
X321924Y620211D01*
X322027Y620163D01*
X322128Y620112D01*
X322227Y620057D01*
X322324Y619999D01*
X322419Y619937D01*
X322512Y619872D01*
X322602Y619804D01*
X322690Y619733D01*
X322776Y619658D01*
X322859Y619581D01*
X322939Y619501D01*
X323016Y619418D01*
X323091Y619332D01*
X323162Y619244D01*
X323230Y619154D01*
X323295Y619061D01*
X323357Y618966D01*
X323415Y618869D01*
X323470Y618770D01*
X323521Y618669D01*
X323569Y618566D01*
X323614Y618462D01*
X323654Y618356D01*
X323691Y618249D01*
X323724Y618141D01*
X323754Y618031D01*
X323779Y617921D01*
X323801Y617810D01*
X323818Y617698D01*
X323832Y617585D01*
X323842Y617472D01*
X323848Y617359D01*
X323850Y617246D01*
X323848Y617133D01*
X323842Y617020D01*
X323832Y616907D01*
X323818Y616794D01*
X323801Y616682D01*
X323779Y616571D01*
X323754Y616461D01*
X323724Y616351D01*
X323691Y616243D01*
X323654Y616136D01*
X323614Y616030D01*
X323569Y615926D01*
X323521Y615823D01*
X323470Y615722D01*
X323415Y615623D01*
X323357Y615526D01*
X323295Y615431D01*
X323230Y615338D01*
X323162Y615248D01*
X323091Y615160D01*
X323016Y615074D01*
X322939Y614991D01*
X322859Y614911D01*
X322776Y614834D01*
X322690Y614759D01*
X322602Y614688D01*
X322512Y614620D01*
X322419Y614555D01*
X322324Y614493D01*
X322227Y614435D01*
X322128Y614380D01*
X322027Y614329D01*
X321924Y614281D01*
X321820Y614236D01*
X321714Y614196D01*
X321607Y614159D01*
X321499Y614126D01*
X321389Y614096D01*
X321279Y614071D01*
X321168Y614049D01*
X321056Y614032D01*
X320943Y614018D01*
X320830Y614008D01*
X320717Y614002D01*
X320604Y614000D01*
X320604Y614001D02*
X317358Y614001D01*
X321253Y614001D02*
X323849Y608808D01*
X328714Y619194D02*
X328714Y620492D01*
X335205Y620492D01*
X331960Y608808D01*
X318058Y595692D02*
X318058Y584008D01*
X318058Y595692D02*
X321304Y595692D01*
X321417Y595690D01*
X321530Y595684D01*
X321643Y595674D01*
X321756Y595660D01*
X321868Y595643D01*
X321979Y595621D01*
X322089Y595596D01*
X322199Y595566D01*
X322307Y595533D01*
X322414Y595496D01*
X322520Y595456D01*
X322624Y595411D01*
X322727Y595363D01*
X322828Y595312D01*
X322927Y595257D01*
X323024Y595199D01*
X323119Y595137D01*
X323212Y595072D01*
X323302Y595004D01*
X323390Y594933D01*
X323476Y594858D01*
X323559Y594781D01*
X323639Y594701D01*
X323716Y594618D01*
X323791Y594532D01*
X323862Y594444D01*
X323930Y594354D01*
X323995Y594261D01*
X324057Y594166D01*
X324115Y594069D01*
X324170Y593970D01*
X324221Y593869D01*
X324269Y593766D01*
X324314Y593662D01*
X324354Y593556D01*
X324391Y593449D01*
X324424Y593341D01*
X324454Y593231D01*
X324479Y593121D01*
X324501Y593010D01*
X324518Y592898D01*
X324532Y592785D01*
X324542Y592672D01*
X324548Y592559D01*
X324550Y592446D01*
X324548Y592333D01*
X324542Y592220D01*
X324532Y592107D01*
X324518Y591994D01*
X324501Y591882D01*
X324479Y591771D01*
X324454Y591661D01*
X324424Y591551D01*
X324391Y591443D01*
X324354Y591336D01*
X324314Y591230D01*
X324269Y591126D01*
X324221Y591023D01*
X324170Y590922D01*
X324115Y590823D01*
X324057Y590726D01*
X323995Y590631D01*
X323930Y590538D01*
X323862Y590448D01*
X323791Y590360D01*
X323716Y590274D01*
X323639Y590191D01*
X323559Y590111D01*
X323476Y590034D01*
X323390Y589959D01*
X323302Y589888D01*
X323212Y589820D01*
X323119Y589755D01*
X323024Y589693D01*
X322927Y589635D01*
X322828Y589580D01*
X322727Y589529D01*
X322624Y589481D01*
X322520Y589436D01*
X322414Y589396D01*
X322307Y589359D01*
X322199Y589326D01*
X322089Y589296D01*
X321979Y589271D01*
X321868Y589249D01*
X321756Y589232D01*
X321643Y589218D01*
X321530Y589208D01*
X321417Y589202D01*
X321304Y589200D01*
X321304Y589201D02*
X318058Y589201D01*
X321953Y589201D02*
X324549Y584008D01*
X329414Y587254D02*
X329416Y587367D01*
X329422Y587480D01*
X329432Y587593D01*
X329446Y587706D01*
X329463Y587818D01*
X329485Y587929D01*
X329510Y588039D01*
X329540Y588149D01*
X329573Y588257D01*
X329610Y588364D01*
X329650Y588470D01*
X329695Y588574D01*
X329743Y588677D01*
X329794Y588778D01*
X329849Y588877D01*
X329907Y588974D01*
X329969Y589069D01*
X330034Y589162D01*
X330102Y589252D01*
X330173Y589340D01*
X330248Y589426D01*
X330325Y589509D01*
X330405Y589589D01*
X330488Y589666D01*
X330574Y589741D01*
X330662Y589812D01*
X330752Y589880D01*
X330845Y589945D01*
X330940Y590007D01*
X331037Y590065D01*
X331136Y590120D01*
X331237Y590171D01*
X331340Y590219D01*
X331444Y590264D01*
X331550Y590304D01*
X331657Y590341D01*
X331765Y590374D01*
X331875Y590404D01*
X331985Y590429D01*
X332096Y590451D01*
X332208Y590468D01*
X332321Y590482D01*
X332434Y590492D01*
X332547Y590498D01*
X332660Y590500D01*
X332773Y590498D01*
X332886Y590492D01*
X332999Y590482D01*
X333112Y590468D01*
X333224Y590451D01*
X333335Y590429D01*
X333445Y590404D01*
X333555Y590374D01*
X333663Y590341D01*
X333770Y590304D01*
X333876Y590264D01*
X333980Y590219D01*
X334083Y590171D01*
X334184Y590120D01*
X334283Y590065D01*
X334380Y590007D01*
X334475Y589945D01*
X334568Y589880D01*
X334658Y589812D01*
X334746Y589741D01*
X334832Y589666D01*
X334915Y589589D01*
X334995Y589509D01*
X335072Y589426D01*
X335147Y589340D01*
X335218Y589252D01*
X335286Y589162D01*
X335351Y589069D01*
X335413Y588974D01*
X335471Y588877D01*
X335526Y588778D01*
X335577Y588677D01*
X335625Y588574D01*
X335670Y588470D01*
X335710Y588364D01*
X335747Y588257D01*
X335780Y588149D01*
X335810Y588039D01*
X335835Y587929D01*
X335857Y587818D01*
X335874Y587706D01*
X335888Y587593D01*
X335898Y587480D01*
X335904Y587367D01*
X335906Y587254D01*
X335904Y587141D01*
X335898Y587028D01*
X335888Y586915D01*
X335874Y586802D01*
X335857Y586690D01*
X335835Y586579D01*
X335810Y586469D01*
X335780Y586359D01*
X335747Y586251D01*
X335710Y586144D01*
X335670Y586038D01*
X335625Y585934D01*
X335577Y585831D01*
X335526Y585730D01*
X335471Y585631D01*
X335413Y585534D01*
X335351Y585439D01*
X335286Y585346D01*
X335218Y585256D01*
X335147Y585168D01*
X335072Y585082D01*
X334995Y584999D01*
X334915Y584919D01*
X334832Y584842D01*
X334746Y584767D01*
X334658Y584696D01*
X334568Y584628D01*
X334475Y584563D01*
X334380Y584501D01*
X334283Y584443D01*
X334184Y584388D01*
X334083Y584337D01*
X333980Y584289D01*
X333876Y584244D01*
X333770Y584204D01*
X333663Y584167D01*
X333555Y584134D01*
X333445Y584104D01*
X333335Y584079D01*
X333224Y584057D01*
X333112Y584040D01*
X332999Y584026D01*
X332886Y584016D01*
X332773Y584010D01*
X332660Y584008D01*
X332547Y584010D01*
X332434Y584016D01*
X332321Y584026D01*
X332208Y584040D01*
X332096Y584057D01*
X331985Y584079D01*
X331875Y584104D01*
X331765Y584134D01*
X331657Y584167D01*
X331550Y584204D01*
X331444Y584244D01*
X331340Y584289D01*
X331237Y584337D01*
X331136Y584388D01*
X331037Y584443D01*
X330940Y584501D01*
X330845Y584563D01*
X330752Y584628D01*
X330662Y584696D01*
X330574Y584767D01*
X330488Y584842D01*
X330405Y584919D01*
X330325Y584999D01*
X330248Y585082D01*
X330173Y585168D01*
X330102Y585256D01*
X330034Y585346D01*
X329969Y585439D01*
X329907Y585534D01*
X329849Y585631D01*
X329794Y585730D01*
X329743Y585831D01*
X329695Y585934D01*
X329650Y586038D01*
X329610Y586144D01*
X329573Y586251D01*
X329540Y586359D01*
X329510Y586469D01*
X329485Y586579D01*
X329463Y586690D01*
X329446Y586802D01*
X329432Y586915D01*
X329422Y587028D01*
X329416Y587141D01*
X329414Y587254D01*
X330064Y593096D02*
X330066Y593197D01*
X330072Y593297D01*
X330082Y593397D01*
X330095Y593497D01*
X330113Y593596D01*
X330134Y593695D01*
X330159Y593792D01*
X330188Y593889D01*
X330221Y593984D01*
X330257Y594078D01*
X330297Y594170D01*
X330340Y594261D01*
X330387Y594350D01*
X330437Y594437D01*
X330491Y594523D01*
X330548Y594606D01*
X330608Y594686D01*
X330671Y594765D01*
X330738Y594841D01*
X330807Y594914D01*
X330879Y594984D01*
X330953Y595052D01*
X331030Y595117D01*
X331110Y595178D01*
X331192Y595237D01*
X331276Y595292D01*
X331362Y595344D01*
X331450Y595393D01*
X331540Y595438D01*
X331632Y595480D01*
X331725Y595518D01*
X331820Y595552D01*
X331915Y595583D01*
X332012Y595610D01*
X332110Y595633D01*
X332209Y595653D01*
X332309Y595668D01*
X332409Y595680D01*
X332509Y595688D01*
X332610Y595692D01*
X332710Y595692D01*
X332811Y595688D01*
X332911Y595680D01*
X333011Y595668D01*
X333111Y595653D01*
X333210Y595633D01*
X333308Y595610D01*
X333405Y595583D01*
X333500Y595552D01*
X333595Y595518D01*
X333688Y595480D01*
X333780Y595438D01*
X333870Y595393D01*
X333958Y595344D01*
X334044Y595292D01*
X334128Y595237D01*
X334210Y595178D01*
X334290Y595117D01*
X334367Y595052D01*
X334441Y594984D01*
X334513Y594914D01*
X334582Y594841D01*
X334649Y594765D01*
X334712Y594686D01*
X334772Y594606D01*
X334829Y594523D01*
X334883Y594437D01*
X334933Y594350D01*
X334980Y594261D01*
X335023Y594170D01*
X335063Y594078D01*
X335099Y593984D01*
X335132Y593889D01*
X335161Y593792D01*
X335186Y593695D01*
X335207Y593596D01*
X335225Y593497D01*
X335238Y593397D01*
X335248Y593297D01*
X335254Y593197D01*
X335256Y593096D01*
X335254Y592995D01*
X335248Y592895D01*
X335238Y592795D01*
X335225Y592695D01*
X335207Y592596D01*
X335186Y592497D01*
X335161Y592400D01*
X335132Y592303D01*
X335099Y592208D01*
X335063Y592114D01*
X335023Y592022D01*
X334980Y591931D01*
X334933Y591842D01*
X334883Y591755D01*
X334829Y591669D01*
X334772Y591586D01*
X334712Y591506D01*
X334649Y591427D01*
X334582Y591351D01*
X334513Y591278D01*
X334441Y591208D01*
X334367Y591140D01*
X334290Y591075D01*
X334210Y591014D01*
X334128Y590955D01*
X334044Y590900D01*
X333958Y590848D01*
X333870Y590799D01*
X333780Y590754D01*
X333688Y590712D01*
X333595Y590674D01*
X333500Y590640D01*
X333405Y590609D01*
X333308Y590582D01*
X333210Y590559D01*
X333111Y590539D01*
X333011Y590524D01*
X332911Y590512D01*
X332811Y590504D01*
X332710Y590500D01*
X332610Y590500D01*
X332509Y590504D01*
X332409Y590512D01*
X332309Y590524D01*
X332209Y590539D01*
X332110Y590559D01*
X332012Y590582D01*
X331915Y590609D01*
X331820Y590640D01*
X331725Y590674D01*
X331632Y590712D01*
X331540Y590754D01*
X331450Y590799D01*
X331362Y590848D01*
X331276Y590900D01*
X331192Y590955D01*
X331110Y591014D01*
X331030Y591075D01*
X330953Y591140D01*
X330879Y591208D01*
X330807Y591278D01*
X330738Y591351D01*
X330671Y591427D01*
X330608Y591506D01*
X330548Y591586D01*
X330491Y591669D01*
X330437Y591755D01*
X330387Y591842D01*
X330340Y591931D01*
X330297Y592022D01*
X330257Y592114D01*
X330221Y592208D01*
X330188Y592303D01*
X330159Y592400D01*
X330134Y592497D01*
X330113Y592596D01*
X330095Y592695D01*
X330082Y592795D01*
X330072Y592895D01*
X330066Y592995D01*
X330064Y593096D01*
X70095Y613308D02*
X70095Y624992D01*
X73340Y624992D01*
X73453Y624990D01*
X73566Y624984D01*
X73679Y624974D01*
X73792Y624960D01*
X73904Y624943D01*
X74015Y624921D01*
X74125Y624896D01*
X74235Y624866D01*
X74343Y624833D01*
X74450Y624796D01*
X74556Y624756D01*
X74660Y624711D01*
X74763Y624663D01*
X74864Y624612D01*
X74963Y624557D01*
X75060Y624499D01*
X75155Y624437D01*
X75248Y624372D01*
X75338Y624304D01*
X75426Y624233D01*
X75512Y624158D01*
X75595Y624081D01*
X75675Y624001D01*
X75752Y623918D01*
X75827Y623832D01*
X75898Y623744D01*
X75966Y623654D01*
X76031Y623561D01*
X76093Y623466D01*
X76151Y623369D01*
X76206Y623270D01*
X76257Y623169D01*
X76305Y623066D01*
X76350Y622962D01*
X76390Y622856D01*
X76427Y622749D01*
X76460Y622641D01*
X76490Y622531D01*
X76515Y622421D01*
X76537Y622310D01*
X76554Y622198D01*
X76568Y622085D01*
X76578Y621972D01*
X76584Y621859D01*
X76586Y621746D01*
X76584Y621633D01*
X76578Y621520D01*
X76568Y621407D01*
X76554Y621294D01*
X76537Y621182D01*
X76515Y621071D01*
X76490Y620961D01*
X76460Y620851D01*
X76427Y620743D01*
X76390Y620636D01*
X76350Y620530D01*
X76305Y620426D01*
X76257Y620323D01*
X76206Y620222D01*
X76151Y620123D01*
X76093Y620026D01*
X76031Y619931D01*
X75966Y619838D01*
X75898Y619748D01*
X75827Y619660D01*
X75752Y619574D01*
X75675Y619491D01*
X75595Y619411D01*
X75512Y619334D01*
X75426Y619259D01*
X75338Y619188D01*
X75248Y619120D01*
X75155Y619055D01*
X75060Y618993D01*
X74963Y618935D01*
X74864Y618880D01*
X74763Y618829D01*
X74660Y618781D01*
X74556Y618736D01*
X74450Y618696D01*
X74343Y618659D01*
X74235Y618626D01*
X74125Y618596D01*
X74015Y618571D01*
X73904Y618549D01*
X73792Y618532D01*
X73679Y618518D01*
X73566Y618508D01*
X73453Y618502D01*
X73340Y618500D01*
X73340Y618501D02*
X70095Y618501D01*
X73989Y618501D02*
X76586Y613308D01*
X84047Y618501D02*
X87942Y618501D01*
X84047Y618501D02*
X83948Y618503D01*
X83848Y618509D01*
X83749Y618518D01*
X83651Y618531D01*
X83553Y618548D01*
X83455Y618569D01*
X83359Y618594D01*
X83264Y618622D01*
X83170Y618654D01*
X83077Y618689D01*
X82985Y618728D01*
X82895Y618771D01*
X82807Y618816D01*
X82720Y618866D01*
X82636Y618918D01*
X82553Y618974D01*
X82473Y619032D01*
X82395Y619094D01*
X82320Y619159D01*
X82247Y619227D01*
X82177Y619297D01*
X82109Y619370D01*
X82044Y619445D01*
X81982Y619523D01*
X81924Y619603D01*
X81868Y619686D01*
X81816Y619770D01*
X81766Y619857D01*
X81721Y619945D01*
X81678Y620035D01*
X81639Y620127D01*
X81604Y620220D01*
X81572Y620314D01*
X81544Y620409D01*
X81519Y620505D01*
X81498Y620603D01*
X81481Y620701D01*
X81468Y620799D01*
X81459Y620898D01*
X81453Y620998D01*
X81451Y621097D01*
X81451Y621746D01*
X81450Y621746D02*
X81452Y621859D01*
X81458Y621972D01*
X81468Y622085D01*
X81482Y622198D01*
X81499Y622310D01*
X81521Y622421D01*
X81546Y622531D01*
X81576Y622641D01*
X81609Y622749D01*
X81646Y622856D01*
X81686Y622962D01*
X81731Y623066D01*
X81779Y623169D01*
X81830Y623270D01*
X81885Y623369D01*
X81943Y623466D01*
X82005Y623561D01*
X82070Y623654D01*
X82138Y623744D01*
X82209Y623832D01*
X82284Y623918D01*
X82361Y624001D01*
X82441Y624081D01*
X82524Y624158D01*
X82610Y624233D01*
X82698Y624304D01*
X82788Y624372D01*
X82881Y624437D01*
X82976Y624499D01*
X83073Y624557D01*
X83172Y624612D01*
X83273Y624663D01*
X83376Y624711D01*
X83480Y624756D01*
X83586Y624796D01*
X83693Y624833D01*
X83801Y624866D01*
X83911Y624896D01*
X84021Y624921D01*
X84132Y624943D01*
X84244Y624960D01*
X84357Y624974D01*
X84470Y624984D01*
X84583Y624990D01*
X84696Y624992D01*
X84809Y624990D01*
X84922Y624984D01*
X85035Y624974D01*
X85148Y624960D01*
X85260Y624943D01*
X85371Y624921D01*
X85481Y624896D01*
X85591Y624866D01*
X85699Y624833D01*
X85806Y624796D01*
X85912Y624756D01*
X86016Y624711D01*
X86119Y624663D01*
X86220Y624612D01*
X86319Y624557D01*
X86416Y624499D01*
X86511Y624437D01*
X86604Y624372D01*
X86694Y624304D01*
X86782Y624233D01*
X86868Y624158D01*
X86951Y624081D01*
X87031Y624001D01*
X87108Y623918D01*
X87183Y623832D01*
X87254Y623744D01*
X87322Y623654D01*
X87387Y623561D01*
X87449Y623466D01*
X87507Y623369D01*
X87562Y623270D01*
X87613Y623169D01*
X87661Y623066D01*
X87706Y622962D01*
X87746Y622856D01*
X87783Y622749D01*
X87816Y622641D01*
X87846Y622531D01*
X87871Y622421D01*
X87893Y622310D01*
X87910Y622198D01*
X87924Y622085D01*
X87934Y621972D01*
X87940Y621859D01*
X87942Y621746D01*
X87942Y618501D01*
X87940Y618358D01*
X87934Y618215D01*
X87924Y618072D01*
X87910Y617930D01*
X87893Y617788D01*
X87871Y617646D01*
X87846Y617505D01*
X87816Y617365D01*
X87783Y617226D01*
X87746Y617088D01*
X87705Y616951D01*
X87661Y616815D01*
X87612Y616680D01*
X87560Y616547D01*
X87505Y616415D01*
X87445Y616285D01*
X87382Y616156D01*
X87316Y616029D01*
X87246Y615905D01*
X87173Y615782D01*
X87096Y615661D01*
X87016Y615542D01*
X86933Y615426D01*
X86847Y615311D01*
X86758Y615200D01*
X86665Y615090D01*
X86570Y614984D01*
X86471Y614880D01*
X86370Y614779D01*
X86266Y614680D01*
X86160Y614585D01*
X86050Y614492D01*
X85939Y614403D01*
X85824Y614317D01*
X85708Y614234D01*
X85589Y614154D01*
X85468Y614077D01*
X85345Y614004D01*
X85221Y613934D01*
X85094Y613868D01*
X84965Y613805D01*
X84835Y613745D01*
X84703Y613690D01*
X84570Y613638D01*
X84435Y613589D01*
X84299Y613545D01*
X84162Y613504D01*
X84024Y613467D01*
X83885Y613434D01*
X83745Y613404D01*
X83604Y613379D01*
X83462Y613357D01*
X83320Y613340D01*
X83178Y613326D01*
X83035Y613316D01*
X82892Y613310D01*
X82749Y613308D01*
D23*
X163195Y513270D02*
X166243Y513270D01*
X236855Y513270D02*
X236855Y516318D01*
X236855Y586930D02*
X233807Y586930D01*
X163195Y586930D02*
X163195Y583882D01*
X163195Y516318D02*
X163195Y513270D01*
X233807Y513270D02*
X236855Y513270D01*
X236855Y583882D02*
X236855Y586930D01*
X166243Y586930D02*
X163195Y586930D01*
D11*
X142078Y588567D02*
X142078Y584588D01*
X144399Y581603D01*
X142078Y584588D02*
X139756Y581603D01*
X142078Y584588D02*
X145725Y585914D01*
X142078Y584588D02*
X138430Y585914D01*
X250640Y603447D02*
X250640Y612069D01*
X250640Y603447D02*
X250642Y603333D01*
X250648Y603218D01*
X250658Y603104D01*
X250672Y602991D01*
X250689Y602877D01*
X250711Y602765D01*
X250736Y602653D01*
X250766Y602543D01*
X250799Y602433D01*
X250836Y602325D01*
X250876Y602218D01*
X250921Y602112D01*
X250968Y602008D01*
X251020Y601906D01*
X251075Y601806D01*
X251133Y601707D01*
X251195Y601611D01*
X251260Y601516D01*
X251328Y601425D01*
X251400Y601335D01*
X251474Y601248D01*
X251551Y601164D01*
X251632Y601082D01*
X251715Y601003D01*
X251800Y600927D01*
X251889Y600854D01*
X251979Y600785D01*
X252072Y600718D01*
X252168Y600655D01*
X252265Y600595D01*
X252365Y600538D01*
X252466Y600485D01*
X252569Y600435D01*
X252674Y600389D01*
X252780Y600346D01*
X252888Y600308D01*
X252997Y600273D01*
X253107Y600242D01*
X253218Y600214D01*
X253330Y600191D01*
X253443Y600171D01*
X253556Y600155D01*
X253670Y600143D01*
X253784Y600135D01*
X253899Y600131D01*
X254013Y600131D01*
X254128Y600135D01*
X254242Y600143D01*
X254356Y600155D01*
X254469Y600171D01*
X254582Y600191D01*
X254694Y600214D01*
X254805Y600242D01*
X254915Y600273D01*
X255024Y600308D01*
X255132Y600346D01*
X255238Y600389D01*
X255343Y600435D01*
X255446Y600485D01*
X255547Y600538D01*
X255647Y600595D01*
X255744Y600655D01*
X255840Y600718D01*
X255933Y600785D01*
X256023Y600854D01*
X256112Y600927D01*
X256197Y601003D01*
X256280Y601082D01*
X256361Y601164D01*
X256438Y601248D01*
X256512Y601335D01*
X256584Y601425D01*
X256652Y601516D01*
X256717Y601611D01*
X256779Y601707D01*
X256837Y601806D01*
X256892Y601906D01*
X256944Y602008D01*
X256991Y602112D01*
X257036Y602218D01*
X257076Y602325D01*
X257113Y602433D01*
X257146Y602543D01*
X257176Y602653D01*
X257201Y602765D01*
X257223Y602877D01*
X257240Y602991D01*
X257254Y603104D01*
X257264Y603218D01*
X257270Y603333D01*
X257272Y603447D01*
X257272Y612069D01*
X262451Y609416D02*
X265767Y612069D01*
X265767Y600131D01*
X262451Y600131D02*
X269083Y600131D01*
M02*
