G04 EAGLE Gerber RS-274X export*
G75*
%MOMM*%
%FSLAX34Y34*%
%LPD*%
%INBottom Copper*%
%IPPOS*%
%AMOC8*
5,1,8,0,0,1.08239X$1,22.5*%
G01*
%ADD10C,0.203200*%
%ADD11C,1.016000*%
%ADD12C,0.685800*%
%ADD13C,0.406400*%

G36*
X149020Y2544D02*
X149020Y2544D01*
X149039Y2542D01*
X149141Y2564D01*
X149243Y2580D01*
X149260Y2590D01*
X149280Y2594D01*
X149369Y2647D01*
X149460Y2696D01*
X149474Y2710D01*
X149491Y2720D01*
X149558Y2799D01*
X149629Y2874D01*
X149638Y2892D01*
X149651Y2907D01*
X149690Y3003D01*
X149733Y3097D01*
X149735Y3117D01*
X149743Y3135D01*
X149761Y3302D01*
X149761Y165685D01*
X305538Y321462D01*
X305591Y321536D01*
X305651Y321605D01*
X305663Y321635D01*
X305682Y321661D01*
X305709Y321748D01*
X305743Y321833D01*
X305747Y321874D01*
X305754Y321897D01*
X305753Y321929D01*
X305761Y322000D01*
X305761Y465612D01*
X305747Y465702D01*
X305739Y465793D01*
X305727Y465823D01*
X305722Y465855D01*
X305679Y465935D01*
X305643Y466019D01*
X305617Y466051D01*
X305606Y466072D01*
X305583Y466094D01*
X305538Y466150D01*
X302373Y469315D01*
X302299Y469368D01*
X302230Y469428D01*
X302200Y469440D01*
X302173Y469459D01*
X302086Y469486D01*
X302002Y469520D01*
X301961Y469524D01*
X301938Y469531D01*
X301906Y469530D01*
X301835Y469538D01*
X299914Y469538D01*
X297906Y470370D01*
X296370Y471906D01*
X295538Y473914D01*
X295538Y476086D01*
X296370Y478094D01*
X297906Y479630D01*
X299914Y480462D01*
X302086Y480462D01*
X304094Y479630D01*
X304462Y479262D01*
X304520Y479221D01*
X304572Y479171D01*
X304619Y479149D01*
X304661Y479119D01*
X304730Y479098D01*
X304795Y479068D01*
X304847Y479062D01*
X304897Y479046D01*
X304968Y479048D01*
X305039Y479040D01*
X305090Y479051D01*
X305142Y479053D01*
X305210Y479077D01*
X305280Y479093D01*
X305324Y479119D01*
X305373Y479137D01*
X305429Y479182D01*
X305491Y479219D01*
X305525Y479258D01*
X305565Y479291D01*
X305604Y479351D01*
X305651Y479406D01*
X305670Y479454D01*
X305698Y479498D01*
X305716Y479567D01*
X305743Y479634D01*
X305751Y479705D01*
X305759Y479736D01*
X305757Y479760D01*
X305761Y479801D01*
X305761Y487199D01*
X305750Y487270D01*
X305748Y487342D01*
X305730Y487391D01*
X305722Y487442D01*
X305688Y487505D01*
X305663Y487573D01*
X305631Y487614D01*
X305606Y487659D01*
X305555Y487709D01*
X305510Y487765D01*
X305466Y487793D01*
X305428Y487829D01*
X305363Y487859D01*
X305303Y487898D01*
X305252Y487911D01*
X305205Y487932D01*
X305134Y487940D01*
X305064Y487958D01*
X305012Y487954D01*
X304961Y487960D01*
X304890Y487944D01*
X304819Y487939D01*
X304771Y487918D01*
X304720Y487907D01*
X304659Y487870D01*
X304593Y487842D01*
X304537Y487798D01*
X304509Y487781D01*
X304494Y487763D01*
X304462Y487738D01*
X304094Y487370D01*
X302086Y486538D01*
X299914Y486538D01*
X297906Y487370D01*
X296370Y488906D01*
X295538Y490914D01*
X295538Y493086D01*
X296370Y495094D01*
X297906Y496630D01*
X299914Y497462D01*
X302086Y497462D01*
X304094Y496630D01*
X304462Y496262D01*
X304520Y496221D01*
X304572Y496171D01*
X304619Y496149D01*
X304661Y496119D01*
X304730Y496098D01*
X304795Y496068D01*
X304847Y496062D01*
X304897Y496046D01*
X304968Y496048D01*
X305039Y496040D01*
X305090Y496051D01*
X305142Y496053D01*
X305210Y496077D01*
X305280Y496093D01*
X305324Y496119D01*
X305373Y496137D01*
X305429Y496182D01*
X305491Y496219D01*
X305525Y496258D01*
X305565Y496291D01*
X305604Y496351D01*
X305651Y496406D01*
X305670Y496454D01*
X305698Y496498D01*
X305716Y496567D01*
X305743Y496634D01*
X305751Y496705D01*
X305759Y496736D01*
X305757Y496760D01*
X305761Y496801D01*
X305761Y502449D01*
X305750Y502520D01*
X305748Y502592D01*
X305730Y502641D01*
X305722Y502692D01*
X305688Y502755D01*
X305663Y502823D01*
X305631Y502864D01*
X305606Y502909D01*
X305555Y502959D01*
X305510Y503015D01*
X305466Y503043D01*
X305428Y503079D01*
X305363Y503109D01*
X305303Y503148D01*
X305252Y503161D01*
X305205Y503182D01*
X305134Y503190D01*
X305064Y503208D01*
X305012Y503204D01*
X304961Y503210D01*
X304890Y503194D01*
X304819Y503189D01*
X304771Y503168D01*
X304720Y503157D01*
X304659Y503120D01*
X304593Y503092D01*
X304537Y503048D01*
X304509Y503031D01*
X304494Y503013D01*
X304462Y502988D01*
X303344Y501870D01*
X301336Y501038D01*
X299164Y501038D01*
X297156Y501870D01*
X295620Y503406D01*
X294788Y505414D01*
X294788Y507586D01*
X295620Y509594D01*
X297156Y511130D01*
X299164Y511962D01*
X301336Y511962D01*
X303344Y511130D01*
X304462Y510012D01*
X304520Y509971D01*
X304572Y509921D01*
X304619Y509899D01*
X304661Y509869D01*
X304730Y509848D01*
X304795Y509818D01*
X304847Y509812D01*
X304897Y509796D01*
X304968Y509798D01*
X305039Y509790D01*
X305090Y509801D01*
X305142Y509803D01*
X305210Y509827D01*
X305280Y509843D01*
X305324Y509869D01*
X305373Y509887D01*
X305429Y509932D01*
X305491Y509969D01*
X305525Y510008D01*
X305565Y510041D01*
X305604Y510101D01*
X305651Y510156D01*
X305670Y510204D01*
X305698Y510248D01*
X305716Y510317D01*
X305743Y510384D01*
X305751Y510455D01*
X305759Y510486D01*
X305757Y510510D01*
X305761Y510551D01*
X305761Y516000D01*
X305747Y516090D01*
X305739Y516181D01*
X305727Y516211D01*
X305722Y516243D01*
X305679Y516323D01*
X305643Y516407D01*
X305617Y516440D01*
X305606Y516460D01*
X305583Y516482D01*
X305538Y516538D01*
X302451Y519626D01*
X302435Y519637D01*
X302422Y519653D01*
X302335Y519709D01*
X302251Y519769D01*
X302232Y519775D01*
X302215Y519786D01*
X302115Y519811D01*
X302016Y519842D01*
X301996Y519841D01*
X301977Y519846D01*
X301874Y519838D01*
X301770Y519835D01*
X301751Y519828D01*
X301731Y519827D01*
X301636Y519786D01*
X301539Y519751D01*
X301523Y519738D01*
X301505Y519731D01*
X301374Y519626D01*
X295684Y513935D01*
X291874Y513935D01*
X291854Y513932D01*
X291835Y513934D01*
X291733Y513912D01*
X291631Y513896D01*
X291614Y513886D01*
X291594Y513882D01*
X291505Y513829D01*
X291414Y513780D01*
X291400Y513766D01*
X291383Y513756D01*
X291316Y513677D01*
X291244Y513602D01*
X291236Y513584D01*
X291223Y513569D01*
X291184Y513473D01*
X291141Y513379D01*
X291139Y513359D01*
X291131Y513341D01*
X291113Y513174D01*
X291113Y487585D01*
X290030Y484971D01*
X245029Y439970D01*
X242415Y438887D01*
X239585Y438887D01*
X236971Y439970D01*
X234970Y441971D01*
X233887Y444585D01*
X233887Y447415D01*
X234970Y450029D01*
X276664Y491723D01*
X276717Y491797D01*
X276777Y491867D01*
X276789Y491897D01*
X276808Y491923D01*
X276835Y492010D01*
X276869Y492095D01*
X276873Y492136D01*
X276880Y492158D01*
X276879Y492190D01*
X276887Y492262D01*
X276887Y519415D01*
X277970Y522029D01*
X279971Y524030D01*
X282585Y525113D01*
X285415Y525113D01*
X288029Y524030D01*
X289771Y522288D01*
X289845Y522235D01*
X289915Y522175D01*
X289945Y522163D01*
X289971Y522144D01*
X290058Y522117D01*
X290143Y522083D01*
X290184Y522079D01*
X290206Y522072D01*
X290238Y522073D01*
X290309Y522065D01*
X292001Y522065D01*
X292091Y522079D01*
X292182Y522087D01*
X292212Y522099D01*
X292244Y522104D01*
X292324Y522147D01*
X292408Y522183D01*
X292440Y522209D01*
X292461Y522220D01*
X292483Y522243D01*
X292539Y522288D01*
X295626Y525374D01*
X295637Y525390D01*
X295653Y525403D01*
X295709Y525490D01*
X295769Y525574D01*
X295775Y525593D01*
X295786Y525610D01*
X295811Y525710D01*
X295842Y525809D01*
X295841Y525829D01*
X295846Y525848D01*
X295838Y525951D01*
X295835Y526055D01*
X295828Y526074D01*
X295827Y526093D01*
X295787Y526188D01*
X295751Y526286D01*
X295738Y526302D01*
X295731Y526320D01*
X295626Y526451D01*
X267761Y554315D01*
X267761Y587685D01*
X304315Y624239D01*
X349685Y624239D01*
X391268Y582656D01*
X391284Y582644D01*
X391296Y582629D01*
X391384Y582572D01*
X391467Y582512D01*
X391486Y582506D01*
X391503Y582496D01*
X391604Y582470D01*
X391702Y582440D01*
X391722Y582440D01*
X391742Y582436D01*
X391845Y582444D01*
X391948Y582446D01*
X391967Y582453D01*
X391987Y582455D01*
X392082Y582495D01*
X392179Y582531D01*
X392195Y582543D01*
X392213Y582551D01*
X392344Y582656D01*
X398728Y589040D01*
X400737Y591049D01*
X406009Y591049D01*
X406099Y591063D01*
X406190Y591071D01*
X406220Y591083D01*
X406252Y591088D01*
X406333Y591131D01*
X406417Y591167D01*
X406449Y591193D01*
X406469Y591204D01*
X406492Y591227D01*
X406548Y591272D01*
X407906Y592630D01*
X409914Y593462D01*
X412086Y593462D01*
X414094Y592630D01*
X415630Y591094D01*
X416462Y589086D01*
X416462Y586914D01*
X415630Y584906D01*
X414094Y583370D01*
X412086Y582538D01*
X409914Y582538D01*
X407906Y583370D01*
X406548Y584728D01*
X406474Y584781D01*
X406404Y584841D01*
X406374Y584853D01*
X406348Y584872D01*
X406261Y584899D01*
X406176Y584933D01*
X406135Y584937D01*
X406113Y584944D01*
X406081Y584943D01*
X406009Y584951D01*
X403578Y584951D01*
X403488Y584937D01*
X403397Y584929D01*
X403367Y584917D01*
X403335Y584912D01*
X403255Y584869D01*
X403171Y584833D01*
X403139Y584807D01*
X403118Y584796D01*
X403096Y584773D01*
X403040Y584728D01*
X396656Y578344D01*
X396644Y578328D01*
X396629Y578316D01*
X396573Y578228D01*
X396512Y578144D01*
X396506Y578125D01*
X396496Y578109D01*
X396470Y578008D01*
X396440Y577909D01*
X396440Y577889D01*
X396436Y577870D01*
X396444Y577767D01*
X396446Y577663D01*
X396453Y577645D01*
X396455Y577625D01*
X396495Y577530D01*
X396531Y577432D01*
X396543Y577417D01*
X396551Y577399D01*
X396656Y577268D01*
X397462Y576462D01*
X397536Y576409D01*
X397605Y576349D01*
X397635Y576337D01*
X397661Y576318D01*
X397749Y576291D01*
X397833Y576257D01*
X397874Y576253D01*
X397897Y576246D01*
X397929Y576247D01*
X398000Y576239D01*
X426190Y576239D01*
X426210Y576242D01*
X426229Y576240D01*
X426331Y576262D01*
X426433Y576279D01*
X426450Y576288D01*
X426470Y576292D01*
X426559Y576345D01*
X426650Y576394D01*
X426664Y576408D01*
X426681Y576418D01*
X426748Y576497D01*
X426820Y576572D01*
X426828Y576590D01*
X426841Y576605D01*
X426880Y576701D01*
X426923Y576795D01*
X426925Y576815D01*
X426933Y576833D01*
X426951Y577000D01*
X426951Y588758D01*
X426937Y588848D01*
X426929Y588939D01*
X426917Y588969D01*
X426912Y589001D01*
X426869Y589082D01*
X426833Y589166D01*
X426807Y589198D01*
X426796Y589218D01*
X426773Y589241D01*
X426728Y589297D01*
X407297Y608728D01*
X407223Y608781D01*
X407153Y608841D01*
X407123Y608853D01*
X407097Y608872D01*
X407010Y608899D01*
X406925Y608933D01*
X406884Y608937D01*
X406862Y608944D01*
X406830Y608943D01*
X406758Y608951D01*
X389084Y608951D01*
X367574Y630461D01*
X367574Y641386D01*
X367560Y641476D01*
X367552Y641567D01*
X367540Y641597D01*
X367535Y641629D01*
X367492Y641710D01*
X367456Y641794D01*
X367430Y641826D01*
X367419Y641846D01*
X367396Y641869D01*
X367351Y641925D01*
X366370Y642906D01*
X365538Y644914D01*
X365538Y647086D01*
X366370Y649094D01*
X367906Y650630D01*
X369914Y651462D01*
X372086Y651462D01*
X374094Y650630D01*
X375630Y649094D01*
X376462Y647086D01*
X376462Y644914D01*
X375630Y642906D01*
X374068Y641344D01*
X374043Y641328D01*
X373942Y641268D01*
X373938Y641263D01*
X373933Y641260D01*
X373858Y641170D01*
X373782Y641081D01*
X373780Y641075D01*
X373776Y641071D01*
X373734Y640962D01*
X373690Y640853D01*
X373689Y640846D01*
X373688Y640841D01*
X373687Y640823D01*
X373672Y640686D01*
X373672Y633302D01*
X373686Y633212D01*
X373694Y633121D01*
X373706Y633091D01*
X373711Y633059D01*
X373754Y632978D01*
X373790Y632894D01*
X373816Y632862D01*
X373827Y632842D01*
X373850Y632819D01*
X373895Y632763D01*
X391386Y615272D01*
X391460Y615219D01*
X391530Y615159D01*
X391560Y615147D01*
X391586Y615128D01*
X391673Y615101D01*
X391758Y615067D01*
X391799Y615063D01*
X391821Y615056D01*
X391853Y615057D01*
X391925Y615049D01*
X409599Y615049D01*
X411608Y613040D01*
X431040Y593608D01*
X433049Y591599D01*
X433049Y577000D01*
X433052Y576980D01*
X433050Y576961D01*
X433072Y576859D01*
X433088Y576757D01*
X433098Y576740D01*
X433102Y576720D01*
X433155Y576631D01*
X433204Y576540D01*
X433218Y576526D01*
X433228Y576509D01*
X433307Y576442D01*
X433382Y576371D01*
X433400Y576362D01*
X433415Y576349D01*
X433511Y576310D01*
X433605Y576267D01*
X433625Y576265D01*
X433643Y576257D01*
X433810Y576239D01*
X446698Y576239D01*
X446718Y576242D01*
X446737Y576240D01*
X446839Y576262D01*
X446941Y576279D01*
X446958Y576288D01*
X446978Y576292D01*
X447067Y576345D01*
X447158Y576394D01*
X447172Y576408D01*
X447189Y576418D01*
X447256Y576497D01*
X447328Y576572D01*
X447336Y576590D01*
X447349Y576605D01*
X447388Y576701D01*
X447431Y576795D01*
X447433Y576815D01*
X447441Y576833D01*
X447459Y577000D01*
X447459Y914645D01*
X447457Y914659D01*
X447458Y914682D01*
X447063Y922725D01*
X447056Y922757D01*
X447050Y922836D01*
X443911Y938612D01*
X443903Y938634D01*
X443868Y938755D01*
X437713Y953616D01*
X437700Y953636D01*
X437642Y953747D01*
X428706Y967122D01*
X428689Y967140D01*
X428611Y967237D01*
X417237Y978611D01*
X417218Y978625D01*
X417122Y978706D01*
X403747Y987642D01*
X403726Y987652D01*
X403616Y987713D01*
X388755Y993868D01*
X388732Y993874D01*
X388612Y993911D01*
X372836Y997050D01*
X372803Y997051D01*
X372725Y997063D01*
X364682Y997458D01*
X364668Y997457D01*
X364645Y997459D01*
X85355Y997459D01*
X85341Y997457D01*
X85318Y997458D01*
X77275Y997063D01*
X77243Y997056D01*
X77164Y997050D01*
X61388Y993911D01*
X61366Y993903D01*
X61245Y993868D01*
X46384Y987713D01*
X46364Y987700D01*
X46253Y987642D01*
X32878Y978706D01*
X32860Y978689D01*
X32763Y978611D01*
X21389Y967237D01*
X21375Y967218D01*
X21294Y967122D01*
X12358Y953747D01*
X12348Y953726D01*
X12287Y953616D01*
X6132Y938755D01*
X6126Y938732D01*
X6089Y938612D01*
X2950Y922836D01*
X2949Y922803D01*
X2937Y922725D01*
X2542Y914682D01*
X2543Y914668D01*
X2541Y914645D01*
X2541Y85355D01*
X2543Y85341D01*
X2542Y85318D01*
X2937Y77275D01*
X2944Y77243D01*
X2950Y77164D01*
X6089Y61388D01*
X6097Y61366D01*
X6132Y61245D01*
X12287Y46384D01*
X12300Y46364D01*
X12358Y46253D01*
X21294Y32878D01*
X21311Y32860D01*
X21389Y32763D01*
X32763Y21389D01*
X32782Y21375D01*
X32878Y21294D01*
X46253Y12358D01*
X46274Y12348D01*
X46384Y12287D01*
X61245Y6132D01*
X61268Y6126D01*
X61388Y6089D01*
X77164Y2950D01*
X77197Y2949D01*
X77275Y2937D01*
X85318Y2542D01*
X85332Y2543D01*
X85355Y2541D01*
X149000Y2541D01*
X149020Y2544D01*
G37*
%LPC*%
G36*
X140914Y493538D02*
X140914Y493538D01*
X138906Y494370D01*
X137548Y495728D01*
X137474Y495781D01*
X137404Y495841D01*
X137374Y495853D01*
X137348Y495872D01*
X137261Y495899D01*
X137176Y495933D01*
X137135Y495937D01*
X137113Y495944D01*
X137081Y495943D01*
X137009Y495951D01*
X131737Y495951D01*
X78951Y548737D01*
X78951Y582422D01*
X78937Y582512D01*
X78929Y582603D01*
X78917Y582633D01*
X78912Y582665D01*
X78869Y582745D01*
X78833Y582829D01*
X78807Y582861D01*
X78796Y582882D01*
X78773Y582904D01*
X78728Y582960D01*
X62951Y598737D01*
X62951Y699263D01*
X66315Y702627D01*
X66368Y702701D01*
X66428Y702770D01*
X66440Y702800D01*
X66459Y702827D01*
X66486Y702913D01*
X66520Y702998D01*
X66524Y703039D01*
X66531Y703062D01*
X66530Y703094D01*
X66538Y703165D01*
X66538Y705086D01*
X67370Y707094D01*
X68906Y708630D01*
X70914Y709462D01*
X73086Y709462D01*
X75094Y708630D01*
X76630Y707094D01*
X77462Y705086D01*
X77462Y702914D01*
X76630Y700906D01*
X75094Y699370D01*
X73086Y698538D01*
X71165Y698538D01*
X71075Y698524D01*
X70984Y698516D01*
X70954Y698504D01*
X70922Y698499D01*
X70842Y698456D01*
X70758Y698420D01*
X70726Y698394D01*
X70705Y698383D01*
X70683Y698360D01*
X70627Y698315D01*
X69272Y696960D01*
X69219Y696886D01*
X69159Y696817D01*
X69147Y696787D01*
X69128Y696760D01*
X69101Y696673D01*
X69067Y696589D01*
X69063Y696548D01*
X69056Y696525D01*
X69057Y696493D01*
X69049Y696422D01*
X69049Y601578D01*
X69063Y601488D01*
X69071Y601397D01*
X69083Y601367D01*
X69088Y601335D01*
X69131Y601255D01*
X69167Y601171D01*
X69193Y601139D01*
X69204Y601118D01*
X69227Y601096D01*
X69272Y601040D01*
X85049Y585263D01*
X85049Y551578D01*
X85063Y551488D01*
X85071Y551397D01*
X85083Y551367D01*
X85088Y551335D01*
X85131Y551255D01*
X85167Y551171D01*
X85193Y551139D01*
X85204Y551118D01*
X85227Y551096D01*
X85272Y551040D01*
X88652Y547660D01*
X88710Y547618D01*
X88762Y547569D01*
X88809Y547547D01*
X88851Y547516D01*
X88920Y547495D01*
X88985Y547465D01*
X89037Y547459D01*
X89087Y547444D01*
X89158Y547446D01*
X89229Y547438D01*
X89280Y547449D01*
X89332Y547450D01*
X89400Y547475D01*
X89470Y547490D01*
X89515Y547517D01*
X89563Y547535D01*
X89619Y547580D01*
X89681Y547616D01*
X89715Y547656D01*
X89755Y547688D01*
X89794Y547749D01*
X89841Y547803D01*
X89860Y547852D01*
X89888Y547895D01*
X89906Y547965D01*
X89933Y548031D01*
X89941Y548103D01*
X89949Y548134D01*
X89947Y548157D01*
X89951Y548198D01*
X89951Y585422D01*
X89937Y585512D01*
X89929Y585603D01*
X89917Y585633D01*
X89912Y585665D01*
X89869Y585745D01*
X89833Y585829D01*
X89807Y585861D01*
X89796Y585882D01*
X89773Y585904D01*
X89728Y585960D01*
X72951Y602737D01*
X72951Y653263D01*
X117315Y697627D01*
X117368Y697701D01*
X117428Y697770D01*
X117440Y697800D01*
X117459Y697827D01*
X117486Y697914D01*
X117520Y697998D01*
X117524Y698039D01*
X117531Y698062D01*
X117530Y698094D01*
X117538Y698165D01*
X117538Y700086D01*
X118370Y702094D01*
X119906Y703630D01*
X121914Y704462D01*
X124086Y704462D01*
X126094Y703630D01*
X127630Y702094D01*
X128462Y700086D01*
X128462Y697914D01*
X127630Y695906D01*
X126094Y694370D01*
X124086Y693538D01*
X122165Y693538D01*
X122075Y693524D01*
X121984Y693516D01*
X121954Y693504D01*
X121922Y693499D01*
X121842Y693456D01*
X121758Y693420D01*
X121726Y693394D01*
X121705Y693383D01*
X121683Y693360D01*
X121627Y693315D01*
X79272Y650960D01*
X79219Y650886D01*
X79159Y650817D01*
X79147Y650787D01*
X79128Y650760D01*
X79101Y650673D01*
X79067Y650589D01*
X79063Y650548D01*
X79056Y650525D01*
X79057Y650493D01*
X79049Y650422D01*
X79049Y605578D01*
X79063Y605488D01*
X79071Y605397D01*
X79083Y605367D01*
X79088Y605335D01*
X79131Y605255D01*
X79167Y605171D01*
X79193Y605139D01*
X79204Y605118D01*
X79227Y605096D01*
X79272Y605040D01*
X96049Y588263D01*
X96049Y546578D01*
X96063Y546488D01*
X96071Y546397D01*
X96083Y546367D01*
X96088Y546335D01*
X96131Y546255D01*
X96167Y546171D01*
X96193Y546139D01*
X96204Y546118D01*
X96227Y546096D01*
X96272Y546040D01*
X100652Y541660D01*
X100710Y541618D01*
X100762Y541569D01*
X100809Y541547D01*
X100851Y541516D01*
X100920Y541495D01*
X100985Y541465D01*
X101037Y541459D01*
X101087Y541444D01*
X101158Y541446D01*
X101229Y541438D01*
X101280Y541449D01*
X101332Y541450D01*
X101400Y541475D01*
X101470Y541490D01*
X101515Y541517D01*
X101563Y541535D01*
X101619Y541580D01*
X101681Y541616D01*
X101715Y541656D01*
X101755Y541688D01*
X101794Y541749D01*
X101841Y541803D01*
X101860Y541852D01*
X101888Y541895D01*
X101906Y541965D01*
X101933Y542031D01*
X101941Y542103D01*
X101949Y542134D01*
X101947Y542157D01*
X101951Y542198D01*
X101951Y585422D01*
X101937Y585512D01*
X101929Y585603D01*
X101917Y585633D01*
X101912Y585665D01*
X101869Y585745D01*
X101833Y585829D01*
X101807Y585861D01*
X101796Y585882D01*
X101773Y585904D01*
X101728Y585960D01*
X87960Y599728D01*
X85951Y601737D01*
X85951Y651263D01*
X135728Y701040D01*
X135781Y701114D01*
X135841Y701183D01*
X135853Y701213D01*
X135872Y701240D01*
X135899Y701327D01*
X135933Y701411D01*
X135937Y701452D01*
X135944Y701475D01*
X135943Y701507D01*
X135951Y701578D01*
X135951Y705009D01*
X135937Y705099D01*
X135929Y705190D01*
X135917Y705220D01*
X135912Y705252D01*
X135869Y705333D01*
X135833Y705417D01*
X135807Y705449D01*
X135796Y705469D01*
X135773Y705492D01*
X135728Y705548D01*
X134370Y706906D01*
X133538Y708914D01*
X133538Y711086D01*
X134370Y713094D01*
X135906Y714630D01*
X137914Y715462D01*
X140086Y715462D01*
X142094Y714630D01*
X143630Y713094D01*
X144462Y711086D01*
X144462Y708914D01*
X143630Y706906D01*
X142272Y705548D01*
X142219Y705474D01*
X142159Y705404D01*
X142147Y705374D01*
X142128Y705348D01*
X142101Y705261D01*
X142067Y705176D01*
X142063Y705135D01*
X142056Y705113D01*
X142057Y705081D01*
X142049Y705009D01*
X142049Y698737D01*
X92272Y648960D01*
X92219Y648886D01*
X92159Y648817D01*
X92147Y648787D01*
X92128Y648760D01*
X92101Y648673D01*
X92067Y648589D01*
X92063Y648548D01*
X92056Y648525D01*
X92057Y648493D01*
X92049Y648422D01*
X92049Y604578D01*
X92063Y604488D01*
X92071Y604397D01*
X92083Y604367D01*
X92088Y604335D01*
X92131Y604255D01*
X92167Y604171D01*
X92193Y604139D01*
X92204Y604118D01*
X92227Y604096D01*
X92272Y604040D01*
X102652Y593660D01*
X102710Y593618D01*
X102762Y593569D01*
X102809Y593547D01*
X102851Y593516D01*
X102920Y593495D01*
X102985Y593465D01*
X103037Y593459D01*
X103087Y593444D01*
X103158Y593446D01*
X103229Y593438D01*
X103280Y593449D01*
X103332Y593450D01*
X103400Y593475D01*
X103470Y593490D01*
X103515Y593517D01*
X103563Y593535D01*
X103619Y593580D01*
X103681Y593616D01*
X103715Y593656D01*
X103755Y593688D01*
X103794Y593749D01*
X103841Y593803D01*
X103860Y593852D01*
X103888Y593895D01*
X103906Y593965D01*
X103933Y594031D01*
X103941Y594103D01*
X103949Y594134D01*
X103947Y594157D01*
X103951Y594198D01*
X103951Y658263D01*
X138737Y693049D01*
X236422Y693049D01*
X236512Y693063D01*
X236603Y693071D01*
X236633Y693083D01*
X236665Y693088D01*
X236745Y693131D01*
X236829Y693167D01*
X236861Y693193D01*
X236882Y693204D01*
X236904Y693227D01*
X236960Y693272D01*
X245728Y702040D01*
X245781Y702114D01*
X245841Y702183D01*
X245853Y702213D01*
X245872Y702240D01*
X245899Y702327D01*
X245933Y702411D01*
X245937Y702452D01*
X245944Y702475D01*
X245943Y702507D01*
X245951Y702578D01*
X245951Y779985D01*
X245937Y780075D01*
X245929Y780166D01*
X245917Y780196D01*
X245912Y780228D01*
X245869Y780308D01*
X245833Y780392D01*
X245807Y780424D01*
X245796Y780445D01*
X245773Y780467D01*
X245728Y780523D01*
X244935Y781316D01*
X244935Y784684D01*
X255315Y795064D01*
X255368Y795138D01*
X255428Y795207D01*
X255440Y795237D01*
X255459Y795263D01*
X255486Y795350D01*
X255520Y795435D01*
X255524Y795476D01*
X255531Y795499D01*
X255530Y795531D01*
X255538Y795602D01*
X255538Y796086D01*
X256370Y798094D01*
X257906Y799630D01*
X259914Y800462D01*
X262086Y800462D01*
X264094Y799630D01*
X265630Y798094D01*
X266462Y796086D01*
X266462Y793914D01*
X265630Y791906D01*
X264094Y790370D01*
X262086Y789538D01*
X261602Y789538D01*
X261512Y789524D01*
X261421Y789516D01*
X261391Y789504D01*
X261359Y789499D01*
X261279Y789456D01*
X261195Y789420D01*
X261163Y789394D01*
X261142Y789383D01*
X261120Y789360D01*
X261064Y789315D01*
X252272Y780523D01*
X252219Y780449D01*
X252159Y780380D01*
X252147Y780350D01*
X252128Y780324D01*
X252101Y780237D01*
X252067Y780152D01*
X252063Y780111D01*
X252056Y780088D01*
X252057Y780056D01*
X252049Y779985D01*
X252049Y699737D01*
X239263Y686951D01*
X141578Y686951D01*
X141488Y686937D01*
X141397Y686929D01*
X141367Y686917D01*
X141335Y686912D01*
X141255Y686869D01*
X141171Y686833D01*
X141139Y686807D01*
X141118Y686796D01*
X141096Y686773D01*
X141040Y686728D01*
X110272Y655960D01*
X110219Y655886D01*
X110159Y655817D01*
X110147Y655787D01*
X110128Y655760D01*
X110101Y655673D01*
X110067Y655589D01*
X110063Y655548D01*
X110056Y655525D01*
X110057Y655493D01*
X110049Y655422D01*
X110049Y594578D01*
X110063Y594488D01*
X110071Y594397D01*
X110083Y594367D01*
X110088Y594335D01*
X110131Y594255D01*
X110167Y594171D01*
X110193Y594139D01*
X110204Y594118D01*
X110227Y594096D01*
X110272Y594040D01*
X125049Y579263D01*
X125049Y542903D01*
X125063Y542813D01*
X125071Y542722D01*
X125083Y542692D01*
X125088Y542660D01*
X125131Y542579D01*
X125167Y542495D01*
X125193Y542463D01*
X125204Y542443D01*
X125227Y542420D01*
X125272Y542364D01*
X126630Y541006D01*
X127462Y538998D01*
X127462Y536826D01*
X126630Y534818D01*
X125094Y533282D01*
X123086Y532450D01*
X120914Y532450D01*
X118906Y533282D01*
X117370Y534818D01*
X116538Y536826D01*
X116538Y538998D01*
X117370Y541006D01*
X118728Y542364D01*
X118781Y542438D01*
X118841Y542508D01*
X118853Y542538D01*
X118872Y542564D01*
X118899Y542651D01*
X118933Y542736D01*
X118937Y542777D01*
X118944Y542799D01*
X118943Y542831D01*
X118951Y542903D01*
X118951Y576422D01*
X118937Y576512D01*
X118929Y576603D01*
X118917Y576633D01*
X118912Y576665D01*
X118869Y576745D01*
X118833Y576829D01*
X118807Y576861D01*
X118796Y576882D01*
X118773Y576904D01*
X118728Y576960D01*
X109348Y586340D01*
X109290Y586382D01*
X109238Y586431D01*
X109191Y586453D01*
X109149Y586484D01*
X109080Y586505D01*
X109015Y586535D01*
X108963Y586541D01*
X108913Y586556D01*
X108842Y586554D01*
X108771Y586562D01*
X108720Y586551D01*
X108668Y586550D01*
X108600Y586525D01*
X108530Y586510D01*
X108485Y586483D01*
X108437Y586465D01*
X108381Y586420D01*
X108319Y586384D01*
X108285Y586344D01*
X108245Y586312D01*
X108206Y586251D01*
X108159Y586197D01*
X108140Y586148D01*
X108112Y586105D01*
X108094Y586035D01*
X108067Y585969D01*
X108059Y585897D01*
X108051Y585866D01*
X108053Y585843D01*
X108049Y585802D01*
X108049Y540578D01*
X108063Y540488D01*
X108071Y540397D01*
X108083Y540367D01*
X108088Y540335D01*
X108131Y540255D01*
X108167Y540171D01*
X108193Y540139D01*
X108204Y540118D01*
X108227Y540096D01*
X108272Y540040D01*
X126040Y522272D01*
X126114Y522219D01*
X126183Y522159D01*
X126213Y522147D01*
X126240Y522128D01*
X126327Y522101D01*
X126411Y522067D01*
X126452Y522063D01*
X126475Y522056D01*
X126507Y522057D01*
X126578Y522049D01*
X141765Y522049D01*
X141830Y522059D01*
X141895Y522060D01*
X141975Y522083D01*
X142008Y522088D01*
X142025Y522098D01*
X142056Y522107D01*
X142914Y522462D01*
X145086Y522462D01*
X147094Y521630D01*
X148630Y520094D01*
X149462Y518086D01*
X149462Y515914D01*
X148630Y513906D01*
X147094Y512370D01*
X145086Y511538D01*
X142914Y511538D01*
X140906Y512370D01*
X139370Y513906D01*
X138717Y515481D01*
X138655Y515581D01*
X138596Y515681D01*
X138591Y515685D01*
X138588Y515690D01*
X138497Y515765D01*
X138409Y515841D01*
X138403Y515843D01*
X138398Y515847D01*
X138290Y515889D01*
X138181Y515933D01*
X138173Y515934D01*
X138169Y515935D01*
X138150Y515936D01*
X138014Y515951D01*
X128198Y515951D01*
X128127Y515940D01*
X128056Y515938D01*
X128007Y515920D01*
X127955Y515912D01*
X127892Y515878D01*
X127825Y515853D01*
X127784Y515821D01*
X127738Y515796D01*
X127689Y515744D01*
X127633Y515700D01*
X127604Y515656D01*
X127569Y515618D01*
X127538Y515553D01*
X127500Y515493D01*
X127487Y515442D01*
X127465Y515395D01*
X127457Y515324D01*
X127440Y515254D01*
X127444Y515202D01*
X127438Y515151D01*
X127453Y515080D01*
X127459Y515009D01*
X127479Y514961D01*
X127490Y514910D01*
X127527Y514849D01*
X127555Y514783D01*
X127600Y514727D01*
X127616Y514699D01*
X127634Y514684D01*
X127660Y514652D01*
X132108Y510204D01*
X132182Y510151D01*
X132251Y510091D01*
X132281Y510079D01*
X132308Y510060D01*
X132395Y510033D01*
X132479Y509999D01*
X132520Y509995D01*
X132543Y509988D01*
X132575Y509989D01*
X132646Y509981D01*
X161331Y509981D01*
X165049Y506263D01*
X165049Y505991D01*
X165063Y505901D01*
X165071Y505810D01*
X165083Y505780D01*
X165088Y505748D01*
X165131Y505667D01*
X165167Y505583D01*
X165193Y505551D01*
X165204Y505531D01*
X165227Y505508D01*
X165272Y505452D01*
X166630Y504094D01*
X167462Y502086D01*
X167462Y499914D01*
X166630Y497906D01*
X165094Y496370D01*
X163086Y495538D01*
X160914Y495538D01*
X158906Y496370D01*
X157370Y497906D01*
X156538Y499914D01*
X156538Y502086D01*
X156847Y502831D01*
X156857Y502875D01*
X156876Y502917D01*
X156885Y502994D01*
X156903Y503070D01*
X156898Y503116D01*
X156903Y503161D01*
X156887Y503238D01*
X156880Y503315D01*
X156861Y503357D01*
X156851Y503402D01*
X156811Y503469D01*
X156780Y503540D01*
X156749Y503574D01*
X156725Y503613D01*
X156666Y503664D01*
X156613Y503721D01*
X156573Y503743D01*
X156538Y503773D01*
X156466Y503802D01*
X156398Y503839D01*
X156353Y503848D01*
X156310Y503865D01*
X156174Y503880D01*
X156156Y503883D01*
X156151Y503882D01*
X156143Y503883D01*
X146679Y503883D01*
X146608Y503872D01*
X146536Y503870D01*
X146487Y503852D01*
X146436Y503844D01*
X146373Y503810D01*
X146305Y503785D01*
X146264Y503753D01*
X146218Y503728D01*
X146169Y503677D01*
X146113Y503632D01*
X146085Y503588D01*
X146049Y503550D01*
X146019Y503485D01*
X145980Y503425D01*
X145967Y503374D01*
X145945Y503327D01*
X145938Y503256D01*
X145920Y503186D01*
X145924Y503134D01*
X145918Y503083D01*
X145934Y503012D01*
X145939Y502941D01*
X145960Y502893D01*
X145971Y502842D01*
X146007Y502781D01*
X146036Y502715D01*
X146080Y502659D01*
X146097Y502631D01*
X146115Y502616D01*
X146140Y502584D01*
X146630Y502094D01*
X147462Y500086D01*
X147462Y497914D01*
X146630Y495906D01*
X145094Y494370D01*
X143086Y493538D01*
X140914Y493538D01*
G37*
%LPD*%
%LPC*%
G36*
X121737Y445951D02*
X121737Y445951D01*
X37951Y529737D01*
X37951Y557422D01*
X37937Y557512D01*
X37929Y557603D01*
X37917Y557633D01*
X37912Y557665D01*
X37869Y557745D01*
X37833Y557829D01*
X37807Y557861D01*
X37796Y557882D01*
X37773Y557904D01*
X37728Y557960D01*
X11976Y583712D01*
X11902Y583765D01*
X11833Y583825D01*
X11803Y583837D01*
X11776Y583856D01*
X11689Y583883D01*
X11605Y583917D01*
X11564Y583921D01*
X11541Y583928D01*
X11509Y583927D01*
X11438Y583935D01*
X10316Y583935D01*
X7935Y586316D01*
X7935Y721025D01*
X7921Y721115D01*
X7913Y721206D01*
X7901Y721236D01*
X7896Y721268D01*
X7853Y721349D01*
X7817Y721433D01*
X7791Y721465D01*
X7780Y721485D01*
X7757Y721508D01*
X7712Y721564D01*
X7370Y721906D01*
X6538Y723914D01*
X6538Y726086D01*
X7370Y728094D01*
X8906Y729630D01*
X10914Y730462D01*
X13086Y730462D01*
X15094Y729630D01*
X16630Y728094D01*
X17462Y726086D01*
X17462Y723914D01*
X16630Y721906D01*
X16288Y721564D01*
X16235Y721490D01*
X16175Y721420D01*
X16163Y721390D01*
X16144Y721364D01*
X16117Y721277D01*
X16083Y721192D01*
X16079Y721151D01*
X16072Y721129D01*
X16073Y721097D01*
X16065Y721025D01*
X16065Y588562D01*
X16079Y588472D01*
X16087Y588381D01*
X16099Y588351D01*
X16104Y588319D01*
X16147Y588239D01*
X16183Y588155D01*
X16209Y588123D01*
X16220Y588102D01*
X16243Y588080D01*
X16288Y588024D01*
X44049Y560263D01*
X44049Y532578D01*
X44063Y532488D01*
X44071Y532397D01*
X44083Y532367D01*
X44088Y532335D01*
X44131Y532255D01*
X44167Y532171D01*
X44193Y532139D01*
X44204Y532118D01*
X44227Y532096D01*
X44272Y532040D01*
X124040Y452272D01*
X124114Y452219D01*
X124183Y452159D01*
X124213Y452147D01*
X124240Y452128D01*
X124327Y452101D01*
X124411Y452067D01*
X124452Y452063D01*
X124475Y452056D01*
X124507Y452057D01*
X124578Y452049D01*
X211422Y452049D01*
X211512Y452063D01*
X211603Y452071D01*
X211633Y452083D01*
X211665Y452088D01*
X211745Y452131D01*
X211829Y452167D01*
X211861Y452193D01*
X211882Y452204D01*
X211904Y452227D01*
X211960Y452272D01*
X246728Y487040D01*
X246781Y487114D01*
X246841Y487183D01*
X246853Y487213D01*
X246872Y487240D01*
X246899Y487327D01*
X246933Y487411D01*
X246937Y487452D01*
X246944Y487475D01*
X246943Y487507D01*
X246951Y487578D01*
X246951Y502609D01*
X246937Y502699D01*
X246929Y502790D01*
X246917Y502820D01*
X246912Y502852D01*
X246869Y502933D01*
X246833Y503017D01*
X246807Y503049D01*
X246796Y503069D01*
X246773Y503092D01*
X246728Y503148D01*
X245370Y504506D01*
X244538Y506514D01*
X244538Y508686D01*
X245370Y510694D01*
X246906Y512230D01*
X248914Y513062D01*
X251086Y513062D01*
X253094Y512230D01*
X254630Y510694D01*
X255462Y508686D01*
X255462Y506514D01*
X254630Y504506D01*
X253272Y503148D01*
X253219Y503074D01*
X253159Y503004D01*
X253147Y502974D01*
X253128Y502948D01*
X253101Y502861D01*
X253067Y502776D01*
X253063Y502735D01*
X253056Y502713D01*
X253057Y502681D01*
X253049Y502609D01*
X253049Y484737D01*
X214263Y445951D01*
X121737Y445951D01*
G37*
%LPD*%
%LPC*%
G36*
X124737Y454951D02*
X124737Y454951D01*
X47960Y531728D01*
X45951Y533737D01*
X45951Y562422D01*
X45937Y562512D01*
X45929Y562603D01*
X45917Y562633D01*
X45912Y562665D01*
X45869Y562745D01*
X45833Y562829D01*
X45807Y562861D01*
X45796Y562882D01*
X45773Y562904D01*
X45728Y562960D01*
X22976Y585712D01*
X22902Y585765D01*
X22833Y585825D01*
X22803Y585837D01*
X22776Y585856D01*
X22689Y585883D01*
X22605Y585917D01*
X22564Y585921D01*
X22541Y585928D01*
X22509Y585927D01*
X22438Y585935D01*
X21316Y585935D01*
X18935Y588316D01*
X18935Y722684D01*
X29712Y733461D01*
X29765Y733535D01*
X29825Y733604D01*
X29837Y733634D01*
X29856Y733660D01*
X29883Y733747D01*
X29917Y733832D01*
X29921Y733873D01*
X29928Y733896D01*
X29927Y733928D01*
X29935Y733999D01*
X29935Y743025D01*
X29921Y743115D01*
X29913Y743206D01*
X29901Y743236D01*
X29896Y743268D01*
X29853Y743349D01*
X29817Y743433D01*
X29791Y743465D01*
X29780Y743485D01*
X29757Y743508D01*
X29712Y743564D01*
X29370Y743906D01*
X28538Y745914D01*
X28538Y748086D01*
X29370Y750094D01*
X30906Y751630D01*
X32914Y752462D01*
X35086Y752462D01*
X37094Y751630D01*
X38630Y750094D01*
X39462Y748086D01*
X39462Y745914D01*
X38630Y743906D01*
X38288Y743564D01*
X38235Y743490D01*
X38175Y743420D01*
X38163Y743390D01*
X38144Y743364D01*
X38117Y743277D01*
X38083Y743192D01*
X38079Y743151D01*
X38072Y743129D01*
X38073Y743097D01*
X38065Y743025D01*
X38065Y730316D01*
X27288Y719539D01*
X27235Y719465D01*
X27175Y719396D01*
X27163Y719366D01*
X27144Y719340D01*
X27117Y719253D01*
X27083Y719168D01*
X27079Y719127D01*
X27072Y719104D01*
X27073Y719072D01*
X27065Y719001D01*
X27065Y590562D01*
X27079Y590472D01*
X27087Y590381D01*
X27099Y590351D01*
X27104Y590319D01*
X27147Y590239D01*
X27183Y590155D01*
X27209Y590123D01*
X27220Y590102D01*
X27243Y590080D01*
X27288Y590024D01*
X52049Y565263D01*
X52049Y536578D01*
X52063Y536488D01*
X52071Y536397D01*
X52083Y536367D01*
X52088Y536335D01*
X52131Y536255D01*
X52167Y536171D01*
X52193Y536139D01*
X52204Y536118D01*
X52227Y536096D01*
X52272Y536040D01*
X127040Y461272D01*
X127114Y461219D01*
X127183Y461159D01*
X127213Y461147D01*
X127240Y461128D01*
X127327Y461101D01*
X127411Y461067D01*
X127452Y461063D01*
X127475Y461056D01*
X127507Y461057D01*
X127578Y461049D01*
X201422Y461049D01*
X201512Y461063D01*
X201603Y461071D01*
X201633Y461083D01*
X201665Y461088D01*
X201745Y461131D01*
X201829Y461167D01*
X201861Y461193D01*
X201882Y461204D01*
X201904Y461227D01*
X201960Y461272D01*
X214315Y473627D01*
X214368Y473701D01*
X214428Y473770D01*
X214440Y473800D01*
X214459Y473827D01*
X214486Y473914D01*
X214520Y473998D01*
X214524Y474039D01*
X214531Y474062D01*
X214530Y474094D01*
X214538Y474165D01*
X214538Y476086D01*
X215370Y478094D01*
X216906Y479630D01*
X218914Y480462D01*
X221086Y480462D01*
X223094Y479630D01*
X224630Y478094D01*
X225462Y476086D01*
X225462Y473914D01*
X224630Y471906D01*
X223094Y470370D01*
X221086Y469538D01*
X219165Y469538D01*
X219075Y469524D01*
X218984Y469516D01*
X218954Y469504D01*
X218922Y469499D01*
X218842Y469456D01*
X218758Y469420D01*
X218726Y469394D01*
X218705Y469383D01*
X218683Y469360D01*
X218627Y469315D01*
X204263Y454951D01*
X124737Y454951D01*
G37*
%LPD*%
%LPC*%
G36*
X128737Y462951D02*
X128737Y462951D01*
X53951Y537737D01*
X53951Y568422D01*
X53937Y568512D01*
X53929Y568603D01*
X53917Y568633D01*
X53912Y568665D01*
X53869Y568745D01*
X53833Y568829D01*
X53807Y568861D01*
X53796Y568882D01*
X53773Y568904D01*
X53728Y568960D01*
X33928Y588760D01*
X33854Y588813D01*
X33785Y588873D01*
X33755Y588885D01*
X33728Y588904D01*
X33641Y588931D01*
X33557Y588965D01*
X33516Y588969D01*
X33493Y588976D01*
X33461Y588975D01*
X33390Y588983D01*
X32268Y588983D01*
X29887Y591364D01*
X29887Y716636D01*
X55712Y742461D01*
X55765Y742535D01*
X55825Y742604D01*
X55837Y742634D01*
X55856Y742660D01*
X55883Y742747D01*
X55917Y742832D01*
X55921Y742873D01*
X55928Y742896D01*
X55927Y742928D01*
X55935Y742999D01*
X55935Y761025D01*
X55921Y761115D01*
X55913Y761206D01*
X55901Y761236D01*
X55896Y761268D01*
X55853Y761349D01*
X55817Y761433D01*
X55791Y761465D01*
X55780Y761485D01*
X55757Y761508D01*
X55712Y761564D01*
X55370Y761906D01*
X54538Y763914D01*
X54538Y766086D01*
X55370Y768094D01*
X56906Y769630D01*
X58914Y770462D01*
X61086Y770462D01*
X63094Y769630D01*
X64630Y768094D01*
X65462Y766086D01*
X65462Y763914D01*
X64630Y761906D01*
X64288Y761564D01*
X64235Y761490D01*
X64175Y761420D01*
X64163Y761390D01*
X64144Y761364D01*
X64117Y761277D01*
X64083Y761192D01*
X64079Y761151D01*
X64072Y761129D01*
X64073Y761097D01*
X64065Y761025D01*
X64065Y739316D01*
X38240Y713491D01*
X38187Y713417D01*
X38127Y713348D01*
X38115Y713318D01*
X38096Y713292D01*
X38069Y713205D01*
X38035Y713120D01*
X38031Y713079D01*
X38024Y713056D01*
X38025Y713024D01*
X38017Y712953D01*
X38017Y593610D01*
X38031Y593520D01*
X38039Y593429D01*
X38051Y593399D01*
X38056Y593367D01*
X38099Y593287D01*
X38135Y593203D01*
X38161Y593171D01*
X38172Y593150D01*
X38195Y593128D01*
X38240Y593072D01*
X60049Y571263D01*
X60049Y540578D01*
X60063Y540488D01*
X60071Y540397D01*
X60083Y540367D01*
X60088Y540335D01*
X60131Y540255D01*
X60167Y540171D01*
X60193Y540139D01*
X60204Y540118D01*
X60227Y540096D01*
X60272Y540040D01*
X131040Y469272D01*
X131114Y469219D01*
X131183Y469159D01*
X131213Y469147D01*
X131240Y469128D01*
X131327Y469101D01*
X131411Y469067D01*
X131452Y469063D01*
X131475Y469056D01*
X131507Y469057D01*
X131578Y469049D01*
X194422Y469049D01*
X194512Y469063D01*
X194603Y469071D01*
X194633Y469083D01*
X194665Y469088D01*
X194745Y469131D01*
X194829Y469167D01*
X194861Y469193D01*
X194882Y469204D01*
X194904Y469227D01*
X194960Y469272D01*
X199315Y473627D01*
X199368Y473701D01*
X199428Y473770D01*
X199440Y473800D01*
X199459Y473827D01*
X199486Y473914D01*
X199520Y473998D01*
X199524Y474039D01*
X199531Y474062D01*
X199530Y474094D01*
X199538Y474165D01*
X199538Y476086D01*
X200370Y478094D01*
X201906Y479630D01*
X203914Y480462D01*
X206086Y480462D01*
X208094Y479630D01*
X209630Y478094D01*
X210462Y476086D01*
X210462Y473914D01*
X209630Y471906D01*
X208094Y470370D01*
X206086Y469538D01*
X204165Y469538D01*
X204075Y469524D01*
X203984Y469516D01*
X203954Y469504D01*
X203922Y469499D01*
X203842Y469456D01*
X203758Y469420D01*
X203726Y469394D01*
X203705Y469383D01*
X203683Y469360D01*
X203627Y469315D01*
X199272Y464960D01*
X197263Y462951D01*
X128737Y462951D01*
G37*
%LPD*%
%LPC*%
G36*
X171914Y471450D02*
X171914Y471450D01*
X169906Y472282D01*
X168548Y473640D01*
X168474Y473693D01*
X168404Y473753D01*
X168374Y473765D01*
X168348Y473784D01*
X168261Y473811D01*
X168176Y473845D01*
X168135Y473849D01*
X168113Y473856D01*
X168081Y473855D01*
X168009Y473863D01*
X130825Y473863D01*
X61951Y542737D01*
X61951Y575422D01*
X61937Y575512D01*
X61929Y575603D01*
X61917Y575633D01*
X61912Y575665D01*
X61869Y575745D01*
X61833Y575829D01*
X61807Y575861D01*
X61796Y575882D01*
X61773Y575904D01*
X61728Y575960D01*
X40951Y596737D01*
X40951Y699985D01*
X40937Y700075D01*
X40929Y700166D01*
X40917Y700196D01*
X40912Y700228D01*
X40869Y700308D01*
X40833Y700392D01*
X40807Y700424D01*
X40796Y700445D01*
X40773Y700467D01*
X40728Y700523D01*
X39935Y701316D01*
X39935Y704684D01*
X80712Y745461D01*
X80765Y745535D01*
X80825Y745604D01*
X80837Y745634D01*
X80856Y745660D01*
X80883Y745747D01*
X80917Y745832D01*
X80921Y745873D01*
X80928Y745896D01*
X80927Y745928D01*
X80935Y745999D01*
X80935Y797025D01*
X80921Y797115D01*
X80913Y797206D01*
X80901Y797236D01*
X80896Y797268D01*
X80853Y797349D01*
X80817Y797433D01*
X80791Y797465D01*
X80780Y797485D01*
X80757Y797508D01*
X80712Y797564D01*
X80370Y797906D01*
X79538Y799914D01*
X79538Y802086D01*
X80370Y804094D01*
X81906Y805630D01*
X83914Y806462D01*
X86086Y806462D01*
X88094Y805630D01*
X89630Y804094D01*
X90462Y802086D01*
X90462Y799914D01*
X89630Y797906D01*
X89288Y797564D01*
X89235Y797490D01*
X89175Y797420D01*
X89163Y797390D01*
X89144Y797364D01*
X89117Y797277D01*
X89083Y797192D01*
X89079Y797151D01*
X89072Y797129D01*
X89073Y797097D01*
X89065Y797025D01*
X89065Y742316D01*
X47272Y700523D01*
X47219Y700449D01*
X47159Y700380D01*
X47147Y700350D01*
X47128Y700324D01*
X47101Y700237D01*
X47067Y700152D01*
X47063Y700111D01*
X47056Y700088D01*
X47057Y700056D01*
X47049Y699985D01*
X47049Y599578D01*
X47063Y599488D01*
X47071Y599397D01*
X47083Y599367D01*
X47088Y599335D01*
X47131Y599255D01*
X47167Y599171D01*
X47193Y599139D01*
X47204Y599118D01*
X47227Y599096D01*
X47272Y599040D01*
X68049Y578263D01*
X68049Y545578D01*
X68063Y545488D01*
X68071Y545397D01*
X68083Y545367D01*
X68088Y545335D01*
X68131Y545255D01*
X68167Y545171D01*
X68193Y545139D01*
X68204Y545118D01*
X68227Y545096D01*
X68272Y545040D01*
X133128Y480184D01*
X133202Y480131D01*
X133271Y480071D01*
X133301Y480059D01*
X133328Y480040D01*
X133415Y480013D01*
X133499Y479979D01*
X133540Y479975D01*
X133563Y479968D01*
X133595Y479969D01*
X133666Y479961D01*
X168009Y479961D01*
X168099Y479975D01*
X168190Y479983D01*
X168220Y479995D01*
X168252Y480000D01*
X168333Y480043D01*
X168417Y480079D01*
X168449Y480105D01*
X168469Y480116D01*
X168492Y480139D01*
X168548Y480184D01*
X169906Y481542D01*
X171914Y482374D01*
X174086Y482374D01*
X176094Y481542D01*
X177630Y480006D01*
X178462Y477998D01*
X178462Y475826D01*
X177630Y473818D01*
X176094Y472282D01*
X174086Y471450D01*
X171914Y471450D01*
G37*
%LPD*%
%LPC*%
G36*
X116737Y436951D02*
X116737Y436951D01*
X44267Y509421D01*
X44188Y509478D01*
X44113Y509540D01*
X44088Y509550D01*
X44067Y509565D01*
X43974Y509594D01*
X43883Y509629D01*
X43857Y509630D01*
X43832Y509637D01*
X43735Y509635D01*
X43638Y509639D01*
X43612Y509632D01*
X43586Y509631D01*
X43495Y509598D01*
X43401Y509570D01*
X43380Y509556D01*
X43355Y509547D01*
X43279Y509486D01*
X43199Y509430D01*
X43184Y509409D01*
X43163Y509393D01*
X43111Y509311D01*
X43052Y509233D01*
X43044Y509208D01*
X43030Y509186D01*
X43006Y509091D01*
X42976Y508999D01*
X42977Y508973D01*
X42970Y508947D01*
X42978Y508850D01*
X42979Y508753D01*
X42988Y508721D01*
X42989Y508702D01*
X43002Y508672D01*
X43025Y508592D01*
X43291Y507951D01*
X43291Y505449D01*
X42333Y503137D01*
X40563Y501367D01*
X38251Y500409D01*
X35749Y500409D01*
X33437Y501367D01*
X31667Y503137D01*
X30709Y505449D01*
X30709Y507951D01*
X31667Y510263D01*
X33437Y512033D01*
X35749Y512991D01*
X38251Y512991D01*
X38892Y512725D01*
X38987Y512703D01*
X39080Y512675D01*
X39106Y512675D01*
X39131Y512669D01*
X39228Y512678D01*
X39326Y512681D01*
X39350Y512690D01*
X39376Y512692D01*
X39465Y512732D01*
X39557Y512765D01*
X39577Y512782D01*
X39601Y512792D01*
X39673Y512858D01*
X39749Y512919D01*
X39763Y512941D01*
X39782Y512959D01*
X39829Y513044D01*
X39882Y513126D01*
X39888Y513151D01*
X39901Y513174D01*
X39918Y513270D01*
X39942Y513364D01*
X39940Y513390D01*
X39944Y513416D01*
X39930Y513513D01*
X39923Y513610D01*
X39912Y513634D01*
X39909Y513660D01*
X39864Y513746D01*
X39826Y513836D01*
X39806Y513861D01*
X39797Y513879D01*
X39773Y513902D01*
X39721Y513967D01*
X29951Y523737D01*
X29951Y553422D01*
X29937Y553512D01*
X29929Y553603D01*
X29917Y553633D01*
X29912Y553665D01*
X29869Y553745D01*
X29833Y553829D01*
X29807Y553861D01*
X29796Y553882D01*
X29773Y553904D01*
X29728Y553960D01*
X16245Y567444D01*
X16228Y567455D01*
X16216Y567471D01*
X16129Y567527D01*
X16045Y567587D01*
X16026Y567593D01*
X16009Y567604D01*
X15908Y567629D01*
X15810Y567660D01*
X15790Y567659D01*
X15770Y567664D01*
X15668Y567656D01*
X15564Y567653D01*
X15545Y567647D01*
X15525Y567645D01*
X15430Y567605D01*
X15333Y567569D01*
X15317Y567556D01*
X15299Y567549D01*
X15168Y567444D01*
X15094Y567370D01*
X13086Y566538D01*
X10914Y566538D01*
X8906Y567370D01*
X7370Y568906D01*
X6538Y570914D01*
X6538Y573086D01*
X7370Y575094D01*
X8906Y576630D01*
X10914Y577462D01*
X13086Y577462D01*
X15094Y576630D01*
X16452Y575272D01*
X16526Y575219D01*
X16596Y575159D01*
X16626Y575147D01*
X16652Y575128D01*
X16739Y575101D01*
X16824Y575067D01*
X16865Y575063D01*
X16887Y575056D01*
X16919Y575057D01*
X16991Y575049D01*
X17263Y575049D01*
X36049Y556263D01*
X36049Y526578D01*
X36063Y526488D01*
X36071Y526397D01*
X36083Y526367D01*
X36088Y526335D01*
X36131Y526255D01*
X36167Y526171D01*
X36193Y526139D01*
X36204Y526118D01*
X36227Y526096D01*
X36272Y526040D01*
X119040Y443272D01*
X119114Y443219D01*
X119183Y443159D01*
X119213Y443147D01*
X119240Y443128D01*
X119327Y443101D01*
X119411Y443067D01*
X119452Y443063D01*
X119475Y443056D01*
X119507Y443057D01*
X119578Y443049D01*
X216422Y443049D01*
X216512Y443063D01*
X216603Y443071D01*
X216633Y443083D01*
X216665Y443088D01*
X216745Y443131D01*
X216829Y443167D01*
X216861Y443193D01*
X216882Y443204D01*
X216904Y443227D01*
X216960Y443272D01*
X259628Y485940D01*
X259681Y486014D01*
X259741Y486083D01*
X259753Y486113D01*
X259772Y486140D01*
X259799Y486227D01*
X259833Y486311D01*
X259837Y486352D01*
X259844Y486375D01*
X259843Y486407D01*
X259851Y486478D01*
X259851Y517109D01*
X259837Y517199D01*
X259829Y517290D01*
X259817Y517320D01*
X259812Y517352D01*
X259769Y517433D01*
X259733Y517517D01*
X259707Y517549D01*
X259696Y517569D01*
X259673Y517592D01*
X259628Y517648D01*
X258270Y519006D01*
X257438Y521014D01*
X257438Y523186D01*
X258270Y525194D01*
X259806Y526730D01*
X261814Y527562D01*
X263986Y527562D01*
X265994Y526730D01*
X267530Y525194D01*
X268362Y523186D01*
X268362Y521014D01*
X267530Y519006D01*
X266172Y517648D01*
X266124Y517581D01*
X266117Y517574D01*
X266115Y517569D01*
X266059Y517504D01*
X266047Y517474D01*
X266028Y517448D01*
X266001Y517361D01*
X265967Y517276D01*
X265963Y517235D01*
X265956Y517213D01*
X265957Y517181D01*
X265949Y517109D01*
X265949Y483637D01*
X219263Y436951D01*
X116737Y436951D01*
G37*
%LPD*%
%LPC*%
G36*
X142914Y532538D02*
X142914Y532538D01*
X140906Y533370D01*
X139370Y534906D01*
X138538Y536914D01*
X138538Y539086D01*
X139370Y541094D01*
X140728Y542452D01*
X140781Y542526D01*
X140841Y542596D01*
X140853Y542626D01*
X140872Y542652D01*
X140899Y542739D01*
X140933Y542824D01*
X140937Y542865D01*
X140944Y542887D01*
X140943Y542919D01*
X140951Y542991D01*
X140951Y578422D01*
X140937Y578512D01*
X140929Y578603D01*
X140917Y578633D01*
X140912Y578665D01*
X140869Y578745D01*
X140833Y578829D01*
X140807Y578861D01*
X140796Y578882D01*
X140773Y578904D01*
X140728Y578960D01*
X120951Y598737D01*
X120951Y650263D01*
X145737Y675049D01*
X241422Y675049D01*
X241512Y675063D01*
X241603Y675071D01*
X241633Y675083D01*
X241665Y675088D01*
X241745Y675131D01*
X241829Y675167D01*
X241861Y675193D01*
X241882Y675204D01*
X241904Y675227D01*
X241960Y675272D01*
X322728Y756040D01*
X322781Y756114D01*
X322841Y756183D01*
X322853Y756213D01*
X322872Y756240D01*
X322899Y756327D01*
X322933Y756411D01*
X322937Y756452D01*
X322944Y756475D01*
X322943Y756507D01*
X322951Y756578D01*
X322951Y780009D01*
X322937Y780099D01*
X322929Y780190D01*
X322917Y780220D01*
X322912Y780252D01*
X322869Y780333D01*
X322833Y780417D01*
X322807Y780449D01*
X322796Y780469D01*
X322773Y780492D01*
X322728Y780548D01*
X321370Y781906D01*
X320538Y783914D01*
X320538Y786086D01*
X321370Y788094D01*
X322906Y789630D01*
X324914Y790462D01*
X327086Y790462D01*
X329094Y789630D01*
X330630Y788094D01*
X331462Y786086D01*
X331462Y783914D01*
X330630Y781906D01*
X329272Y780548D01*
X329219Y780474D01*
X329159Y780404D01*
X329147Y780374D01*
X329128Y780348D01*
X329101Y780261D01*
X329067Y780176D01*
X329063Y780135D01*
X329056Y780113D01*
X329057Y780081D01*
X329049Y780009D01*
X329049Y753737D01*
X244263Y668951D01*
X148578Y668951D01*
X148488Y668937D01*
X148397Y668929D01*
X148367Y668917D01*
X148335Y668912D01*
X148255Y668869D01*
X148171Y668833D01*
X148139Y668807D01*
X148118Y668796D01*
X148096Y668773D01*
X148040Y668728D01*
X127272Y647960D01*
X127219Y647886D01*
X127159Y647817D01*
X127147Y647787D01*
X127128Y647760D01*
X127101Y647673D01*
X127067Y647589D01*
X127063Y647548D01*
X127056Y647525D01*
X127057Y647493D01*
X127049Y647422D01*
X127049Y601578D01*
X127063Y601488D01*
X127071Y601397D01*
X127083Y601367D01*
X127088Y601335D01*
X127131Y601255D01*
X127167Y601171D01*
X127193Y601139D01*
X127204Y601118D01*
X127227Y601096D01*
X127272Y601040D01*
X147049Y581263D01*
X147049Y542991D01*
X147063Y542901D01*
X147071Y542810D01*
X147083Y542780D01*
X147088Y542748D01*
X147131Y542667D01*
X147167Y542583D01*
X147193Y542551D01*
X147204Y542531D01*
X147227Y542508D01*
X147272Y542452D01*
X148630Y541094D01*
X149462Y539086D01*
X149462Y536914D01*
X148630Y534906D01*
X147094Y533370D01*
X145086Y532538D01*
X142914Y532538D01*
G37*
%LPD*%
%LPC*%
G36*
X131914Y525538D02*
X131914Y525538D01*
X129906Y526370D01*
X128370Y527906D01*
X127538Y529914D01*
X127538Y532086D01*
X128370Y534094D01*
X129728Y535452D01*
X129781Y535526D01*
X129841Y535596D01*
X129853Y535626D01*
X129872Y535652D01*
X129899Y535739D01*
X129933Y535824D01*
X129937Y535865D01*
X129944Y535887D01*
X129943Y535919D01*
X129951Y535991D01*
X129951Y578422D01*
X129937Y578512D01*
X129929Y578603D01*
X129917Y578633D01*
X129912Y578665D01*
X129869Y578745D01*
X129833Y578829D01*
X129807Y578861D01*
X129796Y578882D01*
X129773Y578904D01*
X129728Y578960D01*
X114960Y593728D01*
X112951Y595737D01*
X112951Y654263D01*
X142737Y684049D01*
X239422Y684049D01*
X239512Y684063D01*
X239603Y684071D01*
X239633Y684083D01*
X239665Y684088D01*
X239745Y684131D01*
X239829Y684167D01*
X239861Y684193D01*
X239882Y684204D01*
X239904Y684227D01*
X239960Y684272D01*
X259728Y704040D01*
X259781Y704114D01*
X259841Y704183D01*
X259853Y704213D01*
X259872Y704240D01*
X259899Y704327D01*
X259933Y704411D01*
X259937Y704452D01*
X259944Y704475D01*
X259943Y704507D01*
X259951Y704578D01*
X259951Y768009D01*
X259937Y768099D01*
X259929Y768190D01*
X259917Y768220D01*
X259912Y768252D01*
X259869Y768333D01*
X259833Y768417D01*
X259807Y768449D01*
X259796Y768469D01*
X259773Y768492D01*
X259728Y768548D01*
X258370Y769906D01*
X257538Y771914D01*
X257538Y774086D01*
X258370Y776094D01*
X259906Y777630D01*
X261914Y778462D01*
X264086Y778462D01*
X266094Y777630D01*
X267630Y776094D01*
X268462Y774086D01*
X268462Y771914D01*
X267630Y769906D01*
X266272Y768548D01*
X266219Y768474D01*
X266159Y768404D01*
X266147Y768374D01*
X266128Y768348D01*
X266101Y768261D01*
X266067Y768176D01*
X266063Y768135D01*
X266056Y768113D01*
X266057Y768081D01*
X266049Y768009D01*
X266049Y701737D01*
X242263Y677951D01*
X145578Y677951D01*
X145488Y677937D01*
X145397Y677929D01*
X145367Y677917D01*
X145335Y677912D01*
X145255Y677869D01*
X145171Y677833D01*
X145139Y677807D01*
X145118Y677796D01*
X145096Y677773D01*
X145040Y677728D01*
X119272Y651960D01*
X119219Y651886D01*
X119159Y651817D01*
X119147Y651787D01*
X119128Y651760D01*
X119101Y651673D01*
X119067Y651589D01*
X119063Y651548D01*
X119056Y651525D01*
X119057Y651493D01*
X119049Y651422D01*
X119049Y598578D01*
X119051Y598567D01*
X119050Y598560D01*
X119058Y598524D01*
X119063Y598488D01*
X119071Y598397D01*
X119083Y598367D01*
X119088Y598335D01*
X119131Y598255D01*
X119167Y598171D01*
X119193Y598139D01*
X119204Y598118D01*
X119227Y598096D01*
X119272Y598040D01*
X134040Y583272D01*
X136049Y581263D01*
X136049Y535991D01*
X136063Y535901D01*
X136071Y535810D01*
X136083Y535780D01*
X136088Y535748D01*
X136131Y535667D01*
X136167Y535583D01*
X136193Y535551D01*
X136204Y535531D01*
X136227Y535508D01*
X136272Y535452D01*
X137630Y534094D01*
X138462Y532086D01*
X138462Y529914D01*
X137630Y527906D01*
X136094Y526370D01*
X134086Y525538D01*
X131914Y525538D01*
G37*
%LPD*%
%LPC*%
G36*
X79585Y671887D02*
X79585Y671887D01*
X76971Y672970D01*
X74970Y674971D01*
X73887Y677585D01*
X73887Y680415D01*
X74970Y683029D01*
X147971Y756030D01*
X150585Y757113D01*
X201415Y757113D01*
X204029Y756030D01*
X206030Y754029D01*
X207113Y751415D01*
X207113Y748585D01*
X206030Y745971D01*
X204029Y743970D01*
X201415Y742887D01*
X155262Y742887D01*
X155171Y742873D01*
X155081Y742865D01*
X155051Y742853D01*
X155019Y742848D01*
X154938Y742805D01*
X154854Y742769D01*
X154822Y742743D01*
X154801Y742732D01*
X154779Y742709D01*
X154723Y742664D01*
X85029Y672970D01*
X82415Y671887D01*
X79585Y671887D01*
G37*
%LPD*%
%LPC*%
G36*
X271914Y600538D02*
X271914Y600538D01*
X269906Y601370D01*
X268370Y602906D01*
X267538Y604914D01*
X267538Y607086D01*
X268370Y609094D01*
X269906Y610630D01*
X271914Y611462D01*
X274086Y611462D01*
X276094Y610630D01*
X276452Y610272D01*
X276526Y610219D01*
X276596Y610159D01*
X276626Y610147D01*
X276652Y610128D01*
X276739Y610101D01*
X276824Y610067D01*
X276865Y610063D01*
X276887Y610056D01*
X276919Y610057D01*
X276991Y610049D01*
X278422Y610049D01*
X278512Y610063D01*
X278603Y610071D01*
X278633Y610083D01*
X278665Y610088D01*
X278745Y610131D01*
X278829Y610167D01*
X278861Y610193D01*
X278882Y610204D01*
X278904Y610227D01*
X278960Y610272D01*
X307737Y639049D01*
X324422Y639049D01*
X324512Y639063D01*
X324603Y639071D01*
X324633Y639083D01*
X324665Y639088D01*
X324745Y639131D01*
X324829Y639167D01*
X324861Y639193D01*
X324882Y639204D01*
X324904Y639227D01*
X324960Y639272D01*
X415315Y729627D01*
X415368Y729701D01*
X415428Y729770D01*
X415440Y729800D01*
X415459Y729827D01*
X415486Y729914D01*
X415520Y729998D01*
X415524Y730039D01*
X415531Y730062D01*
X415530Y730094D01*
X415538Y730165D01*
X415538Y732086D01*
X416370Y734094D01*
X417906Y735630D01*
X419914Y736462D01*
X422086Y736462D01*
X424094Y735630D01*
X425630Y734094D01*
X426462Y732086D01*
X426462Y729914D01*
X425630Y727906D01*
X424094Y726370D01*
X422086Y725538D01*
X420165Y725538D01*
X420075Y725524D01*
X419984Y725516D01*
X419954Y725504D01*
X419922Y725499D01*
X419842Y725456D01*
X419758Y725420D01*
X419726Y725394D01*
X419705Y725383D01*
X419683Y725360D01*
X419627Y725315D01*
X385207Y690895D01*
X385165Y690837D01*
X385116Y690785D01*
X385094Y690738D01*
X385063Y690696D01*
X385042Y690627D01*
X385012Y690562D01*
X385006Y690510D01*
X384991Y690460D01*
X384993Y690389D01*
X384985Y690318D01*
X384996Y690267D01*
X384997Y690215D01*
X385022Y690147D01*
X385037Y690077D01*
X385064Y690032D01*
X385082Y689984D01*
X385127Y689928D01*
X385163Y689866D01*
X385203Y689832D01*
X385235Y689792D01*
X385296Y689753D01*
X385350Y689706D01*
X385399Y689687D01*
X385442Y689659D01*
X385512Y689641D01*
X385578Y689614D01*
X385650Y689606D01*
X385681Y689598D01*
X385704Y689600D01*
X385745Y689596D01*
X386831Y689596D01*
X389586Y688455D01*
X391695Y686346D01*
X392836Y683591D01*
X392836Y680609D01*
X391695Y677854D01*
X389586Y675745D01*
X386831Y674604D01*
X383849Y674604D01*
X381094Y675745D01*
X378985Y677854D01*
X377844Y680609D01*
X377844Y681695D01*
X377833Y681766D01*
X377831Y681837D01*
X377813Y681886D01*
X377805Y681938D01*
X377771Y682001D01*
X377746Y682068D01*
X377714Y682109D01*
X377689Y682155D01*
X377638Y682204D01*
X377593Y682260D01*
X377549Y682289D01*
X377511Y682324D01*
X377446Y682355D01*
X377386Y682393D01*
X377335Y682406D01*
X377288Y682428D01*
X377217Y682436D01*
X377147Y682453D01*
X377095Y682449D01*
X377044Y682455D01*
X376973Y682440D01*
X376902Y682434D01*
X376854Y682414D01*
X376803Y682403D01*
X376742Y682366D01*
X376676Y682338D01*
X376620Y682293D01*
X376592Y682277D01*
X376577Y682259D01*
X376545Y682233D01*
X339259Y644947D01*
X339202Y644869D01*
X339140Y644793D01*
X339131Y644769D01*
X339115Y644748D01*
X339087Y644655D01*
X339052Y644564D01*
X339051Y644538D01*
X339043Y644513D01*
X339046Y644415D01*
X339041Y644318D01*
X339049Y644293D01*
X339049Y644267D01*
X339083Y644175D01*
X339110Y644082D01*
X339125Y644060D01*
X339134Y644036D01*
X339195Y643960D01*
X339250Y643880D01*
X339271Y643864D01*
X339288Y643844D01*
X339369Y643791D01*
X339448Y643733D01*
X339472Y643725D01*
X339494Y643711D01*
X339589Y643687D01*
X339681Y643657D01*
X339708Y643657D01*
X339733Y643651D01*
X339830Y643658D01*
X339927Y643659D01*
X339959Y643668D01*
X339978Y643670D01*
X340008Y643683D01*
X340089Y643706D01*
X341914Y644462D01*
X343835Y644462D01*
X343925Y644476D01*
X344016Y644484D01*
X344046Y644496D01*
X344078Y644501D01*
X344158Y644544D01*
X344242Y644580D01*
X344274Y644606D01*
X344295Y644617D01*
X344317Y644640D01*
X344373Y644685D01*
X367512Y667824D01*
X417234Y667824D01*
X417324Y667838D01*
X417415Y667846D01*
X417445Y667858D01*
X417477Y667863D01*
X417558Y667906D01*
X417642Y667942D01*
X417674Y667968D01*
X417694Y667979D01*
X417717Y668002D01*
X417773Y668047D01*
X419131Y669405D01*
X421139Y670237D01*
X423311Y670237D01*
X425319Y669405D01*
X426855Y667869D01*
X427687Y665861D01*
X427687Y663689D01*
X426855Y661681D01*
X425319Y660145D01*
X423311Y659313D01*
X421139Y659313D01*
X419131Y660145D01*
X417773Y661503D01*
X417699Y661556D01*
X417629Y661616D01*
X417599Y661628D01*
X417573Y661647D01*
X417486Y661674D01*
X417401Y661708D01*
X417360Y661712D01*
X417338Y661719D01*
X417306Y661718D01*
X417234Y661726D01*
X370353Y661726D01*
X370263Y661712D01*
X370172Y661704D01*
X370142Y661692D01*
X370110Y661687D01*
X370030Y661644D01*
X369946Y661608D01*
X369914Y661582D01*
X369893Y661571D01*
X369871Y661548D01*
X369815Y661503D01*
X348685Y640373D01*
X348632Y640299D01*
X348572Y640230D01*
X348560Y640200D01*
X348541Y640173D01*
X348514Y640086D01*
X348480Y640002D01*
X348476Y639961D01*
X348469Y639938D01*
X348470Y639906D01*
X348462Y639835D01*
X348462Y637914D01*
X347630Y635906D01*
X346094Y634370D01*
X344086Y633538D01*
X341914Y633538D01*
X339906Y634370D01*
X338370Y635906D01*
X337538Y637914D01*
X337538Y640086D01*
X338294Y641911D01*
X338316Y642006D01*
X338345Y642099D01*
X338344Y642126D01*
X338350Y642151D01*
X338341Y642248D01*
X338339Y642345D01*
X338330Y642370D01*
X338327Y642396D01*
X338288Y642485D01*
X338254Y642576D01*
X338238Y642597D01*
X338227Y642621D01*
X338161Y642692D01*
X338101Y642768D01*
X338079Y642782D01*
X338061Y642802D01*
X337976Y642849D01*
X337894Y642901D01*
X337868Y642908D01*
X337845Y642920D01*
X337749Y642938D01*
X337655Y642961D01*
X337629Y642959D01*
X337603Y642964D01*
X337507Y642950D01*
X337410Y642942D01*
X337386Y642932D01*
X337360Y642928D01*
X337273Y642884D01*
X337184Y642846D01*
X337158Y642826D01*
X337141Y642817D01*
X337117Y642793D01*
X337053Y642741D01*
X329272Y634960D01*
X327263Y632951D01*
X310578Y632951D01*
X310488Y632937D01*
X310397Y632929D01*
X310367Y632917D01*
X310335Y632912D01*
X310255Y632869D01*
X310171Y632833D01*
X310139Y632807D01*
X310118Y632796D01*
X310096Y632773D01*
X310040Y632728D01*
X281263Y603951D01*
X278572Y603951D01*
X278457Y603933D01*
X278341Y603915D01*
X278335Y603913D01*
X278329Y603912D01*
X278226Y603857D01*
X278122Y603804D01*
X278117Y603799D01*
X278112Y603796D01*
X278031Y603712D01*
X277949Y603628D01*
X277946Y603622D01*
X277942Y603618D01*
X277934Y603601D01*
X277868Y603481D01*
X277630Y602906D01*
X276094Y601370D01*
X274086Y600538D01*
X271914Y600538D01*
G37*
%LPD*%
%LPC*%
G36*
X139914Y592538D02*
X139914Y592538D01*
X137906Y593370D01*
X136370Y594906D01*
X135538Y596914D01*
X135538Y598835D01*
X135524Y598925D01*
X135516Y599016D01*
X135504Y599046D01*
X135499Y599078D01*
X135456Y599158D01*
X135420Y599242D01*
X135394Y599274D01*
X135383Y599295D01*
X135360Y599317D01*
X135315Y599373D01*
X129951Y604737D01*
X129951Y648263D01*
X148737Y667049D01*
X245422Y667049D01*
X245512Y667063D01*
X245603Y667071D01*
X245633Y667083D01*
X245665Y667088D01*
X245745Y667131D01*
X245829Y667167D01*
X245861Y667193D01*
X245882Y667204D01*
X245904Y667227D01*
X245960Y667272D01*
X336728Y758040D01*
X336781Y758114D01*
X336841Y758183D01*
X336853Y758213D01*
X336872Y758240D01*
X336899Y758327D01*
X336933Y758411D01*
X336937Y758452D01*
X336944Y758475D01*
X336943Y758507D01*
X336951Y758578D01*
X336951Y764009D01*
X336937Y764099D01*
X336929Y764190D01*
X336917Y764220D01*
X336912Y764252D01*
X336869Y764333D01*
X336833Y764417D01*
X336807Y764449D01*
X336796Y764469D01*
X336773Y764492D01*
X336728Y764548D01*
X335370Y765906D01*
X334538Y767914D01*
X334538Y770086D01*
X335370Y772094D01*
X336906Y773630D01*
X338914Y774462D01*
X341086Y774462D01*
X343094Y773630D01*
X344630Y772094D01*
X345462Y770086D01*
X345462Y767914D01*
X344630Y765906D01*
X343272Y764548D01*
X343219Y764474D01*
X343159Y764404D01*
X343147Y764374D01*
X343128Y764348D01*
X343101Y764261D01*
X343067Y764176D01*
X343063Y764135D01*
X343056Y764113D01*
X343057Y764081D01*
X343049Y764009D01*
X343049Y755737D01*
X248263Y660951D01*
X151578Y660951D01*
X151488Y660937D01*
X151397Y660929D01*
X151367Y660917D01*
X151335Y660912D01*
X151255Y660869D01*
X151171Y660833D01*
X151139Y660807D01*
X151118Y660796D01*
X151096Y660773D01*
X151040Y660728D01*
X136272Y645960D01*
X136219Y645886D01*
X136159Y645817D01*
X136147Y645787D01*
X136128Y645760D01*
X136101Y645673D01*
X136067Y645589D01*
X136063Y645548D01*
X136056Y645525D01*
X136057Y645493D01*
X136049Y645422D01*
X136049Y607578D01*
X136063Y607488D01*
X136071Y607397D01*
X136083Y607367D01*
X136088Y607335D01*
X136131Y607255D01*
X136167Y607171D01*
X136193Y607139D01*
X136204Y607118D01*
X136227Y607096D01*
X136272Y607040D01*
X139627Y603685D01*
X139701Y603632D01*
X139770Y603572D01*
X139800Y603560D01*
X139827Y603541D01*
X139914Y603514D01*
X139998Y603480D01*
X140039Y603476D01*
X140062Y603469D01*
X140094Y603470D01*
X140165Y603462D01*
X142086Y603462D01*
X144094Y602630D01*
X145630Y601094D01*
X146462Y599086D01*
X146462Y596914D01*
X145630Y594906D01*
X144094Y593370D01*
X142086Y592538D01*
X139914Y592538D01*
G37*
%LPD*%
%LPC*%
G36*
X194914Y483538D02*
X194914Y483538D01*
X192906Y484370D01*
X192548Y484728D01*
X192474Y484781D01*
X192404Y484841D01*
X192374Y484853D01*
X192348Y484872D01*
X192261Y484899D01*
X192176Y484933D01*
X192135Y484937D01*
X192113Y484944D01*
X192081Y484943D01*
X192009Y484951D01*
X131737Y484951D01*
X129728Y486960D01*
X71960Y544728D01*
X69951Y546737D01*
X69951Y579422D01*
X69937Y579512D01*
X69929Y579603D01*
X69917Y579633D01*
X69912Y579665D01*
X69869Y579745D01*
X69833Y579829D01*
X69807Y579861D01*
X69796Y579882D01*
X69773Y579904D01*
X69728Y579960D01*
X51951Y597737D01*
X51951Y683009D01*
X51937Y683099D01*
X51929Y683190D01*
X51917Y683220D01*
X51912Y683252D01*
X51869Y683333D01*
X51833Y683417D01*
X51807Y683449D01*
X51796Y683469D01*
X51773Y683492D01*
X51728Y683548D01*
X50370Y684906D01*
X49538Y686914D01*
X49538Y689086D01*
X50370Y691094D01*
X51906Y692630D01*
X53914Y693462D01*
X56086Y693462D01*
X58094Y692630D01*
X59630Y691094D01*
X60462Y689086D01*
X60462Y686914D01*
X59630Y684906D01*
X58272Y683548D01*
X58219Y683474D01*
X58159Y683404D01*
X58147Y683374D01*
X58128Y683348D01*
X58101Y683261D01*
X58067Y683176D01*
X58063Y683135D01*
X58056Y683113D01*
X58057Y683081D01*
X58049Y683009D01*
X58049Y600578D01*
X58063Y600488D01*
X58071Y600397D01*
X58083Y600367D01*
X58088Y600335D01*
X58131Y600255D01*
X58167Y600171D01*
X58193Y600139D01*
X58204Y600118D01*
X58227Y600096D01*
X58272Y600040D01*
X76049Y582263D01*
X76049Y549578D01*
X76063Y549488D01*
X76071Y549397D01*
X76083Y549367D01*
X76088Y549335D01*
X76131Y549255D01*
X76167Y549171D01*
X76193Y549139D01*
X76204Y549118D01*
X76227Y549096D01*
X76272Y549040D01*
X134040Y491272D01*
X134114Y491219D01*
X134183Y491159D01*
X134213Y491147D01*
X134240Y491128D01*
X134327Y491101D01*
X134411Y491067D01*
X134452Y491063D01*
X134475Y491056D01*
X134507Y491057D01*
X134578Y491049D01*
X190428Y491049D01*
X190543Y491068D01*
X190659Y491085D01*
X190665Y491087D01*
X190671Y491088D01*
X190774Y491143D01*
X190878Y491196D01*
X190883Y491201D01*
X190888Y491204D01*
X190968Y491288D01*
X191051Y491372D01*
X191054Y491378D01*
X191058Y491382D01*
X191066Y491399D01*
X191132Y491519D01*
X191370Y492094D01*
X192906Y493630D01*
X194914Y494462D01*
X197086Y494462D01*
X199094Y493630D01*
X200630Y492094D01*
X201462Y490086D01*
X201462Y487914D01*
X200630Y485906D01*
X199094Y484370D01*
X197086Y483538D01*
X194914Y483538D01*
G37*
%LPD*%
%LPC*%
G36*
X257914Y532538D02*
X257914Y532538D01*
X255906Y533370D01*
X254370Y534906D01*
X253538Y536914D01*
X253538Y538835D01*
X253524Y538925D01*
X253516Y539016D01*
X253504Y539046D01*
X253499Y539078D01*
X253456Y539158D01*
X253420Y539242D01*
X253394Y539274D01*
X253383Y539295D01*
X253360Y539317D01*
X253315Y539373D01*
X252951Y539737D01*
X252951Y601263D01*
X254960Y603272D01*
X257728Y606040D01*
X257781Y606114D01*
X257841Y606183D01*
X257853Y606213D01*
X257872Y606240D01*
X257899Y606327D01*
X257933Y606411D01*
X257937Y606452D01*
X257944Y606475D01*
X257943Y606507D01*
X257951Y606578D01*
X257951Y615263D01*
X315737Y673049D01*
X318422Y673049D01*
X318512Y673063D01*
X318603Y673071D01*
X318633Y673083D01*
X318665Y673088D01*
X318745Y673131D01*
X318829Y673167D01*
X318861Y673193D01*
X318882Y673204D01*
X318904Y673227D01*
X318960Y673272D01*
X327315Y681627D01*
X327368Y681701D01*
X327428Y681770D01*
X327440Y681800D01*
X327459Y681827D01*
X327486Y681914D01*
X327520Y681998D01*
X327524Y682039D01*
X327531Y682062D01*
X327530Y682094D01*
X327538Y682165D01*
X327538Y684086D01*
X328370Y686094D01*
X329906Y687630D01*
X331914Y688462D01*
X334086Y688462D01*
X336094Y687630D01*
X337630Y686094D01*
X338462Y684086D01*
X338462Y681914D01*
X337630Y679906D01*
X336094Y678370D01*
X334086Y677538D01*
X332165Y677538D01*
X332075Y677524D01*
X331984Y677516D01*
X331954Y677504D01*
X331922Y677499D01*
X331842Y677456D01*
X331758Y677420D01*
X331726Y677394D01*
X331705Y677383D01*
X331683Y677360D01*
X331627Y677315D01*
X321263Y666951D01*
X318578Y666951D01*
X318488Y666937D01*
X318397Y666929D01*
X318367Y666917D01*
X318335Y666912D01*
X318255Y666869D01*
X318171Y666833D01*
X318139Y666807D01*
X318118Y666796D01*
X318096Y666773D01*
X318040Y666728D01*
X277073Y625761D01*
X277031Y625703D01*
X276982Y625651D01*
X276960Y625604D01*
X276929Y625562D01*
X276908Y625493D01*
X276878Y625428D01*
X276872Y625376D01*
X276857Y625326D01*
X276859Y625255D01*
X276851Y625184D01*
X276862Y625133D01*
X276863Y625081D01*
X276888Y625013D01*
X276903Y624943D01*
X276930Y624898D01*
X276948Y624850D01*
X276993Y624794D01*
X277029Y624732D01*
X277069Y624698D01*
X277101Y624658D01*
X277162Y624619D01*
X277216Y624572D01*
X277265Y624553D01*
X277308Y624525D01*
X277378Y624507D01*
X277444Y624480D01*
X277516Y624472D01*
X277547Y624464D01*
X277570Y624466D01*
X277611Y624462D01*
X278086Y624462D01*
X278431Y624319D01*
X278544Y624293D01*
X278658Y624264D01*
X278664Y624264D01*
X278670Y624263D01*
X278787Y624274D01*
X278903Y624283D01*
X278909Y624285D01*
X278915Y624286D01*
X279023Y624334D01*
X279130Y624379D01*
X279135Y624384D01*
X279140Y624386D01*
X279154Y624399D01*
X279260Y624484D01*
X316825Y662049D01*
X327097Y662049D01*
X327187Y662063D01*
X327278Y662071D01*
X327308Y662083D01*
X327340Y662088D01*
X327421Y662131D01*
X327505Y662167D01*
X327537Y662193D01*
X327557Y662204D01*
X327580Y662227D01*
X327636Y662272D01*
X328994Y663630D01*
X331002Y664462D01*
X333174Y664462D01*
X335182Y663630D01*
X336718Y662094D01*
X337550Y660086D01*
X337550Y657914D01*
X336718Y655906D01*
X335182Y654370D01*
X333174Y653538D01*
X331002Y653538D01*
X328994Y654370D01*
X327636Y655728D01*
X327562Y655781D01*
X327492Y655841D01*
X327462Y655853D01*
X327436Y655872D01*
X327349Y655899D01*
X327264Y655933D01*
X327223Y655937D01*
X327201Y655944D01*
X327169Y655943D01*
X327097Y655951D01*
X319666Y655951D01*
X319576Y655937D01*
X319485Y655929D01*
X319455Y655917D01*
X319423Y655912D01*
X319343Y655869D01*
X319259Y655833D01*
X319227Y655807D01*
X319206Y655796D01*
X319184Y655773D01*
X319128Y655728D01*
X282685Y619285D01*
X282632Y619211D01*
X282572Y619142D01*
X282560Y619112D01*
X282541Y619085D01*
X282514Y618998D01*
X282480Y618914D01*
X282476Y618873D01*
X282469Y618850D01*
X282470Y618818D01*
X282462Y618747D01*
X282462Y617914D01*
X281630Y615906D01*
X280094Y614370D01*
X278086Y613538D01*
X275914Y613538D01*
X273906Y614370D01*
X272370Y615906D01*
X271538Y617914D01*
X271538Y618389D01*
X271527Y618460D01*
X271525Y618531D01*
X271507Y618580D01*
X271499Y618632D01*
X271465Y618695D01*
X271440Y618762D01*
X271408Y618803D01*
X271383Y618849D01*
X271331Y618898D01*
X271287Y618954D01*
X271243Y618983D01*
X271205Y619018D01*
X271140Y619049D01*
X271080Y619087D01*
X271029Y619100D01*
X270982Y619122D01*
X270911Y619130D01*
X270841Y619147D01*
X270789Y619143D01*
X270738Y619149D01*
X270667Y619134D01*
X270596Y619128D01*
X270548Y619108D01*
X270497Y619097D01*
X270436Y619060D01*
X270370Y619032D01*
X270314Y618987D01*
X270286Y618971D01*
X270271Y618953D01*
X270239Y618927D01*
X264272Y612960D01*
X264219Y612886D01*
X264159Y612817D01*
X264147Y612787D01*
X264128Y612760D01*
X264101Y612673D01*
X264067Y612589D01*
X264063Y612548D01*
X264056Y612525D01*
X264057Y612493D01*
X264049Y612422D01*
X264049Y603737D01*
X262040Y601728D01*
X259272Y598960D01*
X259219Y598886D01*
X259159Y598817D01*
X259147Y598787D01*
X259128Y598760D01*
X259101Y598673D01*
X259067Y598589D01*
X259063Y598548D01*
X259056Y598525D01*
X259057Y598493D01*
X259049Y598422D01*
X259049Y544223D01*
X259052Y544203D01*
X259050Y544184D01*
X259072Y544082D01*
X259088Y543980D01*
X259098Y543963D01*
X259102Y543943D01*
X259155Y543854D01*
X259204Y543763D01*
X259218Y543749D01*
X259228Y543732D01*
X259307Y543665D01*
X259382Y543593D01*
X259400Y543585D01*
X259415Y543572D01*
X259511Y543533D01*
X259605Y543490D01*
X259625Y543488D01*
X259643Y543480D01*
X259810Y543462D01*
X260086Y543462D01*
X262094Y542630D01*
X263630Y541094D01*
X264462Y539086D01*
X264462Y536914D01*
X263630Y534906D01*
X262094Y533370D01*
X260086Y532538D01*
X257914Y532538D01*
G37*
%LPD*%
%LPC*%
G36*
X205914Y604538D02*
X205914Y604538D01*
X203906Y605370D01*
X202370Y606906D01*
X201538Y608914D01*
X201538Y611086D01*
X202370Y613094D01*
X203906Y614630D01*
X205914Y615462D01*
X208086Y615462D01*
X208665Y615222D01*
X208778Y615196D01*
X208892Y615167D01*
X208898Y615168D01*
X208904Y615166D01*
X209021Y615177D01*
X209137Y615186D01*
X209143Y615189D01*
X209149Y615189D01*
X209256Y615237D01*
X209363Y615282D01*
X209369Y615287D01*
X209374Y615289D01*
X209387Y615302D01*
X209494Y615387D01*
X220969Y626862D01*
X221022Y626936D01*
X221081Y627005D01*
X221094Y627036D01*
X221112Y627062D01*
X221139Y627149D01*
X221173Y627234D01*
X221178Y627275D01*
X221185Y627297D01*
X221184Y627329D01*
X221192Y627400D01*
X221192Y630085D01*
X346315Y755208D01*
X346368Y755282D01*
X346428Y755352D01*
X346440Y755382D01*
X346459Y755408D01*
X346486Y755495D01*
X346520Y755580D01*
X346524Y755621D01*
X346531Y755643D01*
X346530Y755675D01*
X346538Y755747D01*
X346538Y756086D01*
X347370Y758094D01*
X348906Y759630D01*
X350914Y760462D01*
X353086Y760462D01*
X355094Y759630D01*
X356630Y758094D01*
X357462Y756086D01*
X357462Y753914D01*
X356630Y751906D01*
X355094Y750370D01*
X353086Y749538D01*
X350914Y749538D01*
X350220Y749826D01*
X350107Y749852D01*
X349993Y749881D01*
X349987Y749880D01*
X349981Y749882D01*
X349864Y749871D01*
X349748Y749862D01*
X349742Y749859D01*
X349736Y749859D01*
X349628Y749811D01*
X349522Y749765D01*
X349516Y749761D01*
X349511Y749759D01*
X349497Y749746D01*
X349391Y749660D01*
X227512Y627782D01*
X227459Y627708D01*
X227400Y627639D01*
X227388Y627609D01*
X227369Y627582D01*
X227342Y627496D01*
X227308Y627411D01*
X227303Y627370D01*
X227296Y627347D01*
X227297Y627315D01*
X227289Y627244D01*
X227289Y624529D01*
X227283Y624526D01*
X227227Y624482D01*
X227199Y624465D01*
X227184Y624447D01*
X227152Y624422D01*
X212685Y609955D01*
X212632Y609881D01*
X212572Y609811D01*
X212560Y609781D01*
X212541Y609755D01*
X212514Y609668D01*
X212480Y609583D01*
X212476Y609542D01*
X212469Y609520D01*
X212470Y609488D01*
X212462Y609416D01*
X212462Y608914D01*
X211630Y606906D01*
X210094Y605370D01*
X208086Y604538D01*
X205914Y604538D01*
G37*
%LPD*%
%LPC*%
G36*
X224914Y605538D02*
X224914Y605538D01*
X222906Y606370D01*
X221370Y607906D01*
X220538Y609914D01*
X220538Y612086D01*
X221370Y614094D01*
X222906Y615630D01*
X224955Y616479D01*
X225016Y616484D01*
X225046Y616496D01*
X225078Y616501D01*
X225158Y616544D01*
X225242Y616580D01*
X225274Y616606D01*
X225295Y616617D01*
X225317Y616640D01*
X225373Y616685D01*
X228228Y619540D01*
X228281Y619614D01*
X228341Y619683D01*
X228353Y619713D01*
X228372Y619740D01*
X228399Y619827D01*
X228433Y619911D01*
X228437Y619952D01*
X228444Y619975D01*
X228443Y620007D01*
X228451Y620078D01*
X228451Y623793D01*
X228458Y623796D01*
X228514Y623840D01*
X228542Y623857D01*
X228557Y623875D01*
X228589Y623900D01*
X230460Y625772D01*
X342737Y738049D01*
X347009Y738049D01*
X347099Y738063D01*
X347190Y738071D01*
X347220Y738083D01*
X347252Y738088D01*
X347333Y738131D01*
X347417Y738167D01*
X347449Y738193D01*
X347469Y738204D01*
X347492Y738227D01*
X347548Y738272D01*
X348906Y739630D01*
X350914Y740462D01*
X353086Y740462D01*
X355094Y739630D01*
X356630Y738094D01*
X357462Y736086D01*
X357462Y733914D01*
X356630Y731906D01*
X355094Y730370D01*
X353086Y729538D01*
X350914Y729538D01*
X348906Y730370D01*
X347548Y731728D01*
X347474Y731781D01*
X347404Y731841D01*
X347374Y731853D01*
X347348Y731872D01*
X347261Y731899D01*
X347176Y731933D01*
X347135Y731937D01*
X347113Y731944D01*
X347081Y731943D01*
X347009Y731951D01*
X345578Y731951D01*
X345488Y731937D01*
X345397Y731929D01*
X345367Y731917D01*
X345335Y731912D01*
X345255Y731869D01*
X345171Y731833D01*
X345139Y731807D01*
X345118Y731796D01*
X345096Y731773D01*
X345040Y731728D01*
X234772Y621460D01*
X234719Y621386D01*
X234659Y621317D01*
X234647Y621287D01*
X234628Y621260D01*
X234601Y621173D01*
X234567Y621089D01*
X234563Y621048D01*
X234556Y621025D01*
X234557Y620993D01*
X234549Y620922D01*
X234549Y617237D01*
X231217Y613905D01*
X231149Y613811D01*
X231079Y613717D01*
X231077Y613711D01*
X231073Y613706D01*
X231039Y613595D01*
X231003Y613483D01*
X231003Y613477D01*
X231001Y613471D01*
X231004Y613354D01*
X231005Y613237D01*
X231007Y613230D01*
X231007Y613225D01*
X231014Y613207D01*
X231052Y613076D01*
X231462Y612086D01*
X231462Y609914D01*
X230630Y607906D01*
X229094Y606370D01*
X227086Y605538D01*
X224914Y605538D01*
G37*
%LPD*%
%LPC*%
G36*
X240914Y592538D02*
X240914Y592538D01*
X238906Y593370D01*
X237370Y594906D01*
X236538Y596914D01*
X236538Y599086D01*
X237370Y601094D01*
X238906Y602630D01*
X240914Y603462D01*
X242835Y603462D01*
X242925Y603476D01*
X243016Y603484D01*
X243046Y603496D01*
X243078Y603501D01*
X243158Y603544D01*
X243242Y603580D01*
X243274Y603606D01*
X243295Y603617D01*
X243317Y603640D01*
X243373Y603685D01*
X248728Y609040D01*
X248781Y609114D01*
X248841Y609183D01*
X248853Y609213D01*
X248872Y609240D01*
X248899Y609327D01*
X248933Y609411D01*
X248937Y609452D01*
X248944Y609475D01*
X248943Y609507D01*
X248951Y609578D01*
X248951Y618263D01*
X332737Y702049D01*
X350009Y702049D01*
X350099Y702063D01*
X350190Y702071D01*
X350220Y702083D01*
X350252Y702088D01*
X350333Y702131D01*
X350417Y702167D01*
X350449Y702193D01*
X350469Y702204D01*
X350492Y702227D01*
X350548Y702272D01*
X351906Y703630D01*
X353914Y704462D01*
X356086Y704462D01*
X358094Y703630D01*
X359630Y702094D01*
X360462Y700086D01*
X360462Y697914D01*
X359630Y695906D01*
X358094Y694370D01*
X356086Y693538D01*
X353914Y693538D01*
X351906Y694370D01*
X350548Y695728D01*
X350474Y695781D01*
X350404Y695841D01*
X350374Y695853D01*
X350348Y695872D01*
X350261Y695899D01*
X350176Y695933D01*
X350135Y695937D01*
X350113Y695944D01*
X350081Y695943D01*
X350009Y695951D01*
X335578Y695951D01*
X335488Y695937D01*
X335397Y695929D01*
X335367Y695917D01*
X335335Y695912D01*
X335255Y695869D01*
X335171Y695833D01*
X335139Y695807D01*
X335118Y695796D01*
X335096Y695773D01*
X335040Y695728D01*
X255272Y615960D01*
X255219Y615886D01*
X255159Y615817D01*
X255147Y615787D01*
X255128Y615760D01*
X255101Y615673D01*
X255067Y615589D01*
X255063Y615548D01*
X255056Y615525D01*
X255057Y615493D01*
X255049Y615422D01*
X255049Y606737D01*
X247685Y599373D01*
X247632Y599299D01*
X247572Y599230D01*
X247560Y599200D01*
X247541Y599173D01*
X247514Y599086D01*
X247480Y599002D01*
X247476Y598961D01*
X247469Y598938D01*
X247470Y598906D01*
X247462Y598835D01*
X247462Y596914D01*
X246630Y594906D01*
X245094Y593370D01*
X243086Y592538D01*
X240914Y592538D01*
G37*
%LPD*%
%LPC*%
G36*
X239914Y608538D02*
X239914Y608538D01*
X237906Y609370D01*
X236370Y610906D01*
X235538Y612914D01*
X235538Y615086D01*
X236370Y617094D01*
X237906Y618630D01*
X239481Y619283D01*
X239581Y619345D01*
X239681Y619404D01*
X239685Y619409D01*
X239690Y619412D01*
X239765Y619503D01*
X239841Y619591D01*
X239843Y619597D01*
X239847Y619602D01*
X239889Y619710D01*
X239933Y619819D01*
X239934Y619827D01*
X239935Y619831D01*
X239936Y619849D01*
X239951Y619986D01*
X239951Y622263D01*
X336737Y719049D01*
X350009Y719049D01*
X350099Y719063D01*
X350190Y719071D01*
X350220Y719083D01*
X350252Y719088D01*
X350333Y719131D01*
X350417Y719167D01*
X350449Y719193D01*
X350469Y719204D01*
X350492Y719227D01*
X350548Y719272D01*
X351906Y720630D01*
X353914Y721462D01*
X356086Y721462D01*
X358094Y720630D01*
X359630Y719094D01*
X360462Y717086D01*
X360462Y714914D01*
X359630Y712906D01*
X358094Y711370D01*
X356086Y710538D01*
X353914Y710538D01*
X351906Y711370D01*
X350548Y712728D01*
X350474Y712781D01*
X350404Y712841D01*
X350374Y712853D01*
X350348Y712872D01*
X350261Y712899D01*
X350176Y712933D01*
X350135Y712937D01*
X350113Y712944D01*
X350081Y712943D01*
X350009Y712951D01*
X339578Y712951D01*
X339488Y712937D01*
X339397Y712929D01*
X339367Y712917D01*
X339335Y712912D01*
X339255Y712869D01*
X339171Y712833D01*
X339139Y712807D01*
X339118Y712796D01*
X339096Y712773D01*
X339040Y712728D01*
X246272Y619960D01*
X246219Y619886D01*
X246159Y619817D01*
X246147Y619787D01*
X246128Y619760D01*
X246101Y619673D01*
X246067Y619589D01*
X246063Y619548D01*
X246056Y619525D01*
X246057Y619493D01*
X246049Y619422D01*
X246049Y616235D01*
X246059Y616170D01*
X246060Y616105D01*
X246083Y616025D01*
X246088Y615992D01*
X246098Y615975D01*
X246107Y615944D01*
X246462Y615086D01*
X246462Y612914D01*
X245630Y610906D01*
X244094Y609370D01*
X242086Y608538D01*
X239914Y608538D01*
G37*
%LPD*%
%LPC*%
G36*
X17289Y415413D02*
X17289Y415413D01*
X15281Y416245D01*
X13745Y417781D01*
X12913Y419789D01*
X12913Y421961D01*
X13745Y423969D01*
X15228Y425452D01*
X15281Y425526D01*
X15341Y425596D01*
X15353Y425626D01*
X15372Y425652D01*
X15399Y425739D01*
X15433Y425824D01*
X15437Y425865D01*
X15444Y425887D01*
X15443Y425919D01*
X15451Y425991D01*
X15451Y548922D01*
X15437Y549012D01*
X15429Y549103D01*
X15417Y549133D01*
X15412Y549165D01*
X15369Y549245D01*
X15333Y549329D01*
X15307Y549361D01*
X15296Y549382D01*
X15273Y549404D01*
X15228Y549460D01*
X12373Y552315D01*
X12299Y552368D01*
X12230Y552428D01*
X12200Y552440D01*
X12173Y552459D01*
X12086Y552486D01*
X12002Y552520D01*
X11961Y552524D01*
X11938Y552531D01*
X11906Y552530D01*
X11835Y552538D01*
X9914Y552538D01*
X7906Y553370D01*
X6370Y554906D01*
X5538Y556914D01*
X5538Y559086D01*
X6370Y561094D01*
X7906Y562630D01*
X9914Y563462D01*
X12086Y563462D01*
X14094Y562630D01*
X15630Y561094D01*
X16462Y559086D01*
X16462Y557165D01*
X16476Y557075D01*
X16484Y556984D01*
X16496Y556954D01*
X16501Y556922D01*
X16544Y556842D01*
X16580Y556758D01*
X16606Y556726D01*
X16617Y556705D01*
X16640Y556683D01*
X16685Y556627D01*
X21549Y551763D01*
X21549Y425741D01*
X21563Y425651D01*
X21571Y425560D01*
X21583Y425530D01*
X21588Y425498D01*
X21631Y425417D01*
X21667Y425333D01*
X21693Y425301D01*
X21704Y425281D01*
X21727Y425258D01*
X21772Y425202D01*
X23005Y423969D01*
X23837Y421961D01*
X23837Y419789D01*
X23005Y417781D01*
X21469Y416245D01*
X19461Y415413D01*
X17289Y415413D01*
G37*
%LPD*%
%LPC*%
G36*
X29585Y430887D02*
X29585Y430887D01*
X26971Y431970D01*
X24970Y433971D01*
X23887Y436585D01*
X23887Y439415D01*
X24970Y442029D01*
X26971Y444030D01*
X29585Y445113D01*
X66738Y445113D01*
X66829Y445127D01*
X66919Y445135D01*
X66949Y445147D01*
X66981Y445152D01*
X67062Y445195D01*
X67146Y445231D01*
X67178Y445257D01*
X67199Y445268D01*
X67221Y445291D01*
X67277Y445336D01*
X73971Y452030D01*
X76585Y453113D01*
X79415Y453113D01*
X82029Y452030D01*
X84030Y450029D01*
X85113Y447415D01*
X85113Y444585D01*
X84030Y441971D01*
X74029Y431970D01*
X71415Y430887D01*
X29585Y430887D01*
G37*
%LPD*%
%LPC*%
G36*
X150914Y584538D02*
X150914Y584538D01*
X148906Y585370D01*
X147370Y586906D01*
X146538Y588914D01*
X146538Y591086D01*
X147370Y593094D01*
X148728Y594452D01*
X148781Y594526D01*
X148841Y594596D01*
X148853Y594626D01*
X148872Y594652D01*
X148899Y594739D01*
X148933Y594824D01*
X148937Y594865D01*
X148944Y594887D01*
X148943Y594919D01*
X148951Y594991D01*
X148951Y601422D01*
X148937Y601512D01*
X148929Y601603D01*
X148917Y601633D01*
X148912Y601665D01*
X148869Y601745D01*
X148833Y601829D01*
X148807Y601861D01*
X148796Y601882D01*
X148773Y601904D01*
X148728Y601960D01*
X138951Y611737D01*
X138951Y638263D01*
X139444Y638755D01*
X139456Y638772D01*
X139471Y638784D01*
X139527Y638871D01*
X139587Y638955D01*
X139593Y638974D01*
X139604Y638991D01*
X139629Y639091D01*
X139660Y639190D01*
X139659Y639210D01*
X139664Y639230D01*
X139656Y639332D01*
X139653Y639436D01*
X139647Y639455D01*
X139645Y639475D01*
X139605Y639569D01*
X139569Y639667D01*
X139556Y639683D01*
X139549Y639701D01*
X139444Y639832D01*
X139370Y639906D01*
X138538Y641914D01*
X138538Y644086D01*
X139370Y646094D01*
X140906Y647630D01*
X142914Y648462D01*
X145086Y648462D01*
X147094Y647630D01*
X148630Y646094D01*
X149462Y644086D01*
X149462Y641914D01*
X148630Y639906D01*
X147272Y638548D01*
X147219Y638474D01*
X147159Y638404D01*
X147147Y638374D01*
X147128Y638348D01*
X147101Y638261D01*
X147067Y638176D01*
X147063Y638135D01*
X147056Y638113D01*
X147057Y638081D01*
X147049Y638009D01*
X147049Y637737D01*
X145272Y635960D01*
X145219Y635886D01*
X145159Y635817D01*
X145147Y635787D01*
X145128Y635760D01*
X145101Y635673D01*
X145067Y635589D01*
X145063Y635548D01*
X145056Y635525D01*
X145057Y635493D01*
X145049Y635422D01*
X145049Y614578D01*
X145051Y614562D01*
X145050Y614546D01*
X145064Y614480D01*
X145071Y614397D01*
X145083Y614367D01*
X145088Y614335D01*
X145101Y614313D01*
X145102Y614306D01*
X145120Y614275D01*
X145131Y614255D01*
X145167Y614171D01*
X145193Y614139D01*
X145204Y614118D01*
X145227Y614096D01*
X145272Y614040D01*
X155049Y604263D01*
X155049Y594991D01*
X155063Y594901D01*
X155071Y594810D01*
X155083Y594780D01*
X155088Y594748D01*
X155131Y594667D01*
X155167Y594583D01*
X155193Y594551D01*
X155204Y594531D01*
X155227Y594508D01*
X155272Y594452D01*
X156630Y593094D01*
X157462Y591086D01*
X157462Y588914D01*
X156630Y586906D01*
X155094Y585370D01*
X153086Y584538D01*
X150914Y584538D01*
G37*
%LPD*%
%LPC*%
G36*
X164914Y600538D02*
X164914Y600538D01*
X162906Y601370D01*
X161370Y602906D01*
X160538Y604914D01*
X160538Y607086D01*
X160893Y607944D01*
X160908Y608007D01*
X160933Y608068D01*
X160942Y608151D01*
X160949Y608183D01*
X160948Y608202D01*
X160951Y608235D01*
X160951Y638263D01*
X163315Y640627D01*
X163368Y640701D01*
X163428Y640770D01*
X163440Y640800D01*
X163459Y640827D01*
X163486Y640913D01*
X163520Y640998D01*
X163524Y641039D01*
X163531Y641062D01*
X163530Y641094D01*
X163538Y641165D01*
X163538Y643154D01*
X164370Y645162D01*
X165906Y646698D01*
X167914Y647530D01*
X170086Y647530D01*
X172094Y646698D01*
X173630Y645162D01*
X174462Y643154D01*
X174462Y640982D01*
X173630Y638974D01*
X172094Y637438D01*
X170086Y636606D01*
X168233Y636606D01*
X168143Y636592D01*
X168052Y636584D01*
X168022Y636572D01*
X167990Y636567D01*
X167910Y636524D01*
X167826Y636488D01*
X167794Y636462D01*
X167773Y636451D01*
X167751Y636428D01*
X167695Y636383D01*
X167272Y635960D01*
X167219Y635886D01*
X167159Y635817D01*
X167147Y635787D01*
X167128Y635760D01*
X167101Y635673D01*
X167067Y635589D01*
X167063Y635548D01*
X167056Y635525D01*
X167057Y635493D01*
X167049Y635422D01*
X167049Y611986D01*
X167068Y611871D01*
X167085Y611755D01*
X167087Y611749D01*
X167088Y611743D01*
X167143Y611641D01*
X167196Y611536D01*
X167201Y611531D01*
X167204Y611526D01*
X167288Y611446D01*
X167372Y611364D01*
X167378Y611360D01*
X167382Y611356D01*
X167399Y611349D01*
X167519Y611283D01*
X169094Y610630D01*
X170630Y609094D01*
X171462Y607086D01*
X171462Y604914D01*
X170630Y602906D01*
X169094Y601370D01*
X167086Y600538D01*
X164914Y600538D01*
G37*
%LPD*%
%LPC*%
G36*
X183914Y605538D02*
X183914Y605538D01*
X181906Y606370D01*
X180370Y607906D01*
X179538Y609914D01*
X179538Y612086D01*
X180370Y614094D01*
X181906Y615630D01*
X182481Y615868D01*
X182580Y615930D01*
X182681Y615990D01*
X182685Y615995D01*
X182690Y615998D01*
X182764Y616088D01*
X182841Y616177D01*
X182843Y616183D01*
X182847Y616188D01*
X182889Y616295D01*
X182933Y616405D01*
X182934Y616413D01*
X182935Y616417D01*
X182936Y616435D01*
X182951Y616572D01*
X182951Y625263D01*
X195315Y637627D01*
X195368Y637701D01*
X195428Y637770D01*
X195440Y637800D01*
X195459Y637827D01*
X195486Y637914D01*
X195520Y637998D01*
X195524Y638039D01*
X195531Y638062D01*
X195530Y638094D01*
X195538Y638165D01*
X195538Y640086D01*
X196370Y642094D01*
X197906Y643630D01*
X199914Y644462D01*
X202086Y644462D01*
X204094Y643630D01*
X205630Y642094D01*
X206462Y640086D01*
X206462Y637914D01*
X205630Y635906D01*
X204094Y634370D01*
X202086Y633538D01*
X200165Y633538D01*
X200075Y633524D01*
X199984Y633516D01*
X199954Y633504D01*
X199922Y633499D01*
X199842Y633456D01*
X199758Y633420D01*
X199726Y633394D01*
X199705Y633383D01*
X199683Y633360D01*
X199627Y633315D01*
X189272Y622960D01*
X189219Y622886D01*
X189159Y622817D01*
X189147Y622787D01*
X189128Y622760D01*
X189101Y622673D01*
X189067Y622589D01*
X189063Y622548D01*
X189056Y622525D01*
X189057Y622493D01*
X189049Y622422D01*
X189049Y614991D01*
X189063Y614901D01*
X189071Y614810D01*
X189083Y614780D01*
X189088Y614748D01*
X189131Y614667D01*
X189167Y614583D01*
X189193Y614551D01*
X189204Y614531D01*
X189227Y614508D01*
X189272Y614452D01*
X189630Y614094D01*
X190462Y612086D01*
X190462Y609914D01*
X189630Y607906D01*
X188094Y606370D01*
X186086Y605538D01*
X183914Y605538D01*
G37*
%LPD*%
%LPC*%
G36*
X151914Y612538D02*
X151914Y612538D01*
X149906Y613370D01*
X148370Y614906D01*
X147538Y616914D01*
X147538Y619086D01*
X148370Y621094D01*
X149906Y622630D01*
X151481Y623283D01*
X151581Y623345D01*
X151681Y623404D01*
X151685Y623409D01*
X151690Y623412D01*
X151765Y623503D01*
X151841Y623591D01*
X151843Y623597D01*
X151847Y623602D01*
X151889Y623710D01*
X151933Y623819D01*
X151934Y623827D01*
X151935Y623831D01*
X151936Y623849D01*
X151951Y623986D01*
X151951Y647263D01*
X152315Y647627D01*
X152368Y647701D01*
X152428Y647770D01*
X152440Y647800D01*
X152459Y647827D01*
X152486Y647914D01*
X152520Y647998D01*
X152524Y648039D01*
X152531Y648062D01*
X152530Y648094D01*
X152538Y648165D01*
X152538Y650086D01*
X153370Y652094D01*
X154906Y653630D01*
X156914Y654462D01*
X159086Y654462D01*
X161094Y653630D01*
X162630Y652094D01*
X163462Y650086D01*
X163462Y647914D01*
X162630Y645906D01*
X161094Y644370D01*
X159086Y643538D01*
X158810Y643538D01*
X158790Y643535D01*
X158771Y643537D01*
X158669Y643515D01*
X158567Y643499D01*
X158550Y643489D01*
X158530Y643485D01*
X158441Y643432D01*
X158350Y643383D01*
X158336Y643369D01*
X158319Y643359D01*
X158252Y643280D01*
X158180Y643205D01*
X158172Y643187D01*
X158159Y643172D01*
X158120Y643076D01*
X158077Y642982D01*
X158075Y642962D01*
X158067Y642944D01*
X158049Y642777D01*
X158049Y620235D01*
X158059Y620170D01*
X158060Y620105D01*
X158083Y620025D01*
X158088Y619992D01*
X158098Y619975D01*
X158107Y619944D01*
X158462Y619086D01*
X158462Y616914D01*
X157630Y614906D01*
X156094Y613370D01*
X154086Y612538D01*
X151914Y612538D01*
G37*
%LPD*%
%LPC*%
G36*
X173914Y613538D02*
X173914Y613538D01*
X171906Y614370D01*
X170370Y615906D01*
X169538Y617914D01*
X169538Y620086D01*
X170370Y622094D01*
X171728Y623452D01*
X171781Y623526D01*
X171841Y623596D01*
X171853Y623626D01*
X171872Y623652D01*
X171899Y623739D01*
X171933Y623824D01*
X171937Y623865D01*
X171944Y623887D01*
X171943Y623919D01*
X171951Y623991D01*
X171951Y632263D01*
X178315Y638627D01*
X178368Y638701D01*
X178428Y638770D01*
X178440Y638800D01*
X178459Y638827D01*
X178486Y638914D01*
X178520Y638998D01*
X178524Y639039D01*
X178531Y639062D01*
X178530Y639094D01*
X178538Y639165D01*
X178538Y641086D01*
X179370Y643094D01*
X180906Y644630D01*
X182914Y645462D01*
X185086Y645462D01*
X187094Y644630D01*
X188630Y643094D01*
X189462Y641086D01*
X189462Y638914D01*
X188630Y636906D01*
X187094Y635370D01*
X185086Y634538D01*
X183165Y634538D01*
X183075Y634524D01*
X182984Y634516D01*
X182954Y634504D01*
X182922Y634499D01*
X182842Y634456D01*
X182758Y634420D01*
X182726Y634394D01*
X182705Y634383D01*
X182683Y634360D01*
X182627Y634315D01*
X178272Y629960D01*
X178219Y629886D01*
X178159Y629817D01*
X178147Y629787D01*
X178128Y629760D01*
X178101Y629673D01*
X178067Y629589D01*
X178063Y629548D01*
X178056Y629525D01*
X178057Y629493D01*
X178049Y629422D01*
X178049Y623991D01*
X178063Y623901D01*
X178071Y623810D01*
X178083Y623780D01*
X178088Y623748D01*
X178131Y623667D01*
X178167Y623583D01*
X178193Y623551D01*
X178204Y623531D01*
X178227Y623508D01*
X178272Y623452D01*
X179630Y622094D01*
X180462Y620086D01*
X180462Y617914D01*
X179630Y615906D01*
X178094Y614370D01*
X176086Y613538D01*
X173914Y613538D01*
G37*
%LPD*%
%LPC*%
G36*
X195939Y613513D02*
X195939Y613513D01*
X193931Y614345D01*
X192395Y615881D01*
X191563Y617889D01*
X191563Y620061D01*
X192395Y622069D01*
X193931Y623605D01*
X195939Y624437D01*
X198111Y624437D01*
X199838Y623721D01*
X199952Y623695D01*
X200065Y623666D01*
X200072Y623667D01*
X200078Y623665D01*
X200194Y623676D01*
X200311Y623685D01*
X200316Y623688D01*
X200323Y623688D01*
X200430Y623736D01*
X200537Y623782D01*
X200543Y623786D01*
X200547Y623788D01*
X200561Y623801D01*
X200668Y623886D01*
X207340Y630559D01*
X207393Y630633D01*
X207453Y630702D01*
X207465Y630732D01*
X207484Y630759D01*
X207511Y630846D01*
X207545Y630930D01*
X207549Y630971D01*
X207556Y630994D01*
X207555Y631026D01*
X207563Y631097D01*
X207563Y633018D01*
X208395Y635026D01*
X209931Y636562D01*
X211939Y637394D01*
X214111Y637394D01*
X216119Y636562D01*
X217655Y635026D01*
X218487Y633018D01*
X218487Y630846D01*
X217655Y628838D01*
X216119Y627302D01*
X214111Y626470D01*
X212190Y626470D01*
X212100Y626456D01*
X212009Y626448D01*
X211979Y626436D01*
X211947Y626431D01*
X211867Y626388D01*
X211783Y626352D01*
X211751Y626326D01*
X211730Y626315D01*
X211708Y626292D01*
X211652Y626247D01*
X202024Y616619D01*
X201985Y616566D01*
X201939Y616519D01*
X201899Y616446D01*
X201880Y616419D01*
X201874Y616401D01*
X201859Y616372D01*
X201655Y615881D01*
X200119Y614345D01*
X198111Y613513D01*
X195939Y613513D01*
G37*
%LPD*%
%LPC*%
G36*
X394009Y623804D02*
X394009Y623804D01*
X391254Y624945D01*
X389145Y627054D01*
X388004Y629809D01*
X388004Y632791D01*
X389145Y635546D01*
X391254Y637655D01*
X394009Y638796D01*
X396991Y638796D01*
X399746Y637655D01*
X401855Y635546D01*
X402996Y632791D01*
X402996Y629809D01*
X401855Y627054D01*
X399746Y624945D01*
X396991Y623804D01*
X394009Y623804D01*
G37*
%LPD*%
%LPC*%
G36*
X404169Y674604D02*
X404169Y674604D01*
X401414Y675745D01*
X399305Y677854D01*
X398164Y680609D01*
X398164Y683591D01*
X399305Y686346D01*
X401414Y688455D01*
X404169Y689596D01*
X407151Y689596D01*
X409906Y688455D01*
X412015Y686346D01*
X413156Y683591D01*
X413156Y680609D01*
X412015Y677854D01*
X409906Y675745D01*
X407151Y674604D01*
X404169Y674604D01*
G37*
%LPD*%
%LPC*%
G36*
X35749Y469909D02*
X35749Y469909D01*
X33437Y470867D01*
X31667Y472637D01*
X30709Y474949D01*
X30709Y477451D01*
X31667Y479763D01*
X33437Y481533D01*
X35749Y482491D01*
X38251Y482491D01*
X40563Y481533D01*
X42333Y479763D01*
X43291Y477451D01*
X43291Y474949D01*
X42333Y472637D01*
X40563Y470867D01*
X38251Y469909D01*
X35749Y469909D01*
G37*
%LPD*%
%LPC*%
G36*
X217952Y407952D02*
X217952Y407952D01*
X217952Y412897D01*
X218741Y412740D01*
X219828Y412290D01*
X220806Y411637D01*
X221637Y410806D01*
X222290Y409828D01*
X222740Y408741D01*
X222897Y407952D01*
X217952Y407952D01*
G37*
%LPD*%
%LPC*%
G36*
X217952Y356952D02*
X217952Y356952D01*
X217952Y361897D01*
X218741Y361740D01*
X219828Y361290D01*
X220806Y360637D01*
X221637Y359806D01*
X222290Y358828D01*
X222740Y357741D01*
X222897Y356952D01*
X217952Y356952D01*
G37*
%LPD*%
%LPC*%
G36*
X100952Y350952D02*
X100952Y350952D01*
X100952Y355897D01*
X101741Y355740D01*
X102828Y355290D01*
X103806Y354637D01*
X104637Y353806D01*
X105290Y352828D01*
X105740Y351741D01*
X105897Y350952D01*
X100952Y350952D01*
G37*
%LPD*%
%LPC*%
G36*
X201952Y313952D02*
X201952Y313952D01*
X201952Y318897D01*
X202741Y318740D01*
X203828Y318290D01*
X204806Y317637D01*
X205637Y316806D01*
X206290Y315828D01*
X206740Y314741D01*
X206897Y313952D01*
X201952Y313952D01*
G37*
%LPD*%
%LPC*%
G36*
X59952Y389952D02*
X59952Y389952D01*
X59952Y394897D01*
X60741Y394740D01*
X61828Y394290D01*
X62806Y393637D01*
X63637Y392806D01*
X64290Y391828D01*
X64740Y390741D01*
X64897Y389952D01*
X59952Y389952D01*
G37*
%LPD*%
%LPC*%
G36*
X130952Y358952D02*
X130952Y358952D01*
X130952Y363897D01*
X131741Y363740D01*
X132828Y363290D01*
X133806Y362637D01*
X134637Y361806D01*
X135290Y360828D01*
X135740Y359741D01*
X135897Y358952D01*
X130952Y358952D01*
G37*
%LPD*%
%LPC*%
G36*
X184952Y373952D02*
X184952Y373952D01*
X184952Y378897D01*
X185741Y378740D01*
X186828Y378290D01*
X187806Y377637D01*
X188637Y376806D01*
X189290Y375828D01*
X189740Y374741D01*
X189897Y373952D01*
X184952Y373952D01*
G37*
%LPD*%
%LPC*%
G36*
X162952Y350952D02*
X162952Y350952D01*
X162952Y355897D01*
X163741Y355740D01*
X164828Y355290D01*
X165806Y354637D01*
X166637Y353806D01*
X167290Y352828D01*
X167740Y351741D01*
X167897Y350952D01*
X162952Y350952D01*
G37*
%LPD*%
%LPC*%
G36*
X130952Y382952D02*
X130952Y382952D01*
X130952Y387897D01*
X131741Y387740D01*
X132828Y387290D01*
X133806Y386637D01*
X134637Y385806D01*
X135290Y384828D01*
X135740Y383741D01*
X135897Y382952D01*
X130952Y382952D01*
G37*
%LPD*%
%LPC*%
G36*
X175952Y312952D02*
X175952Y312952D01*
X175952Y317897D01*
X176741Y317740D01*
X177828Y317290D01*
X178806Y316637D01*
X179637Y315806D01*
X180290Y314828D01*
X180740Y313741D01*
X180897Y312952D01*
X175952Y312952D01*
G37*
%LPD*%
%LPC*%
G36*
X93952Y311952D02*
X93952Y311952D01*
X93952Y316897D01*
X94741Y316740D01*
X95828Y316290D01*
X96806Y315637D01*
X97637Y314806D01*
X98290Y313828D01*
X98740Y312741D01*
X98897Y311952D01*
X93952Y311952D01*
G37*
%LPD*%
%LPC*%
G36*
X130952Y271952D02*
X130952Y271952D01*
X130952Y276897D01*
X131741Y276740D01*
X132828Y276290D01*
X133806Y275637D01*
X134637Y274806D01*
X135290Y273828D01*
X135740Y272741D01*
X135897Y271952D01*
X130952Y271952D01*
G37*
%LPD*%
%LPC*%
G36*
X101952Y281952D02*
X101952Y281952D01*
X101952Y286897D01*
X102741Y286740D01*
X103828Y286290D01*
X104806Y285637D01*
X105637Y284806D01*
X106290Y283828D01*
X106740Y282741D01*
X106897Y281952D01*
X101952Y281952D01*
G37*
%LPD*%
%LPC*%
G36*
X162952Y275952D02*
X162952Y275952D01*
X162952Y280897D01*
X163741Y280740D01*
X164828Y280290D01*
X165806Y279637D01*
X166637Y278806D01*
X167290Y277828D01*
X167740Y276741D01*
X167897Y275952D01*
X162952Y275952D01*
G37*
%LPD*%
%LPC*%
G36*
X58952Y272952D02*
X58952Y272952D01*
X58952Y277897D01*
X59741Y277740D01*
X60828Y277290D01*
X61806Y276637D01*
X62637Y275806D01*
X63290Y274828D01*
X63740Y273741D01*
X63897Y272952D01*
X58952Y272952D01*
G37*
%LPD*%
%LPC*%
G36*
X130952Y254952D02*
X130952Y254952D01*
X130952Y259897D01*
X131741Y259740D01*
X132828Y259290D01*
X133806Y258637D01*
X134637Y257806D01*
X135290Y256828D01*
X135740Y255741D01*
X135897Y254952D01*
X130952Y254952D01*
G37*
%LPD*%
%LPC*%
G36*
X184952Y372048D02*
X184952Y372048D01*
X189897Y372048D01*
X189740Y371259D01*
X189290Y370172D01*
X188637Y369194D01*
X187806Y368363D01*
X186828Y367710D01*
X185741Y367260D01*
X184952Y367103D01*
X184952Y372048D01*
G37*
%LPD*%
%LPC*%
G36*
X124103Y358952D02*
X124103Y358952D01*
X124260Y359741D01*
X124710Y360828D01*
X125363Y361806D01*
X126194Y362637D01*
X127172Y363290D01*
X128259Y363740D01*
X129048Y363897D01*
X129048Y358952D01*
X124103Y358952D01*
G37*
%LPD*%
%LPC*%
G36*
X211103Y356952D02*
X211103Y356952D01*
X211260Y357741D01*
X211710Y358828D01*
X212363Y359806D01*
X213194Y360637D01*
X214172Y361290D01*
X215259Y361740D01*
X216048Y361897D01*
X216048Y356952D01*
X211103Y356952D01*
G37*
%LPD*%
%LPC*%
G36*
X130952Y357048D02*
X130952Y357048D01*
X135897Y357048D01*
X135740Y356259D01*
X135290Y355172D01*
X134637Y354194D01*
X133806Y353363D01*
X132828Y352710D01*
X131741Y352260D01*
X130952Y352103D01*
X130952Y357048D01*
G37*
%LPD*%
%LPC*%
G36*
X94103Y350952D02*
X94103Y350952D01*
X94260Y351741D01*
X94710Y352828D01*
X95363Y353806D01*
X96194Y354637D01*
X97172Y355290D01*
X98259Y355740D01*
X99048Y355897D01*
X99048Y350952D01*
X94103Y350952D01*
G37*
%LPD*%
%LPC*%
G36*
X156103Y350952D02*
X156103Y350952D01*
X156260Y351741D01*
X156710Y352828D01*
X157363Y353806D01*
X158194Y354637D01*
X159172Y355290D01*
X160259Y355740D01*
X161048Y355897D01*
X161048Y350952D01*
X156103Y350952D01*
G37*
%LPD*%
%LPC*%
G36*
X217952Y355048D02*
X217952Y355048D01*
X222897Y355048D01*
X222740Y354259D01*
X222290Y353172D01*
X221637Y352194D01*
X220806Y351363D01*
X219828Y350710D01*
X218741Y350260D01*
X217952Y350103D01*
X217952Y355048D01*
G37*
%LPD*%
%LPC*%
G36*
X162952Y349048D02*
X162952Y349048D01*
X167897Y349048D01*
X167740Y348259D01*
X167290Y347172D01*
X166637Y346194D01*
X165806Y345363D01*
X164828Y344710D01*
X163741Y344260D01*
X162952Y344103D01*
X162952Y349048D01*
G37*
%LPD*%
%LPC*%
G36*
X100952Y349048D02*
X100952Y349048D01*
X105897Y349048D01*
X105740Y348259D01*
X105290Y347172D01*
X104637Y346194D01*
X103806Y345363D01*
X102828Y344710D01*
X101741Y344260D01*
X100952Y344103D01*
X100952Y349048D01*
G37*
%LPD*%
%LPC*%
G36*
X195103Y313952D02*
X195103Y313952D01*
X195260Y314741D01*
X195710Y315828D01*
X196363Y316806D01*
X197194Y317637D01*
X198172Y318290D01*
X199259Y318740D01*
X200048Y318897D01*
X200048Y313952D01*
X195103Y313952D01*
G37*
%LPD*%
%LPC*%
G36*
X211103Y407952D02*
X211103Y407952D01*
X211260Y408741D01*
X211710Y409828D01*
X212363Y410806D01*
X213194Y411637D01*
X214172Y412290D01*
X215259Y412740D01*
X216048Y412897D01*
X216048Y407952D01*
X211103Y407952D01*
G37*
%LPD*%
%LPC*%
G36*
X169103Y312952D02*
X169103Y312952D01*
X169260Y313741D01*
X169710Y314828D01*
X170363Y315806D01*
X171194Y316637D01*
X172172Y317290D01*
X173259Y317740D01*
X174048Y317897D01*
X174048Y312952D01*
X169103Y312952D01*
G37*
%LPD*%
%LPC*%
G36*
X217952Y406048D02*
X217952Y406048D01*
X222897Y406048D01*
X222740Y405259D01*
X222290Y404172D01*
X221637Y403194D01*
X220806Y402363D01*
X219828Y401710D01*
X218741Y401260D01*
X217952Y401103D01*
X217952Y406048D01*
G37*
%LPD*%
%LPC*%
G36*
X87103Y311952D02*
X87103Y311952D01*
X87260Y312741D01*
X87710Y313828D01*
X88363Y314806D01*
X89194Y315637D01*
X90172Y316290D01*
X91259Y316740D01*
X92048Y316897D01*
X92048Y311952D01*
X87103Y311952D01*
G37*
%LPD*%
%LPC*%
G36*
X201952Y312048D02*
X201952Y312048D01*
X206897Y312048D01*
X206740Y311259D01*
X206290Y310172D01*
X205637Y309194D01*
X204806Y308363D01*
X203828Y307710D01*
X202741Y307260D01*
X201952Y307103D01*
X201952Y312048D01*
G37*
%LPD*%
%LPC*%
G36*
X175952Y311048D02*
X175952Y311048D01*
X180897Y311048D01*
X180740Y310259D01*
X180290Y309172D01*
X179637Y308194D01*
X178806Y307363D01*
X177828Y306710D01*
X176741Y306260D01*
X175952Y306103D01*
X175952Y311048D01*
G37*
%LPD*%
%LPC*%
G36*
X53103Y389952D02*
X53103Y389952D01*
X53260Y390741D01*
X53710Y391828D01*
X54363Y392806D01*
X55194Y393637D01*
X56172Y394290D01*
X57259Y394740D01*
X58048Y394897D01*
X58048Y389952D01*
X53103Y389952D01*
G37*
%LPD*%
%LPC*%
G36*
X93952Y310048D02*
X93952Y310048D01*
X98897Y310048D01*
X98740Y309259D01*
X98290Y308172D01*
X97637Y307194D01*
X96806Y306363D01*
X95828Y305710D01*
X94741Y305260D01*
X93952Y305103D01*
X93952Y310048D01*
G37*
%LPD*%
%LPC*%
G36*
X59952Y388048D02*
X59952Y388048D01*
X64897Y388048D01*
X64740Y387259D01*
X64290Y386172D01*
X63637Y385194D01*
X62806Y384363D01*
X61828Y383710D01*
X60741Y383260D01*
X59952Y383103D01*
X59952Y388048D01*
G37*
%LPD*%
%LPC*%
G36*
X95103Y281952D02*
X95103Y281952D01*
X95260Y282741D01*
X95710Y283828D01*
X96363Y284806D01*
X97194Y285637D01*
X98172Y286290D01*
X99259Y286740D01*
X100048Y286897D01*
X100048Y281952D01*
X95103Y281952D01*
G37*
%LPD*%
%LPC*%
G36*
X124103Y382952D02*
X124103Y382952D01*
X124260Y383741D01*
X124710Y384828D01*
X125363Y385806D01*
X126194Y386637D01*
X127172Y387290D01*
X128259Y387740D01*
X129048Y387897D01*
X129048Y382952D01*
X124103Y382952D01*
G37*
%LPD*%
%LPC*%
G36*
X156103Y275952D02*
X156103Y275952D01*
X156260Y276741D01*
X156710Y277828D01*
X157363Y278806D01*
X158194Y279637D01*
X159172Y280290D01*
X160259Y280740D01*
X161048Y280897D01*
X161048Y275952D01*
X156103Y275952D01*
G37*
%LPD*%
%LPC*%
G36*
X101952Y280048D02*
X101952Y280048D01*
X106897Y280048D01*
X106740Y279259D01*
X106290Y278172D01*
X105637Y277194D01*
X104806Y276363D01*
X103828Y275710D01*
X102741Y275260D01*
X101952Y275103D01*
X101952Y280048D01*
G37*
%LPD*%
%LPC*%
G36*
X130952Y381048D02*
X130952Y381048D01*
X135897Y381048D01*
X135740Y380259D01*
X135290Y379172D01*
X134637Y378194D01*
X133806Y377363D01*
X132828Y376710D01*
X131741Y376260D01*
X130952Y376103D01*
X130952Y381048D01*
G37*
%LPD*%
%LPC*%
G36*
X52103Y272952D02*
X52103Y272952D01*
X52260Y273741D01*
X52710Y274828D01*
X53363Y275806D01*
X54194Y276637D01*
X55172Y277290D01*
X56259Y277740D01*
X57048Y277897D01*
X57048Y272952D01*
X52103Y272952D01*
G37*
%LPD*%
%LPC*%
G36*
X130952Y253048D02*
X130952Y253048D01*
X135897Y253048D01*
X135740Y252259D01*
X135290Y251172D01*
X134637Y250194D01*
X133806Y249363D01*
X132828Y248710D01*
X131741Y248260D01*
X130952Y248103D01*
X130952Y253048D01*
G37*
%LPD*%
%LPC*%
G36*
X124103Y271952D02*
X124103Y271952D01*
X124260Y272741D01*
X124710Y273828D01*
X125363Y274806D01*
X126194Y275637D01*
X127172Y276290D01*
X128259Y276740D01*
X129048Y276897D01*
X129048Y271952D01*
X124103Y271952D01*
G37*
%LPD*%
%LPC*%
G36*
X162952Y274048D02*
X162952Y274048D01*
X167897Y274048D01*
X167740Y273259D01*
X167290Y272172D01*
X166637Y271194D01*
X165806Y270363D01*
X164828Y269710D01*
X163741Y269260D01*
X162952Y269103D01*
X162952Y274048D01*
G37*
%LPD*%
%LPC*%
G36*
X58952Y271048D02*
X58952Y271048D01*
X63897Y271048D01*
X63740Y270259D01*
X63290Y269172D01*
X62637Y268194D01*
X61806Y267363D01*
X60828Y266710D01*
X59741Y266260D01*
X58952Y266103D01*
X58952Y271048D01*
G37*
%LPD*%
%LPC*%
G36*
X130952Y270048D02*
X130952Y270048D01*
X135897Y270048D01*
X135740Y269259D01*
X135290Y268172D01*
X134637Y267194D01*
X133806Y266363D01*
X132828Y265710D01*
X131741Y265260D01*
X130952Y265103D01*
X130952Y270048D01*
G37*
%LPD*%
%LPC*%
G36*
X178103Y373952D02*
X178103Y373952D01*
X178260Y374741D01*
X178710Y375828D01*
X179363Y376806D01*
X180194Y377637D01*
X181172Y378290D01*
X182259Y378740D01*
X183048Y378897D01*
X183048Y373952D01*
X178103Y373952D01*
G37*
%LPD*%
%LPC*%
G36*
X124103Y254952D02*
X124103Y254952D01*
X124260Y255741D01*
X124710Y256828D01*
X125363Y257806D01*
X126194Y258637D01*
X127172Y259290D01*
X128259Y259740D01*
X129048Y259897D01*
X129048Y254952D01*
X124103Y254952D01*
G37*
%LPD*%
%LPC*%
G36*
X182259Y367260D02*
X182259Y367260D01*
X181172Y367710D01*
X180194Y368363D01*
X179363Y369194D01*
X178710Y370172D01*
X178260Y371259D01*
X178103Y372048D01*
X183048Y372048D01*
X183048Y367103D01*
X182259Y367260D01*
G37*
%LPD*%
%LPC*%
G36*
X99259Y275260D02*
X99259Y275260D01*
X98172Y275710D01*
X97194Y276363D01*
X96363Y277194D01*
X95710Y278172D01*
X95260Y279259D01*
X95103Y280048D01*
X100048Y280048D01*
X100048Y275103D01*
X99259Y275260D01*
G37*
%LPD*%
%LPC*%
G36*
X199259Y307260D02*
X199259Y307260D01*
X198172Y307710D01*
X197194Y308363D01*
X196363Y309194D01*
X195710Y310172D01*
X195260Y311259D01*
X195103Y312048D01*
X200048Y312048D01*
X200048Y307103D01*
X199259Y307260D01*
G37*
%LPD*%
%LPC*%
G36*
X98259Y344260D02*
X98259Y344260D01*
X97172Y344710D01*
X96194Y345363D01*
X95363Y346194D01*
X94710Y347172D01*
X94260Y348259D01*
X94103Y349048D01*
X99048Y349048D01*
X99048Y344103D01*
X98259Y344260D01*
G37*
%LPD*%
%LPC*%
G36*
X215259Y401260D02*
X215259Y401260D01*
X214172Y401710D01*
X213194Y402363D01*
X212363Y403194D01*
X211710Y404172D01*
X211260Y405259D01*
X211103Y406048D01*
X216048Y406048D01*
X216048Y401103D01*
X215259Y401260D01*
G37*
%LPD*%
%LPC*%
G36*
X128259Y352260D02*
X128259Y352260D01*
X127172Y352710D01*
X126194Y353363D01*
X125363Y354194D01*
X124710Y355172D01*
X124260Y356259D01*
X124103Y357048D01*
X129048Y357048D01*
X129048Y352103D01*
X128259Y352260D01*
G37*
%LPD*%
%LPC*%
G36*
X91259Y305260D02*
X91259Y305260D01*
X90172Y305710D01*
X89194Y306363D01*
X88363Y307194D01*
X87710Y308172D01*
X87260Y309259D01*
X87103Y310048D01*
X92048Y310048D01*
X92048Y305103D01*
X91259Y305260D01*
G37*
%LPD*%
%LPC*%
G36*
X160259Y269260D02*
X160259Y269260D01*
X159172Y269710D01*
X158194Y270363D01*
X157363Y271194D01*
X156710Y272172D01*
X156260Y273259D01*
X156103Y274048D01*
X161048Y274048D01*
X161048Y269103D01*
X160259Y269260D01*
G37*
%LPD*%
%LPC*%
G36*
X128259Y376260D02*
X128259Y376260D01*
X127172Y376710D01*
X126194Y377363D01*
X125363Y378194D01*
X124710Y379172D01*
X124260Y380259D01*
X124103Y381048D01*
X129048Y381048D01*
X129048Y376103D01*
X128259Y376260D01*
G37*
%LPD*%
%LPC*%
G36*
X56259Y266260D02*
X56259Y266260D01*
X55172Y266710D01*
X54194Y267363D01*
X53363Y268194D01*
X52710Y269172D01*
X52260Y270259D01*
X52103Y271048D01*
X57048Y271048D01*
X57048Y266103D01*
X56259Y266260D01*
G37*
%LPD*%
%LPC*%
G36*
X215259Y350260D02*
X215259Y350260D01*
X214172Y350710D01*
X213194Y351363D01*
X212363Y352194D01*
X211710Y353172D01*
X211260Y354259D01*
X211103Y355048D01*
X216048Y355048D01*
X216048Y350103D01*
X215259Y350260D01*
G37*
%LPD*%
%LPC*%
G36*
X128259Y265260D02*
X128259Y265260D01*
X127172Y265710D01*
X126194Y266363D01*
X125363Y267194D01*
X124710Y268172D01*
X124260Y269259D01*
X124103Y270048D01*
X129048Y270048D01*
X129048Y265103D01*
X128259Y265260D01*
G37*
%LPD*%
%LPC*%
G36*
X57259Y383260D02*
X57259Y383260D01*
X56172Y383710D01*
X55194Y384363D01*
X54363Y385194D01*
X53710Y386172D01*
X53260Y387259D01*
X53103Y388048D01*
X58048Y388048D01*
X58048Y383103D01*
X57259Y383260D01*
G37*
%LPD*%
%LPC*%
G36*
X160259Y344260D02*
X160259Y344260D01*
X159172Y344710D01*
X158194Y345363D01*
X157363Y346194D01*
X156710Y347172D01*
X156260Y348259D01*
X156103Y349048D01*
X161048Y349048D01*
X161048Y344103D01*
X160259Y344260D01*
G37*
%LPD*%
%LPC*%
G36*
X128259Y248260D02*
X128259Y248260D01*
X127172Y248710D01*
X126194Y249363D01*
X125363Y250194D01*
X124710Y251172D01*
X124260Y252259D01*
X124103Y253048D01*
X129048Y253048D01*
X129048Y248103D01*
X128259Y248260D01*
G37*
%LPD*%
%LPC*%
G36*
X173259Y306260D02*
X173259Y306260D01*
X172172Y306710D01*
X171194Y307363D01*
X170363Y308194D01*
X169710Y309172D01*
X169260Y310259D01*
X169103Y311048D01*
X174048Y311048D01*
X174048Y306103D01*
X173259Y306260D01*
G37*
%LPD*%
D10*
X275872Y519617D02*
X275872Y492367D01*
X266964Y483459D01*
X266964Y517004D01*
X268391Y518431D01*
X269377Y520812D01*
X269377Y523388D01*
X268391Y525769D01*
X266569Y527591D01*
X264188Y528577D01*
X261612Y528577D01*
X259231Y527591D01*
X257409Y525769D01*
X256423Y523388D01*
X256423Y520812D01*
X257409Y518431D01*
X258836Y517004D01*
X258836Y486583D01*
X216317Y444064D01*
X119683Y444064D01*
X108000Y455747D01*
X108000Y458253D01*
X121317Y444936D01*
X214683Y444936D01*
X217064Y447317D01*
X254064Y484317D01*
X254064Y502504D01*
X255491Y503931D01*
X256477Y506312D01*
X256477Y508888D01*
X255491Y511269D01*
X253669Y513091D01*
X251288Y514077D01*
X248712Y514077D01*
X246331Y513091D01*
X244509Y511269D01*
X243523Y508888D01*
X243523Y506312D01*
X244509Y503931D01*
X245936Y502504D01*
X245936Y487683D01*
X211317Y453064D01*
X124683Y453064D01*
X108000Y469747D01*
X108000Y470253D01*
X124317Y453936D01*
X204683Y453936D01*
X207064Y456317D01*
X219270Y468523D01*
X221288Y468523D01*
X223669Y469509D01*
X225491Y471331D01*
X226477Y473712D01*
X226477Y476288D01*
X225491Y478669D01*
X223669Y480491D01*
X221288Y481477D01*
X218712Y481477D01*
X216331Y480491D01*
X214509Y478669D01*
X213523Y476288D01*
X213523Y474270D01*
X201317Y462064D01*
X197811Y462064D01*
X200064Y464317D01*
X200064Y464317D01*
X204270Y468523D01*
X206288Y468523D01*
X208669Y469509D01*
X210491Y471331D01*
X211477Y473712D01*
X211477Y476288D01*
X210491Y478669D01*
X208669Y480491D01*
X206288Y481477D01*
X203712Y481477D01*
X201331Y480491D01*
X199509Y478669D01*
X198523Y476288D01*
X198523Y474270D01*
X194317Y470064D01*
X131683Y470064D01*
X108000Y493747D01*
X108000Y495253D01*
X130405Y472848D01*
X167904Y472848D01*
X169331Y471421D01*
X171712Y470435D01*
X174288Y470435D01*
X176669Y471421D01*
X178491Y473243D01*
X179477Y475624D01*
X179477Y478200D01*
X178491Y480581D01*
X176669Y482403D01*
X174288Y483389D01*
X171712Y483389D01*
X169331Y482403D01*
X167904Y480976D01*
X133771Y480976D01*
X108000Y506747D01*
X108000Y507253D01*
X131317Y483936D01*
X191904Y483936D01*
X192331Y483509D01*
X194712Y482523D01*
X197288Y482523D01*
X199669Y483509D01*
X201491Y485331D01*
X202477Y487712D01*
X202477Y490288D01*
X201491Y492669D01*
X199669Y494491D01*
X197288Y495477D01*
X194712Y495477D01*
X192331Y494491D01*
X190509Y492669D01*
X190259Y492064D01*
X134683Y492064D01*
X131811Y494936D01*
X136904Y494936D01*
X138331Y493509D01*
X140712Y492523D01*
X143288Y492523D01*
X145669Y493509D01*
X147491Y495331D01*
X148477Y497712D01*
X148477Y500288D01*
X147491Y502669D01*
X147292Y502868D01*
X155763Y502868D01*
X155523Y502288D01*
X155523Y499712D01*
X156509Y497331D01*
X158331Y495509D01*
X160712Y494523D01*
X163288Y494523D01*
X165669Y495509D01*
X167491Y497331D01*
X168477Y499712D01*
X168477Y502288D01*
X167491Y504669D01*
X166064Y506096D01*
X166064Y506683D01*
X161751Y510996D01*
X146430Y510996D01*
X147669Y511509D01*
X149491Y513331D01*
X150477Y515712D01*
X150477Y518288D01*
X149491Y520669D01*
X147669Y522491D01*
X145288Y523477D01*
X142712Y523477D01*
X141715Y523064D01*
X126683Y523064D01*
X109064Y540683D01*
X109064Y585189D01*
X117936Y576317D01*
X117936Y543008D01*
X116509Y541581D01*
X115523Y539200D01*
X115523Y536624D01*
X116509Y534243D01*
X118331Y532421D01*
X120712Y531435D01*
X123288Y531435D01*
X125669Y532421D01*
X127221Y533973D01*
X126523Y532288D01*
X126523Y529712D01*
X127509Y527331D01*
X129331Y525509D01*
X131712Y524523D01*
X134288Y524523D01*
X136669Y525509D01*
X138491Y527331D01*
X139477Y529712D01*
X139477Y532288D01*
X138717Y534123D01*
X140331Y532509D01*
X142712Y531523D01*
X145288Y531523D01*
X147669Y532509D01*
X149491Y534331D01*
X150477Y536712D01*
X150477Y539288D01*
X149491Y541669D01*
X148064Y543096D01*
X148064Y581683D01*
X145683Y584064D01*
X128064Y601683D01*
X128064Y629000D01*
X128936Y629000D01*
X128936Y604317D01*
X131317Y601936D01*
X131317Y601936D01*
X134523Y598730D01*
X134523Y596712D01*
X135509Y594331D01*
X137331Y592509D01*
X139712Y591523D01*
X142288Y591523D01*
X144669Y592509D01*
X146491Y594331D01*
X147477Y596712D01*
X147477Y599288D01*
X146491Y601669D01*
X144669Y603491D01*
X142288Y604477D01*
X140270Y604477D01*
X137064Y607683D01*
X137064Y629000D01*
X137936Y629000D01*
X137936Y611317D01*
X147936Y601317D01*
X147936Y595096D01*
X146509Y593669D01*
X145523Y591288D01*
X145523Y588712D01*
X146509Y586331D01*
X148331Y584509D01*
X150712Y583523D01*
X153288Y583523D01*
X155669Y584509D01*
X157491Y586331D01*
X158477Y588712D01*
X158477Y591288D01*
X157491Y593669D01*
X156064Y595096D01*
X156064Y604683D01*
X153683Y607064D01*
X146064Y614683D01*
X146064Y629000D01*
X150936Y629000D01*
X150936Y624156D01*
X149331Y623491D01*
X147509Y621669D01*
X146523Y619288D01*
X146523Y616712D01*
X147509Y614331D01*
X149331Y612509D01*
X151712Y611523D01*
X154288Y611523D01*
X156669Y612509D01*
X158491Y614331D01*
X159477Y616712D01*
X159477Y619288D01*
X159064Y620285D01*
X159064Y629000D01*
X159936Y629000D01*
X159936Y608285D01*
X159523Y607288D01*
X159523Y604712D01*
X160509Y602331D01*
X162331Y600509D01*
X164712Y599523D01*
X167288Y599523D01*
X169669Y600509D01*
X171491Y602331D01*
X172477Y604712D01*
X172477Y607288D01*
X171491Y609669D01*
X169669Y611491D01*
X168064Y612156D01*
X168064Y629000D01*
X170936Y629000D01*
X170936Y624096D01*
X169509Y622669D01*
X168523Y620288D01*
X168523Y617712D01*
X169509Y615331D01*
X171331Y613509D01*
X173712Y612523D01*
X176288Y612523D01*
X178669Y613509D01*
X179283Y614123D01*
X178523Y612288D01*
X178523Y609712D01*
X179509Y607331D01*
X181331Y605509D01*
X183712Y604523D01*
X186288Y604523D01*
X188669Y605509D01*
X190491Y607331D01*
X191477Y609712D01*
X191477Y612288D01*
X190491Y614669D01*
X190064Y615096D01*
X190064Y622317D01*
X196747Y629000D01*
X204346Y629000D01*
X200070Y624724D01*
X198313Y625452D01*
X195737Y625452D01*
X193356Y624466D01*
X191534Y622644D01*
X190548Y620263D01*
X190548Y617687D01*
X191534Y615306D01*
X193356Y613484D01*
X195737Y612498D01*
X198313Y612498D01*
X200694Y613484D01*
X202516Y615306D01*
X202777Y615937D01*
X212295Y625455D01*
X214313Y625455D01*
X216694Y626441D01*
X218516Y628263D01*
X218821Y629000D01*
X220177Y629000D01*
X220177Y627505D01*
X208896Y616225D01*
X208288Y616477D01*
X205712Y616477D01*
X203331Y615491D01*
X201509Y613669D01*
X200523Y611288D01*
X200523Y608712D01*
X201509Y606331D01*
X203331Y604509D01*
X205712Y603523D01*
X208288Y603523D01*
X210669Y604509D01*
X212491Y606331D01*
X213477Y608712D01*
X213477Y609311D01*
X227436Y623270D01*
X227436Y620183D01*
X224730Y617477D01*
X224712Y617477D01*
X222331Y616491D01*
X220509Y614669D01*
X219523Y612288D01*
X219523Y609712D01*
X220509Y607331D01*
X222331Y605509D01*
X224712Y604523D01*
X227288Y604523D01*
X229669Y605509D01*
X231491Y607331D01*
X232477Y609712D01*
X232477Y612288D01*
X232055Y613308D01*
X234868Y616120D01*
X234523Y615288D01*
X234523Y612712D01*
X235509Y610331D01*
X237331Y608509D01*
X239712Y607523D01*
X242288Y607523D01*
X244669Y608509D01*
X246491Y610331D01*
X247477Y612712D01*
X247477Y615288D01*
X247064Y616285D01*
X247064Y619317D01*
X256747Y629000D01*
X258253Y629000D01*
X250317Y621064D01*
X247936Y618683D01*
X247936Y609683D01*
X242730Y604477D01*
X240712Y604477D01*
X238331Y603491D01*
X236509Y601669D01*
X235523Y599288D01*
X235523Y596712D01*
X236509Y594331D01*
X238331Y592509D01*
X240712Y591523D01*
X243288Y591523D01*
X245669Y592509D01*
X247491Y594331D01*
X248477Y596712D01*
X248477Y598730D01*
X253683Y603936D01*
X256064Y606317D01*
X256064Y615317D01*
X269747Y629000D01*
X270253Y629000D01*
X259317Y618064D01*
X256936Y615683D01*
X256936Y606683D01*
X254317Y604064D01*
X251936Y601683D01*
X251936Y539317D01*
X252523Y538730D01*
X252523Y536712D01*
X253509Y534331D01*
X255331Y532509D01*
X257712Y531523D01*
X260288Y531523D01*
X262669Y532509D01*
X264491Y534331D01*
X265477Y536712D01*
X265477Y539288D01*
X264491Y541669D01*
X262669Y543491D01*
X260288Y544477D01*
X260064Y544477D01*
X260064Y598317D01*
X265064Y603317D01*
X265064Y612317D01*
X270523Y617776D01*
X270523Y617712D01*
X271509Y615331D01*
X273331Y613509D01*
X275712Y612523D01*
X278288Y612523D01*
X280669Y613509D01*
X282491Y615331D01*
X283477Y617712D01*
X283477Y618642D01*
X293835Y629000D01*
X296253Y629000D01*
X278317Y611064D01*
X277096Y611064D01*
X276669Y611491D01*
X274288Y612477D01*
X271712Y612477D01*
X269331Y611491D01*
X267509Y609669D01*
X266523Y607288D01*
X266523Y604712D01*
X267509Y602331D01*
X269331Y600509D01*
X271712Y599523D01*
X274288Y599523D01*
X276669Y600509D01*
X278491Y602331D01*
X278741Y602936D01*
X281683Y602936D01*
X307747Y629000D01*
X367599Y629000D01*
X386283Y610317D01*
X388663Y607936D01*
X406653Y607936D01*
X425936Y588653D01*
X425936Y511683D01*
X381317Y467064D01*
X314683Y467064D01*
X307477Y474270D01*
X307477Y476288D01*
X306491Y478669D01*
X304669Y480491D01*
X302288Y481477D01*
X299712Y481477D01*
X297331Y480491D01*
X295509Y478669D01*
X294523Y476288D01*
X294523Y473712D01*
X295509Y471331D01*
X297331Y469509D01*
X299712Y468523D01*
X301730Y468523D01*
X311317Y458936D01*
X384683Y458936D01*
X431683Y505936D01*
X434064Y508317D01*
X434064Y592020D01*
X431683Y594400D01*
X431683Y594400D01*
X412400Y613683D01*
X410020Y616064D01*
X392030Y616064D01*
X379094Y629000D01*
X387240Y629000D01*
X388285Y626479D01*
X390679Y624085D01*
X393807Y622789D01*
X397193Y622789D01*
X400321Y624085D01*
X402715Y626479D01*
X403760Y629000D01*
X446444Y629000D01*
X446444Y85355D01*
X446050Y77337D01*
X442922Y61610D01*
X436785Y46795D01*
X427876Y33462D01*
X416538Y22124D01*
X403205Y13215D01*
X388390Y7078D01*
X372663Y3950D01*
X364645Y3556D01*
X108000Y3556D01*
X108000Y444253D01*
X116317Y435936D01*
X219683Y435936D01*
X222064Y438317D01*
X233938Y450191D01*
X232872Y447617D01*
X232872Y444383D01*
X234109Y441396D01*
X236396Y439109D01*
X239383Y437872D01*
X242617Y437872D01*
X245604Y439109D01*
X290891Y484396D01*
X292128Y487383D01*
X292128Y512920D01*
X296104Y512920D01*
X364104Y580920D01*
X367080Y583896D01*
X367080Y591920D01*
X367491Y592331D01*
X368477Y594712D01*
X368477Y597288D01*
X367491Y599669D01*
X365669Y601491D01*
X363288Y602477D01*
X360712Y602477D01*
X358331Y601491D01*
X356509Y599669D01*
X355523Y597288D01*
X355523Y594712D01*
X356509Y592331D01*
X356920Y591920D01*
X356920Y588104D01*
X291896Y523080D01*
X290415Y523080D01*
X288604Y524891D01*
X285617Y526128D01*
X282383Y526128D01*
X279396Y524891D01*
X277109Y522604D01*
X275872Y519617D01*
X282477Y175288D02*
X282477Y172712D01*
X282477Y175288D02*
X281491Y177669D01*
X279669Y179491D01*
X277288Y180477D01*
X274712Y180477D01*
X272331Y179491D01*
X270509Y177669D01*
X269523Y175288D01*
X269523Y172712D01*
X270509Y170331D01*
X272331Y168509D01*
X274712Y167523D01*
X277288Y167523D01*
X279669Y168509D01*
X281491Y170331D01*
X282477Y172712D01*
X303919Y511991D02*
X301538Y512977D01*
X298962Y512977D01*
X296581Y511991D01*
X294759Y510169D01*
X293773Y507788D01*
X293773Y505212D01*
X294759Y502831D01*
X296581Y501009D01*
X298962Y500023D01*
X301538Y500023D01*
X303919Y501009D01*
X305346Y502436D01*
X378933Y502436D01*
X390064Y513567D01*
X390064Y570317D01*
X403683Y583936D01*
X405904Y583936D01*
X407331Y582509D01*
X409712Y581523D01*
X412288Y581523D01*
X414669Y582509D01*
X416491Y584331D01*
X417477Y586712D01*
X417477Y589288D01*
X416491Y591669D01*
X414669Y593491D01*
X412288Y594477D01*
X409712Y594477D01*
X407331Y593491D01*
X405904Y592064D01*
X400317Y592064D01*
X384317Y576064D01*
X381936Y573683D01*
X381936Y516933D01*
X375567Y510564D01*
X305346Y510564D01*
X303919Y511991D01*
X302288Y498477D02*
X304669Y497491D01*
X302288Y498477D02*
X299712Y498477D01*
X297331Y497491D01*
X295509Y495669D01*
X294523Y493288D01*
X294523Y490712D01*
X295509Y488331D01*
X297331Y486509D01*
X299712Y485523D01*
X302288Y485523D01*
X304669Y486509D01*
X306096Y487936D01*
X394683Y487936D01*
X400758Y494011D01*
X403139Y496392D01*
X403139Y555904D01*
X404566Y557331D01*
X405552Y559712D01*
X405552Y562288D01*
X404566Y564669D01*
X402744Y566491D01*
X400363Y567477D01*
X397787Y567477D01*
X395406Y566491D01*
X393584Y564669D01*
X392598Y562288D01*
X392598Y559712D01*
X393584Y557331D01*
X395011Y555904D01*
X395011Y499758D01*
X391317Y496064D01*
X306096Y496064D01*
X304669Y497491D01*
X410037Y17780D02*
X108000Y17780D01*
X108000Y35560D02*
X429278Y35560D01*
X439496Y53340D02*
X108000Y53340D01*
X108000Y71120D02*
X444813Y71120D01*
X446444Y88900D02*
X108000Y88900D01*
X108000Y106680D02*
X446444Y106680D01*
X446444Y124460D02*
X108000Y124460D01*
X108000Y142240D02*
X446444Y142240D01*
X446444Y160020D02*
X108000Y160020D01*
X108000Y177800D02*
X270640Y177800D01*
X281360Y177800D02*
X446444Y177800D01*
X446444Y195580D02*
X108000Y195580D01*
X108000Y213360D02*
X446444Y213360D01*
X446444Y231140D02*
X108000Y231140D01*
X108000Y248920D02*
X446444Y248920D01*
X446444Y266700D02*
X108000Y266700D01*
X108000Y284480D02*
X446444Y284480D01*
X446444Y302260D02*
X108000Y302260D01*
X108000Y320040D02*
X446444Y320040D01*
X446444Y337820D02*
X108000Y337820D01*
X108000Y355600D02*
X446444Y355600D01*
X446444Y373380D02*
X108000Y373380D01*
X108000Y391160D02*
X446444Y391160D01*
X446444Y408940D02*
X108000Y408940D01*
X108000Y426720D02*
X446444Y426720D01*
X216753Y444500D02*
X119247Y444500D01*
X228247Y444500D02*
X232872Y444500D01*
X250995Y444500D02*
X446444Y444500D01*
X115973Y462280D02*
X115467Y462280D01*
X198027Y462280D02*
X201533Y462280D01*
X213027Y462280D02*
X220533Y462280D01*
X232027Y462280D02*
X234533Y462280D01*
X268775Y462280D02*
X307973Y462280D01*
X388027Y462280D02*
X446444Y462280D01*
X123193Y480060D02*
X121687Y480060D01*
X178707Y480060D02*
X200900Y480060D01*
X209100Y480060D02*
X215900Y480060D01*
X224100Y480060D02*
X238313Y480060D01*
X249807Y480060D02*
X252313Y480060D01*
X286555Y480060D02*
X296900Y480060D01*
X305100Y480060D02*
X394313Y480060D01*
X405807Y480060D02*
X446444Y480060D01*
X117413Y497840D02*
X116907Y497840D01*
X148477Y497840D02*
X156298Y497840D01*
X167702Y497840D02*
X245936Y497840D01*
X254064Y497840D02*
X258836Y497840D01*
X266964Y497840D02*
X275872Y497840D01*
X292128Y497840D02*
X298174Y497840D01*
X303826Y497840D02*
X393093Y497840D01*
X403139Y497840D02*
X412093Y497840D01*
X423587Y497840D02*
X446444Y497840D01*
X258836Y515620D02*
X150439Y515620D01*
X266964Y515620D02*
X275872Y515620D01*
X298804Y515620D02*
X380623Y515620D01*
X390064Y515620D02*
X395011Y515620D01*
X403139Y515620D02*
X425936Y515620D01*
X434064Y515620D02*
X446444Y515620D01*
X117352Y533400D02*
X116347Y533400D01*
X126648Y533400D02*
X126983Y533400D01*
X139017Y533400D02*
X139440Y533400D01*
X148560Y533400D02*
X254440Y533400D01*
X263560Y533400D02*
X302216Y533400D01*
X316584Y533400D02*
X381936Y533400D01*
X390064Y533400D02*
X395011Y533400D01*
X403139Y533400D02*
X425936Y533400D01*
X434064Y533400D02*
X446444Y533400D01*
X117936Y551180D02*
X109064Y551180D01*
X148064Y551180D02*
X251936Y551180D01*
X260064Y551180D02*
X319996Y551180D01*
X334364Y551180D02*
X381936Y551180D01*
X390064Y551180D02*
X395011Y551180D01*
X403139Y551180D02*
X425936Y551180D01*
X434064Y551180D02*
X446444Y551180D01*
X117936Y568960D02*
X109064Y568960D01*
X148064Y568960D02*
X251936Y568960D01*
X260064Y568960D02*
X337776Y568960D01*
X352144Y568960D02*
X381936Y568960D01*
X390064Y568960D02*
X425936Y568960D01*
X434064Y568960D02*
X446444Y568960D01*
X146340Y586740D02*
X143007Y586740D01*
X157660Y586740D02*
X251936Y586740D01*
X260064Y586740D02*
X355556Y586740D01*
X367080Y586740D02*
X394993Y586740D01*
X417477Y586740D02*
X425936Y586740D01*
X434064Y586740D02*
X446444Y586740D01*
X128936Y604520D02*
X128064Y604520D01*
X140227Y604520D02*
X144733Y604520D01*
X156064Y604520D02*
X159602Y604520D01*
X172398Y604520D02*
X203320Y604520D01*
X210680Y604520D02*
X242773Y604520D01*
X254267Y604520D02*
X254773Y604520D01*
X265064Y604520D02*
X266602Y604520D01*
X283267Y604520D02*
X410069Y604520D01*
X421564Y604520D02*
X446444Y604520D01*
X128936Y622300D02*
X128064Y622300D01*
X137064Y622300D02*
X137936Y622300D01*
X146064Y622300D02*
X148140Y622300D01*
X159064Y622300D02*
X159936Y622300D01*
X168064Y622300D02*
X169356Y622300D01*
X190064Y622300D02*
X191392Y622300D01*
X209140Y622300D02*
X214971Y622300D01*
X226466Y622300D02*
X227436Y622300D01*
X250047Y622300D02*
X251553Y622300D01*
X263047Y622300D02*
X263553Y622300D01*
X287135Y622300D02*
X289553Y622300D01*
X301047Y622300D02*
X374299Y622300D01*
X385794Y622300D02*
X446444Y622300D01*
X124460Y435936D02*
X124460Y3556D01*
X124460Y444064D02*
X124460Y444936D01*
X124460Y453287D02*
X124460Y453936D01*
X124460Y477287D02*
X124460Y478793D01*
X124460Y490287D02*
X124460Y490793D01*
X124460Y525287D02*
X124460Y531920D01*
X142240Y435936D02*
X142240Y3556D01*
X142240Y444064D02*
X142240Y444936D01*
X142240Y453064D02*
X142240Y453936D01*
X142240Y470064D02*
X142240Y472848D01*
X142240Y480976D02*
X142240Y483936D01*
X142240Y492064D02*
X142240Y492523D01*
X142240Y523282D02*
X142240Y531718D01*
X142240Y587507D02*
X142240Y591523D01*
X142240Y604477D02*
X142240Y607013D01*
X160020Y435936D02*
X160020Y3556D01*
X160020Y444064D02*
X160020Y444936D01*
X160020Y453064D02*
X160020Y453936D01*
X160020Y470064D02*
X160020Y472848D01*
X160020Y480976D02*
X160020Y483936D01*
X160020Y492064D02*
X160020Y494810D01*
X160020Y510996D02*
X160020Y603512D01*
X177800Y435936D02*
X177800Y3556D01*
X177800Y444064D02*
X177800Y444936D01*
X177800Y453064D02*
X177800Y453936D01*
X177800Y470064D02*
X177800Y472552D01*
X177800Y481272D02*
X177800Y483936D01*
X177800Y492064D02*
X177800Y613149D01*
X195580Y435936D02*
X195580Y3556D01*
X195580Y444064D02*
X195580Y444936D01*
X195580Y453064D02*
X195580Y453936D01*
X195580Y471327D02*
X195580Y482523D01*
X195580Y495477D02*
X195580Y612563D01*
X195580Y625387D02*
X195580Y627833D01*
X213360Y435936D02*
X213360Y3556D01*
X213360Y444064D02*
X213360Y444936D01*
X213360Y455107D02*
X213360Y462613D01*
X213360Y474107D02*
X213360Y608429D01*
X213360Y620689D02*
X213360Y625455D01*
X231140Y447393D02*
X231140Y3556D01*
X231140Y458887D02*
X231140Y461393D01*
X231140Y472887D02*
X231140Y606980D01*
X248920Y442425D02*
X248920Y3556D01*
X248920Y476667D02*
X248920Y479173D01*
X248920Y514077D02*
X248920Y599173D01*
X248920Y619667D02*
X248920Y621173D01*
X266700Y460205D02*
X266700Y3556D01*
X266700Y527460D02*
X266700Y604284D01*
X266700Y607716D02*
X266700Y613953D01*
X266700Y625447D02*
X266700Y625953D01*
X284480Y477985D02*
X284480Y3556D01*
X284480Y526128D02*
X284480Y605733D01*
X284480Y617227D02*
X284480Y619645D01*
X302260Y467993D02*
X302260Y3556D01*
X302260Y481477D02*
X302260Y485523D01*
X302260Y498477D02*
X302260Y500322D01*
X302260Y512678D02*
X302260Y519076D01*
X302260Y533444D02*
X302260Y623513D01*
X320040Y458936D02*
X320040Y3556D01*
X320040Y467064D02*
X320040Y487936D01*
X320040Y496064D02*
X320040Y502436D01*
X320040Y510564D02*
X320040Y536856D01*
X320040Y551224D02*
X320040Y629000D01*
X337820Y458936D02*
X337820Y3556D01*
X337820Y467064D02*
X337820Y487936D01*
X337820Y496064D02*
X337820Y502436D01*
X337820Y510564D02*
X337820Y554636D01*
X337820Y569004D02*
X337820Y629000D01*
X355600Y458936D02*
X355600Y3556D01*
X355600Y467064D02*
X355600Y487936D01*
X355600Y496064D02*
X355600Y502436D01*
X355600Y510564D02*
X355600Y572416D01*
X355600Y586784D02*
X355600Y594526D01*
X355600Y597474D02*
X355600Y629000D01*
X373380Y458936D02*
X373380Y4093D01*
X373380Y467064D02*
X373380Y487936D01*
X373380Y496064D02*
X373380Y502436D01*
X373380Y510564D02*
X373380Y623219D01*
X391160Y465413D02*
X391160Y8226D01*
X391160Y476907D02*
X391160Y487936D01*
X391160Y496064D02*
X391160Y571413D01*
X391160Y582907D02*
X391160Y607936D01*
X391160Y616934D02*
X391160Y623885D01*
X408940Y483193D02*
X408940Y17047D01*
X408940Y494687D02*
X408940Y581843D01*
X408940Y594157D02*
X408940Y605649D01*
X408940Y616064D02*
X408940Y629000D01*
X426720Y500973D02*
X426720Y32306D01*
X426720Y599364D02*
X426720Y629000D01*
X444500Y629000D02*
X444500Y69545D01*
D11*
X135000Y365000D02*
X81000Y365000D01*
D12*
X93000Y311000D03*
X100000Y350000D03*
X130000Y358000D03*
X162000Y350000D03*
X175000Y312000D03*
X162000Y275000D03*
X130000Y271000D03*
X101000Y281000D03*
X201000Y313000D03*
X130000Y254000D03*
X130000Y382000D03*
X184000Y373000D03*
X59000Y389000D03*
X58000Y272000D03*
X217000Y407000D03*
X217000Y356000D03*
X250000Y507600D03*
D10*
X250000Y486000D01*
X213000Y449000D01*
X123000Y449000D01*
D12*
X12000Y725000D03*
D10*
X41000Y531000D02*
X123000Y449000D01*
X41000Y531000D02*
X41000Y559000D01*
X12000Y588000D01*
D13*
X12000Y725000D01*
D12*
X301000Y492000D03*
D10*
X393000Y492000D01*
X399075Y498075D01*
X399075Y561000D01*
D12*
X399075Y561000D03*
X220000Y475000D03*
D10*
X203000Y458000D01*
X126000Y458000D01*
X49000Y535000D01*
D13*
X23000Y590000D02*
X23000Y721000D01*
X34000Y732000D01*
X34000Y747000D01*
D12*
X34000Y747000D03*
D10*
X49000Y564000D02*
X49000Y535000D01*
X49000Y564000D02*
X23000Y590000D01*
D12*
X371000Y646000D03*
D10*
X370623Y645623D01*
X370623Y631724D01*
X408336Y612000D02*
X430000Y590336D01*
X390347Y612000D02*
X370623Y631724D01*
X390347Y612000D02*
X408336Y612000D01*
D12*
X301000Y475000D03*
D10*
X313000Y463000D02*
X383000Y463000D01*
X313000Y463000D02*
X301000Y475000D01*
X383000Y463000D02*
X430000Y510000D01*
X430000Y590336D01*
D12*
X262900Y522100D03*
D10*
X262900Y484900D01*
X218000Y440000D01*
X118000Y440000D01*
X33000Y525000D01*
X33000Y555000D01*
D12*
X12000Y572000D03*
D10*
X16000Y572000D02*
X33000Y555000D01*
X16000Y572000D02*
X12000Y572000D01*
D12*
X411000Y588000D03*
X300250Y506500D03*
D10*
X377250Y506500D01*
X402000Y588000D02*
X411000Y588000D01*
X402000Y588000D02*
X386000Y572000D01*
X386000Y515250D01*
X377250Y506500D01*
D12*
X144000Y517000D03*
D10*
X142000Y519000D01*
X125000Y519000D01*
X105000Y587000D02*
X89000Y603000D01*
X89000Y650000D01*
X139000Y700000D01*
X139000Y710000D01*
D12*
X139000Y710000D03*
D10*
X105000Y539000D02*
X125000Y519000D01*
X105000Y539000D02*
X105000Y587000D01*
D12*
X162000Y501000D03*
D10*
X160068Y506932D02*
X131068Y506932D01*
X93000Y545000D01*
X93000Y587000D02*
X76000Y604000D01*
X76000Y652000D01*
D12*
X123000Y699000D03*
D10*
X162000Y505000D02*
X162000Y501000D01*
X162000Y505000D02*
X160068Y506932D01*
X93000Y545000D02*
X93000Y587000D01*
X76000Y652000D02*
X123000Y699000D01*
D12*
X142000Y499000D03*
D10*
X133000Y499000D02*
X82000Y550000D01*
X82000Y584000D01*
X133000Y499000D02*
X142000Y499000D01*
X82000Y584000D02*
X66000Y600000D01*
D12*
X72000Y704000D03*
D10*
X66000Y698000D01*
X66000Y600000D01*
D12*
X196000Y489000D03*
D10*
X195000Y488000D01*
X133000Y488000D01*
X73000Y581000D02*
X55000Y599000D01*
X55000Y688000D01*
D12*
X55000Y688000D03*
D10*
X73000Y548000D02*
X133000Y488000D01*
X73000Y548000D02*
X73000Y581000D01*
D12*
X173000Y476912D03*
D10*
X132088Y476912D01*
X65000Y544000D01*
X65000Y577000D01*
X44000Y598000D01*
X44000Y703000D01*
D13*
X85000Y744000D02*
X85000Y801000D01*
X85000Y744000D02*
X44000Y703000D01*
D12*
X85000Y801000D03*
X205000Y475000D03*
D10*
X196000Y466000D01*
X57000Y539000D02*
X57000Y570000D01*
D12*
X60000Y765000D03*
D10*
X33952Y593048D02*
X57000Y570000D01*
D13*
X33952Y593048D02*
X33952Y714952D01*
X60000Y741000D01*
X60000Y765000D01*
D10*
X130000Y466000D02*
X196000Y466000D01*
X130000Y466000D02*
X57000Y539000D01*
D12*
X144000Y538000D03*
D10*
X144000Y580000D02*
X124000Y600000D01*
X124000Y649000D01*
X147000Y672000D02*
X243000Y672000D01*
X326000Y755000D02*
X326000Y785000D01*
X326000Y755000D02*
X243000Y672000D01*
D12*
X326000Y785000D03*
D10*
X144000Y580000D02*
X144000Y538000D01*
X124000Y649000D02*
X147000Y672000D01*
D12*
X259000Y538000D03*
D10*
X320000Y670000D02*
X333000Y683000D01*
X320000Y670000D02*
X317000Y670000D01*
X261000Y614000D01*
X261000Y605000D01*
X256000Y600000D01*
X256000Y541000D01*
X259000Y538000D01*
D12*
X333000Y683000D03*
X421000Y731000D03*
D10*
X326000Y636000D01*
X309000Y636000D01*
X280000Y607000D01*
X275000Y607000D01*
X274000Y606000D01*
X273000Y606000D01*
D12*
X273000Y606000D03*
X332088Y659000D03*
D10*
X318088Y659000D01*
X278088Y619000D01*
X277000Y619000D01*
D12*
X277000Y619000D03*
X355000Y699000D03*
X242000Y598000D03*
D10*
X252000Y617000D02*
X334000Y699000D01*
X252000Y608000D02*
X242000Y598000D01*
X252000Y608000D02*
X252000Y617000D01*
X334000Y699000D02*
X355000Y699000D01*
D12*
X355000Y716000D03*
D10*
X338000Y716000D01*
X243000Y621000D01*
X243000Y616000D01*
X241000Y614000D01*
D12*
X241000Y614000D03*
X352000Y735000D03*
X226000Y611000D03*
D10*
X344000Y735000D02*
X352000Y735000D01*
X344000Y735000D02*
X231500Y622500D01*
X231500Y618500D01*
X226000Y613000D01*
X226000Y611000D01*
D12*
X352000Y755000D03*
D10*
X350419Y755000D01*
D12*
X207000Y610000D03*
D10*
X208419Y610000D01*
X224241Y628822D02*
X350419Y755000D01*
X224241Y628822D02*
X224241Y625822D01*
X208419Y610000D01*
D12*
X141000Y598000D03*
D10*
X133000Y606000D01*
X133000Y647000D01*
X150000Y664000D01*
X247000Y664000D02*
X340000Y757000D01*
X340000Y769000D01*
D12*
X340000Y769000D03*
D10*
X247000Y664000D02*
X150000Y664000D01*
D12*
X201000Y639000D03*
D10*
X186000Y624000D01*
X186000Y612000D01*
X185000Y611000D01*
D12*
X185000Y611000D03*
X184000Y640000D03*
X175000Y619000D03*
D10*
X175000Y631000D01*
X184000Y640000D01*
D12*
X169000Y642068D03*
D10*
X169000Y642000D01*
X164000Y637000D01*
X164000Y608000D01*
X166000Y606000D01*
D12*
X166000Y606000D03*
X158000Y649000D03*
D10*
X155000Y646000D01*
X155000Y620000D01*
X153000Y618000D01*
D12*
X153000Y618000D03*
X144000Y643000D03*
D10*
X144000Y639000D01*
X142000Y637000D01*
X142000Y613000D01*
X152000Y603000D01*
X152000Y590000D01*
D12*
X152000Y590000D03*
X133000Y531000D03*
D10*
X133000Y580000D02*
X116000Y597000D01*
X116000Y653000D01*
X144000Y681000D02*
X241000Y681000D01*
X263000Y703000D01*
D12*
X263000Y773000D03*
D10*
X133000Y580000D02*
X133000Y531000D01*
X116000Y653000D02*
X144000Y681000D01*
X263000Y703000D02*
X263000Y773000D01*
D12*
X122000Y537912D03*
D10*
X122000Y578000D02*
X107000Y593000D01*
X107000Y657000D01*
X140000Y690000D02*
X238000Y690000D01*
X249000Y701000D01*
X122000Y578000D02*
X122000Y537912D01*
X107000Y657000D02*
X140000Y690000D01*
D12*
X261000Y795000D03*
D13*
X249000Y783000D01*
D10*
X249000Y701000D01*
D12*
X197025Y618975D03*
D10*
X200068Y618975D01*
X213025Y631932D01*
D12*
X213025Y631932D03*
X343000Y639000D03*
D10*
X368775Y664775D01*
X422225Y664775D01*
D12*
X422225Y664775D03*
X276000Y174000D03*
X11000Y558000D03*
D10*
X18500Y550500D01*
X18500Y421000D01*
X18375Y420875D01*
D12*
X18375Y420875D03*
X81000Y679000D03*
X200000Y750000D03*
D11*
X152000Y750000D01*
X81000Y679000D01*
D12*
X284000Y518000D03*
X241000Y446000D03*
D11*
X284000Y489000D02*
X284000Y518000D01*
X284000Y489000D02*
X241000Y446000D01*
D12*
X31000Y438000D03*
D11*
X70000Y438000D02*
X78000Y446000D01*
X70000Y438000D02*
X31000Y438000D01*
D12*
X78000Y446000D03*
D13*
X284000Y518000D02*
X294000Y518000D01*
X362000Y586000D01*
X362000Y596000D01*
D12*
X362000Y596000D03*
M02*
