M48
;GenerationSoftware,Autodesk,EAGLE,9.6.2*%
;CreationDate,2020-11-11T23:07:34Z*%
FMAT,2
ICI,OFF
METRIC,TZ,000.000
T3C0.381
T2C0.750
T1C0.991
%
G90
M71
T1
X39550Y63130
X38534Y68210
X40566Y68210
T2
X3700Y47620
X3700Y50670
T3
X16200Y27500
X13000Y27100
X10100Y28100
X20100Y31300
X13000Y25400
X13000Y38200
X18400Y37300
X5900Y38900
X5800Y27200
X21700Y40700
X21700Y35600
X25000Y50760
X1200Y72500
X30100Y49200
X39908Y56100
X22000Y47500
X3400Y74700
X37100Y64600
X30100Y47500
X26290Y52210
X1200Y57200
X41100Y58800
X30025Y50650
X14400Y51700
X13900Y71000
X16200Y50100
X12300Y69900
X14200Y49900
X7200Y70400
X19600Y48900
X5500Y68800
X17300Y47691
X8500Y80100
X20500Y47500
X6000Y76500
X14400Y53800
X32600Y78500
X25900Y53800
X33300Y68300
X42100Y73100
X27300Y60600
X33209Y65900
X27700Y61900
X35500Y69900
X24200Y59800
X35500Y71600
X24100Y61400
X35200Y73500
X22600Y61100
X35200Y75500
X20700Y61000
X14100Y59800
X34000Y76900
X20100Y63900
X18500Y61100
X18400Y64000
X17500Y61900
X16900Y64207
X16600Y60600
X15800Y64900
X15300Y61800
X14400Y64300
X15200Y59000
X9300Y31100
X26300Y77300
X12200Y53791
X26100Y79500
X19703Y61897
X21303Y63193
X34300Y63900
X42223Y66478
X27600Y17400
X1100Y55800
X1837Y42088
X13300Y53100
X20000Y75000
X28400Y51800
X24100Y44600
X3100Y43800
X7800Y44600
X36200Y59600
X10000Y35000
X13000Y35800
X16200Y35000
X17500Y31200
X8100Y67900
M30