G04 EAGLE Gerber RS-274X export*
G75*
%MOMM*%
%FSLAX34Y34*%
%LPD*%
%INSilkscreen Top*%
%IPPOS*%
%AMOC8*
5,1,8,0,0,1.08239X$1,22.5*%
G01*
%ADD10C,0.203200*%
%ADD11C,0.076200*%
%ADD12C,0.101600*%
%ADD13C,0.050800*%
%ADD14C,0.127000*%
%ADD15C,0.300000*%
%ADD16R,0.150000X0.300000*%
%ADD17R,0.300000X0.300000*%
%ADD18R,0.300000X0.150000*%
%ADD19R,0.200000X0.200000*%
%ADD20C,0.152400*%

G36*
X189932Y602321D02*
X189932Y602321D01*
X189934Y602320D01*
X189977Y602340D01*
X190021Y602358D01*
X190021Y602360D01*
X190023Y602361D01*
X190056Y602446D01*
X190056Y604986D01*
X190055Y604988D01*
X190056Y604990D01*
X190036Y605033D01*
X190018Y605077D01*
X190016Y605077D01*
X190015Y605079D01*
X189930Y605112D01*
X186120Y605112D01*
X186118Y605111D01*
X186116Y605112D01*
X186073Y605092D01*
X186029Y605074D01*
X186029Y605072D01*
X186027Y605071D01*
X185994Y604986D01*
X185994Y602446D01*
X185995Y602444D01*
X185994Y602442D01*
X186014Y602399D01*
X186032Y602355D01*
X186034Y602355D01*
X186035Y602353D01*
X186120Y602320D01*
X189930Y602320D01*
X189932Y602321D01*
G37*
G36*
X254913Y544070D02*
X254913Y544070D01*
X254915Y544069D01*
X254958Y544089D01*
X255002Y544107D01*
X255002Y544109D01*
X255004Y544110D01*
X255037Y544195D01*
X255037Y548005D01*
X255036Y548007D01*
X255037Y548009D01*
X255017Y548052D01*
X254999Y548096D01*
X254997Y548096D01*
X254996Y548098D01*
X254911Y548131D01*
X252371Y548131D01*
X252369Y548130D01*
X252367Y548131D01*
X252324Y548111D01*
X252280Y548093D01*
X252280Y548091D01*
X252278Y548090D01*
X252245Y548005D01*
X252245Y544195D01*
X252246Y544193D01*
X252245Y544191D01*
X252265Y544148D01*
X252283Y544104D01*
X252285Y544104D01*
X252286Y544102D01*
X252371Y544069D01*
X254911Y544069D01*
X254913Y544070D01*
G37*
G36*
X181932Y495089D02*
X181932Y495089D01*
X181934Y495088D01*
X181977Y495108D01*
X182021Y495126D01*
X182021Y495128D01*
X182023Y495129D01*
X182056Y495214D01*
X182056Y497754D01*
X182055Y497756D01*
X182056Y497758D01*
X182036Y497801D01*
X182018Y497845D01*
X182016Y497845D01*
X182015Y497847D01*
X181930Y497880D01*
X178120Y497880D01*
X178118Y497879D01*
X178116Y497880D01*
X178073Y497860D01*
X178029Y497842D01*
X178029Y497840D01*
X178027Y497839D01*
X177994Y497754D01*
X177994Y495214D01*
X177995Y495212D01*
X177994Y495210D01*
X178014Y495167D01*
X178032Y495123D01*
X178034Y495123D01*
X178035Y495121D01*
X178120Y495088D01*
X181930Y495088D01*
X181932Y495089D01*
G37*
D10*
X215362Y126000D02*
X215380Y127488D01*
X215435Y128975D01*
X215526Y130461D01*
X215654Y131944D01*
X215818Y133423D01*
X216018Y134897D01*
X216255Y136367D01*
X216527Y137830D01*
X216835Y139286D01*
X217179Y140734D01*
X217559Y142173D01*
X217973Y143602D01*
X218423Y145021D01*
X218907Y146428D01*
X219425Y147823D01*
X219978Y149205D01*
X220564Y150573D01*
X221184Y151926D01*
X221837Y153264D01*
X222522Y154585D01*
X223240Y155888D01*
X223989Y157174D01*
X224770Y158441D01*
X225581Y159689D01*
X226423Y160916D01*
X227295Y162122D01*
X228196Y163306D01*
X229126Y164468D01*
X230084Y165607D01*
X231070Y166722D01*
X232083Y167812D01*
X233122Y168878D01*
X234188Y169917D01*
X235278Y170930D01*
X236393Y171916D01*
X237532Y172874D01*
X238694Y173804D01*
X239878Y174705D01*
X241084Y175577D01*
X242311Y176419D01*
X243559Y177230D01*
X244826Y178011D01*
X246112Y178760D01*
X247415Y179478D01*
X248736Y180163D01*
X250074Y180816D01*
X251427Y181436D01*
X252795Y182022D01*
X254177Y182575D01*
X255572Y183093D01*
X256979Y183577D01*
X258398Y184027D01*
X259827Y184441D01*
X261266Y184821D01*
X262714Y185165D01*
X264170Y185473D01*
X265633Y185745D01*
X267103Y185982D01*
X268577Y186182D01*
X270056Y186346D01*
X271539Y186474D01*
X273025Y186565D01*
X274512Y186620D01*
X276000Y186638D01*
X277488Y186620D01*
X278975Y186565D01*
X280461Y186474D01*
X281944Y186346D01*
X283423Y186182D01*
X284897Y185982D01*
X286367Y185745D01*
X287830Y185473D01*
X289286Y185165D01*
X290734Y184821D01*
X292173Y184441D01*
X293602Y184027D01*
X295021Y183577D01*
X296428Y183093D01*
X297823Y182575D01*
X299205Y182022D01*
X300573Y181436D01*
X301926Y180816D01*
X303264Y180163D01*
X304585Y179478D01*
X305888Y178760D01*
X307174Y178011D01*
X308441Y177230D01*
X309689Y176419D01*
X310916Y175577D01*
X312122Y174705D01*
X313306Y173804D01*
X314468Y172874D01*
X315607Y171916D01*
X316722Y170930D01*
X317812Y169917D01*
X318878Y168878D01*
X319917Y167812D01*
X320930Y166722D01*
X321916Y165607D01*
X322874Y164468D01*
X323804Y163306D01*
X324705Y162122D01*
X325577Y160916D01*
X326419Y159689D01*
X327230Y158441D01*
X328011Y157174D01*
X328760Y155888D01*
X329478Y154585D01*
X330163Y153264D01*
X330816Y151926D01*
X331436Y150573D01*
X332022Y149205D01*
X332575Y147823D01*
X333093Y146428D01*
X333577Y145021D01*
X334027Y143602D01*
X334441Y142173D01*
X334821Y140734D01*
X335165Y139286D01*
X335473Y137830D01*
X335745Y136367D01*
X335982Y134897D01*
X336182Y133423D01*
X336346Y131944D01*
X336474Y130461D01*
X336565Y128975D01*
X336620Y127488D01*
X336638Y126000D01*
X336620Y124512D01*
X336565Y123025D01*
X336474Y121539D01*
X336346Y120056D01*
X336182Y118577D01*
X335982Y117103D01*
X335745Y115633D01*
X335473Y114170D01*
X335165Y112714D01*
X334821Y111266D01*
X334441Y109827D01*
X334027Y108398D01*
X333577Y106979D01*
X333093Y105572D01*
X332575Y104177D01*
X332022Y102795D01*
X331436Y101427D01*
X330816Y100074D01*
X330163Y98736D01*
X329478Y97415D01*
X328760Y96112D01*
X328011Y94826D01*
X327230Y93559D01*
X326419Y92311D01*
X325577Y91084D01*
X324705Y89878D01*
X323804Y88694D01*
X322874Y87532D01*
X321916Y86393D01*
X320930Y85278D01*
X319917Y84188D01*
X318878Y83122D01*
X317812Y82083D01*
X316722Y81070D01*
X315607Y80084D01*
X314468Y79126D01*
X313306Y78196D01*
X312122Y77295D01*
X310916Y76423D01*
X309689Y75581D01*
X308441Y74770D01*
X307174Y73989D01*
X305888Y73240D01*
X304585Y72522D01*
X303264Y71837D01*
X301926Y71184D01*
X300573Y70564D01*
X299205Y69978D01*
X297823Y69425D01*
X296428Y68907D01*
X295021Y68423D01*
X293602Y67973D01*
X292173Y67559D01*
X290734Y67179D01*
X289286Y66835D01*
X287830Y66527D01*
X286367Y66255D01*
X284897Y66018D01*
X283423Y65818D01*
X281944Y65654D01*
X280461Y65526D01*
X278975Y65435D01*
X277488Y65380D01*
X276000Y65362D01*
X274512Y65380D01*
X273025Y65435D01*
X271539Y65526D01*
X270056Y65654D01*
X268577Y65818D01*
X267103Y66018D01*
X265633Y66255D01*
X264170Y66527D01*
X262714Y66835D01*
X261266Y67179D01*
X259827Y67559D01*
X258398Y67973D01*
X256979Y68423D01*
X255572Y68907D01*
X254177Y69425D01*
X252795Y69978D01*
X251427Y70564D01*
X250074Y71184D01*
X248736Y71837D01*
X247415Y72522D01*
X246112Y73240D01*
X244826Y73989D01*
X243559Y74770D01*
X242311Y75581D01*
X241084Y76423D01*
X239878Y77295D01*
X238694Y78196D01*
X237532Y79126D01*
X236393Y80084D01*
X235278Y81070D01*
X234188Y82083D01*
X233122Y83122D01*
X232083Y84188D01*
X231070Y85278D01*
X230084Y86393D01*
X229126Y87532D01*
X228196Y88694D01*
X227295Y89878D01*
X226423Y91084D01*
X225581Y92311D01*
X224770Y93559D01*
X223989Y94826D01*
X223240Y96112D01*
X222522Y97415D01*
X221837Y98736D01*
X221184Y100074D01*
X220564Y101427D01*
X219978Y102795D01*
X219425Y104177D01*
X218907Y105572D01*
X218423Y106979D01*
X217973Y108398D01*
X217559Y109827D01*
X217179Y111266D01*
X216835Y112714D01*
X216527Y114170D01*
X216255Y115633D01*
X216018Y117103D01*
X215818Y118577D01*
X215654Y120056D01*
X215526Y121539D01*
X215435Y123025D01*
X215380Y124512D01*
X215362Y126000D01*
X175000Y126000D02*
X175030Y128454D01*
X175120Y130907D01*
X175271Y133356D01*
X175482Y135802D01*
X175752Y138241D01*
X176082Y140673D01*
X176472Y143096D01*
X176921Y145509D01*
X177430Y147910D01*
X177997Y150298D01*
X178622Y152671D01*
X179306Y155028D01*
X180047Y157368D01*
X180846Y159689D01*
X181701Y161990D01*
X182612Y164268D01*
X183579Y166524D01*
X184601Y168756D01*
X185678Y170961D01*
X186808Y173140D01*
X187991Y175290D01*
X189227Y177410D01*
X190515Y179500D01*
X191853Y181557D01*
X193242Y183581D01*
X194679Y185570D01*
X196165Y187523D01*
X197699Y189439D01*
X199279Y191317D01*
X200905Y193156D01*
X202575Y194954D01*
X204289Y196711D01*
X206046Y198425D01*
X207844Y200095D01*
X209683Y201721D01*
X211561Y203301D01*
X213477Y204835D01*
X215430Y206321D01*
X217419Y207758D01*
X219443Y209147D01*
X221500Y210485D01*
X223590Y211773D01*
X225710Y213009D01*
X227860Y214192D01*
X230039Y215322D01*
X232244Y216399D01*
X234476Y217421D01*
X236732Y218388D01*
X239010Y219299D01*
X241311Y220154D01*
X243632Y220953D01*
X245972Y221694D01*
X248329Y222378D01*
X250702Y223003D01*
X253090Y223570D01*
X255491Y224079D01*
X257904Y224528D01*
X260327Y224918D01*
X262759Y225248D01*
X265198Y225518D01*
X267644Y225729D01*
X270093Y225880D01*
X272546Y225970D01*
X275000Y226000D01*
X277454Y225970D01*
X279907Y225880D01*
X282356Y225729D01*
X284802Y225518D01*
X287241Y225248D01*
X289673Y224918D01*
X292096Y224528D01*
X294509Y224079D01*
X296910Y223570D01*
X299298Y223003D01*
X301671Y222378D01*
X304028Y221694D01*
X306368Y220953D01*
X308689Y220154D01*
X310990Y219299D01*
X313268Y218388D01*
X315524Y217421D01*
X317756Y216399D01*
X319961Y215322D01*
X322140Y214192D01*
X324290Y213009D01*
X326410Y211773D01*
X328500Y210485D01*
X330557Y209147D01*
X332581Y207758D01*
X334570Y206321D01*
X336523Y204835D01*
X338439Y203301D01*
X340317Y201721D01*
X342156Y200095D01*
X343954Y198425D01*
X345711Y196711D01*
X347425Y194954D01*
X349095Y193156D01*
X350721Y191317D01*
X352301Y189439D01*
X353835Y187523D01*
X355321Y185570D01*
X356758Y183581D01*
X358147Y181557D01*
X359485Y179500D01*
X360773Y177410D01*
X362009Y175290D01*
X363192Y173140D01*
X364322Y170961D01*
X365399Y168756D01*
X366421Y166524D01*
X367388Y164268D01*
X368299Y161990D01*
X369154Y159689D01*
X369953Y157368D01*
X370694Y155028D01*
X371378Y152671D01*
X372003Y150298D01*
X372570Y147910D01*
X373079Y145509D01*
X373528Y143096D01*
X373918Y140673D01*
X374248Y138241D01*
X374518Y135802D01*
X374729Y133356D01*
X374880Y130907D01*
X374970Y128454D01*
X375000Y126000D01*
X374970Y123546D01*
X374880Y121093D01*
X374729Y118644D01*
X374518Y116198D01*
X374248Y113759D01*
X373918Y111327D01*
X373528Y108904D01*
X373079Y106491D01*
X372570Y104090D01*
X372003Y101702D01*
X371378Y99329D01*
X370694Y96972D01*
X369953Y94632D01*
X369154Y92311D01*
X368299Y90010D01*
X367388Y87732D01*
X366421Y85476D01*
X365399Y83244D01*
X364322Y81039D01*
X363192Y78860D01*
X362009Y76710D01*
X360773Y74590D01*
X359485Y72500D01*
X358147Y70443D01*
X356758Y68419D01*
X355321Y66430D01*
X353835Y64477D01*
X352301Y62561D01*
X350721Y60683D01*
X349095Y58844D01*
X347425Y57046D01*
X345711Y55289D01*
X343954Y53575D01*
X342156Y51905D01*
X340317Y50279D01*
X338439Y48699D01*
X336523Y47165D01*
X334570Y45679D01*
X332581Y44242D01*
X330557Y42853D01*
X328500Y41515D01*
X326410Y40227D01*
X324290Y38991D01*
X322140Y37808D01*
X319961Y36678D01*
X317756Y35601D01*
X315524Y34579D01*
X313268Y33612D01*
X310990Y32701D01*
X308689Y31846D01*
X306368Y31047D01*
X304028Y30306D01*
X301671Y29622D01*
X299298Y28997D01*
X296910Y28430D01*
X294509Y27921D01*
X292096Y27472D01*
X289673Y27082D01*
X287241Y26752D01*
X284802Y26482D01*
X282356Y26271D01*
X279907Y26120D01*
X277454Y26030D01*
X275000Y26000D01*
X272546Y26030D01*
X270093Y26120D01*
X267644Y26271D01*
X265198Y26482D01*
X262759Y26752D01*
X260327Y27082D01*
X257904Y27472D01*
X255491Y27921D01*
X253090Y28430D01*
X250702Y28997D01*
X248329Y29622D01*
X245972Y30306D01*
X243632Y31047D01*
X241311Y31846D01*
X239010Y32701D01*
X236732Y33612D01*
X234476Y34579D01*
X232244Y35601D01*
X230039Y36678D01*
X227860Y37808D01*
X225710Y38991D01*
X223590Y40227D01*
X221500Y41515D01*
X219443Y42853D01*
X217419Y44242D01*
X215430Y45679D01*
X213477Y47165D01*
X211561Y48699D01*
X209683Y50279D01*
X207844Y51905D01*
X206046Y53575D01*
X204289Y55289D01*
X202575Y57046D01*
X200905Y58844D01*
X199279Y60683D01*
X197699Y62561D01*
X196165Y64477D01*
X194679Y66430D01*
X193242Y68419D01*
X191853Y70443D01*
X190515Y72500D01*
X189227Y74590D01*
X187991Y76710D01*
X186808Y78860D01*
X185678Y81039D01*
X184601Y83244D01*
X183579Y85476D01*
X182612Y87732D01*
X181701Y90010D01*
X180846Y92311D01*
X180047Y94632D01*
X179306Y96972D01*
X178622Y99329D01*
X177997Y101702D01*
X177430Y104090D01*
X176921Y106491D01*
X176472Y108904D01*
X176082Y111327D01*
X175752Y113759D01*
X175482Y116198D01*
X175271Y118644D01*
X175120Y121093D01*
X175030Y123546D01*
X175000Y126000D01*
X162000Y418000D02*
X162000Y435000D01*
X162000Y418000D02*
X179000Y418000D01*
X179000Y435000D01*
X162000Y435000D01*
X170000Y432000D02*
X170000Y422000D01*
X175000Y427000D02*
X165000Y427000D01*
X162000Y198000D02*
X162000Y182000D01*
X178000Y182000D01*
X178000Y198000D01*
X162000Y198000D01*
X170000Y195000D02*
X170000Y185000D01*
X165000Y190000D02*
X175000Y190000D01*
X160000Y297000D02*
X160000Y325000D01*
X160000Y297000D02*
X189000Y297000D01*
X189000Y325000D01*
X160000Y325000D01*
X165000Y311000D02*
X184000Y311000D01*
D11*
X9381Y537381D02*
X9381Y546779D01*
X11992Y546779D01*
X12093Y546777D01*
X12194Y546771D01*
X12295Y546761D01*
X12395Y546748D01*
X12495Y546730D01*
X12594Y546709D01*
X12692Y546683D01*
X12789Y546654D01*
X12885Y546622D01*
X12979Y546585D01*
X13072Y546545D01*
X13164Y546501D01*
X13253Y546454D01*
X13341Y546403D01*
X13427Y546349D01*
X13510Y546292D01*
X13592Y546232D01*
X13670Y546168D01*
X13747Y546102D01*
X13820Y546032D01*
X13891Y545960D01*
X13959Y545885D01*
X14024Y545807D01*
X14086Y545727D01*
X14145Y545645D01*
X14201Y545560D01*
X14253Y545474D01*
X14302Y545385D01*
X14348Y545294D01*
X14389Y545202D01*
X14428Y545108D01*
X14462Y545013D01*
X14493Y544917D01*
X14520Y544819D01*
X14544Y544721D01*
X14563Y544621D01*
X14579Y544521D01*
X14591Y544421D01*
X14599Y544320D01*
X14603Y544219D01*
X14603Y544117D01*
X14599Y544016D01*
X14591Y543915D01*
X14579Y543815D01*
X14563Y543715D01*
X14544Y543615D01*
X14520Y543517D01*
X14493Y543419D01*
X14462Y543323D01*
X14428Y543228D01*
X14389Y543134D01*
X14348Y543042D01*
X14302Y542951D01*
X14253Y542863D01*
X14201Y542776D01*
X14145Y542691D01*
X14086Y542609D01*
X14024Y542529D01*
X13959Y542451D01*
X13891Y542376D01*
X13820Y542304D01*
X13747Y542234D01*
X13670Y542168D01*
X13592Y542104D01*
X13510Y542044D01*
X13427Y541987D01*
X13341Y541933D01*
X13253Y541882D01*
X13164Y541835D01*
X13072Y541791D01*
X12979Y541751D01*
X12885Y541714D01*
X12789Y541682D01*
X12692Y541653D01*
X12594Y541627D01*
X12495Y541606D01*
X12395Y541588D01*
X12295Y541575D01*
X12194Y541565D01*
X12093Y541559D01*
X11992Y541557D01*
X11992Y541558D02*
X9381Y541558D01*
X17742Y546779D02*
X19830Y537381D01*
X21919Y543646D01*
X24007Y537381D01*
X26096Y546779D01*
X30033Y546779D02*
X30033Y537381D01*
X30033Y546779D02*
X32644Y546779D01*
X32745Y546777D01*
X32846Y546771D01*
X32947Y546761D01*
X33047Y546748D01*
X33147Y546730D01*
X33246Y546709D01*
X33344Y546683D01*
X33441Y546654D01*
X33537Y546622D01*
X33631Y546585D01*
X33724Y546545D01*
X33816Y546501D01*
X33905Y546454D01*
X33993Y546403D01*
X34079Y546349D01*
X34162Y546292D01*
X34244Y546232D01*
X34322Y546168D01*
X34399Y546102D01*
X34472Y546032D01*
X34543Y545960D01*
X34611Y545885D01*
X34676Y545807D01*
X34738Y545727D01*
X34797Y545645D01*
X34853Y545560D01*
X34905Y545474D01*
X34954Y545385D01*
X35000Y545294D01*
X35041Y545202D01*
X35080Y545108D01*
X35114Y545013D01*
X35145Y544917D01*
X35172Y544819D01*
X35196Y544721D01*
X35215Y544621D01*
X35231Y544521D01*
X35243Y544421D01*
X35251Y544320D01*
X35255Y544219D01*
X35255Y544117D01*
X35251Y544016D01*
X35243Y543915D01*
X35231Y543815D01*
X35215Y543715D01*
X35196Y543615D01*
X35172Y543517D01*
X35145Y543419D01*
X35114Y543323D01*
X35080Y543228D01*
X35041Y543134D01*
X35000Y543042D01*
X34954Y542951D01*
X34905Y542863D01*
X34853Y542776D01*
X34797Y542691D01*
X34738Y542609D01*
X34676Y542529D01*
X34611Y542451D01*
X34543Y542376D01*
X34472Y542304D01*
X34399Y542234D01*
X34322Y542168D01*
X34244Y542104D01*
X34162Y542044D01*
X34079Y541987D01*
X33993Y541933D01*
X33905Y541882D01*
X33816Y541835D01*
X33724Y541791D01*
X33631Y541751D01*
X33537Y541714D01*
X33441Y541682D01*
X33344Y541653D01*
X33246Y541627D01*
X33147Y541606D01*
X33047Y541588D01*
X32947Y541575D01*
X32846Y541565D01*
X32745Y541559D01*
X32644Y541557D01*
X32644Y541558D02*
X30033Y541558D01*
X33166Y541558D02*
X35254Y537381D01*
D10*
X211000Y911000D02*
X225000Y925000D01*
X211000Y911000D02*
X239000Y911000D01*
X225000Y925000D01*
X225000Y885000D01*
D11*
X91779Y290048D02*
X91779Y287960D01*
X91777Y287871D01*
X91771Y287783D01*
X91762Y287695D01*
X91749Y287607D01*
X91732Y287520D01*
X91712Y287434D01*
X91687Y287349D01*
X91660Y287264D01*
X91628Y287181D01*
X91594Y287100D01*
X91555Y287020D01*
X91514Y286942D01*
X91469Y286865D01*
X91421Y286791D01*
X91370Y286718D01*
X91316Y286648D01*
X91258Y286581D01*
X91198Y286515D01*
X91136Y286453D01*
X91070Y286393D01*
X91003Y286335D01*
X90933Y286281D01*
X90860Y286230D01*
X90786Y286182D01*
X90709Y286137D01*
X90631Y286096D01*
X90551Y286057D01*
X90470Y286023D01*
X90387Y285991D01*
X90302Y285964D01*
X90217Y285939D01*
X90131Y285919D01*
X90044Y285902D01*
X89956Y285889D01*
X89868Y285880D01*
X89780Y285874D01*
X89691Y285872D01*
X84469Y285872D01*
X84469Y285871D02*
X84378Y285873D01*
X84287Y285879D01*
X84196Y285889D01*
X84106Y285903D01*
X84017Y285921D01*
X83928Y285942D01*
X83841Y285968D01*
X83755Y285997D01*
X83670Y286030D01*
X83586Y286067D01*
X83504Y286107D01*
X83425Y286151D01*
X83347Y286198D01*
X83271Y286249D01*
X83197Y286303D01*
X83126Y286360D01*
X83058Y286420D01*
X82992Y286483D01*
X82929Y286549D01*
X82869Y286617D01*
X82812Y286688D01*
X82758Y286762D01*
X82707Y286838D01*
X82660Y286915D01*
X82616Y286995D01*
X82576Y287077D01*
X82539Y287161D01*
X82506Y287245D01*
X82477Y287332D01*
X82451Y287419D01*
X82430Y287508D01*
X82412Y287597D01*
X82398Y287687D01*
X82388Y287778D01*
X82382Y287869D01*
X82380Y287960D01*
X82381Y287960D02*
X82381Y290048D01*
X82381Y293879D02*
X91779Y293879D01*
X82381Y293879D02*
X82381Y296490D01*
X82383Y296591D01*
X82389Y296692D01*
X82399Y296793D01*
X82412Y296893D01*
X82430Y296993D01*
X82451Y297092D01*
X82477Y297190D01*
X82506Y297287D01*
X82538Y297383D01*
X82575Y297477D01*
X82615Y297570D01*
X82659Y297662D01*
X82706Y297751D01*
X82757Y297839D01*
X82811Y297925D01*
X82868Y298008D01*
X82928Y298090D01*
X82992Y298168D01*
X83058Y298245D01*
X83128Y298318D01*
X83200Y298389D01*
X83275Y298457D01*
X83353Y298522D01*
X83433Y298584D01*
X83515Y298643D01*
X83600Y298699D01*
X83687Y298751D01*
X83775Y298800D01*
X83866Y298846D01*
X83958Y298887D01*
X84052Y298926D01*
X84147Y298960D01*
X84243Y298991D01*
X84341Y299018D01*
X84439Y299042D01*
X84539Y299061D01*
X84639Y299077D01*
X84739Y299089D01*
X84840Y299097D01*
X84941Y299101D01*
X85043Y299101D01*
X85144Y299097D01*
X85245Y299089D01*
X85345Y299077D01*
X85445Y299061D01*
X85545Y299042D01*
X85643Y299018D01*
X85741Y298991D01*
X85837Y298960D01*
X85932Y298926D01*
X86026Y298887D01*
X86118Y298846D01*
X86209Y298800D01*
X86298Y298751D01*
X86384Y298699D01*
X86469Y298643D01*
X86551Y298584D01*
X86631Y298522D01*
X86709Y298457D01*
X86784Y298389D01*
X86856Y298318D01*
X86926Y298245D01*
X86992Y298168D01*
X87056Y298090D01*
X87116Y298008D01*
X87173Y297925D01*
X87227Y297839D01*
X87278Y297751D01*
X87325Y297662D01*
X87369Y297570D01*
X87409Y297477D01*
X87446Y297383D01*
X87478Y297287D01*
X87507Y297190D01*
X87533Y297092D01*
X87554Y296993D01*
X87572Y296893D01*
X87585Y296793D01*
X87595Y296692D01*
X87601Y296591D01*
X87603Y296490D01*
X87602Y296490D02*
X87602Y293879D01*
X87602Y297012D02*
X91779Y299100D01*
X84731Y308188D02*
X84636Y308186D01*
X84542Y308180D01*
X84448Y308171D01*
X84354Y308158D01*
X84261Y308141D01*
X84169Y308120D01*
X84077Y308095D01*
X83987Y308067D01*
X83898Y308035D01*
X83810Y308000D01*
X83724Y307961D01*
X83639Y307919D01*
X83556Y307873D01*
X83475Y307824D01*
X83396Y307772D01*
X83319Y307717D01*
X83245Y307658D01*
X83173Y307597D01*
X83103Y307533D01*
X83036Y307466D01*
X82972Y307396D01*
X82911Y307324D01*
X82852Y307250D01*
X82797Y307173D01*
X82745Y307094D01*
X82696Y307013D01*
X82650Y306930D01*
X82608Y306845D01*
X82569Y306759D01*
X82534Y306671D01*
X82502Y306582D01*
X82474Y306492D01*
X82449Y306400D01*
X82428Y306308D01*
X82411Y306215D01*
X82398Y306121D01*
X82389Y306027D01*
X82383Y305933D01*
X82381Y305838D01*
X82383Y305730D01*
X82389Y305621D01*
X82399Y305513D01*
X82412Y305406D01*
X82430Y305299D01*
X82451Y305192D01*
X82476Y305087D01*
X82505Y304982D01*
X82537Y304879D01*
X82574Y304777D01*
X82614Y304676D01*
X82657Y304577D01*
X82704Y304479D01*
X82755Y304383D01*
X82809Y304289D01*
X82866Y304197D01*
X82927Y304107D01*
X82991Y304019D01*
X83057Y303934D01*
X83127Y303851D01*
X83200Y303771D01*
X83276Y303693D01*
X83354Y303618D01*
X83435Y303546D01*
X83519Y303477D01*
X83605Y303411D01*
X83693Y303348D01*
X83784Y303289D01*
X83876Y303232D01*
X83971Y303179D01*
X84068Y303130D01*
X84166Y303084D01*
X84265Y303041D01*
X84367Y303002D01*
X84469Y302967D01*
X86559Y307405D02*
X86490Y307474D01*
X86419Y307540D01*
X86346Y307604D01*
X86270Y307665D01*
X86191Y307723D01*
X86111Y307777D01*
X86028Y307829D01*
X85944Y307877D01*
X85858Y307923D01*
X85770Y307964D01*
X85680Y308003D01*
X85589Y308038D01*
X85497Y308069D01*
X85404Y308097D01*
X85310Y308121D01*
X85215Y308141D01*
X85119Y308158D01*
X85022Y308171D01*
X84925Y308180D01*
X84828Y308186D01*
X84731Y308188D01*
X86558Y307404D02*
X91779Y302966D01*
X91779Y308187D01*
X87080Y312110D02*
X86895Y312112D01*
X86710Y312119D01*
X86526Y312130D01*
X86342Y312145D01*
X86158Y312165D01*
X85974Y312189D01*
X85792Y312218D01*
X85610Y312251D01*
X85429Y312288D01*
X85249Y312330D01*
X85069Y312376D01*
X84891Y312426D01*
X84715Y312480D01*
X84539Y312539D01*
X84365Y312601D01*
X84193Y312668D01*
X84022Y312739D01*
X83853Y312814D01*
X83686Y312893D01*
X83606Y312923D01*
X83527Y312956D01*
X83450Y312993D01*
X83374Y313033D01*
X83300Y313076D01*
X83228Y313122D01*
X83159Y313172D01*
X83091Y313224D01*
X83026Y313280D01*
X82963Y313338D01*
X82904Y313400D01*
X82846Y313463D01*
X82792Y313530D01*
X82741Y313598D01*
X82693Y313669D01*
X82648Y313742D01*
X82606Y313816D01*
X82568Y313893D01*
X82533Y313971D01*
X82501Y314050D01*
X82473Y314131D01*
X82449Y314213D01*
X82428Y314297D01*
X82411Y314380D01*
X82398Y314465D01*
X82389Y314550D01*
X82383Y314635D01*
X82381Y314721D01*
X82383Y314807D01*
X82389Y314892D01*
X82398Y314977D01*
X82411Y315062D01*
X82428Y315145D01*
X82449Y315229D01*
X82473Y315311D01*
X82501Y315392D01*
X82533Y315471D01*
X82568Y315549D01*
X82606Y315626D01*
X82648Y315700D01*
X82693Y315773D01*
X82741Y315844D01*
X82792Y315912D01*
X82846Y315979D01*
X82904Y316042D01*
X82963Y316104D01*
X83026Y316162D01*
X83091Y316218D01*
X83159Y316270D01*
X83228Y316320D01*
X83300Y316366D01*
X83374Y316409D01*
X83450Y316449D01*
X83527Y316486D01*
X83606Y316519D01*
X83686Y316549D01*
X83686Y316548D02*
X83853Y316627D01*
X84022Y316702D01*
X84193Y316773D01*
X84365Y316840D01*
X84539Y316902D01*
X84715Y316961D01*
X84891Y317015D01*
X85069Y317065D01*
X85249Y317111D01*
X85429Y317153D01*
X85610Y317190D01*
X85792Y317223D01*
X85974Y317252D01*
X86158Y317276D01*
X86342Y317296D01*
X86526Y317311D01*
X86710Y317322D01*
X86895Y317329D01*
X87080Y317331D01*
X87080Y312110D02*
X87265Y312112D01*
X87450Y312119D01*
X87634Y312130D01*
X87818Y312145D01*
X88002Y312165D01*
X88186Y312189D01*
X88368Y312218D01*
X88550Y312251D01*
X88731Y312288D01*
X88911Y312330D01*
X89091Y312376D01*
X89269Y312426D01*
X89445Y312480D01*
X89621Y312539D01*
X89795Y312601D01*
X89967Y312668D01*
X90138Y312739D01*
X90307Y312814D01*
X90474Y312893D01*
X90554Y312923D01*
X90633Y312956D01*
X90710Y312993D01*
X90786Y313033D01*
X90860Y313076D01*
X90932Y313122D01*
X91001Y313172D01*
X91069Y313225D01*
X91134Y313280D01*
X91197Y313339D01*
X91256Y313400D01*
X91314Y313463D01*
X91368Y313530D01*
X91419Y313598D01*
X91467Y313669D01*
X91512Y313742D01*
X91554Y313816D01*
X91592Y313893D01*
X91627Y313971D01*
X91659Y314050D01*
X91687Y314131D01*
X91711Y314213D01*
X91732Y314297D01*
X91749Y314380D01*
X91762Y314465D01*
X91771Y314550D01*
X91777Y314635D01*
X91779Y314721D01*
X90474Y316548D02*
X90307Y316627D01*
X90138Y316702D01*
X89967Y316773D01*
X89795Y316840D01*
X89621Y316902D01*
X89445Y316961D01*
X89269Y317015D01*
X89091Y317065D01*
X88911Y317111D01*
X88731Y317153D01*
X88550Y317190D01*
X88368Y317223D01*
X88186Y317252D01*
X88002Y317276D01*
X87818Y317296D01*
X87634Y317311D01*
X87450Y317322D01*
X87265Y317329D01*
X87080Y317331D01*
X90474Y316549D02*
X90554Y316519D01*
X90633Y316486D01*
X90710Y316449D01*
X90786Y316409D01*
X90860Y316366D01*
X90932Y316320D01*
X91001Y316270D01*
X91069Y316218D01*
X91134Y316162D01*
X91197Y316104D01*
X91256Y316042D01*
X91314Y315979D01*
X91368Y315912D01*
X91419Y315844D01*
X91467Y315773D01*
X91512Y315700D01*
X91554Y315626D01*
X91592Y315549D01*
X91627Y315471D01*
X91659Y315392D01*
X91687Y315311D01*
X91711Y315229D01*
X91732Y315145D01*
X91749Y315062D01*
X91762Y314977D01*
X91771Y314892D01*
X91777Y314807D01*
X91779Y314721D01*
X89691Y312632D02*
X84469Y316809D01*
X91779Y321254D02*
X91779Y323864D01*
X91777Y323965D01*
X91771Y324066D01*
X91761Y324167D01*
X91748Y324267D01*
X91730Y324367D01*
X91709Y324466D01*
X91683Y324564D01*
X91654Y324661D01*
X91622Y324757D01*
X91585Y324851D01*
X91545Y324944D01*
X91501Y325036D01*
X91454Y325125D01*
X91403Y325213D01*
X91349Y325299D01*
X91292Y325382D01*
X91232Y325464D01*
X91168Y325542D01*
X91102Y325619D01*
X91032Y325692D01*
X90960Y325763D01*
X90885Y325831D01*
X90807Y325896D01*
X90727Y325958D01*
X90645Y326017D01*
X90560Y326073D01*
X90474Y326125D01*
X90385Y326174D01*
X90294Y326220D01*
X90202Y326261D01*
X90108Y326300D01*
X90013Y326334D01*
X89917Y326365D01*
X89819Y326392D01*
X89721Y326416D01*
X89621Y326435D01*
X89521Y326451D01*
X89421Y326463D01*
X89320Y326471D01*
X89219Y326475D01*
X89117Y326475D01*
X89016Y326471D01*
X88915Y326463D01*
X88815Y326451D01*
X88715Y326435D01*
X88615Y326416D01*
X88517Y326392D01*
X88419Y326365D01*
X88323Y326334D01*
X88228Y326300D01*
X88134Y326261D01*
X88042Y326220D01*
X87951Y326174D01*
X87863Y326125D01*
X87776Y326073D01*
X87691Y326017D01*
X87609Y325958D01*
X87529Y325896D01*
X87451Y325831D01*
X87376Y325763D01*
X87304Y325692D01*
X87234Y325619D01*
X87168Y325542D01*
X87104Y325464D01*
X87044Y325382D01*
X86987Y325299D01*
X86933Y325213D01*
X86882Y325125D01*
X86835Y325036D01*
X86791Y324944D01*
X86751Y324851D01*
X86714Y324757D01*
X86682Y324661D01*
X86653Y324564D01*
X86627Y324466D01*
X86606Y324367D01*
X86588Y324267D01*
X86575Y324167D01*
X86565Y324066D01*
X86559Y323965D01*
X86557Y323864D01*
X82381Y324387D02*
X82381Y321254D01*
X82381Y324387D02*
X82383Y324477D01*
X82389Y324566D01*
X82398Y324656D01*
X82412Y324745D01*
X82429Y324833D01*
X82450Y324920D01*
X82475Y325007D01*
X82504Y325092D01*
X82536Y325176D01*
X82571Y325258D01*
X82611Y325339D01*
X82653Y325418D01*
X82699Y325495D01*
X82749Y325570D01*
X82801Y325643D01*
X82857Y325714D01*
X82915Y325782D01*
X82977Y325847D01*
X83041Y325910D01*
X83108Y325970D01*
X83177Y326027D01*
X83249Y326081D01*
X83323Y326132D01*
X83399Y326180D01*
X83477Y326224D01*
X83557Y326265D01*
X83639Y326303D01*
X83722Y326337D01*
X83807Y326367D01*
X83893Y326394D01*
X83979Y326417D01*
X84067Y326436D01*
X84156Y326451D01*
X84245Y326463D01*
X84334Y326471D01*
X84424Y326475D01*
X84514Y326475D01*
X84604Y326471D01*
X84693Y326463D01*
X84782Y326451D01*
X84871Y326436D01*
X84959Y326417D01*
X85045Y326394D01*
X85131Y326367D01*
X85216Y326337D01*
X85299Y326303D01*
X85381Y326265D01*
X85461Y326224D01*
X85539Y326180D01*
X85615Y326132D01*
X85689Y326081D01*
X85761Y326027D01*
X85830Y325970D01*
X85897Y325910D01*
X85961Y325847D01*
X86023Y325782D01*
X86081Y325714D01*
X86137Y325643D01*
X86189Y325570D01*
X86239Y325495D01*
X86285Y325418D01*
X86327Y325339D01*
X86367Y325258D01*
X86402Y325176D01*
X86434Y325092D01*
X86463Y325007D01*
X86488Y324920D01*
X86509Y324833D01*
X86526Y324745D01*
X86540Y324656D01*
X86549Y324566D01*
X86555Y324477D01*
X86557Y324387D01*
X86558Y324387D02*
X86558Y322298D01*
X82381Y333270D02*
X82383Y333365D01*
X82389Y333459D01*
X82398Y333553D01*
X82411Y333647D01*
X82428Y333740D01*
X82449Y333832D01*
X82474Y333924D01*
X82502Y334014D01*
X82534Y334103D01*
X82569Y334191D01*
X82608Y334277D01*
X82650Y334362D01*
X82696Y334445D01*
X82745Y334526D01*
X82797Y334605D01*
X82852Y334682D01*
X82911Y334756D01*
X82972Y334828D01*
X83036Y334898D01*
X83103Y334965D01*
X83173Y335029D01*
X83245Y335090D01*
X83319Y335149D01*
X83396Y335204D01*
X83475Y335256D01*
X83556Y335305D01*
X83639Y335351D01*
X83724Y335393D01*
X83810Y335432D01*
X83898Y335467D01*
X83987Y335499D01*
X84077Y335527D01*
X84169Y335552D01*
X84261Y335573D01*
X84354Y335590D01*
X84448Y335603D01*
X84542Y335612D01*
X84636Y335618D01*
X84731Y335620D01*
X82381Y333270D02*
X82383Y333162D01*
X82389Y333053D01*
X82399Y332945D01*
X82412Y332838D01*
X82430Y332731D01*
X82451Y332624D01*
X82476Y332519D01*
X82505Y332414D01*
X82537Y332311D01*
X82574Y332209D01*
X82614Y332108D01*
X82657Y332009D01*
X82704Y331911D01*
X82755Y331815D01*
X82809Y331721D01*
X82866Y331629D01*
X82927Y331539D01*
X82991Y331451D01*
X83057Y331366D01*
X83127Y331283D01*
X83200Y331203D01*
X83276Y331125D01*
X83354Y331050D01*
X83435Y330978D01*
X83519Y330909D01*
X83605Y330843D01*
X83693Y330780D01*
X83784Y330721D01*
X83876Y330664D01*
X83971Y330611D01*
X84068Y330562D01*
X84166Y330516D01*
X84265Y330473D01*
X84367Y330434D01*
X84469Y330399D01*
X86559Y334836D02*
X86490Y334905D01*
X86419Y334971D01*
X86346Y335035D01*
X86270Y335096D01*
X86191Y335154D01*
X86111Y335208D01*
X86028Y335260D01*
X85944Y335308D01*
X85858Y335354D01*
X85770Y335395D01*
X85680Y335434D01*
X85589Y335469D01*
X85497Y335500D01*
X85404Y335528D01*
X85310Y335552D01*
X85215Y335572D01*
X85119Y335589D01*
X85022Y335602D01*
X84925Y335611D01*
X84828Y335617D01*
X84731Y335619D01*
X86558Y334836D02*
X91779Y330398D01*
X91779Y335619D01*
D12*
X408508Y83508D02*
X419492Y83508D01*
X412169Y83508D02*
X412169Y86559D01*
X412171Y86644D01*
X412177Y86728D01*
X412187Y86812D01*
X412200Y86895D01*
X412218Y86978D01*
X412239Y87060D01*
X412264Y87141D01*
X412293Y87220D01*
X412325Y87299D01*
X412361Y87375D01*
X412400Y87450D01*
X412443Y87523D01*
X412489Y87594D01*
X412539Y87662D01*
X412591Y87729D01*
X412647Y87793D01*
X412705Y87854D01*
X412766Y87912D01*
X412830Y87968D01*
X412897Y88020D01*
X412965Y88070D01*
X413036Y88116D01*
X413109Y88159D01*
X413184Y88198D01*
X413260Y88234D01*
X413339Y88266D01*
X413418Y88295D01*
X413499Y88320D01*
X413581Y88341D01*
X413664Y88359D01*
X413747Y88372D01*
X413831Y88382D01*
X413915Y88388D01*
X414000Y88390D01*
X419492Y88390D01*
X412169Y92308D02*
X412169Y95970D01*
X408508Y93529D02*
X417661Y93529D01*
X417661Y93528D02*
X417746Y93530D01*
X417830Y93536D01*
X417914Y93546D01*
X417997Y93559D01*
X418080Y93577D01*
X418162Y93598D01*
X418243Y93623D01*
X418322Y93652D01*
X418401Y93684D01*
X418477Y93720D01*
X418552Y93759D01*
X418625Y93802D01*
X418696Y93848D01*
X418764Y93898D01*
X418831Y93950D01*
X418895Y94006D01*
X418956Y94064D01*
X419014Y94125D01*
X419070Y94189D01*
X419122Y94256D01*
X419172Y94324D01*
X419218Y94395D01*
X419261Y94468D01*
X419300Y94543D01*
X419336Y94619D01*
X419368Y94698D01*
X419397Y94777D01*
X419422Y94858D01*
X419443Y94940D01*
X419461Y95023D01*
X419474Y95106D01*
X419484Y95190D01*
X419490Y95274D01*
X419492Y95359D01*
X419492Y95970D01*
X412169Y99148D02*
X412169Y102810D01*
X408508Y100369D02*
X417661Y100369D01*
X417661Y100368D02*
X417746Y100370D01*
X417830Y100376D01*
X417914Y100386D01*
X417997Y100399D01*
X418080Y100417D01*
X418162Y100438D01*
X418243Y100463D01*
X418322Y100492D01*
X418401Y100524D01*
X418477Y100560D01*
X418552Y100599D01*
X418625Y100642D01*
X418696Y100688D01*
X418764Y100738D01*
X418831Y100790D01*
X418895Y100846D01*
X418956Y100904D01*
X419014Y100965D01*
X419070Y101029D01*
X419122Y101096D01*
X419172Y101164D01*
X419218Y101235D01*
X419261Y101308D01*
X419300Y101383D01*
X419336Y101459D01*
X419368Y101538D01*
X419397Y101617D01*
X419422Y101698D01*
X419443Y101780D01*
X419461Y101863D01*
X419474Y101946D01*
X419484Y102030D01*
X419490Y102114D01*
X419492Y102199D01*
X419492Y102810D01*
X423153Y107325D02*
X412169Y107325D01*
X412169Y110376D01*
X412171Y110461D01*
X412177Y110545D01*
X412187Y110629D01*
X412200Y110712D01*
X412218Y110795D01*
X412239Y110877D01*
X412264Y110958D01*
X412293Y111037D01*
X412325Y111116D01*
X412361Y111192D01*
X412400Y111267D01*
X412443Y111340D01*
X412489Y111411D01*
X412539Y111479D01*
X412591Y111546D01*
X412647Y111610D01*
X412705Y111671D01*
X412766Y111729D01*
X412830Y111785D01*
X412897Y111837D01*
X412965Y111887D01*
X413036Y111933D01*
X413109Y111976D01*
X413184Y112015D01*
X413260Y112051D01*
X413339Y112083D01*
X413418Y112112D01*
X413499Y112137D01*
X413581Y112158D01*
X413664Y112176D01*
X413747Y112189D01*
X413831Y112199D01*
X413915Y112205D01*
X414000Y112207D01*
X417661Y112207D01*
X417746Y112205D01*
X417830Y112199D01*
X417914Y112189D01*
X417997Y112176D01*
X418080Y112158D01*
X418162Y112137D01*
X418243Y112112D01*
X418322Y112083D01*
X418401Y112051D01*
X418477Y112015D01*
X418552Y111976D01*
X418625Y111933D01*
X418696Y111887D01*
X418764Y111837D01*
X418831Y111785D01*
X418895Y111729D01*
X418956Y111671D01*
X419014Y111610D01*
X419070Y111546D01*
X419122Y111479D01*
X419172Y111411D01*
X419218Y111340D01*
X419261Y111267D01*
X419300Y111192D01*
X419336Y111116D01*
X419368Y111037D01*
X419397Y110958D01*
X419422Y110877D01*
X419443Y110795D01*
X419461Y110712D01*
X419474Y110629D01*
X419484Y110545D01*
X419490Y110461D01*
X419492Y110376D01*
X419492Y107325D01*
X415220Y117543D02*
X416441Y120594D01*
X415220Y117543D02*
X415189Y117471D01*
X415154Y117401D01*
X415117Y117332D01*
X415075Y117266D01*
X415031Y117201D01*
X414983Y117139D01*
X414933Y117079D01*
X414879Y117022D01*
X414823Y116967D01*
X414764Y116916D01*
X414702Y116867D01*
X414638Y116821D01*
X414573Y116779D01*
X414505Y116740D01*
X414435Y116704D01*
X414363Y116672D01*
X414290Y116644D01*
X414216Y116619D01*
X414140Y116598D01*
X414064Y116580D01*
X413987Y116567D01*
X413909Y116557D01*
X413831Y116551D01*
X413752Y116549D01*
X413674Y116551D01*
X413596Y116557D01*
X413518Y116566D01*
X413441Y116580D01*
X413364Y116597D01*
X413289Y116618D01*
X413214Y116643D01*
X413141Y116671D01*
X413070Y116703D01*
X413000Y116739D01*
X412932Y116778D01*
X412866Y116820D01*
X412802Y116865D01*
X412740Y116914D01*
X412681Y116965D01*
X412625Y117020D01*
X412571Y117077D01*
X412520Y117137D01*
X412473Y117199D01*
X412428Y117263D01*
X412387Y117330D01*
X412349Y117399D01*
X412314Y117469D01*
X412283Y117541D01*
X412256Y117614D01*
X412232Y117689D01*
X412212Y117765D01*
X412196Y117842D01*
X412183Y117919D01*
X412175Y117997D01*
X412170Y118075D01*
X412169Y118154D01*
X412169Y118153D02*
X412173Y118320D01*
X412181Y118486D01*
X412194Y118652D01*
X412210Y118818D01*
X412231Y118983D01*
X412255Y119148D01*
X412283Y119312D01*
X412315Y119476D01*
X412352Y119639D01*
X412392Y119800D01*
X412436Y119961D01*
X412483Y120121D01*
X412535Y120279D01*
X412590Y120436D01*
X412650Y120592D01*
X412712Y120746D01*
X412779Y120899D01*
X416441Y120595D02*
X416472Y120667D01*
X416507Y120737D01*
X416544Y120806D01*
X416586Y120872D01*
X416630Y120937D01*
X416678Y120999D01*
X416728Y121059D01*
X416782Y121116D01*
X416838Y121171D01*
X416897Y121222D01*
X416959Y121271D01*
X417023Y121317D01*
X417089Y121359D01*
X417156Y121398D01*
X417226Y121434D01*
X417298Y121466D01*
X417371Y121494D01*
X417445Y121519D01*
X417521Y121540D01*
X417597Y121558D01*
X417674Y121571D01*
X417752Y121581D01*
X417830Y121587D01*
X417909Y121589D01*
X417987Y121587D01*
X418065Y121581D01*
X418143Y121572D01*
X418220Y121558D01*
X418297Y121541D01*
X418372Y121520D01*
X418447Y121495D01*
X418520Y121467D01*
X418591Y121435D01*
X418661Y121399D01*
X418729Y121360D01*
X418795Y121318D01*
X418859Y121273D01*
X418921Y121224D01*
X418980Y121173D01*
X419036Y121118D01*
X419090Y121061D01*
X419141Y121001D01*
X419188Y120939D01*
X419233Y120875D01*
X419274Y120808D01*
X419312Y120739D01*
X419347Y120669D01*
X419378Y120597D01*
X419405Y120524D01*
X419429Y120449D01*
X419449Y120373D01*
X419465Y120296D01*
X419478Y120219D01*
X419486Y120141D01*
X419491Y120063D01*
X419492Y119984D01*
X419486Y119740D01*
X419473Y119495D01*
X419455Y119251D01*
X419432Y119007D01*
X419402Y118764D01*
X419367Y118522D01*
X419326Y118281D01*
X419279Y118040D01*
X419227Y117801D01*
X419169Y117563D01*
X419106Y117327D01*
X419037Y117092D01*
X418962Y116859D01*
X418882Y116628D01*
X418577Y125964D02*
X417966Y125964D01*
X417966Y126574D01*
X418577Y126574D01*
X418577Y125964D01*
X413695Y125964D02*
X413085Y125964D01*
X413085Y126574D01*
X413695Y126574D01*
X413695Y125964D01*
X420712Y130668D02*
X407288Y135550D01*
X407288Y144190D02*
X420712Y139308D01*
X419492Y150081D02*
X419492Y153132D01*
X419492Y150081D02*
X419490Y149996D01*
X419484Y149912D01*
X419474Y149828D01*
X419461Y149745D01*
X419443Y149662D01*
X419422Y149580D01*
X419397Y149499D01*
X419368Y149420D01*
X419336Y149341D01*
X419300Y149265D01*
X419261Y149190D01*
X419218Y149117D01*
X419172Y149046D01*
X419122Y148978D01*
X419070Y148911D01*
X419014Y148847D01*
X418956Y148786D01*
X418895Y148728D01*
X418831Y148672D01*
X418764Y148620D01*
X418696Y148570D01*
X418625Y148524D01*
X418552Y148481D01*
X418477Y148442D01*
X418401Y148406D01*
X418322Y148374D01*
X418243Y148345D01*
X418162Y148320D01*
X418080Y148299D01*
X417997Y148281D01*
X417914Y148268D01*
X417830Y148258D01*
X417746Y148252D01*
X417661Y148250D01*
X417661Y148251D02*
X414000Y148251D01*
X414000Y148250D02*
X413915Y148252D01*
X413831Y148258D01*
X413747Y148268D01*
X413664Y148281D01*
X413581Y148299D01*
X413499Y148320D01*
X413418Y148345D01*
X413339Y148374D01*
X413260Y148406D01*
X413184Y148442D01*
X413109Y148481D01*
X413036Y148524D01*
X412965Y148570D01*
X412897Y148620D01*
X412830Y148672D01*
X412766Y148728D01*
X412705Y148786D01*
X412647Y148847D01*
X412591Y148911D01*
X412539Y148978D01*
X412489Y149046D01*
X412443Y149117D01*
X412400Y149190D01*
X412361Y149265D01*
X412325Y149341D01*
X412293Y149420D01*
X412264Y149499D01*
X412239Y149580D01*
X412218Y149662D01*
X412200Y149745D01*
X412187Y149828D01*
X412177Y149912D01*
X412171Y149996D01*
X412169Y150081D01*
X412169Y153132D01*
X421323Y153132D01*
X421323Y153133D02*
X421408Y153131D01*
X421492Y153125D01*
X421576Y153115D01*
X421659Y153102D01*
X421742Y153084D01*
X421824Y153063D01*
X421905Y153038D01*
X421984Y153009D01*
X422063Y152977D01*
X422139Y152941D01*
X422214Y152902D01*
X422287Y152859D01*
X422358Y152813D01*
X422426Y152763D01*
X422493Y152711D01*
X422557Y152655D01*
X422618Y152597D01*
X422676Y152536D01*
X422732Y152472D01*
X422784Y152405D01*
X422834Y152337D01*
X422880Y152266D01*
X422923Y152193D01*
X422962Y152118D01*
X422998Y152042D01*
X423030Y151963D01*
X423059Y151884D01*
X423084Y151803D01*
X423105Y151721D01*
X423123Y151638D01*
X423136Y151555D01*
X423146Y151471D01*
X423152Y151387D01*
X423154Y151302D01*
X423153Y151302D02*
X423153Y148861D01*
X419492Y157949D02*
X412169Y157949D01*
X409118Y157644D02*
X408508Y157644D01*
X408508Y158254D01*
X409118Y158254D01*
X409118Y157644D01*
X412169Y161428D02*
X412169Y165090D01*
X408508Y162649D02*
X417661Y162649D01*
X417661Y162648D02*
X417746Y162650D01*
X417830Y162656D01*
X417914Y162666D01*
X417997Y162679D01*
X418080Y162697D01*
X418162Y162718D01*
X418243Y162743D01*
X418322Y162772D01*
X418401Y162804D01*
X418477Y162840D01*
X418552Y162879D01*
X418625Y162922D01*
X418696Y162968D01*
X418764Y163018D01*
X418831Y163070D01*
X418895Y163126D01*
X418956Y163184D01*
X419014Y163245D01*
X419070Y163309D01*
X419122Y163376D01*
X419172Y163444D01*
X419218Y163515D01*
X419261Y163588D01*
X419300Y163663D01*
X419336Y163739D01*
X419368Y163818D01*
X419397Y163897D01*
X419422Y163978D01*
X419443Y164060D01*
X419461Y164143D01*
X419474Y164226D01*
X419484Y164310D01*
X419490Y164394D01*
X419492Y164479D01*
X419492Y165090D01*
X419492Y169548D02*
X408508Y169548D01*
X412169Y169548D02*
X412169Y172599D01*
X412171Y172684D01*
X412177Y172768D01*
X412187Y172852D01*
X412200Y172935D01*
X412218Y173018D01*
X412239Y173100D01*
X412264Y173181D01*
X412293Y173260D01*
X412325Y173339D01*
X412361Y173415D01*
X412400Y173490D01*
X412443Y173563D01*
X412489Y173634D01*
X412539Y173702D01*
X412591Y173769D01*
X412647Y173833D01*
X412705Y173894D01*
X412766Y173952D01*
X412830Y174008D01*
X412897Y174060D01*
X412965Y174110D01*
X413036Y174156D01*
X413109Y174199D01*
X413184Y174238D01*
X413260Y174274D01*
X413339Y174306D01*
X413418Y174335D01*
X413499Y174360D01*
X413581Y174381D01*
X413664Y174399D01*
X413747Y174412D01*
X413831Y174422D01*
X413915Y174428D01*
X414000Y174430D01*
X419492Y174430D01*
X417661Y179628D02*
X412169Y179628D01*
X417661Y179627D02*
X417746Y179629D01*
X417830Y179635D01*
X417914Y179645D01*
X417997Y179658D01*
X418080Y179676D01*
X418162Y179697D01*
X418243Y179722D01*
X418322Y179751D01*
X418401Y179783D01*
X418477Y179819D01*
X418552Y179858D01*
X418625Y179901D01*
X418696Y179947D01*
X418764Y179997D01*
X418831Y180049D01*
X418895Y180105D01*
X418956Y180163D01*
X419014Y180224D01*
X419070Y180288D01*
X419122Y180355D01*
X419172Y180423D01*
X419218Y180494D01*
X419261Y180567D01*
X419300Y180642D01*
X419336Y180718D01*
X419368Y180797D01*
X419397Y180876D01*
X419422Y180957D01*
X419443Y181039D01*
X419461Y181122D01*
X419474Y181205D01*
X419484Y181289D01*
X419490Y181373D01*
X419492Y181458D01*
X419492Y184510D01*
X412169Y184510D01*
X408508Y189765D02*
X419492Y189765D01*
X419492Y192816D01*
X419490Y192901D01*
X419484Y192985D01*
X419474Y193069D01*
X419461Y193152D01*
X419443Y193235D01*
X419422Y193317D01*
X419397Y193398D01*
X419368Y193477D01*
X419336Y193556D01*
X419300Y193632D01*
X419261Y193707D01*
X419218Y193780D01*
X419172Y193851D01*
X419122Y193919D01*
X419070Y193986D01*
X419014Y194050D01*
X418956Y194111D01*
X418895Y194169D01*
X418831Y194225D01*
X418764Y194277D01*
X418696Y194327D01*
X418625Y194373D01*
X418552Y194416D01*
X418477Y194455D01*
X418401Y194491D01*
X418322Y194523D01*
X418243Y194552D01*
X418162Y194577D01*
X418080Y194598D01*
X417997Y194616D01*
X417914Y194629D01*
X417830Y194639D01*
X417746Y194645D01*
X417661Y194647D01*
X414000Y194647D01*
X413915Y194645D01*
X413831Y194639D01*
X413747Y194629D01*
X413664Y194616D01*
X413581Y194598D01*
X413499Y194577D01*
X413418Y194552D01*
X413339Y194523D01*
X413260Y194491D01*
X413184Y194455D01*
X413109Y194416D01*
X413036Y194373D01*
X412965Y194327D01*
X412897Y194277D01*
X412830Y194225D01*
X412766Y194169D01*
X412705Y194111D01*
X412647Y194050D01*
X412591Y193986D01*
X412539Y193919D01*
X412489Y193851D01*
X412443Y193780D01*
X412400Y193707D01*
X412361Y193632D01*
X412325Y193556D01*
X412293Y193477D01*
X412264Y193398D01*
X412239Y193317D01*
X412218Y193235D01*
X412200Y193152D01*
X412187Y193069D01*
X412177Y192985D01*
X412171Y192901D01*
X412169Y192816D01*
X412169Y189765D01*
X418882Y198684D02*
X419492Y198684D01*
X418882Y198684D02*
X418882Y199294D01*
X419492Y199294D01*
X419492Y198684D01*
X419492Y205231D02*
X419492Y207672D01*
X419492Y205231D02*
X419490Y205146D01*
X419484Y205062D01*
X419474Y204978D01*
X419461Y204895D01*
X419443Y204812D01*
X419422Y204730D01*
X419397Y204649D01*
X419368Y204570D01*
X419336Y204491D01*
X419300Y204415D01*
X419261Y204340D01*
X419218Y204267D01*
X419172Y204196D01*
X419122Y204128D01*
X419070Y204061D01*
X419014Y203997D01*
X418956Y203936D01*
X418895Y203878D01*
X418831Y203822D01*
X418764Y203770D01*
X418696Y203720D01*
X418625Y203674D01*
X418552Y203631D01*
X418477Y203592D01*
X418401Y203556D01*
X418322Y203524D01*
X418243Y203495D01*
X418162Y203470D01*
X418080Y203449D01*
X417997Y203431D01*
X417914Y203418D01*
X417830Y203408D01*
X417746Y203402D01*
X417661Y203400D01*
X417661Y203401D02*
X414000Y203401D01*
X414000Y203400D02*
X413915Y203402D01*
X413831Y203408D01*
X413747Y203418D01*
X413664Y203431D01*
X413581Y203449D01*
X413499Y203470D01*
X413418Y203495D01*
X413339Y203524D01*
X413260Y203556D01*
X413184Y203592D01*
X413109Y203631D01*
X413036Y203674D01*
X412965Y203720D01*
X412897Y203770D01*
X412830Y203822D01*
X412766Y203878D01*
X412705Y203936D01*
X412647Y203997D01*
X412591Y204061D01*
X412539Y204128D01*
X412489Y204196D01*
X412443Y204267D01*
X412400Y204340D01*
X412361Y204415D01*
X412325Y204491D01*
X412293Y204570D01*
X412264Y204649D01*
X412239Y204730D01*
X412218Y204812D01*
X412200Y204895D01*
X412187Y204978D01*
X412177Y205062D01*
X412171Y205146D01*
X412169Y205231D01*
X412169Y207672D01*
X414610Y211668D02*
X417051Y211668D01*
X414610Y211668D02*
X414513Y211670D01*
X414416Y211676D01*
X414319Y211685D01*
X414223Y211699D01*
X414128Y211716D01*
X414033Y211737D01*
X413939Y211762D01*
X413846Y211790D01*
X413755Y211823D01*
X413665Y211858D01*
X413576Y211898D01*
X413489Y211941D01*
X413404Y211987D01*
X413320Y212037D01*
X413239Y212090D01*
X413160Y212146D01*
X413083Y212205D01*
X413008Y212267D01*
X412936Y212332D01*
X412867Y212400D01*
X412800Y212471D01*
X412737Y212544D01*
X412676Y212620D01*
X412618Y212698D01*
X412564Y212778D01*
X412512Y212861D01*
X412464Y212945D01*
X412420Y213031D01*
X412379Y213119D01*
X412341Y213209D01*
X412307Y213300D01*
X412277Y213392D01*
X412250Y213485D01*
X412227Y213579D01*
X412208Y213675D01*
X412193Y213770D01*
X412181Y213867D01*
X412173Y213963D01*
X412169Y214060D01*
X412169Y214158D01*
X412173Y214255D01*
X412181Y214351D01*
X412193Y214448D01*
X412208Y214543D01*
X412227Y214639D01*
X412250Y214733D01*
X412277Y214826D01*
X412307Y214918D01*
X412341Y215009D01*
X412379Y215099D01*
X412420Y215187D01*
X412464Y215273D01*
X412512Y215357D01*
X412564Y215440D01*
X412618Y215520D01*
X412676Y215598D01*
X412737Y215674D01*
X412800Y215747D01*
X412867Y215818D01*
X412936Y215886D01*
X413008Y215951D01*
X413083Y216013D01*
X413160Y216072D01*
X413239Y216128D01*
X413320Y216181D01*
X413404Y216231D01*
X413489Y216277D01*
X413576Y216320D01*
X413665Y216360D01*
X413755Y216395D01*
X413846Y216428D01*
X413939Y216456D01*
X414033Y216481D01*
X414128Y216502D01*
X414223Y216519D01*
X414319Y216533D01*
X414416Y216542D01*
X414513Y216548D01*
X414610Y216550D01*
X414610Y216549D02*
X417051Y216549D01*
X417051Y216550D02*
X417148Y216548D01*
X417245Y216542D01*
X417342Y216533D01*
X417438Y216519D01*
X417533Y216502D01*
X417628Y216481D01*
X417722Y216456D01*
X417815Y216428D01*
X417906Y216395D01*
X417996Y216360D01*
X418085Y216320D01*
X418172Y216277D01*
X418257Y216231D01*
X418341Y216181D01*
X418422Y216128D01*
X418501Y216072D01*
X418578Y216013D01*
X418653Y215951D01*
X418725Y215886D01*
X418794Y215818D01*
X418861Y215747D01*
X418924Y215674D01*
X418985Y215598D01*
X419043Y215520D01*
X419097Y215440D01*
X419149Y215357D01*
X419197Y215273D01*
X419241Y215187D01*
X419282Y215099D01*
X419320Y215009D01*
X419354Y214918D01*
X419384Y214826D01*
X419411Y214733D01*
X419434Y214639D01*
X419453Y214543D01*
X419468Y214448D01*
X419480Y214351D01*
X419488Y214255D01*
X419492Y214158D01*
X419492Y214060D01*
X419488Y213963D01*
X419480Y213867D01*
X419468Y213770D01*
X419453Y213675D01*
X419434Y213579D01*
X419411Y213485D01*
X419384Y213392D01*
X419354Y213300D01*
X419320Y213209D01*
X419282Y213119D01*
X419241Y213031D01*
X419197Y212945D01*
X419149Y212861D01*
X419097Y212778D01*
X419043Y212698D01*
X418985Y212620D01*
X418924Y212544D01*
X418861Y212471D01*
X418794Y212400D01*
X418725Y212332D01*
X418653Y212267D01*
X418578Y212205D01*
X418501Y212146D01*
X418422Y212090D01*
X418341Y212037D01*
X418257Y211987D01*
X418172Y211941D01*
X418085Y211898D01*
X417996Y211858D01*
X417906Y211823D01*
X417815Y211790D01*
X417722Y211762D01*
X417628Y211737D01*
X417533Y211716D01*
X417438Y211699D01*
X417342Y211685D01*
X417245Y211676D01*
X417148Y211670D01*
X417051Y211668D01*
X419492Y221607D02*
X412169Y221607D01*
X412169Y227099D01*
X412171Y227184D01*
X412177Y227268D01*
X412187Y227352D01*
X412200Y227435D01*
X412218Y227518D01*
X412239Y227600D01*
X412264Y227681D01*
X412293Y227760D01*
X412325Y227839D01*
X412361Y227915D01*
X412400Y227990D01*
X412443Y228063D01*
X412489Y228134D01*
X412539Y228202D01*
X412591Y228269D01*
X412647Y228333D01*
X412705Y228394D01*
X412766Y228452D01*
X412830Y228508D01*
X412897Y228560D01*
X412965Y228610D01*
X413036Y228656D01*
X413109Y228699D01*
X413184Y228738D01*
X413260Y228774D01*
X413339Y228806D01*
X413418Y228835D01*
X413499Y228860D01*
X413581Y228881D01*
X413664Y228899D01*
X413747Y228912D01*
X413831Y228922D01*
X413915Y228928D01*
X414000Y228930D01*
X419492Y228930D01*
X419492Y225269D02*
X412169Y225269D01*
X420712Y233628D02*
X407288Y238509D01*
X412169Y243207D02*
X419492Y243207D01*
X412169Y243207D02*
X412169Y248699D01*
X412171Y248784D01*
X412177Y248868D01*
X412187Y248952D01*
X412200Y249035D01*
X412218Y249118D01*
X412239Y249200D01*
X412264Y249281D01*
X412293Y249360D01*
X412325Y249439D01*
X412361Y249515D01*
X412400Y249590D01*
X412443Y249663D01*
X412489Y249734D01*
X412539Y249802D01*
X412591Y249869D01*
X412647Y249933D01*
X412705Y249994D01*
X412766Y250052D01*
X412830Y250108D01*
X412897Y250160D01*
X412965Y250210D01*
X413036Y250256D01*
X413109Y250299D01*
X413184Y250338D01*
X413260Y250374D01*
X413339Y250406D01*
X413418Y250435D01*
X413499Y250460D01*
X413581Y250481D01*
X413664Y250499D01*
X413747Y250512D01*
X413831Y250522D01*
X413915Y250528D01*
X414000Y250530D01*
X419492Y250530D01*
X419492Y246869D02*
X412169Y246869D01*
X408508Y256005D02*
X419492Y256005D01*
X419492Y259056D01*
X419490Y259141D01*
X419484Y259225D01*
X419474Y259309D01*
X419461Y259392D01*
X419443Y259475D01*
X419422Y259557D01*
X419397Y259638D01*
X419368Y259717D01*
X419336Y259796D01*
X419300Y259872D01*
X419261Y259947D01*
X419218Y260020D01*
X419172Y260091D01*
X419122Y260159D01*
X419070Y260226D01*
X419014Y260290D01*
X418956Y260351D01*
X418895Y260409D01*
X418831Y260465D01*
X418764Y260517D01*
X418696Y260567D01*
X418625Y260613D01*
X418552Y260656D01*
X418477Y260695D01*
X418401Y260731D01*
X418322Y260763D01*
X418243Y260792D01*
X418162Y260817D01*
X418080Y260838D01*
X417997Y260856D01*
X417914Y260869D01*
X417830Y260879D01*
X417746Y260885D01*
X417661Y260887D01*
X414000Y260887D01*
X413915Y260885D01*
X413831Y260879D01*
X413747Y260869D01*
X413664Y260856D01*
X413581Y260838D01*
X413499Y260817D01*
X413418Y260792D01*
X413339Y260763D01*
X413260Y260731D01*
X413184Y260695D01*
X413109Y260656D01*
X413036Y260613D01*
X412965Y260567D01*
X412897Y260517D01*
X412830Y260465D01*
X412766Y260409D01*
X412705Y260351D01*
X412647Y260290D01*
X412591Y260226D01*
X412539Y260159D01*
X412489Y260091D01*
X412443Y260020D01*
X412400Y259947D01*
X412361Y259872D01*
X412325Y259796D01*
X412293Y259717D01*
X412264Y259638D01*
X412239Y259557D01*
X412218Y259475D01*
X412200Y259392D01*
X412187Y259309D01*
X412177Y259225D01*
X412171Y259141D01*
X412169Y259056D01*
X412169Y256005D01*
X412169Y265228D02*
X419492Y265228D01*
X409118Y264923D02*
X408508Y264923D01*
X408508Y265534D01*
X409118Y265534D01*
X409118Y264923D01*
X415220Y270543D02*
X416441Y273594D01*
X415220Y270543D02*
X415189Y270471D01*
X415154Y270401D01*
X415117Y270332D01*
X415075Y270266D01*
X415031Y270201D01*
X414983Y270139D01*
X414933Y270079D01*
X414879Y270022D01*
X414823Y269967D01*
X414764Y269916D01*
X414702Y269867D01*
X414638Y269821D01*
X414573Y269779D01*
X414505Y269740D01*
X414435Y269704D01*
X414363Y269672D01*
X414290Y269644D01*
X414216Y269619D01*
X414140Y269598D01*
X414064Y269580D01*
X413987Y269567D01*
X413909Y269557D01*
X413831Y269551D01*
X413752Y269549D01*
X413674Y269551D01*
X413596Y269557D01*
X413518Y269566D01*
X413441Y269580D01*
X413364Y269597D01*
X413289Y269618D01*
X413214Y269643D01*
X413141Y269671D01*
X413070Y269703D01*
X413000Y269739D01*
X412932Y269778D01*
X412866Y269820D01*
X412802Y269865D01*
X412740Y269914D01*
X412681Y269965D01*
X412625Y270020D01*
X412571Y270077D01*
X412520Y270137D01*
X412473Y270199D01*
X412428Y270263D01*
X412387Y270330D01*
X412349Y270399D01*
X412314Y270469D01*
X412283Y270541D01*
X412256Y270614D01*
X412232Y270689D01*
X412212Y270765D01*
X412196Y270842D01*
X412183Y270919D01*
X412175Y270997D01*
X412170Y271075D01*
X412169Y271154D01*
X412169Y271153D02*
X412173Y271320D01*
X412181Y271486D01*
X412194Y271652D01*
X412210Y271818D01*
X412231Y271983D01*
X412255Y272148D01*
X412283Y272312D01*
X412315Y272476D01*
X412352Y272639D01*
X412392Y272800D01*
X412436Y272961D01*
X412483Y273121D01*
X412535Y273279D01*
X412590Y273436D01*
X412650Y273592D01*
X412712Y273746D01*
X412779Y273899D01*
X416441Y273594D02*
X416472Y273666D01*
X416507Y273736D01*
X416544Y273805D01*
X416586Y273871D01*
X416630Y273936D01*
X416678Y273998D01*
X416728Y274058D01*
X416782Y274115D01*
X416838Y274170D01*
X416897Y274221D01*
X416959Y274270D01*
X417023Y274316D01*
X417089Y274358D01*
X417156Y274397D01*
X417226Y274433D01*
X417298Y274465D01*
X417371Y274493D01*
X417445Y274518D01*
X417521Y274539D01*
X417597Y274557D01*
X417674Y274570D01*
X417752Y274580D01*
X417830Y274586D01*
X417909Y274588D01*
X417987Y274586D01*
X418065Y274580D01*
X418143Y274571D01*
X418220Y274557D01*
X418297Y274540D01*
X418372Y274519D01*
X418447Y274494D01*
X418520Y274466D01*
X418591Y274434D01*
X418661Y274398D01*
X418729Y274359D01*
X418795Y274317D01*
X418859Y274272D01*
X418921Y274223D01*
X418980Y274172D01*
X419036Y274117D01*
X419090Y274060D01*
X419141Y274000D01*
X419188Y273938D01*
X419233Y273874D01*
X419274Y273807D01*
X419312Y273738D01*
X419347Y273668D01*
X419378Y273596D01*
X419405Y273523D01*
X419429Y273448D01*
X419449Y273372D01*
X419465Y273295D01*
X419478Y273218D01*
X419486Y273140D01*
X419491Y273062D01*
X419492Y272983D01*
X419492Y272984D02*
X419486Y272740D01*
X419473Y272495D01*
X419455Y272251D01*
X419432Y272007D01*
X419402Y271764D01*
X419367Y271522D01*
X419326Y271281D01*
X419279Y271040D01*
X419227Y270801D01*
X419169Y270563D01*
X419106Y270327D01*
X419037Y270092D01*
X418962Y269859D01*
X418882Y269628D01*
X419492Y279405D02*
X408508Y279405D01*
X419492Y279405D02*
X419492Y282456D01*
X419490Y282541D01*
X419484Y282625D01*
X419474Y282709D01*
X419461Y282792D01*
X419443Y282875D01*
X419422Y282957D01*
X419397Y283038D01*
X419368Y283117D01*
X419336Y283196D01*
X419300Y283272D01*
X419261Y283347D01*
X419218Y283420D01*
X419172Y283491D01*
X419122Y283559D01*
X419070Y283626D01*
X419014Y283690D01*
X418956Y283751D01*
X418895Y283809D01*
X418831Y283865D01*
X418764Y283917D01*
X418696Y283967D01*
X418625Y284013D01*
X418552Y284056D01*
X418477Y284095D01*
X418401Y284131D01*
X418322Y284163D01*
X418243Y284192D01*
X418162Y284217D01*
X418080Y284238D01*
X417997Y284256D01*
X417914Y284269D01*
X417830Y284279D01*
X417746Y284285D01*
X417661Y284287D01*
X414000Y284287D01*
X413915Y284285D01*
X413831Y284279D01*
X413747Y284269D01*
X413664Y284256D01*
X413581Y284238D01*
X413499Y284217D01*
X413418Y284192D01*
X413339Y284163D01*
X413260Y284131D01*
X413184Y284095D01*
X413109Y284056D01*
X413036Y284013D01*
X412965Y283967D01*
X412897Y283917D01*
X412830Y283865D01*
X412766Y283809D01*
X412705Y283751D01*
X412647Y283690D01*
X412591Y283626D01*
X412539Y283559D01*
X412489Y283491D01*
X412443Y283420D01*
X412400Y283347D01*
X412361Y283272D01*
X412325Y283196D01*
X412293Y283117D01*
X412264Y283038D01*
X412239Y282957D01*
X412218Y282875D01*
X412200Y282792D01*
X412187Y282709D01*
X412177Y282625D01*
X412171Y282541D01*
X412169Y282456D01*
X412169Y279405D01*
X415220Y290786D02*
X415220Y293532D01*
X415220Y290786D02*
X415222Y290695D01*
X415228Y290605D01*
X415237Y290515D01*
X415251Y290425D01*
X415268Y290336D01*
X415289Y290248D01*
X415314Y290161D01*
X415342Y290074D01*
X415374Y289990D01*
X415410Y289906D01*
X415449Y289824D01*
X415491Y289744D01*
X415537Y289666D01*
X415586Y289590D01*
X415639Y289516D01*
X415694Y289444D01*
X415753Y289375D01*
X415814Y289308D01*
X415878Y289244D01*
X415945Y289183D01*
X416014Y289124D01*
X416086Y289069D01*
X416160Y289016D01*
X416236Y288967D01*
X416314Y288921D01*
X416394Y288879D01*
X416476Y288840D01*
X416560Y288804D01*
X416644Y288772D01*
X416731Y288744D01*
X416818Y288719D01*
X416906Y288698D01*
X416995Y288681D01*
X417085Y288667D01*
X417175Y288658D01*
X417265Y288652D01*
X417356Y288650D01*
X417447Y288652D01*
X417537Y288658D01*
X417627Y288667D01*
X417717Y288681D01*
X417806Y288698D01*
X417894Y288719D01*
X417981Y288744D01*
X418068Y288772D01*
X418152Y288804D01*
X418236Y288840D01*
X418318Y288879D01*
X418398Y288921D01*
X418476Y288967D01*
X418552Y289016D01*
X418626Y289069D01*
X418698Y289124D01*
X418767Y289183D01*
X418834Y289244D01*
X418898Y289308D01*
X418959Y289375D01*
X419018Y289444D01*
X419073Y289516D01*
X419126Y289590D01*
X419175Y289666D01*
X419221Y289744D01*
X419263Y289824D01*
X419302Y289906D01*
X419338Y289990D01*
X419370Y290074D01*
X419398Y290161D01*
X419423Y290248D01*
X419444Y290336D01*
X419461Y290425D01*
X419475Y290515D01*
X419484Y290605D01*
X419490Y290695D01*
X419492Y290786D01*
X419492Y293532D01*
X414000Y293532D01*
X413915Y293530D01*
X413831Y293524D01*
X413747Y293514D01*
X413664Y293501D01*
X413581Y293483D01*
X413499Y293462D01*
X413418Y293437D01*
X413339Y293408D01*
X413260Y293376D01*
X413184Y293340D01*
X413109Y293301D01*
X413036Y293258D01*
X412965Y293212D01*
X412897Y293162D01*
X412830Y293110D01*
X412766Y293054D01*
X412705Y292996D01*
X412647Y292935D01*
X412591Y292871D01*
X412539Y292804D01*
X412489Y292736D01*
X412443Y292665D01*
X412400Y292592D01*
X412361Y292517D01*
X412325Y292441D01*
X412293Y292362D01*
X412264Y292283D01*
X412239Y292202D01*
X412218Y292120D01*
X412200Y292037D01*
X412187Y291954D01*
X412177Y291870D01*
X412171Y291786D01*
X412169Y291701D01*
X412169Y289260D01*
X412169Y298788D02*
X419492Y298788D01*
X412169Y298788D02*
X412169Y301839D01*
X412171Y301924D01*
X412177Y302008D01*
X412187Y302092D01*
X412200Y302175D01*
X412218Y302258D01*
X412239Y302340D01*
X412264Y302421D01*
X412293Y302500D01*
X412325Y302579D01*
X412361Y302655D01*
X412400Y302730D01*
X412443Y302803D01*
X412489Y302874D01*
X412539Y302942D01*
X412591Y303009D01*
X412647Y303073D01*
X412705Y303134D01*
X412766Y303192D01*
X412830Y303248D01*
X412897Y303300D01*
X412965Y303350D01*
X413036Y303396D01*
X413109Y303439D01*
X413184Y303478D01*
X413260Y303514D01*
X413339Y303546D01*
X413418Y303575D01*
X413499Y303600D01*
X413581Y303621D01*
X413664Y303639D01*
X413747Y303652D01*
X413831Y303662D01*
X413915Y303668D01*
X414000Y303670D01*
X414000Y303669D02*
X419492Y303669D01*
X417051Y308508D02*
X414610Y308508D01*
X414610Y308507D02*
X414513Y308509D01*
X414416Y308515D01*
X414319Y308524D01*
X414223Y308538D01*
X414128Y308555D01*
X414033Y308576D01*
X413939Y308601D01*
X413846Y308629D01*
X413755Y308662D01*
X413665Y308697D01*
X413576Y308737D01*
X413489Y308780D01*
X413404Y308826D01*
X413320Y308876D01*
X413239Y308929D01*
X413160Y308985D01*
X413083Y309044D01*
X413008Y309106D01*
X412936Y309171D01*
X412867Y309239D01*
X412800Y309310D01*
X412737Y309383D01*
X412676Y309459D01*
X412618Y309537D01*
X412564Y309617D01*
X412512Y309700D01*
X412464Y309784D01*
X412420Y309870D01*
X412379Y309958D01*
X412341Y310048D01*
X412307Y310139D01*
X412277Y310231D01*
X412250Y310324D01*
X412227Y310418D01*
X412208Y310514D01*
X412193Y310609D01*
X412181Y310706D01*
X412173Y310802D01*
X412169Y310899D01*
X412169Y310997D01*
X412173Y311094D01*
X412181Y311190D01*
X412193Y311287D01*
X412208Y311382D01*
X412227Y311478D01*
X412250Y311572D01*
X412277Y311665D01*
X412307Y311757D01*
X412341Y311848D01*
X412379Y311938D01*
X412420Y312026D01*
X412464Y312112D01*
X412512Y312196D01*
X412564Y312279D01*
X412618Y312359D01*
X412676Y312437D01*
X412737Y312513D01*
X412800Y312586D01*
X412867Y312657D01*
X412936Y312725D01*
X413008Y312790D01*
X413083Y312852D01*
X413160Y312911D01*
X413239Y312967D01*
X413320Y313020D01*
X413404Y313070D01*
X413489Y313116D01*
X413576Y313159D01*
X413665Y313199D01*
X413755Y313234D01*
X413846Y313267D01*
X413939Y313295D01*
X414033Y313320D01*
X414128Y313341D01*
X414223Y313358D01*
X414319Y313372D01*
X414416Y313381D01*
X414513Y313387D01*
X414610Y313389D01*
X417051Y313389D01*
X417148Y313387D01*
X417245Y313381D01*
X417342Y313372D01*
X417438Y313358D01*
X417533Y313341D01*
X417628Y313320D01*
X417722Y313295D01*
X417815Y313267D01*
X417906Y313234D01*
X417996Y313199D01*
X418085Y313159D01*
X418172Y313116D01*
X418257Y313070D01*
X418341Y313020D01*
X418422Y312967D01*
X418501Y312911D01*
X418578Y312852D01*
X418653Y312790D01*
X418725Y312725D01*
X418794Y312657D01*
X418861Y312586D01*
X418924Y312513D01*
X418985Y312437D01*
X419043Y312359D01*
X419097Y312279D01*
X419149Y312196D01*
X419197Y312112D01*
X419241Y312026D01*
X419282Y311938D01*
X419320Y311848D01*
X419354Y311757D01*
X419384Y311665D01*
X419411Y311572D01*
X419434Y311478D01*
X419453Y311382D01*
X419468Y311287D01*
X419480Y311190D01*
X419488Y311094D01*
X419492Y310997D01*
X419492Y310899D01*
X419488Y310802D01*
X419480Y310706D01*
X419468Y310609D01*
X419453Y310514D01*
X419434Y310418D01*
X419411Y310324D01*
X419384Y310231D01*
X419354Y310139D01*
X419320Y310048D01*
X419282Y309958D01*
X419241Y309870D01*
X419197Y309784D01*
X419149Y309700D01*
X419097Y309617D01*
X419043Y309537D01*
X418985Y309459D01*
X418924Y309383D01*
X418861Y309310D01*
X418794Y309239D01*
X418725Y309171D01*
X418653Y309106D01*
X418578Y309044D01*
X418501Y308985D01*
X418422Y308929D01*
X418341Y308876D01*
X418257Y308826D01*
X418172Y308780D01*
X418085Y308737D01*
X417996Y308697D01*
X417906Y308662D01*
X417815Y308629D01*
X417722Y308601D01*
X417628Y308576D01*
X417533Y308555D01*
X417438Y308538D01*
X417342Y308524D01*
X417245Y308515D01*
X417148Y308509D01*
X417051Y308507D01*
X410949Y317977D02*
X408508Y321028D01*
X419492Y321028D01*
X419492Y317977D02*
X419492Y324079D01*
X420712Y328307D02*
X407288Y333189D01*
X419492Y337799D02*
X419492Y342681D01*
X419492Y337799D02*
X408508Y337799D01*
X408508Y342681D01*
X413390Y341461D02*
X413390Y337799D01*
X419492Y349186D02*
X419492Y351627D01*
X419492Y349186D02*
X419490Y349090D01*
X419484Y348994D01*
X419475Y348899D01*
X419462Y348804D01*
X419445Y348710D01*
X419425Y348616D01*
X419400Y348523D01*
X419373Y348432D01*
X419341Y348341D01*
X419306Y348252D01*
X419268Y348164D01*
X419226Y348078D01*
X419181Y347993D01*
X419132Y347911D01*
X419081Y347830D01*
X419026Y347751D01*
X418968Y347675D01*
X418907Y347601D01*
X418843Y347529D01*
X418777Y347460D01*
X418708Y347394D01*
X418636Y347330D01*
X418562Y347269D01*
X418486Y347211D01*
X418407Y347156D01*
X418326Y347105D01*
X418244Y347056D01*
X418159Y347011D01*
X418073Y346969D01*
X417985Y346931D01*
X417896Y346896D01*
X417805Y346864D01*
X417714Y346837D01*
X417621Y346812D01*
X417527Y346792D01*
X417433Y346775D01*
X417338Y346762D01*
X417243Y346753D01*
X417147Y346747D01*
X417051Y346745D01*
X410949Y346745D01*
X410851Y346747D01*
X410753Y346753D01*
X410655Y346763D01*
X410557Y346777D01*
X410461Y346794D01*
X410365Y346816D01*
X410270Y346841D01*
X410176Y346871D01*
X410083Y346904D01*
X409992Y346940D01*
X409903Y346981D01*
X409815Y347025D01*
X409729Y347072D01*
X409644Y347123D01*
X409562Y347177D01*
X409483Y347235D01*
X409405Y347295D01*
X409330Y347359D01*
X409258Y347426D01*
X409189Y347495D01*
X409122Y347567D01*
X409058Y347642D01*
X408998Y347720D01*
X408940Y347799D01*
X408886Y347881D01*
X408835Y347965D01*
X408788Y348052D01*
X408744Y348140D01*
X408703Y348229D01*
X408667Y348320D01*
X408634Y348413D01*
X408604Y348507D01*
X408579Y348602D01*
X408557Y348698D01*
X408540Y348794D01*
X408526Y348892D01*
X408516Y348990D01*
X408510Y349088D01*
X408508Y349186D01*
X408508Y351627D01*
X419492Y356159D02*
X419492Y361041D01*
X419492Y356159D02*
X408508Y356159D01*
X408508Y361041D01*
X413390Y359820D02*
X413390Y356159D01*
X419492Y365137D02*
X419492Y368188D01*
X419490Y368297D01*
X419484Y368406D01*
X419475Y368514D01*
X419461Y368622D01*
X419444Y368730D01*
X419422Y368837D01*
X419397Y368943D01*
X419368Y369048D01*
X419336Y369152D01*
X419300Y369254D01*
X419260Y369356D01*
X419216Y369455D01*
X419169Y369554D01*
X419119Y369650D01*
X419065Y369745D01*
X419008Y369837D01*
X418947Y369928D01*
X418883Y370016D01*
X418817Y370102D01*
X418747Y370186D01*
X418674Y370267D01*
X418598Y370345D01*
X418520Y370421D01*
X418439Y370494D01*
X418355Y370564D01*
X418269Y370630D01*
X418181Y370694D01*
X418090Y370755D01*
X417998Y370812D01*
X417903Y370866D01*
X417807Y370916D01*
X417708Y370963D01*
X417609Y371007D01*
X417507Y371047D01*
X417405Y371083D01*
X417301Y371115D01*
X417196Y371144D01*
X417090Y371169D01*
X416983Y371191D01*
X416875Y371208D01*
X416767Y371222D01*
X416659Y371231D01*
X416550Y371237D01*
X416441Y371239D01*
X416332Y371237D01*
X416223Y371231D01*
X416115Y371222D01*
X416007Y371208D01*
X415899Y371191D01*
X415792Y371169D01*
X415686Y371144D01*
X415581Y371115D01*
X415477Y371083D01*
X415375Y371047D01*
X415273Y371007D01*
X415174Y370963D01*
X415075Y370916D01*
X414979Y370866D01*
X414884Y370812D01*
X414792Y370755D01*
X414701Y370694D01*
X414613Y370630D01*
X414527Y370564D01*
X414443Y370494D01*
X414362Y370421D01*
X414284Y370345D01*
X414208Y370267D01*
X414135Y370186D01*
X414065Y370102D01*
X413999Y370016D01*
X413935Y369928D01*
X413874Y369837D01*
X413817Y369745D01*
X413763Y369650D01*
X413713Y369554D01*
X413666Y369455D01*
X413622Y369356D01*
X413582Y369254D01*
X413546Y369152D01*
X413514Y369048D01*
X413485Y368943D01*
X413460Y368837D01*
X413438Y368730D01*
X413421Y368622D01*
X413407Y368514D01*
X413398Y368406D01*
X413392Y368297D01*
X413390Y368188D01*
X408508Y368798D02*
X408508Y365137D01*
X408508Y368798D02*
X408510Y368895D01*
X408516Y368992D01*
X408525Y369089D01*
X408539Y369185D01*
X408556Y369280D01*
X408577Y369375D01*
X408602Y369469D01*
X408630Y369562D01*
X408663Y369653D01*
X408698Y369743D01*
X408738Y369832D01*
X408781Y369919D01*
X408827Y370004D01*
X408877Y370088D01*
X408930Y370169D01*
X408986Y370248D01*
X409045Y370325D01*
X409107Y370400D01*
X409172Y370472D01*
X409240Y370541D01*
X409311Y370608D01*
X409384Y370671D01*
X409460Y370732D01*
X409538Y370790D01*
X409618Y370844D01*
X409701Y370896D01*
X409785Y370944D01*
X409871Y370988D01*
X409959Y371029D01*
X410049Y371067D01*
X410140Y371101D01*
X410232Y371131D01*
X410325Y371158D01*
X410419Y371181D01*
X410515Y371200D01*
X410610Y371215D01*
X410707Y371227D01*
X410803Y371235D01*
X410900Y371239D01*
X410998Y371239D01*
X411095Y371235D01*
X411191Y371227D01*
X411288Y371215D01*
X411383Y371200D01*
X411479Y371181D01*
X411573Y371158D01*
X411666Y371131D01*
X411758Y371101D01*
X411849Y371067D01*
X411939Y371029D01*
X412027Y370988D01*
X412113Y370944D01*
X412197Y370896D01*
X412280Y370844D01*
X412360Y370790D01*
X412438Y370732D01*
X412514Y370671D01*
X412587Y370608D01*
X412658Y370541D01*
X412726Y370472D01*
X412791Y370400D01*
X412853Y370325D01*
X412912Y370248D01*
X412968Y370169D01*
X413021Y370088D01*
X413071Y370004D01*
X413117Y369919D01*
X413160Y369832D01*
X413200Y369743D01*
X413235Y369653D01*
X413268Y369562D01*
X413296Y369469D01*
X413321Y369375D01*
X413342Y369280D01*
X413359Y369185D01*
X413373Y369089D01*
X413382Y368992D01*
X413388Y368895D01*
X413390Y368798D01*
X413390Y366358D01*
X416441Y375937D02*
X416332Y375939D01*
X416223Y375945D01*
X416115Y375954D01*
X416007Y375968D01*
X415899Y375985D01*
X415792Y376007D01*
X415686Y376032D01*
X415581Y376061D01*
X415477Y376093D01*
X415375Y376129D01*
X415273Y376169D01*
X415174Y376213D01*
X415075Y376260D01*
X414979Y376310D01*
X414884Y376364D01*
X414792Y376421D01*
X414701Y376482D01*
X414613Y376546D01*
X414527Y376612D01*
X414443Y376682D01*
X414362Y376755D01*
X414284Y376831D01*
X414208Y376909D01*
X414135Y376990D01*
X414065Y377074D01*
X413999Y377160D01*
X413935Y377248D01*
X413874Y377339D01*
X413817Y377431D01*
X413763Y377526D01*
X413713Y377622D01*
X413666Y377721D01*
X413622Y377820D01*
X413582Y377922D01*
X413546Y378024D01*
X413514Y378128D01*
X413485Y378233D01*
X413460Y378339D01*
X413438Y378446D01*
X413421Y378554D01*
X413407Y378662D01*
X413398Y378770D01*
X413392Y378879D01*
X413390Y378988D01*
X413392Y379097D01*
X413398Y379206D01*
X413407Y379314D01*
X413421Y379422D01*
X413438Y379530D01*
X413460Y379637D01*
X413485Y379743D01*
X413514Y379848D01*
X413546Y379952D01*
X413582Y380054D01*
X413622Y380156D01*
X413666Y380255D01*
X413713Y380354D01*
X413763Y380450D01*
X413817Y380545D01*
X413874Y380637D01*
X413935Y380728D01*
X413999Y380816D01*
X414065Y380902D01*
X414135Y380986D01*
X414208Y381067D01*
X414284Y381145D01*
X414362Y381221D01*
X414443Y381294D01*
X414527Y381364D01*
X414613Y381430D01*
X414701Y381494D01*
X414792Y381555D01*
X414884Y381612D01*
X414979Y381666D01*
X415075Y381716D01*
X415174Y381763D01*
X415273Y381807D01*
X415375Y381847D01*
X415477Y381883D01*
X415581Y381915D01*
X415686Y381944D01*
X415792Y381969D01*
X415899Y381991D01*
X416007Y382008D01*
X416115Y382022D01*
X416223Y382031D01*
X416332Y382037D01*
X416441Y382039D01*
X416550Y382037D01*
X416659Y382031D01*
X416767Y382022D01*
X416875Y382008D01*
X416983Y381991D01*
X417090Y381969D01*
X417196Y381944D01*
X417301Y381915D01*
X417405Y381883D01*
X417507Y381847D01*
X417609Y381807D01*
X417708Y381763D01*
X417807Y381716D01*
X417903Y381666D01*
X417998Y381612D01*
X418090Y381555D01*
X418181Y381494D01*
X418269Y381430D01*
X418355Y381364D01*
X418439Y381294D01*
X418520Y381221D01*
X418598Y381145D01*
X418674Y381067D01*
X418747Y380986D01*
X418817Y380902D01*
X418883Y380816D01*
X418947Y380728D01*
X419008Y380637D01*
X419065Y380545D01*
X419119Y380450D01*
X419169Y380354D01*
X419216Y380255D01*
X419260Y380156D01*
X419300Y380054D01*
X419336Y379952D01*
X419368Y379848D01*
X419397Y379743D01*
X419422Y379637D01*
X419444Y379530D01*
X419461Y379422D01*
X419475Y379314D01*
X419484Y379206D01*
X419490Y379097D01*
X419492Y378988D01*
X419490Y378879D01*
X419484Y378770D01*
X419475Y378662D01*
X419461Y378554D01*
X419444Y378446D01*
X419422Y378339D01*
X419397Y378233D01*
X419368Y378128D01*
X419336Y378024D01*
X419300Y377922D01*
X419260Y377820D01*
X419216Y377721D01*
X419169Y377622D01*
X419119Y377526D01*
X419065Y377431D01*
X419008Y377339D01*
X418947Y377248D01*
X418883Y377160D01*
X418817Y377074D01*
X418747Y376990D01*
X418674Y376909D01*
X418598Y376831D01*
X418520Y376755D01*
X418439Y376682D01*
X418355Y376612D01*
X418269Y376546D01*
X418181Y376482D01*
X418090Y376421D01*
X417998Y376364D01*
X417903Y376310D01*
X417807Y376260D01*
X417708Y376213D01*
X417609Y376169D01*
X417507Y376129D01*
X417405Y376093D01*
X417301Y376061D01*
X417196Y376032D01*
X417090Y376007D01*
X416983Y375985D01*
X416875Y375968D01*
X416767Y375954D01*
X416659Y375945D01*
X416550Y375939D01*
X416441Y375937D01*
X410949Y376547D02*
X410852Y376549D01*
X410755Y376555D01*
X410658Y376564D01*
X410562Y376578D01*
X410467Y376595D01*
X410372Y376616D01*
X410278Y376641D01*
X410185Y376669D01*
X410094Y376702D01*
X410004Y376737D01*
X409915Y376777D01*
X409828Y376820D01*
X409743Y376866D01*
X409659Y376916D01*
X409578Y376969D01*
X409499Y377025D01*
X409422Y377084D01*
X409347Y377146D01*
X409275Y377211D01*
X409206Y377279D01*
X409139Y377350D01*
X409076Y377423D01*
X409015Y377499D01*
X408957Y377577D01*
X408903Y377657D01*
X408851Y377740D01*
X408803Y377824D01*
X408759Y377910D01*
X408718Y377998D01*
X408680Y378088D01*
X408646Y378179D01*
X408616Y378271D01*
X408589Y378364D01*
X408566Y378458D01*
X408547Y378554D01*
X408532Y378649D01*
X408520Y378746D01*
X408512Y378842D01*
X408508Y378939D01*
X408508Y379037D01*
X408512Y379134D01*
X408520Y379230D01*
X408532Y379327D01*
X408547Y379422D01*
X408566Y379518D01*
X408589Y379612D01*
X408616Y379705D01*
X408646Y379797D01*
X408680Y379888D01*
X408718Y379978D01*
X408759Y380066D01*
X408803Y380152D01*
X408851Y380236D01*
X408903Y380319D01*
X408957Y380399D01*
X409015Y380477D01*
X409076Y380553D01*
X409139Y380626D01*
X409206Y380697D01*
X409275Y380765D01*
X409347Y380830D01*
X409422Y380892D01*
X409499Y380951D01*
X409578Y381007D01*
X409659Y381060D01*
X409743Y381110D01*
X409828Y381156D01*
X409915Y381199D01*
X410004Y381239D01*
X410094Y381274D01*
X410185Y381307D01*
X410278Y381335D01*
X410372Y381360D01*
X410467Y381381D01*
X410562Y381398D01*
X410658Y381412D01*
X410755Y381421D01*
X410852Y381427D01*
X410949Y381429D01*
X411046Y381427D01*
X411143Y381421D01*
X411240Y381412D01*
X411336Y381398D01*
X411431Y381381D01*
X411526Y381360D01*
X411620Y381335D01*
X411713Y381307D01*
X411804Y381274D01*
X411894Y381239D01*
X411983Y381199D01*
X412070Y381156D01*
X412155Y381110D01*
X412239Y381060D01*
X412320Y381007D01*
X412399Y380951D01*
X412476Y380892D01*
X412551Y380830D01*
X412623Y380765D01*
X412692Y380697D01*
X412759Y380626D01*
X412822Y380553D01*
X412883Y380477D01*
X412941Y380399D01*
X412995Y380319D01*
X413047Y380236D01*
X413095Y380152D01*
X413139Y380066D01*
X413180Y379978D01*
X413218Y379888D01*
X413252Y379797D01*
X413282Y379705D01*
X413309Y379612D01*
X413332Y379518D01*
X413351Y379422D01*
X413366Y379327D01*
X413378Y379230D01*
X413386Y379134D01*
X413390Y379037D01*
X413390Y378939D01*
X413386Y378842D01*
X413378Y378746D01*
X413366Y378649D01*
X413351Y378554D01*
X413332Y378458D01*
X413309Y378364D01*
X413282Y378271D01*
X413252Y378179D01*
X413218Y378088D01*
X413180Y377998D01*
X413139Y377910D01*
X413095Y377824D01*
X413047Y377740D01*
X412995Y377657D01*
X412941Y377577D01*
X412883Y377499D01*
X412822Y377423D01*
X412759Y377350D01*
X412692Y377279D01*
X412623Y377211D01*
X412551Y377146D01*
X412476Y377084D01*
X412399Y377025D01*
X412320Y376969D01*
X412239Y376916D01*
X412155Y376866D01*
X412070Y376820D01*
X411983Y376777D01*
X411894Y376737D01*
X411804Y376702D01*
X411713Y376669D01*
X411620Y376641D01*
X411526Y376616D01*
X411431Y376595D01*
X411336Y376578D01*
X411240Y376564D01*
X411143Y376555D01*
X411046Y376549D01*
X410949Y376547D01*
X416441Y386737D02*
X416332Y386739D01*
X416223Y386745D01*
X416115Y386754D01*
X416007Y386768D01*
X415899Y386785D01*
X415792Y386807D01*
X415686Y386832D01*
X415581Y386861D01*
X415477Y386893D01*
X415375Y386929D01*
X415273Y386969D01*
X415174Y387013D01*
X415075Y387060D01*
X414979Y387110D01*
X414884Y387164D01*
X414792Y387221D01*
X414701Y387282D01*
X414613Y387346D01*
X414527Y387412D01*
X414443Y387482D01*
X414362Y387555D01*
X414284Y387631D01*
X414208Y387709D01*
X414135Y387790D01*
X414065Y387874D01*
X413999Y387960D01*
X413935Y388048D01*
X413874Y388139D01*
X413817Y388231D01*
X413763Y388326D01*
X413713Y388422D01*
X413666Y388521D01*
X413622Y388620D01*
X413582Y388722D01*
X413546Y388824D01*
X413514Y388928D01*
X413485Y389033D01*
X413460Y389139D01*
X413438Y389246D01*
X413421Y389354D01*
X413407Y389462D01*
X413398Y389570D01*
X413392Y389679D01*
X413390Y389788D01*
X413392Y389897D01*
X413398Y390006D01*
X413407Y390114D01*
X413421Y390222D01*
X413438Y390330D01*
X413460Y390437D01*
X413485Y390543D01*
X413514Y390648D01*
X413546Y390752D01*
X413582Y390854D01*
X413622Y390956D01*
X413666Y391055D01*
X413713Y391154D01*
X413763Y391250D01*
X413817Y391345D01*
X413874Y391437D01*
X413935Y391528D01*
X413999Y391616D01*
X414065Y391702D01*
X414135Y391786D01*
X414208Y391867D01*
X414284Y391945D01*
X414362Y392021D01*
X414443Y392094D01*
X414527Y392164D01*
X414613Y392230D01*
X414701Y392294D01*
X414792Y392355D01*
X414884Y392412D01*
X414979Y392466D01*
X415075Y392516D01*
X415174Y392563D01*
X415273Y392607D01*
X415375Y392647D01*
X415477Y392683D01*
X415581Y392715D01*
X415686Y392744D01*
X415792Y392769D01*
X415899Y392791D01*
X416007Y392808D01*
X416115Y392822D01*
X416223Y392831D01*
X416332Y392837D01*
X416441Y392839D01*
X416550Y392837D01*
X416659Y392831D01*
X416767Y392822D01*
X416875Y392808D01*
X416983Y392791D01*
X417090Y392769D01*
X417196Y392744D01*
X417301Y392715D01*
X417405Y392683D01*
X417507Y392647D01*
X417609Y392607D01*
X417708Y392563D01*
X417807Y392516D01*
X417903Y392466D01*
X417998Y392412D01*
X418090Y392355D01*
X418181Y392294D01*
X418269Y392230D01*
X418355Y392164D01*
X418439Y392094D01*
X418520Y392021D01*
X418598Y391945D01*
X418674Y391867D01*
X418747Y391786D01*
X418817Y391702D01*
X418883Y391616D01*
X418947Y391528D01*
X419008Y391437D01*
X419065Y391345D01*
X419119Y391250D01*
X419169Y391154D01*
X419216Y391055D01*
X419260Y390956D01*
X419300Y390854D01*
X419336Y390752D01*
X419368Y390648D01*
X419397Y390543D01*
X419422Y390437D01*
X419444Y390330D01*
X419461Y390222D01*
X419475Y390114D01*
X419484Y390006D01*
X419490Y389897D01*
X419492Y389788D01*
X419490Y389679D01*
X419484Y389570D01*
X419475Y389462D01*
X419461Y389354D01*
X419444Y389246D01*
X419422Y389139D01*
X419397Y389033D01*
X419368Y388928D01*
X419336Y388824D01*
X419300Y388722D01*
X419260Y388620D01*
X419216Y388521D01*
X419169Y388422D01*
X419119Y388326D01*
X419065Y388231D01*
X419008Y388139D01*
X418947Y388048D01*
X418883Y387960D01*
X418817Y387874D01*
X418747Y387790D01*
X418674Y387709D01*
X418598Y387631D01*
X418520Y387555D01*
X418439Y387482D01*
X418355Y387412D01*
X418269Y387346D01*
X418181Y387282D01*
X418090Y387221D01*
X417998Y387164D01*
X417903Y387110D01*
X417807Y387060D01*
X417708Y387013D01*
X417609Y386969D01*
X417507Y386929D01*
X417405Y386893D01*
X417301Y386861D01*
X417196Y386832D01*
X417090Y386807D01*
X416983Y386785D01*
X416875Y386768D01*
X416767Y386754D01*
X416659Y386745D01*
X416550Y386739D01*
X416441Y386737D01*
X410949Y387347D02*
X410852Y387349D01*
X410755Y387355D01*
X410658Y387364D01*
X410562Y387378D01*
X410467Y387395D01*
X410372Y387416D01*
X410278Y387441D01*
X410185Y387469D01*
X410094Y387502D01*
X410004Y387537D01*
X409915Y387577D01*
X409828Y387620D01*
X409743Y387666D01*
X409659Y387716D01*
X409578Y387769D01*
X409499Y387825D01*
X409422Y387884D01*
X409347Y387946D01*
X409275Y388011D01*
X409206Y388079D01*
X409139Y388150D01*
X409076Y388223D01*
X409015Y388299D01*
X408957Y388377D01*
X408903Y388457D01*
X408851Y388540D01*
X408803Y388624D01*
X408759Y388710D01*
X408718Y388798D01*
X408680Y388888D01*
X408646Y388979D01*
X408616Y389071D01*
X408589Y389164D01*
X408566Y389258D01*
X408547Y389354D01*
X408532Y389449D01*
X408520Y389546D01*
X408512Y389642D01*
X408508Y389739D01*
X408508Y389837D01*
X408512Y389934D01*
X408520Y390030D01*
X408532Y390127D01*
X408547Y390222D01*
X408566Y390318D01*
X408589Y390412D01*
X408616Y390505D01*
X408646Y390597D01*
X408680Y390688D01*
X408718Y390778D01*
X408759Y390866D01*
X408803Y390952D01*
X408851Y391036D01*
X408903Y391119D01*
X408957Y391199D01*
X409015Y391277D01*
X409076Y391353D01*
X409139Y391426D01*
X409206Y391497D01*
X409275Y391565D01*
X409347Y391630D01*
X409422Y391692D01*
X409499Y391751D01*
X409578Y391807D01*
X409659Y391860D01*
X409743Y391910D01*
X409828Y391956D01*
X409915Y391999D01*
X410004Y392039D01*
X410094Y392074D01*
X410185Y392107D01*
X410278Y392135D01*
X410372Y392160D01*
X410467Y392181D01*
X410562Y392198D01*
X410658Y392212D01*
X410755Y392221D01*
X410852Y392227D01*
X410949Y392229D01*
X411046Y392227D01*
X411143Y392221D01*
X411240Y392212D01*
X411336Y392198D01*
X411431Y392181D01*
X411526Y392160D01*
X411620Y392135D01*
X411713Y392107D01*
X411804Y392074D01*
X411894Y392039D01*
X411983Y391999D01*
X412070Y391956D01*
X412155Y391910D01*
X412239Y391860D01*
X412320Y391807D01*
X412399Y391751D01*
X412476Y391692D01*
X412551Y391630D01*
X412623Y391565D01*
X412692Y391497D01*
X412759Y391426D01*
X412822Y391353D01*
X412883Y391277D01*
X412941Y391199D01*
X412995Y391119D01*
X413047Y391036D01*
X413095Y390952D01*
X413139Y390866D01*
X413180Y390778D01*
X413218Y390688D01*
X413252Y390597D01*
X413282Y390505D01*
X413309Y390412D01*
X413332Y390318D01*
X413351Y390222D01*
X413366Y390127D01*
X413378Y390030D01*
X413386Y389934D01*
X413390Y389837D01*
X413390Y389739D01*
X413386Y389642D01*
X413378Y389546D01*
X413366Y389449D01*
X413351Y389354D01*
X413332Y389258D01*
X413309Y389164D01*
X413282Y389071D01*
X413252Y388979D01*
X413218Y388888D01*
X413180Y388798D01*
X413139Y388710D01*
X413095Y388624D01*
X413047Y388540D01*
X412995Y388457D01*
X412941Y388377D01*
X412883Y388299D01*
X412822Y388223D01*
X412759Y388150D01*
X412692Y388079D01*
X412623Y388011D01*
X412551Y387946D01*
X412476Y387884D01*
X412399Y387825D01*
X412320Y387769D01*
X412239Y387716D01*
X412155Y387666D01*
X412070Y387620D01*
X411983Y387577D01*
X411894Y387537D01*
X411804Y387502D01*
X411713Y387469D01*
X411620Y387441D01*
X411526Y387416D01*
X411431Y387395D01*
X411336Y387378D01*
X411240Y387364D01*
X411143Y387355D01*
X411046Y387349D01*
X410949Y387347D01*
X420712Y397067D02*
X420712Y401949D01*
X419492Y408586D02*
X419492Y411027D01*
X419492Y408586D02*
X419490Y408490D01*
X419484Y408394D01*
X419475Y408299D01*
X419462Y408204D01*
X419445Y408110D01*
X419425Y408016D01*
X419400Y407923D01*
X419373Y407832D01*
X419341Y407741D01*
X419306Y407652D01*
X419268Y407564D01*
X419226Y407478D01*
X419181Y407393D01*
X419132Y407311D01*
X419081Y407230D01*
X419026Y407151D01*
X418968Y407075D01*
X418907Y407001D01*
X418843Y406929D01*
X418777Y406860D01*
X418708Y406794D01*
X418636Y406730D01*
X418562Y406669D01*
X418486Y406611D01*
X418407Y406556D01*
X418326Y406505D01*
X418244Y406456D01*
X418159Y406411D01*
X418073Y406369D01*
X417985Y406331D01*
X417896Y406296D01*
X417805Y406264D01*
X417714Y406237D01*
X417621Y406212D01*
X417527Y406192D01*
X417433Y406175D01*
X417338Y406162D01*
X417243Y406153D01*
X417147Y406147D01*
X417051Y406145D01*
X410949Y406145D01*
X410851Y406147D01*
X410753Y406153D01*
X410655Y406163D01*
X410557Y406177D01*
X410461Y406194D01*
X410365Y406216D01*
X410270Y406241D01*
X410176Y406271D01*
X410083Y406304D01*
X409992Y406340D01*
X409903Y406381D01*
X409815Y406425D01*
X409729Y406472D01*
X409644Y406523D01*
X409562Y406577D01*
X409483Y406635D01*
X409405Y406695D01*
X409330Y406759D01*
X409258Y406826D01*
X409189Y406895D01*
X409122Y406967D01*
X409058Y407042D01*
X408998Y407120D01*
X408940Y407199D01*
X408886Y407281D01*
X408835Y407365D01*
X408788Y407452D01*
X408744Y407540D01*
X408703Y407629D01*
X408667Y407720D01*
X408634Y407813D01*
X408604Y407907D01*
X408579Y408002D01*
X408557Y408098D01*
X408540Y408194D01*
X408526Y408292D01*
X408516Y408390D01*
X408510Y408488D01*
X408508Y408586D01*
X408508Y411027D01*
X415220Y417146D02*
X415220Y419892D01*
X415220Y417146D02*
X415222Y417055D01*
X415228Y416965D01*
X415237Y416875D01*
X415251Y416785D01*
X415268Y416696D01*
X415289Y416608D01*
X415314Y416521D01*
X415342Y416434D01*
X415374Y416350D01*
X415410Y416266D01*
X415449Y416184D01*
X415491Y416104D01*
X415537Y416026D01*
X415586Y415950D01*
X415639Y415876D01*
X415694Y415804D01*
X415753Y415735D01*
X415814Y415668D01*
X415878Y415604D01*
X415945Y415543D01*
X416014Y415484D01*
X416086Y415429D01*
X416160Y415376D01*
X416236Y415327D01*
X416314Y415281D01*
X416394Y415239D01*
X416476Y415200D01*
X416560Y415164D01*
X416644Y415132D01*
X416731Y415104D01*
X416818Y415079D01*
X416906Y415058D01*
X416995Y415041D01*
X417085Y415027D01*
X417175Y415018D01*
X417265Y415012D01*
X417356Y415010D01*
X417447Y415012D01*
X417537Y415018D01*
X417627Y415027D01*
X417717Y415041D01*
X417806Y415058D01*
X417894Y415079D01*
X417981Y415104D01*
X418068Y415132D01*
X418152Y415164D01*
X418236Y415200D01*
X418318Y415239D01*
X418398Y415281D01*
X418476Y415327D01*
X418552Y415376D01*
X418626Y415429D01*
X418698Y415484D01*
X418767Y415543D01*
X418834Y415604D01*
X418898Y415668D01*
X418959Y415735D01*
X419018Y415804D01*
X419073Y415876D01*
X419126Y415950D01*
X419175Y416026D01*
X419221Y416104D01*
X419263Y416184D01*
X419302Y416266D01*
X419338Y416350D01*
X419370Y416434D01*
X419398Y416521D01*
X419423Y416608D01*
X419444Y416696D01*
X419461Y416785D01*
X419475Y416875D01*
X419484Y416965D01*
X419490Y417055D01*
X419492Y417146D01*
X419492Y419892D01*
X414000Y419892D01*
X413915Y419890D01*
X413831Y419884D01*
X413747Y419874D01*
X413664Y419861D01*
X413581Y419843D01*
X413499Y419822D01*
X413418Y419797D01*
X413339Y419768D01*
X413260Y419736D01*
X413184Y419700D01*
X413109Y419661D01*
X413036Y419618D01*
X412965Y419572D01*
X412897Y419522D01*
X412830Y419470D01*
X412766Y419414D01*
X412705Y419356D01*
X412647Y419295D01*
X412591Y419231D01*
X412539Y419164D01*
X412489Y419096D01*
X412443Y419025D01*
X412400Y418952D01*
X412361Y418877D01*
X412325Y418801D01*
X412293Y418722D01*
X412264Y418643D01*
X412239Y418562D01*
X412218Y418480D01*
X412200Y418397D01*
X412187Y418314D01*
X412177Y418230D01*
X412171Y418146D01*
X412169Y418061D01*
X412169Y415620D01*
X412169Y423868D02*
X412169Y427529D01*
X408508Y425088D02*
X417661Y425088D01*
X417746Y425090D01*
X417830Y425096D01*
X417914Y425106D01*
X417997Y425119D01*
X418080Y425137D01*
X418162Y425158D01*
X418243Y425183D01*
X418322Y425212D01*
X418401Y425244D01*
X418477Y425280D01*
X418552Y425319D01*
X418625Y425362D01*
X418696Y425408D01*
X418764Y425458D01*
X418831Y425510D01*
X418895Y425566D01*
X418956Y425624D01*
X419014Y425685D01*
X419070Y425749D01*
X419122Y425816D01*
X419172Y425884D01*
X419218Y425955D01*
X419261Y426028D01*
X419300Y426103D01*
X419336Y426179D01*
X419368Y426258D01*
X419397Y426337D01*
X419422Y426418D01*
X419443Y426500D01*
X419461Y426583D01*
X419474Y426666D01*
X419484Y426750D01*
X419490Y426834D01*
X419492Y426919D01*
X419492Y427529D01*
X419492Y433471D02*
X419492Y435912D01*
X419492Y433471D02*
X419490Y433386D01*
X419484Y433302D01*
X419474Y433218D01*
X419461Y433135D01*
X419443Y433052D01*
X419422Y432970D01*
X419397Y432889D01*
X419368Y432810D01*
X419336Y432731D01*
X419300Y432655D01*
X419261Y432580D01*
X419218Y432507D01*
X419172Y432436D01*
X419122Y432368D01*
X419070Y432301D01*
X419014Y432237D01*
X418956Y432176D01*
X418895Y432118D01*
X418831Y432062D01*
X418764Y432010D01*
X418696Y431960D01*
X418625Y431914D01*
X418552Y431871D01*
X418477Y431832D01*
X418401Y431796D01*
X418322Y431764D01*
X418243Y431735D01*
X418162Y431710D01*
X418080Y431689D01*
X417997Y431671D01*
X417914Y431658D01*
X417830Y431648D01*
X417746Y431642D01*
X417661Y431640D01*
X414000Y431640D01*
X413915Y431642D01*
X413831Y431648D01*
X413747Y431658D01*
X413664Y431671D01*
X413581Y431689D01*
X413499Y431710D01*
X413418Y431735D01*
X413339Y431764D01*
X413260Y431796D01*
X413184Y431832D01*
X413109Y431871D01*
X413036Y431914D01*
X412965Y431960D01*
X412897Y432010D01*
X412830Y432062D01*
X412766Y432118D01*
X412705Y432176D01*
X412647Y432237D01*
X412591Y432301D01*
X412539Y432368D01*
X412489Y432436D01*
X412443Y432507D01*
X412400Y432580D01*
X412361Y432655D01*
X412325Y432731D01*
X412293Y432810D01*
X412264Y432889D01*
X412239Y432970D01*
X412218Y433052D01*
X412200Y433135D01*
X412187Y433218D01*
X412177Y433302D01*
X412171Y433386D01*
X412169Y433471D01*
X412169Y435912D01*
X408508Y440267D02*
X419492Y440267D01*
X412169Y440267D02*
X412169Y443318D01*
X412171Y443403D01*
X412177Y443487D01*
X412187Y443571D01*
X412200Y443654D01*
X412218Y443737D01*
X412239Y443819D01*
X412264Y443900D01*
X412293Y443979D01*
X412325Y444058D01*
X412361Y444134D01*
X412400Y444209D01*
X412443Y444282D01*
X412489Y444353D01*
X412539Y444421D01*
X412591Y444488D01*
X412647Y444552D01*
X412705Y444613D01*
X412766Y444671D01*
X412830Y444727D01*
X412897Y444779D01*
X412965Y444829D01*
X413036Y444875D01*
X413109Y444918D01*
X413184Y444957D01*
X413260Y444993D01*
X413339Y445025D01*
X413418Y445054D01*
X413499Y445079D01*
X413581Y445100D01*
X413664Y445118D01*
X413747Y445131D01*
X413831Y445141D01*
X413915Y445147D01*
X414000Y445149D01*
X419492Y445149D01*
X419492Y452428D02*
X408508Y452428D01*
X408508Y449377D02*
X408508Y455479D01*
X408508Y459707D02*
X419492Y459707D01*
X412169Y459707D02*
X412169Y462758D01*
X412171Y462843D01*
X412177Y462927D01*
X412187Y463011D01*
X412200Y463094D01*
X412218Y463177D01*
X412239Y463259D01*
X412264Y463340D01*
X412293Y463419D01*
X412325Y463498D01*
X412361Y463574D01*
X412400Y463649D01*
X412443Y463722D01*
X412489Y463793D01*
X412539Y463861D01*
X412591Y463928D01*
X412647Y463992D01*
X412705Y464053D01*
X412766Y464111D01*
X412830Y464167D01*
X412897Y464219D01*
X412965Y464269D01*
X413036Y464315D01*
X413109Y464358D01*
X413184Y464397D01*
X413260Y464433D01*
X413339Y464465D01*
X413418Y464494D01*
X413499Y464519D01*
X413581Y464540D01*
X413664Y464558D01*
X413747Y464571D01*
X413831Y464581D01*
X413915Y464587D01*
X414000Y464589D01*
X419492Y464589D01*
X419492Y471258D02*
X419492Y474309D01*
X419492Y471258D02*
X419490Y471173D01*
X419484Y471089D01*
X419474Y471005D01*
X419461Y470922D01*
X419443Y470839D01*
X419422Y470757D01*
X419397Y470676D01*
X419368Y470597D01*
X419336Y470518D01*
X419300Y470442D01*
X419261Y470367D01*
X419218Y470294D01*
X419172Y470223D01*
X419122Y470155D01*
X419070Y470088D01*
X419014Y470024D01*
X418956Y469963D01*
X418895Y469905D01*
X418831Y469849D01*
X418764Y469797D01*
X418696Y469747D01*
X418625Y469701D01*
X418552Y469658D01*
X418477Y469619D01*
X418401Y469583D01*
X418322Y469551D01*
X418243Y469522D01*
X418162Y469497D01*
X418080Y469476D01*
X417997Y469458D01*
X417914Y469445D01*
X417830Y469435D01*
X417746Y469429D01*
X417661Y469427D01*
X414610Y469427D01*
X414513Y469429D01*
X414416Y469435D01*
X414319Y469444D01*
X414223Y469458D01*
X414128Y469475D01*
X414033Y469496D01*
X413939Y469521D01*
X413846Y469549D01*
X413755Y469582D01*
X413665Y469617D01*
X413576Y469657D01*
X413489Y469700D01*
X413404Y469746D01*
X413320Y469796D01*
X413239Y469849D01*
X413160Y469905D01*
X413083Y469964D01*
X413008Y470026D01*
X412936Y470091D01*
X412867Y470159D01*
X412800Y470230D01*
X412737Y470303D01*
X412676Y470379D01*
X412618Y470457D01*
X412564Y470537D01*
X412512Y470620D01*
X412464Y470704D01*
X412420Y470790D01*
X412379Y470878D01*
X412341Y470968D01*
X412307Y471059D01*
X412277Y471151D01*
X412250Y471244D01*
X412227Y471338D01*
X412208Y471434D01*
X412193Y471529D01*
X412181Y471626D01*
X412173Y471722D01*
X412169Y471819D01*
X412169Y471917D01*
X412173Y472014D01*
X412181Y472110D01*
X412193Y472207D01*
X412208Y472302D01*
X412227Y472398D01*
X412250Y472492D01*
X412277Y472585D01*
X412307Y472677D01*
X412341Y472768D01*
X412379Y472858D01*
X412420Y472946D01*
X412464Y473032D01*
X412512Y473116D01*
X412564Y473199D01*
X412618Y473279D01*
X412676Y473357D01*
X412737Y473433D01*
X412800Y473506D01*
X412867Y473577D01*
X412936Y473645D01*
X413008Y473710D01*
X413083Y473772D01*
X413160Y473831D01*
X413239Y473887D01*
X413320Y473940D01*
X413404Y473990D01*
X413489Y474036D01*
X413576Y474079D01*
X413665Y474119D01*
X413755Y474154D01*
X413846Y474187D01*
X413939Y474215D01*
X414033Y474240D01*
X414128Y474261D01*
X414223Y474278D01*
X414319Y474292D01*
X414416Y474301D01*
X414513Y474307D01*
X414610Y474309D01*
X415831Y474309D01*
X415831Y469427D01*
X419492Y479279D02*
X408508Y479279D01*
X419492Y479279D02*
X419492Y484161D01*
X419492Y488068D02*
X412169Y488068D01*
X409118Y487763D02*
X408508Y487763D01*
X408508Y488373D01*
X409118Y488373D01*
X409118Y487763D01*
X419492Y494240D02*
X419492Y497292D01*
X419492Y494240D02*
X419490Y494155D01*
X419484Y494071D01*
X419474Y493987D01*
X419461Y493904D01*
X419443Y493821D01*
X419422Y493739D01*
X419397Y493658D01*
X419368Y493579D01*
X419336Y493500D01*
X419300Y493424D01*
X419261Y493349D01*
X419218Y493276D01*
X419172Y493205D01*
X419122Y493137D01*
X419070Y493070D01*
X419014Y493006D01*
X418956Y492945D01*
X418895Y492887D01*
X418831Y492831D01*
X418764Y492779D01*
X418696Y492729D01*
X418625Y492683D01*
X418552Y492640D01*
X418477Y492601D01*
X418401Y492565D01*
X418322Y492533D01*
X418243Y492504D01*
X418162Y492479D01*
X418080Y492458D01*
X417997Y492440D01*
X417914Y492427D01*
X417830Y492417D01*
X417746Y492411D01*
X417661Y492409D01*
X417661Y492410D02*
X414000Y492410D01*
X414000Y492409D02*
X413915Y492411D01*
X413831Y492417D01*
X413747Y492427D01*
X413664Y492440D01*
X413581Y492458D01*
X413499Y492479D01*
X413418Y492504D01*
X413339Y492533D01*
X413260Y492565D01*
X413184Y492601D01*
X413109Y492640D01*
X413036Y492683D01*
X412965Y492729D01*
X412897Y492779D01*
X412830Y492831D01*
X412766Y492887D01*
X412705Y492945D01*
X412647Y493006D01*
X412591Y493070D01*
X412539Y493137D01*
X412489Y493205D01*
X412443Y493276D01*
X412400Y493349D01*
X412361Y493424D01*
X412325Y493500D01*
X412293Y493579D01*
X412264Y493658D01*
X412239Y493739D01*
X412218Y493821D01*
X412200Y493904D01*
X412187Y493987D01*
X412177Y494071D01*
X412171Y494155D01*
X412169Y494240D01*
X412169Y497292D01*
X421323Y497292D01*
X421408Y497290D01*
X421492Y497284D01*
X421576Y497274D01*
X421659Y497261D01*
X421742Y497243D01*
X421824Y497222D01*
X421905Y497197D01*
X421984Y497168D01*
X422063Y497136D01*
X422139Y497100D01*
X422214Y497061D01*
X422287Y497018D01*
X422358Y496972D01*
X422426Y496922D01*
X422493Y496870D01*
X422557Y496814D01*
X422618Y496756D01*
X422676Y496695D01*
X422732Y496631D01*
X422784Y496564D01*
X422834Y496496D01*
X422880Y496425D01*
X422923Y496352D01*
X422962Y496277D01*
X422998Y496201D01*
X423030Y496122D01*
X423059Y496043D01*
X423084Y495962D01*
X423105Y495880D01*
X423123Y495797D01*
X423136Y495714D01*
X423146Y495630D01*
X423152Y495546D01*
X423154Y495461D01*
X423153Y495461D02*
X423153Y493020D01*
X419492Y502547D02*
X408508Y502547D01*
X412169Y502547D02*
X412169Y505598D01*
X412171Y505683D01*
X412177Y505767D01*
X412187Y505851D01*
X412200Y505934D01*
X412218Y506017D01*
X412239Y506099D01*
X412264Y506180D01*
X412293Y506259D01*
X412325Y506338D01*
X412361Y506414D01*
X412400Y506489D01*
X412443Y506562D01*
X412489Y506633D01*
X412539Y506701D01*
X412591Y506768D01*
X412647Y506832D01*
X412705Y506893D01*
X412766Y506951D01*
X412830Y507007D01*
X412897Y507059D01*
X412965Y507109D01*
X413036Y507155D01*
X413109Y507198D01*
X413184Y507237D01*
X413260Y507273D01*
X413339Y507305D01*
X413418Y507334D01*
X413499Y507359D01*
X413581Y507380D01*
X413664Y507398D01*
X413747Y507411D01*
X413831Y507421D01*
X413915Y507427D01*
X414000Y507429D01*
X419492Y507429D01*
X412169Y511347D02*
X412169Y515009D01*
X408508Y512568D02*
X417661Y512568D01*
X417661Y512567D02*
X417746Y512569D01*
X417830Y512575D01*
X417914Y512585D01*
X417997Y512598D01*
X418080Y512616D01*
X418162Y512637D01*
X418243Y512662D01*
X418322Y512691D01*
X418401Y512723D01*
X418477Y512759D01*
X418552Y512798D01*
X418625Y512841D01*
X418696Y512887D01*
X418764Y512937D01*
X418831Y512989D01*
X418895Y513045D01*
X418956Y513103D01*
X419014Y513164D01*
X419070Y513228D01*
X419122Y513295D01*
X419172Y513363D01*
X419218Y513434D01*
X419261Y513507D01*
X419300Y513582D01*
X419336Y513658D01*
X419368Y513737D01*
X419397Y513816D01*
X419422Y513897D01*
X419443Y513979D01*
X419461Y514062D01*
X419474Y514145D01*
X419484Y514229D01*
X419490Y514313D01*
X419492Y514398D01*
X419492Y514399D02*
X419492Y515009D01*
X419492Y522268D02*
X408508Y518607D01*
X408508Y525929D02*
X419492Y522268D01*
X408508Y533373D02*
X408510Y533476D01*
X408516Y533578D01*
X408525Y533680D01*
X408539Y533782D01*
X408556Y533884D01*
X408577Y533984D01*
X408602Y534084D01*
X408630Y534182D01*
X408662Y534280D01*
X408698Y534376D01*
X408737Y534471D01*
X408780Y534564D01*
X408826Y534656D01*
X408876Y534746D01*
X408929Y534834D01*
X408985Y534920D01*
X409045Y535004D01*
X409107Y535085D01*
X409173Y535164D01*
X409241Y535241D01*
X409312Y535315D01*
X409386Y535386D01*
X409463Y535454D01*
X409542Y535520D01*
X409623Y535582D01*
X409707Y535642D01*
X409793Y535698D01*
X409881Y535751D01*
X409971Y535801D01*
X410063Y535847D01*
X410156Y535890D01*
X410251Y535929D01*
X410347Y535965D01*
X410445Y535997D01*
X410543Y536025D01*
X410643Y536050D01*
X410743Y536071D01*
X410845Y536088D01*
X410947Y536102D01*
X411049Y536111D01*
X411151Y536117D01*
X411254Y536119D01*
X408508Y533373D02*
X408510Y533256D01*
X408516Y533140D01*
X408525Y533023D01*
X408539Y532907D01*
X408556Y532792D01*
X408577Y532677D01*
X408602Y532563D01*
X408631Y532450D01*
X408663Y532338D01*
X408699Y532227D01*
X408739Y532117D01*
X408783Y532008D01*
X408830Y531902D01*
X408880Y531796D01*
X408934Y531693D01*
X408991Y531591D01*
X409052Y531491D01*
X409116Y531393D01*
X409183Y531298D01*
X409253Y531205D01*
X409326Y531114D01*
X409403Y531025D01*
X409482Y530939D01*
X409564Y530856D01*
X409648Y530776D01*
X409735Y530698D01*
X409825Y530624D01*
X409917Y530552D01*
X410012Y530483D01*
X410109Y530418D01*
X410207Y530356D01*
X410308Y530297D01*
X410411Y530242D01*
X410516Y530189D01*
X410622Y530141D01*
X410729Y530096D01*
X410839Y530054D01*
X410949Y530017D01*
X413390Y535204D02*
X413317Y535278D01*
X413241Y535349D01*
X413163Y535418D01*
X413083Y535483D01*
X413000Y535546D01*
X412916Y535606D01*
X412829Y535663D01*
X412740Y535717D01*
X412649Y535768D01*
X412557Y535815D01*
X412463Y535860D01*
X412368Y535901D01*
X412271Y535938D01*
X412173Y535972D01*
X412074Y536003D01*
X411973Y536030D01*
X411872Y536053D01*
X411770Y536073D01*
X411668Y536090D01*
X411565Y536103D01*
X411461Y536112D01*
X411358Y536117D01*
X411254Y536119D01*
X413390Y535204D02*
X419492Y530017D01*
X419492Y536119D01*
D13*
X102254Y342842D02*
X102254Y337254D01*
X105358Y337254D02*
X102254Y342842D01*
X105358Y342842D02*
X105358Y337254D01*
X108799Y337254D02*
X110351Y337254D01*
X108799Y337254D02*
X108741Y337256D01*
X108682Y337261D01*
X108625Y337270D01*
X108567Y337283D01*
X108511Y337300D01*
X108456Y337319D01*
X108403Y337343D01*
X108350Y337369D01*
X108300Y337399D01*
X108252Y337432D01*
X108206Y337468D01*
X108162Y337506D01*
X108120Y337548D01*
X108082Y337592D01*
X108046Y337638D01*
X108013Y337686D01*
X107983Y337736D01*
X107957Y337789D01*
X107933Y337842D01*
X107914Y337897D01*
X107897Y337953D01*
X107884Y338011D01*
X107875Y338068D01*
X107870Y338127D01*
X107868Y338185D01*
X107868Y339738D01*
X107870Y339808D01*
X107876Y339877D01*
X107886Y339946D01*
X107899Y340014D01*
X107917Y340082D01*
X107938Y340148D01*
X107963Y340213D01*
X107991Y340277D01*
X108023Y340339D01*
X108058Y340399D01*
X108097Y340457D01*
X108139Y340512D01*
X108184Y340566D01*
X108232Y340616D01*
X108282Y340664D01*
X108336Y340709D01*
X108391Y340751D01*
X108449Y340790D01*
X108509Y340825D01*
X108571Y340857D01*
X108635Y340885D01*
X108700Y340910D01*
X108766Y340931D01*
X108834Y340949D01*
X108902Y340962D01*
X108971Y340972D01*
X109040Y340978D01*
X109110Y340980D01*
X109180Y340978D01*
X109249Y340972D01*
X109318Y340962D01*
X109386Y340949D01*
X109454Y340931D01*
X109520Y340910D01*
X109585Y340885D01*
X109649Y340857D01*
X109711Y340825D01*
X109771Y340790D01*
X109829Y340751D01*
X109884Y340709D01*
X109938Y340664D01*
X109988Y340616D01*
X110036Y340566D01*
X110081Y340512D01*
X110123Y340457D01*
X110162Y340399D01*
X110197Y340339D01*
X110229Y340277D01*
X110257Y340213D01*
X110282Y340148D01*
X110303Y340082D01*
X110321Y340014D01*
X110334Y339946D01*
X110344Y339877D01*
X110350Y339808D01*
X110352Y339738D01*
X110351Y339738D02*
X110351Y339117D01*
X107868Y339117D01*
X113525Y337254D02*
X115077Y337254D01*
X113525Y337254D02*
X113467Y337256D01*
X113408Y337261D01*
X113351Y337270D01*
X113293Y337283D01*
X113237Y337300D01*
X113182Y337319D01*
X113129Y337343D01*
X113076Y337369D01*
X113026Y337399D01*
X112978Y337432D01*
X112932Y337468D01*
X112888Y337506D01*
X112846Y337548D01*
X112808Y337592D01*
X112772Y337638D01*
X112739Y337686D01*
X112709Y337736D01*
X112683Y337789D01*
X112659Y337842D01*
X112640Y337897D01*
X112623Y337953D01*
X112610Y338011D01*
X112601Y338068D01*
X112596Y338127D01*
X112594Y338185D01*
X112594Y340048D01*
X112596Y340106D01*
X112601Y340165D01*
X112610Y340222D01*
X112623Y340280D01*
X112640Y340336D01*
X112659Y340391D01*
X112683Y340444D01*
X112709Y340497D01*
X112739Y340547D01*
X112772Y340595D01*
X112808Y340641D01*
X112846Y340685D01*
X112888Y340727D01*
X112932Y340765D01*
X112978Y340801D01*
X113026Y340834D01*
X113076Y340864D01*
X113129Y340890D01*
X113182Y340914D01*
X113237Y340933D01*
X113293Y340950D01*
X113351Y340963D01*
X113408Y340972D01*
X113467Y340977D01*
X113525Y340979D01*
X115077Y340979D01*
X115077Y336323D01*
X115075Y336262D01*
X115069Y336201D01*
X115059Y336141D01*
X115045Y336082D01*
X115028Y336024D01*
X115006Y335967D01*
X114981Y335911D01*
X114952Y335858D01*
X114920Y335806D01*
X114885Y335756D01*
X114846Y335709D01*
X114804Y335665D01*
X114760Y335623D01*
X114713Y335584D01*
X114663Y335549D01*
X114612Y335517D01*
X114558Y335488D01*
X114502Y335463D01*
X114445Y335441D01*
X114387Y335424D01*
X114328Y335410D01*
X114268Y335400D01*
X114207Y335394D01*
X114146Y335392D01*
X114146Y335391D02*
X112904Y335391D01*
X118618Y339427D02*
X120015Y339427D01*
X118618Y339428D02*
X118554Y339426D01*
X118489Y339420D01*
X118426Y339411D01*
X118363Y339398D01*
X118301Y339381D01*
X118240Y339360D01*
X118180Y339336D01*
X118122Y339308D01*
X118065Y339277D01*
X118011Y339243D01*
X117958Y339205D01*
X117908Y339164D01*
X117861Y339121D01*
X117816Y339075D01*
X117774Y339026D01*
X117735Y338975D01*
X117699Y338921D01*
X117666Y338866D01*
X117637Y338808D01*
X117611Y338750D01*
X117588Y338689D01*
X117569Y338628D01*
X117554Y338565D01*
X117543Y338501D01*
X117535Y338438D01*
X117531Y338373D01*
X117531Y338309D01*
X117535Y338244D01*
X117543Y338181D01*
X117554Y338117D01*
X117569Y338054D01*
X117588Y337993D01*
X117611Y337932D01*
X117637Y337874D01*
X117666Y337816D01*
X117699Y337761D01*
X117735Y337707D01*
X117774Y337656D01*
X117816Y337607D01*
X117861Y337561D01*
X117908Y337518D01*
X117958Y337477D01*
X118011Y337439D01*
X118065Y337405D01*
X118122Y337374D01*
X118180Y337346D01*
X118240Y337322D01*
X118301Y337301D01*
X118363Y337284D01*
X118426Y337271D01*
X118489Y337262D01*
X118554Y337256D01*
X118618Y337254D01*
X120015Y337254D01*
X120015Y340048D01*
X120013Y340106D01*
X120008Y340165D01*
X119999Y340222D01*
X119986Y340280D01*
X119969Y340336D01*
X119950Y340391D01*
X119926Y340444D01*
X119900Y340497D01*
X119870Y340547D01*
X119837Y340595D01*
X119801Y340641D01*
X119763Y340685D01*
X119721Y340727D01*
X119677Y340765D01*
X119631Y340801D01*
X119583Y340834D01*
X119533Y340864D01*
X119480Y340890D01*
X119427Y340914D01*
X119372Y340933D01*
X119316Y340950D01*
X119258Y340963D01*
X119201Y340972D01*
X119142Y340977D01*
X119084Y340979D01*
X117842Y340979D01*
X122032Y340979D02*
X123895Y340979D01*
X122653Y342842D02*
X122653Y338185D01*
X122655Y338127D01*
X122660Y338068D01*
X122669Y338011D01*
X122682Y337953D01*
X122699Y337897D01*
X122718Y337842D01*
X122742Y337789D01*
X122768Y337736D01*
X122798Y337686D01*
X122831Y337638D01*
X122867Y337592D01*
X122905Y337548D01*
X122947Y337506D01*
X122991Y337468D01*
X123037Y337432D01*
X123085Y337399D01*
X123136Y337369D01*
X123188Y337343D01*
X123241Y337319D01*
X123296Y337300D01*
X123352Y337283D01*
X123410Y337270D01*
X123467Y337261D01*
X123526Y337256D01*
X123584Y337254D01*
X123895Y337254D01*
X125935Y337254D02*
X125935Y340979D01*
X125779Y342532D02*
X125779Y342842D01*
X126090Y342842D01*
X126090Y342532D01*
X125779Y342532D01*
X127985Y340979D02*
X129226Y337254D01*
X130468Y340979D01*
X133488Y337254D02*
X135040Y337254D01*
X133488Y337254D02*
X133430Y337256D01*
X133371Y337261D01*
X133314Y337270D01*
X133256Y337283D01*
X133200Y337300D01*
X133145Y337319D01*
X133092Y337343D01*
X133039Y337369D01*
X132989Y337399D01*
X132941Y337432D01*
X132895Y337468D01*
X132851Y337506D01*
X132809Y337548D01*
X132771Y337592D01*
X132735Y337638D01*
X132702Y337686D01*
X132672Y337736D01*
X132646Y337789D01*
X132622Y337842D01*
X132603Y337897D01*
X132586Y337953D01*
X132573Y338011D01*
X132564Y338068D01*
X132559Y338127D01*
X132557Y338185D01*
X132557Y339738D01*
X132556Y339738D02*
X132558Y339808D01*
X132564Y339877D01*
X132574Y339946D01*
X132587Y340014D01*
X132605Y340082D01*
X132626Y340148D01*
X132651Y340213D01*
X132679Y340277D01*
X132711Y340339D01*
X132746Y340399D01*
X132785Y340457D01*
X132827Y340512D01*
X132872Y340566D01*
X132920Y340616D01*
X132970Y340664D01*
X133024Y340709D01*
X133079Y340751D01*
X133137Y340790D01*
X133197Y340825D01*
X133259Y340857D01*
X133323Y340885D01*
X133388Y340910D01*
X133454Y340931D01*
X133522Y340949D01*
X133590Y340962D01*
X133659Y340972D01*
X133728Y340978D01*
X133798Y340980D01*
X133868Y340978D01*
X133937Y340972D01*
X134006Y340962D01*
X134074Y340949D01*
X134142Y340931D01*
X134208Y340910D01*
X134273Y340885D01*
X134337Y340857D01*
X134399Y340825D01*
X134459Y340790D01*
X134517Y340751D01*
X134572Y340709D01*
X134626Y340664D01*
X134676Y340616D01*
X134724Y340566D01*
X134769Y340512D01*
X134811Y340457D01*
X134850Y340399D01*
X134885Y340339D01*
X134917Y340277D01*
X134945Y340213D01*
X134970Y340148D01*
X134991Y340082D01*
X135009Y340014D01*
X135022Y339946D01*
X135032Y339877D01*
X135038Y339808D01*
X135040Y339738D01*
X135040Y339117D01*
X132557Y339117D01*
X140476Y337254D02*
X140476Y342842D01*
X142028Y342842D01*
X142104Y342840D01*
X142180Y342835D01*
X142256Y342825D01*
X142331Y342812D01*
X142405Y342795D01*
X142479Y342775D01*
X142551Y342751D01*
X142622Y342724D01*
X142692Y342693D01*
X142760Y342659D01*
X142826Y342621D01*
X142890Y342580D01*
X142953Y342537D01*
X143013Y342490D01*
X143070Y342440D01*
X143125Y342387D01*
X143178Y342332D01*
X143228Y342275D01*
X143275Y342215D01*
X143318Y342152D01*
X143359Y342088D01*
X143397Y342022D01*
X143431Y341954D01*
X143462Y341884D01*
X143489Y341813D01*
X143513Y341740D01*
X143533Y341667D01*
X143550Y341593D01*
X143563Y341518D01*
X143573Y341442D01*
X143578Y341366D01*
X143580Y341290D01*
X143580Y338806D01*
X143578Y338727D01*
X143572Y338649D01*
X143562Y338571D01*
X143548Y338494D01*
X143530Y338417D01*
X143509Y338341D01*
X143483Y338267D01*
X143454Y338194D01*
X143421Y338123D01*
X143385Y338053D01*
X143345Y337985D01*
X143302Y337919D01*
X143255Y337856D01*
X143206Y337795D01*
X143153Y337737D01*
X143097Y337681D01*
X143039Y337628D01*
X142978Y337579D01*
X142915Y337532D01*
X142849Y337489D01*
X142781Y337449D01*
X142712Y337413D01*
X142640Y337380D01*
X142567Y337351D01*
X142493Y337325D01*
X142417Y337304D01*
X142340Y337286D01*
X142263Y337272D01*
X142185Y337262D01*
X142107Y337256D01*
X142028Y337254D01*
X140476Y337254D01*
X146090Y338496D02*
X146090Y339738D01*
X146089Y339738D02*
X146091Y339808D01*
X146097Y339877D01*
X146107Y339946D01*
X146120Y340014D01*
X146138Y340082D01*
X146159Y340148D01*
X146184Y340213D01*
X146212Y340277D01*
X146244Y340339D01*
X146279Y340399D01*
X146318Y340457D01*
X146360Y340512D01*
X146405Y340566D01*
X146453Y340616D01*
X146503Y340664D01*
X146557Y340709D01*
X146612Y340751D01*
X146670Y340790D01*
X146730Y340825D01*
X146792Y340857D01*
X146856Y340885D01*
X146921Y340910D01*
X146987Y340931D01*
X147055Y340949D01*
X147123Y340962D01*
X147192Y340972D01*
X147261Y340978D01*
X147331Y340980D01*
X147401Y340978D01*
X147470Y340972D01*
X147539Y340962D01*
X147607Y340949D01*
X147675Y340931D01*
X147741Y340910D01*
X147806Y340885D01*
X147870Y340857D01*
X147932Y340825D01*
X147992Y340790D01*
X148050Y340751D01*
X148105Y340709D01*
X148159Y340664D01*
X148209Y340616D01*
X148257Y340566D01*
X148302Y340512D01*
X148344Y340457D01*
X148383Y340399D01*
X148418Y340339D01*
X148450Y340277D01*
X148478Y340213D01*
X148503Y340148D01*
X148524Y340082D01*
X148542Y340014D01*
X148555Y339946D01*
X148565Y339877D01*
X148571Y339808D01*
X148573Y339738D01*
X148573Y338496D01*
X148571Y338426D01*
X148565Y338357D01*
X148555Y338288D01*
X148542Y338220D01*
X148524Y338152D01*
X148503Y338086D01*
X148478Y338021D01*
X148450Y337957D01*
X148418Y337895D01*
X148383Y337835D01*
X148344Y337777D01*
X148302Y337722D01*
X148257Y337668D01*
X148209Y337618D01*
X148159Y337570D01*
X148105Y337525D01*
X148050Y337483D01*
X147992Y337444D01*
X147932Y337409D01*
X147870Y337377D01*
X147806Y337349D01*
X147741Y337324D01*
X147675Y337303D01*
X147607Y337285D01*
X147539Y337272D01*
X147470Y337262D01*
X147401Y337256D01*
X147331Y337254D01*
X147261Y337256D01*
X147192Y337262D01*
X147123Y337272D01*
X147055Y337285D01*
X146987Y337303D01*
X146921Y337324D01*
X146856Y337349D01*
X146792Y337377D01*
X146730Y337409D01*
X146670Y337444D01*
X146612Y337483D01*
X146557Y337525D01*
X146503Y337570D01*
X146453Y337618D01*
X146405Y337668D01*
X146360Y337722D01*
X146318Y337777D01*
X146279Y337835D01*
X146244Y337895D01*
X146212Y337957D01*
X146184Y338021D01*
X146159Y338086D01*
X146138Y338152D01*
X146120Y338220D01*
X146107Y338288D01*
X146097Y338357D01*
X146091Y338426D01*
X146089Y338496D01*
X150772Y340979D02*
X151703Y337254D01*
X152635Y339738D01*
X153566Y337254D01*
X154497Y340979D01*
X156879Y340979D02*
X156879Y337254D01*
X156879Y340979D02*
X158432Y340979D01*
X158490Y340977D01*
X158549Y340972D01*
X158606Y340963D01*
X158664Y340950D01*
X158720Y340933D01*
X158775Y340914D01*
X158828Y340890D01*
X158881Y340864D01*
X158931Y340834D01*
X158979Y340801D01*
X159025Y340765D01*
X159069Y340727D01*
X159111Y340685D01*
X159149Y340641D01*
X159185Y340595D01*
X159218Y340547D01*
X159248Y340497D01*
X159274Y340444D01*
X159298Y340391D01*
X159317Y340336D01*
X159334Y340280D01*
X159347Y340222D01*
X159356Y340165D01*
X159361Y340106D01*
X159363Y340048D01*
X159363Y337254D01*
X161779Y339117D02*
X161779Y342842D01*
X161623Y337564D02*
X161623Y337254D01*
X161623Y337564D02*
X161934Y337564D01*
X161934Y337254D01*
X161623Y337254D01*
D14*
X109967Y539100D02*
X109967Y561100D01*
X89033Y561100D02*
X89033Y539100D01*
D12*
X75068Y545825D02*
X72472Y545825D01*
X72373Y545827D01*
X72273Y545833D01*
X72174Y545842D01*
X72076Y545855D01*
X71978Y545872D01*
X71880Y545893D01*
X71784Y545918D01*
X71689Y545946D01*
X71595Y545978D01*
X71502Y546013D01*
X71410Y546052D01*
X71320Y546095D01*
X71232Y546140D01*
X71145Y546190D01*
X71061Y546242D01*
X70978Y546298D01*
X70898Y546356D01*
X70820Y546418D01*
X70745Y546483D01*
X70672Y546551D01*
X70602Y546621D01*
X70534Y546694D01*
X70469Y546769D01*
X70407Y546847D01*
X70349Y546927D01*
X70293Y547010D01*
X70241Y547094D01*
X70191Y547181D01*
X70146Y547269D01*
X70103Y547359D01*
X70064Y547451D01*
X70029Y547544D01*
X69997Y547638D01*
X69969Y547733D01*
X69944Y547829D01*
X69923Y547927D01*
X69906Y548025D01*
X69893Y548123D01*
X69884Y548222D01*
X69878Y548322D01*
X69876Y548421D01*
X69875Y548421D02*
X69875Y554913D01*
X69876Y554913D02*
X69878Y555012D01*
X69884Y555112D01*
X69893Y555211D01*
X69906Y555309D01*
X69923Y555407D01*
X69944Y555505D01*
X69969Y555601D01*
X69997Y555696D01*
X70029Y555790D01*
X70064Y555883D01*
X70103Y555975D01*
X70146Y556065D01*
X70191Y556153D01*
X70241Y556240D01*
X70293Y556324D01*
X70349Y556407D01*
X70407Y556487D01*
X70469Y556565D01*
X70534Y556640D01*
X70602Y556713D01*
X70672Y556783D01*
X70745Y556851D01*
X70820Y556916D01*
X70898Y556978D01*
X70978Y557036D01*
X71061Y557092D01*
X71145Y557144D01*
X71232Y557194D01*
X71320Y557239D01*
X71410Y557282D01*
X71502Y557321D01*
X71594Y557356D01*
X71689Y557388D01*
X71784Y557416D01*
X71880Y557441D01*
X71978Y557462D01*
X72076Y557479D01*
X72174Y557492D01*
X72273Y557501D01*
X72373Y557507D01*
X72472Y557509D01*
X75068Y557509D01*
X79434Y554913D02*
X82679Y557509D01*
X82679Y545825D01*
X79434Y545825D02*
X85925Y545825D01*
D14*
X301533Y552975D02*
X301533Y530975D01*
X322467Y530975D02*
X322467Y552975D01*
D12*
X314568Y511366D02*
X311972Y511366D01*
X311873Y511368D01*
X311773Y511374D01*
X311674Y511383D01*
X311576Y511396D01*
X311478Y511413D01*
X311380Y511434D01*
X311284Y511459D01*
X311189Y511487D01*
X311095Y511519D01*
X311002Y511554D01*
X310910Y511593D01*
X310820Y511636D01*
X310732Y511681D01*
X310645Y511731D01*
X310561Y511783D01*
X310478Y511839D01*
X310398Y511897D01*
X310320Y511959D01*
X310245Y512024D01*
X310172Y512092D01*
X310102Y512162D01*
X310034Y512235D01*
X309969Y512310D01*
X309907Y512388D01*
X309849Y512468D01*
X309793Y512551D01*
X309741Y512635D01*
X309691Y512722D01*
X309646Y512810D01*
X309603Y512900D01*
X309564Y512992D01*
X309529Y513085D01*
X309497Y513179D01*
X309469Y513274D01*
X309444Y513370D01*
X309423Y513468D01*
X309406Y513566D01*
X309393Y513664D01*
X309384Y513763D01*
X309378Y513863D01*
X309376Y513962D01*
X309375Y513962D02*
X309375Y520454D01*
X309376Y520454D02*
X309378Y520553D01*
X309384Y520653D01*
X309393Y520752D01*
X309406Y520850D01*
X309423Y520948D01*
X309444Y521046D01*
X309469Y521142D01*
X309497Y521237D01*
X309529Y521331D01*
X309564Y521424D01*
X309603Y521516D01*
X309646Y521606D01*
X309691Y521694D01*
X309741Y521781D01*
X309793Y521865D01*
X309849Y521948D01*
X309907Y522028D01*
X309969Y522106D01*
X310034Y522181D01*
X310102Y522254D01*
X310172Y522324D01*
X310245Y522392D01*
X310320Y522457D01*
X310398Y522519D01*
X310478Y522577D01*
X310561Y522633D01*
X310645Y522685D01*
X310732Y522735D01*
X310820Y522780D01*
X310910Y522823D01*
X311002Y522862D01*
X311094Y522897D01*
X311189Y522929D01*
X311284Y522957D01*
X311380Y522982D01*
X311478Y523003D01*
X311576Y523020D01*
X311674Y523033D01*
X311773Y523042D01*
X311873Y523048D01*
X311972Y523050D01*
X314568Y523050D01*
X322504Y523050D02*
X322611Y523048D01*
X322717Y523042D01*
X322823Y523032D01*
X322929Y523019D01*
X323035Y523001D01*
X323139Y522980D01*
X323243Y522955D01*
X323346Y522926D01*
X323447Y522894D01*
X323547Y522857D01*
X323646Y522817D01*
X323744Y522774D01*
X323840Y522727D01*
X323934Y522676D01*
X324026Y522622D01*
X324116Y522565D01*
X324204Y522505D01*
X324289Y522441D01*
X324372Y522374D01*
X324453Y522304D01*
X324531Y522232D01*
X324607Y522156D01*
X324679Y522078D01*
X324749Y521997D01*
X324816Y521914D01*
X324880Y521829D01*
X324940Y521741D01*
X324997Y521651D01*
X325051Y521559D01*
X325102Y521465D01*
X325149Y521369D01*
X325192Y521271D01*
X325232Y521172D01*
X325269Y521072D01*
X325301Y520971D01*
X325330Y520868D01*
X325355Y520764D01*
X325376Y520660D01*
X325394Y520554D01*
X325407Y520448D01*
X325417Y520342D01*
X325423Y520236D01*
X325425Y520129D01*
X322504Y523050D02*
X322383Y523048D01*
X322262Y523042D01*
X322142Y523032D01*
X322021Y523019D01*
X321902Y523001D01*
X321782Y522980D01*
X321664Y522955D01*
X321547Y522926D01*
X321430Y522893D01*
X321315Y522857D01*
X321201Y522816D01*
X321088Y522773D01*
X320976Y522725D01*
X320867Y522674D01*
X320759Y522619D01*
X320652Y522561D01*
X320548Y522500D01*
X320446Y522435D01*
X320346Y522367D01*
X320248Y522296D01*
X320152Y522222D01*
X320059Y522145D01*
X319969Y522064D01*
X319881Y521981D01*
X319796Y521895D01*
X319713Y521806D01*
X319634Y521715D01*
X319557Y521621D01*
X319484Y521525D01*
X319414Y521427D01*
X319347Y521326D01*
X319283Y521223D01*
X319223Y521118D01*
X319166Y521011D01*
X319112Y520903D01*
X319062Y520793D01*
X319016Y520681D01*
X318973Y520568D01*
X318934Y520453D01*
X324451Y517857D02*
X324530Y517934D01*
X324606Y518015D01*
X324679Y518098D01*
X324749Y518183D01*
X324816Y518271D01*
X324880Y518361D01*
X324940Y518453D01*
X324997Y518548D01*
X325051Y518644D01*
X325102Y518742D01*
X325149Y518842D01*
X325193Y518944D01*
X325233Y519047D01*
X325269Y519151D01*
X325301Y519257D01*
X325330Y519363D01*
X325355Y519471D01*
X325377Y519579D01*
X325394Y519689D01*
X325408Y519798D01*
X325417Y519908D01*
X325423Y520019D01*
X325425Y520129D01*
X324451Y517857D02*
X318934Y511366D01*
X325425Y511366D01*
D14*
X277533Y531175D02*
X277533Y553175D01*
X298467Y553175D02*
X298467Y531175D01*
D12*
X285368Y511366D02*
X282772Y511366D01*
X282673Y511368D01*
X282573Y511374D01*
X282474Y511383D01*
X282376Y511396D01*
X282278Y511413D01*
X282180Y511434D01*
X282084Y511459D01*
X281989Y511487D01*
X281895Y511519D01*
X281802Y511554D01*
X281710Y511593D01*
X281620Y511636D01*
X281532Y511681D01*
X281445Y511731D01*
X281361Y511783D01*
X281278Y511839D01*
X281198Y511897D01*
X281120Y511959D01*
X281045Y512024D01*
X280972Y512092D01*
X280902Y512162D01*
X280834Y512235D01*
X280769Y512310D01*
X280707Y512388D01*
X280649Y512468D01*
X280593Y512551D01*
X280541Y512635D01*
X280491Y512722D01*
X280446Y512810D01*
X280403Y512900D01*
X280364Y512992D01*
X280329Y513085D01*
X280297Y513179D01*
X280269Y513274D01*
X280244Y513370D01*
X280223Y513468D01*
X280206Y513566D01*
X280193Y513664D01*
X280184Y513763D01*
X280178Y513863D01*
X280176Y513962D01*
X280175Y513962D02*
X280175Y520454D01*
X280176Y520454D02*
X280178Y520553D01*
X280184Y520653D01*
X280193Y520752D01*
X280206Y520850D01*
X280223Y520948D01*
X280244Y521046D01*
X280269Y521142D01*
X280297Y521237D01*
X280329Y521331D01*
X280364Y521424D01*
X280403Y521516D01*
X280446Y521606D01*
X280491Y521694D01*
X280541Y521781D01*
X280593Y521865D01*
X280649Y521948D01*
X280707Y522028D01*
X280769Y522106D01*
X280834Y522181D01*
X280902Y522254D01*
X280972Y522324D01*
X281045Y522392D01*
X281120Y522457D01*
X281198Y522519D01*
X281278Y522577D01*
X281361Y522633D01*
X281445Y522685D01*
X281532Y522735D01*
X281620Y522780D01*
X281710Y522823D01*
X281802Y522862D01*
X281894Y522897D01*
X281989Y522929D01*
X282084Y522957D01*
X282180Y522982D01*
X282278Y523003D01*
X282376Y523020D01*
X282474Y523033D01*
X282573Y523042D01*
X282673Y523048D01*
X282772Y523050D01*
X285368Y523050D01*
X289734Y511366D02*
X292979Y511366D01*
X293092Y511368D01*
X293205Y511374D01*
X293318Y511384D01*
X293431Y511398D01*
X293543Y511415D01*
X293654Y511437D01*
X293764Y511462D01*
X293874Y511492D01*
X293982Y511525D01*
X294089Y511562D01*
X294195Y511602D01*
X294299Y511647D01*
X294402Y511695D01*
X294503Y511746D01*
X294602Y511801D01*
X294699Y511859D01*
X294794Y511921D01*
X294887Y511986D01*
X294977Y512054D01*
X295065Y512125D01*
X295151Y512200D01*
X295234Y512277D01*
X295314Y512357D01*
X295391Y512440D01*
X295466Y512526D01*
X295537Y512614D01*
X295605Y512704D01*
X295670Y512797D01*
X295732Y512892D01*
X295790Y512989D01*
X295845Y513088D01*
X295896Y513189D01*
X295944Y513292D01*
X295989Y513396D01*
X296029Y513502D01*
X296066Y513609D01*
X296099Y513717D01*
X296129Y513827D01*
X296154Y513937D01*
X296176Y514048D01*
X296193Y514160D01*
X296207Y514273D01*
X296217Y514386D01*
X296223Y514499D01*
X296225Y514612D01*
X296223Y514725D01*
X296217Y514838D01*
X296207Y514951D01*
X296193Y515064D01*
X296176Y515176D01*
X296154Y515287D01*
X296129Y515397D01*
X296099Y515507D01*
X296066Y515615D01*
X296029Y515722D01*
X295989Y515828D01*
X295944Y515932D01*
X295896Y516035D01*
X295845Y516136D01*
X295790Y516235D01*
X295732Y516332D01*
X295670Y516427D01*
X295605Y516520D01*
X295537Y516610D01*
X295466Y516698D01*
X295391Y516784D01*
X295314Y516867D01*
X295234Y516947D01*
X295151Y517024D01*
X295065Y517099D01*
X294977Y517170D01*
X294887Y517238D01*
X294794Y517303D01*
X294699Y517365D01*
X294602Y517423D01*
X294503Y517478D01*
X294402Y517529D01*
X294299Y517577D01*
X294195Y517622D01*
X294089Y517662D01*
X293982Y517699D01*
X293874Y517732D01*
X293764Y517762D01*
X293654Y517787D01*
X293543Y517809D01*
X293431Y517826D01*
X293318Y517840D01*
X293205Y517850D01*
X293092Y517856D01*
X292979Y517858D01*
X293628Y523050D02*
X289734Y523050D01*
X293628Y523050D02*
X293729Y523048D01*
X293829Y523042D01*
X293929Y523032D01*
X294029Y523019D01*
X294128Y523001D01*
X294227Y522980D01*
X294324Y522955D01*
X294421Y522926D01*
X294516Y522893D01*
X294610Y522857D01*
X294702Y522817D01*
X294793Y522774D01*
X294882Y522727D01*
X294969Y522677D01*
X295055Y522623D01*
X295138Y522566D01*
X295218Y522506D01*
X295297Y522443D01*
X295373Y522376D01*
X295446Y522307D01*
X295516Y522235D01*
X295584Y522161D01*
X295649Y522084D01*
X295710Y522004D01*
X295769Y521922D01*
X295824Y521838D01*
X295876Y521752D01*
X295925Y521664D01*
X295970Y521574D01*
X296012Y521482D01*
X296050Y521389D01*
X296084Y521294D01*
X296115Y521199D01*
X296142Y521102D01*
X296165Y521004D01*
X296185Y520905D01*
X296200Y520805D01*
X296212Y520705D01*
X296220Y520605D01*
X296224Y520504D01*
X296224Y520404D01*
X296220Y520303D01*
X296212Y520203D01*
X296200Y520103D01*
X296185Y520003D01*
X296165Y519904D01*
X296142Y519806D01*
X296115Y519709D01*
X296084Y519614D01*
X296050Y519519D01*
X296012Y519426D01*
X295970Y519334D01*
X295925Y519244D01*
X295876Y519156D01*
X295824Y519070D01*
X295769Y518986D01*
X295710Y518904D01*
X295649Y518824D01*
X295584Y518747D01*
X295516Y518673D01*
X295446Y518601D01*
X295373Y518532D01*
X295297Y518465D01*
X295218Y518402D01*
X295138Y518342D01*
X295055Y518285D01*
X294969Y518231D01*
X294882Y518181D01*
X294793Y518134D01*
X294702Y518091D01*
X294610Y518051D01*
X294516Y518015D01*
X294421Y517982D01*
X294324Y517953D01*
X294227Y517928D01*
X294128Y517907D01*
X294029Y517889D01*
X293929Y517876D01*
X293829Y517866D01*
X293729Y517860D01*
X293628Y517858D01*
X293628Y517857D02*
X291032Y517857D01*
D14*
X365020Y607170D02*
X425980Y607170D01*
X425980Y706230D01*
X365020Y706230D01*
X365020Y607170D01*
D15*
X431500Y644200D02*
X431502Y644277D01*
X431508Y644354D01*
X431518Y644431D01*
X431532Y644507D01*
X431549Y644582D01*
X431571Y644656D01*
X431596Y644729D01*
X431626Y644801D01*
X431658Y644871D01*
X431695Y644939D01*
X431734Y645005D01*
X431777Y645069D01*
X431824Y645131D01*
X431873Y645190D01*
X431926Y645247D01*
X431981Y645301D01*
X432039Y645352D01*
X432100Y645400D01*
X432163Y645445D01*
X432228Y645486D01*
X432295Y645524D01*
X432364Y645559D01*
X432435Y645589D01*
X432507Y645617D01*
X432581Y645640D01*
X432655Y645660D01*
X432731Y645676D01*
X432807Y645688D01*
X432884Y645696D01*
X432961Y645700D01*
X433039Y645700D01*
X433116Y645696D01*
X433193Y645688D01*
X433269Y645676D01*
X433345Y645660D01*
X433419Y645640D01*
X433493Y645617D01*
X433565Y645589D01*
X433636Y645559D01*
X433705Y645524D01*
X433772Y645486D01*
X433837Y645445D01*
X433900Y645400D01*
X433961Y645352D01*
X434019Y645301D01*
X434074Y645247D01*
X434127Y645190D01*
X434176Y645131D01*
X434223Y645069D01*
X434266Y645005D01*
X434305Y644939D01*
X434342Y644871D01*
X434374Y644801D01*
X434404Y644729D01*
X434429Y644656D01*
X434451Y644582D01*
X434468Y644507D01*
X434482Y644431D01*
X434492Y644354D01*
X434498Y644277D01*
X434500Y644200D01*
X434498Y644123D01*
X434492Y644046D01*
X434482Y643969D01*
X434468Y643893D01*
X434451Y643818D01*
X434429Y643744D01*
X434404Y643671D01*
X434374Y643599D01*
X434342Y643529D01*
X434305Y643461D01*
X434266Y643395D01*
X434223Y643331D01*
X434176Y643269D01*
X434127Y643210D01*
X434074Y643153D01*
X434019Y643099D01*
X433961Y643048D01*
X433900Y643000D01*
X433837Y642955D01*
X433772Y642914D01*
X433705Y642876D01*
X433636Y642841D01*
X433565Y642811D01*
X433493Y642783D01*
X433419Y642760D01*
X433345Y642740D01*
X433269Y642724D01*
X433193Y642712D01*
X433116Y642704D01*
X433039Y642700D01*
X432961Y642700D01*
X432884Y642704D01*
X432807Y642712D01*
X432731Y642724D01*
X432655Y642740D01*
X432581Y642760D01*
X432507Y642783D01*
X432435Y642811D01*
X432364Y642841D01*
X432295Y642876D01*
X432228Y642914D01*
X432163Y642955D01*
X432100Y643000D01*
X432039Y643048D01*
X431981Y643099D01*
X431926Y643153D01*
X431873Y643210D01*
X431824Y643269D01*
X431777Y643331D01*
X431734Y643395D01*
X431695Y643461D01*
X431658Y643529D01*
X431626Y643599D01*
X431596Y643671D01*
X431571Y643744D01*
X431549Y643818D01*
X431532Y643893D01*
X431518Y643969D01*
X431508Y644046D01*
X431502Y644123D01*
X431500Y644200D01*
D16*
X168900Y951600D03*
X180900Y951600D03*
D17*
X174900Y951600D03*
D18*
X301550Y755950D03*
X301550Y743950D03*
D17*
X301550Y749950D03*
D18*
X301400Y731100D03*
X301400Y719100D03*
D17*
X301400Y725100D03*
D16*
X280950Y698450D03*
X268950Y698450D03*
D17*
X274950Y698450D03*
D16*
X230825Y698450D03*
X218825Y698450D03*
D17*
X224825Y698450D03*
D16*
X180975Y698550D03*
X168975Y698550D03*
D17*
X174975Y698550D03*
D18*
X148425Y719025D03*
X148425Y731025D03*
D17*
X148425Y725025D03*
D18*
X148425Y744025D03*
X148425Y756025D03*
D17*
X148425Y750025D03*
D18*
X148425Y769025D03*
X148425Y781025D03*
D17*
X148425Y775025D03*
D18*
X148425Y794025D03*
X148425Y806025D03*
D17*
X148425Y800025D03*
D18*
X148425Y844025D03*
X148425Y856025D03*
D17*
X148425Y850025D03*
D16*
X219100Y951600D03*
X231100Y951600D03*
D17*
X225100Y951600D03*
D18*
X148550Y869025D03*
X148550Y881025D03*
D17*
X148550Y875025D03*
D18*
X148425Y894025D03*
X148425Y906025D03*
D17*
X148425Y900025D03*
D18*
X148475Y919025D03*
X148475Y931025D03*
D17*
X148475Y925025D03*
D18*
X173475Y819025D03*
X173475Y831025D03*
D17*
X173475Y825025D03*
D16*
X231100Y823600D03*
X219100Y823600D03*
D17*
X225100Y823600D03*
D19*
X276025Y824975D03*
D16*
X268900Y951600D03*
X280900Y951600D03*
D17*
X274900Y951600D03*
D18*
X301600Y931100D03*
X301600Y919100D03*
D17*
X301600Y925100D03*
D18*
X301600Y906100D03*
X301600Y894100D03*
D17*
X301600Y900100D03*
D18*
X301600Y881100D03*
X301600Y869100D03*
D17*
X301600Y875100D03*
D18*
X301600Y856100D03*
X301600Y844100D03*
D17*
X301600Y850100D03*
D18*
X301475Y805975D03*
X301475Y793975D03*
D17*
X301475Y799975D03*
D18*
X301475Y780975D03*
X301475Y768975D03*
D17*
X301475Y774975D03*
D20*
X49500Y524200D02*
X49500Y458200D01*
X20500Y458200D01*
X20500Y524200D01*
X49500Y524200D01*
D13*
X13548Y518842D02*
X13417Y518844D01*
X13287Y518849D01*
X13157Y518859D01*
X13027Y518872D01*
X12897Y518888D01*
X12768Y518908D01*
X12640Y518932D01*
X12513Y518960D01*
X12386Y518991D01*
X12260Y519026D01*
X12135Y519064D01*
X12011Y519106D01*
X11889Y519151D01*
X11768Y519200D01*
X11648Y519252D01*
X11530Y519308D01*
X11530Y519307D02*
X11470Y519330D01*
X11410Y519356D01*
X11353Y519385D01*
X11297Y519418D01*
X11243Y519454D01*
X11191Y519492D01*
X11141Y519534D01*
X11094Y519578D01*
X11049Y519625D01*
X11007Y519675D01*
X10968Y519726D01*
X10932Y519780D01*
X10899Y519836D01*
X10869Y519893D01*
X10842Y519952D01*
X10819Y520013D01*
X10799Y520074D01*
X10783Y520137D01*
X10770Y520201D01*
X10761Y520265D01*
X10756Y520329D01*
X10754Y520394D01*
X10756Y520459D01*
X10761Y520523D01*
X10770Y520587D01*
X10783Y520651D01*
X10799Y520714D01*
X10819Y520775D01*
X10842Y520836D01*
X10869Y520895D01*
X10899Y520952D01*
X10932Y521008D01*
X10968Y521062D01*
X11007Y521113D01*
X11049Y521163D01*
X11094Y521210D01*
X11141Y521254D01*
X11191Y521296D01*
X11243Y521334D01*
X11297Y521370D01*
X11353Y521403D01*
X11410Y521432D01*
X11470Y521458D01*
X11530Y521481D01*
X11530Y521480D02*
X11648Y521536D01*
X11768Y521588D01*
X11889Y521637D01*
X12011Y521682D01*
X12135Y521724D01*
X12260Y521762D01*
X12386Y521797D01*
X12512Y521828D01*
X12640Y521856D01*
X12768Y521880D01*
X12897Y521900D01*
X13027Y521916D01*
X13157Y521929D01*
X13287Y521939D01*
X13417Y521944D01*
X13548Y521946D01*
X13548Y518842D02*
X13679Y518844D01*
X13809Y518849D01*
X13939Y518859D01*
X14069Y518872D01*
X14199Y518888D01*
X14328Y518908D01*
X14456Y518932D01*
X14583Y518960D01*
X14710Y518991D01*
X14836Y519026D01*
X14961Y519064D01*
X15085Y519106D01*
X15207Y519151D01*
X15328Y519200D01*
X15448Y519252D01*
X15566Y519308D01*
X15566Y519307D02*
X15626Y519330D01*
X15686Y519356D01*
X15743Y519385D01*
X15799Y519418D01*
X15853Y519454D01*
X15905Y519492D01*
X15955Y519534D01*
X16002Y519578D01*
X16047Y519625D01*
X16089Y519675D01*
X16128Y519726D01*
X16164Y519780D01*
X16197Y519836D01*
X16227Y519893D01*
X16254Y519952D01*
X16277Y520013D01*
X16297Y520074D01*
X16313Y520137D01*
X16326Y520201D01*
X16335Y520265D01*
X16340Y520329D01*
X16342Y520394D01*
X15566Y521480D02*
X15448Y521536D01*
X15328Y521588D01*
X15207Y521637D01*
X15085Y521682D01*
X14961Y521724D01*
X14836Y521762D01*
X14710Y521797D01*
X14584Y521828D01*
X14456Y521856D01*
X14328Y521880D01*
X14199Y521900D01*
X14069Y521916D01*
X13939Y521929D01*
X13809Y521939D01*
X13679Y521944D01*
X13548Y521946D01*
X15566Y521481D02*
X15626Y521458D01*
X15686Y521432D01*
X15743Y521403D01*
X15799Y521370D01*
X15853Y521334D01*
X15905Y521296D01*
X15955Y521254D01*
X16002Y521210D01*
X16047Y521163D01*
X16089Y521113D01*
X16128Y521062D01*
X16164Y521008D01*
X16197Y520952D01*
X16227Y520895D01*
X16254Y520836D01*
X16277Y520775D01*
X16297Y520714D01*
X16313Y520651D01*
X16326Y520587D01*
X16335Y520523D01*
X16340Y520459D01*
X16342Y520394D01*
X15100Y519152D02*
X11996Y521636D01*
X10754Y464325D02*
X16342Y464325D01*
X16342Y463704D02*
X16342Y464946D01*
X10754Y464946D02*
X10754Y463704D01*
D20*
X53210Y125870D02*
X53210Y64910D01*
X115440Y64910D01*
X115440Y125870D01*
X53210Y125870D01*
D12*
X238008Y752895D02*
X249692Y752895D01*
X238008Y752895D02*
X238008Y756140D01*
X238010Y756253D01*
X238016Y756366D01*
X238026Y756479D01*
X238040Y756592D01*
X238057Y756704D01*
X238079Y756815D01*
X238104Y756925D01*
X238134Y757035D01*
X238167Y757143D01*
X238204Y757250D01*
X238244Y757356D01*
X238289Y757460D01*
X238337Y757563D01*
X238388Y757664D01*
X238443Y757763D01*
X238501Y757860D01*
X238563Y757955D01*
X238628Y758048D01*
X238696Y758138D01*
X238767Y758226D01*
X238842Y758312D01*
X238919Y758395D01*
X238999Y758475D01*
X239082Y758552D01*
X239168Y758627D01*
X239256Y758698D01*
X239346Y758766D01*
X239439Y758831D01*
X239534Y758893D01*
X239631Y758951D01*
X239730Y759006D01*
X239831Y759057D01*
X239934Y759105D01*
X240038Y759150D01*
X240144Y759190D01*
X240251Y759227D01*
X240359Y759260D01*
X240469Y759290D01*
X240579Y759315D01*
X240690Y759337D01*
X240802Y759354D01*
X240915Y759368D01*
X241028Y759378D01*
X241141Y759384D01*
X241254Y759386D01*
X241367Y759384D01*
X241480Y759378D01*
X241593Y759368D01*
X241706Y759354D01*
X241818Y759337D01*
X241929Y759315D01*
X242039Y759290D01*
X242149Y759260D01*
X242257Y759227D01*
X242364Y759190D01*
X242470Y759150D01*
X242574Y759105D01*
X242677Y759057D01*
X242778Y759006D01*
X242877Y758951D01*
X242974Y758893D01*
X243069Y758831D01*
X243162Y758766D01*
X243252Y758698D01*
X243340Y758627D01*
X243426Y758552D01*
X243509Y758475D01*
X243589Y758395D01*
X243666Y758312D01*
X243741Y758226D01*
X243812Y758138D01*
X243880Y758048D01*
X243945Y757955D01*
X244007Y757860D01*
X244065Y757763D01*
X244120Y757664D01*
X244171Y757563D01*
X244219Y757460D01*
X244264Y757356D01*
X244304Y757250D01*
X244341Y757143D01*
X244374Y757035D01*
X244404Y756925D01*
X244429Y756815D01*
X244451Y756704D01*
X244468Y756592D01*
X244482Y756479D01*
X244492Y756366D01*
X244498Y756253D01*
X244500Y756140D01*
X244499Y756140D02*
X244499Y752895D01*
X244499Y756789D02*
X249692Y759386D01*
X240604Y764251D02*
X238008Y767496D01*
X249692Y767496D01*
X249692Y764251D02*
X249692Y770742D01*
X71295Y588192D02*
X71295Y576508D01*
X71295Y588192D02*
X74540Y588192D01*
X74653Y588190D01*
X74766Y588184D01*
X74879Y588174D01*
X74992Y588160D01*
X75104Y588143D01*
X75215Y588121D01*
X75325Y588096D01*
X75435Y588066D01*
X75543Y588033D01*
X75650Y587996D01*
X75756Y587956D01*
X75860Y587911D01*
X75963Y587863D01*
X76064Y587812D01*
X76163Y587757D01*
X76260Y587699D01*
X76355Y587637D01*
X76448Y587572D01*
X76538Y587504D01*
X76626Y587433D01*
X76712Y587358D01*
X76795Y587281D01*
X76875Y587201D01*
X76952Y587118D01*
X77027Y587032D01*
X77098Y586944D01*
X77166Y586854D01*
X77231Y586761D01*
X77293Y586666D01*
X77351Y586569D01*
X77406Y586470D01*
X77457Y586369D01*
X77505Y586266D01*
X77550Y586162D01*
X77590Y586056D01*
X77627Y585949D01*
X77660Y585841D01*
X77690Y585731D01*
X77715Y585621D01*
X77737Y585510D01*
X77754Y585398D01*
X77768Y585285D01*
X77778Y585172D01*
X77784Y585059D01*
X77786Y584946D01*
X77784Y584833D01*
X77778Y584720D01*
X77768Y584607D01*
X77754Y584494D01*
X77737Y584382D01*
X77715Y584271D01*
X77690Y584161D01*
X77660Y584051D01*
X77627Y583943D01*
X77590Y583836D01*
X77550Y583730D01*
X77505Y583626D01*
X77457Y583523D01*
X77406Y583422D01*
X77351Y583323D01*
X77293Y583226D01*
X77231Y583131D01*
X77166Y583038D01*
X77098Y582948D01*
X77027Y582860D01*
X76952Y582774D01*
X76875Y582691D01*
X76795Y582611D01*
X76712Y582534D01*
X76626Y582459D01*
X76538Y582388D01*
X76448Y582320D01*
X76355Y582255D01*
X76260Y582193D01*
X76163Y582135D01*
X76064Y582080D01*
X75963Y582029D01*
X75860Y581981D01*
X75756Y581936D01*
X75650Y581896D01*
X75543Y581859D01*
X75435Y581826D01*
X75325Y581796D01*
X75215Y581771D01*
X75104Y581749D01*
X74992Y581732D01*
X74879Y581718D01*
X74766Y581708D01*
X74653Y581702D01*
X74540Y581700D01*
X74540Y581701D02*
X71295Y581701D01*
X75189Y581701D02*
X77786Y576508D01*
X82651Y582999D02*
X86546Y582999D01*
X86645Y582997D01*
X86745Y582991D01*
X86844Y582982D01*
X86942Y582969D01*
X87040Y582952D01*
X87138Y582931D01*
X87234Y582906D01*
X87329Y582878D01*
X87423Y582846D01*
X87516Y582811D01*
X87608Y582772D01*
X87698Y582729D01*
X87786Y582684D01*
X87873Y582634D01*
X87957Y582582D01*
X88040Y582526D01*
X88120Y582468D01*
X88198Y582406D01*
X88273Y582341D01*
X88346Y582273D01*
X88416Y582203D01*
X88484Y582130D01*
X88549Y582055D01*
X88611Y581977D01*
X88669Y581897D01*
X88725Y581814D01*
X88777Y581730D01*
X88827Y581643D01*
X88872Y581555D01*
X88915Y581465D01*
X88954Y581373D01*
X88989Y581280D01*
X89021Y581186D01*
X89049Y581091D01*
X89074Y580995D01*
X89095Y580897D01*
X89112Y580799D01*
X89125Y580701D01*
X89134Y580602D01*
X89140Y580502D01*
X89142Y580403D01*
X89142Y579754D01*
X89140Y579641D01*
X89134Y579528D01*
X89124Y579415D01*
X89110Y579302D01*
X89093Y579190D01*
X89071Y579079D01*
X89046Y578969D01*
X89016Y578859D01*
X88983Y578751D01*
X88946Y578644D01*
X88906Y578538D01*
X88861Y578434D01*
X88813Y578331D01*
X88762Y578230D01*
X88707Y578131D01*
X88649Y578034D01*
X88587Y577939D01*
X88522Y577846D01*
X88454Y577756D01*
X88383Y577668D01*
X88308Y577582D01*
X88231Y577499D01*
X88151Y577419D01*
X88068Y577342D01*
X87982Y577267D01*
X87894Y577196D01*
X87804Y577128D01*
X87711Y577063D01*
X87616Y577001D01*
X87519Y576943D01*
X87420Y576888D01*
X87319Y576837D01*
X87216Y576789D01*
X87112Y576744D01*
X87006Y576704D01*
X86899Y576667D01*
X86791Y576634D01*
X86681Y576604D01*
X86571Y576579D01*
X86460Y576557D01*
X86348Y576540D01*
X86235Y576526D01*
X86122Y576516D01*
X86009Y576510D01*
X85896Y576508D01*
X85783Y576510D01*
X85670Y576516D01*
X85557Y576526D01*
X85444Y576540D01*
X85332Y576557D01*
X85221Y576579D01*
X85111Y576604D01*
X85001Y576634D01*
X84893Y576667D01*
X84786Y576704D01*
X84680Y576744D01*
X84576Y576789D01*
X84473Y576837D01*
X84372Y576888D01*
X84273Y576943D01*
X84176Y577001D01*
X84081Y577063D01*
X83988Y577128D01*
X83898Y577196D01*
X83810Y577267D01*
X83724Y577342D01*
X83641Y577419D01*
X83561Y577499D01*
X83484Y577582D01*
X83409Y577668D01*
X83338Y577756D01*
X83270Y577846D01*
X83205Y577939D01*
X83143Y578034D01*
X83085Y578131D01*
X83030Y578230D01*
X82979Y578331D01*
X82931Y578434D01*
X82886Y578538D01*
X82846Y578644D01*
X82809Y578751D01*
X82776Y578859D01*
X82746Y578969D01*
X82721Y579079D01*
X82699Y579190D01*
X82682Y579302D01*
X82668Y579415D01*
X82658Y579528D01*
X82652Y579641D01*
X82650Y579754D01*
X82651Y579754D02*
X82651Y582999D01*
X82653Y583142D01*
X82659Y583285D01*
X82669Y583428D01*
X82683Y583570D01*
X82700Y583712D01*
X82722Y583854D01*
X82747Y583995D01*
X82777Y584135D01*
X82810Y584274D01*
X82847Y584412D01*
X82888Y584549D01*
X82932Y584685D01*
X82981Y584820D01*
X83033Y584953D01*
X83088Y585085D01*
X83148Y585215D01*
X83211Y585344D01*
X83277Y585471D01*
X83347Y585595D01*
X83420Y585718D01*
X83497Y585839D01*
X83577Y585958D01*
X83660Y586074D01*
X83746Y586189D01*
X83835Y586300D01*
X83928Y586410D01*
X84023Y586516D01*
X84122Y586620D01*
X84223Y586721D01*
X84327Y586820D01*
X84433Y586915D01*
X84543Y587008D01*
X84654Y587097D01*
X84769Y587183D01*
X84885Y587266D01*
X85004Y587346D01*
X85125Y587423D01*
X85247Y587496D01*
X85372Y587566D01*
X85499Y587632D01*
X85628Y587695D01*
X85758Y587755D01*
X85890Y587810D01*
X86023Y587862D01*
X86158Y587911D01*
X86294Y587955D01*
X86431Y587996D01*
X86569Y588033D01*
X86708Y588066D01*
X86848Y588096D01*
X86989Y588121D01*
X87131Y588143D01*
X87273Y588160D01*
X87415Y588174D01*
X87558Y588184D01*
X87701Y588190D01*
X87844Y588192D01*
X317358Y611808D02*
X317358Y623492D01*
X320604Y623492D01*
X320717Y623490D01*
X320830Y623484D01*
X320943Y623474D01*
X321056Y623460D01*
X321168Y623443D01*
X321279Y623421D01*
X321389Y623396D01*
X321499Y623366D01*
X321607Y623333D01*
X321714Y623296D01*
X321820Y623256D01*
X321924Y623211D01*
X322027Y623163D01*
X322128Y623112D01*
X322227Y623057D01*
X322324Y622999D01*
X322419Y622937D01*
X322512Y622872D01*
X322602Y622804D01*
X322690Y622733D01*
X322776Y622658D01*
X322859Y622581D01*
X322939Y622501D01*
X323016Y622418D01*
X323091Y622332D01*
X323162Y622244D01*
X323230Y622154D01*
X323295Y622061D01*
X323357Y621966D01*
X323415Y621869D01*
X323470Y621770D01*
X323521Y621669D01*
X323569Y621566D01*
X323614Y621462D01*
X323654Y621356D01*
X323691Y621249D01*
X323724Y621141D01*
X323754Y621031D01*
X323779Y620921D01*
X323801Y620810D01*
X323818Y620698D01*
X323832Y620585D01*
X323842Y620472D01*
X323848Y620359D01*
X323850Y620246D01*
X323848Y620133D01*
X323842Y620020D01*
X323832Y619907D01*
X323818Y619794D01*
X323801Y619682D01*
X323779Y619571D01*
X323754Y619461D01*
X323724Y619351D01*
X323691Y619243D01*
X323654Y619136D01*
X323614Y619030D01*
X323569Y618926D01*
X323521Y618823D01*
X323470Y618722D01*
X323415Y618623D01*
X323357Y618526D01*
X323295Y618431D01*
X323230Y618338D01*
X323162Y618248D01*
X323091Y618160D01*
X323016Y618074D01*
X322939Y617991D01*
X322859Y617911D01*
X322776Y617834D01*
X322690Y617759D01*
X322602Y617688D01*
X322512Y617620D01*
X322419Y617555D01*
X322324Y617493D01*
X322227Y617435D01*
X322128Y617380D01*
X322027Y617329D01*
X321924Y617281D01*
X321820Y617236D01*
X321714Y617196D01*
X321607Y617159D01*
X321499Y617126D01*
X321389Y617096D01*
X321279Y617071D01*
X321168Y617049D01*
X321056Y617032D01*
X320943Y617018D01*
X320830Y617008D01*
X320717Y617002D01*
X320604Y617000D01*
X320604Y617001D02*
X317358Y617001D01*
X321253Y617001D02*
X323849Y611808D01*
X328714Y622194D02*
X328714Y623492D01*
X335205Y623492D01*
X331960Y611808D01*
X318058Y595692D02*
X318058Y584008D01*
X318058Y595692D02*
X321304Y595692D01*
X321417Y595690D01*
X321530Y595684D01*
X321643Y595674D01*
X321756Y595660D01*
X321868Y595643D01*
X321979Y595621D01*
X322089Y595596D01*
X322199Y595566D01*
X322307Y595533D01*
X322414Y595496D01*
X322520Y595456D01*
X322624Y595411D01*
X322727Y595363D01*
X322828Y595312D01*
X322927Y595257D01*
X323024Y595199D01*
X323119Y595137D01*
X323212Y595072D01*
X323302Y595004D01*
X323390Y594933D01*
X323476Y594858D01*
X323559Y594781D01*
X323639Y594701D01*
X323716Y594618D01*
X323791Y594532D01*
X323862Y594444D01*
X323930Y594354D01*
X323995Y594261D01*
X324057Y594166D01*
X324115Y594069D01*
X324170Y593970D01*
X324221Y593869D01*
X324269Y593766D01*
X324314Y593662D01*
X324354Y593556D01*
X324391Y593449D01*
X324424Y593341D01*
X324454Y593231D01*
X324479Y593121D01*
X324501Y593010D01*
X324518Y592898D01*
X324532Y592785D01*
X324542Y592672D01*
X324548Y592559D01*
X324550Y592446D01*
X324548Y592333D01*
X324542Y592220D01*
X324532Y592107D01*
X324518Y591994D01*
X324501Y591882D01*
X324479Y591771D01*
X324454Y591661D01*
X324424Y591551D01*
X324391Y591443D01*
X324354Y591336D01*
X324314Y591230D01*
X324269Y591126D01*
X324221Y591023D01*
X324170Y590922D01*
X324115Y590823D01*
X324057Y590726D01*
X323995Y590631D01*
X323930Y590538D01*
X323862Y590448D01*
X323791Y590360D01*
X323716Y590274D01*
X323639Y590191D01*
X323559Y590111D01*
X323476Y590034D01*
X323390Y589959D01*
X323302Y589888D01*
X323212Y589820D01*
X323119Y589755D01*
X323024Y589693D01*
X322927Y589635D01*
X322828Y589580D01*
X322727Y589529D01*
X322624Y589481D01*
X322520Y589436D01*
X322414Y589396D01*
X322307Y589359D01*
X322199Y589326D01*
X322089Y589296D01*
X321979Y589271D01*
X321868Y589249D01*
X321756Y589232D01*
X321643Y589218D01*
X321530Y589208D01*
X321417Y589202D01*
X321304Y589200D01*
X321304Y589201D02*
X318058Y589201D01*
X321953Y589201D02*
X324549Y584008D01*
X329414Y587254D02*
X329416Y587367D01*
X329422Y587480D01*
X329432Y587593D01*
X329446Y587706D01*
X329463Y587818D01*
X329485Y587929D01*
X329510Y588039D01*
X329540Y588149D01*
X329573Y588257D01*
X329610Y588364D01*
X329650Y588470D01*
X329695Y588574D01*
X329743Y588677D01*
X329794Y588778D01*
X329849Y588877D01*
X329907Y588974D01*
X329969Y589069D01*
X330034Y589162D01*
X330102Y589252D01*
X330173Y589340D01*
X330248Y589426D01*
X330325Y589509D01*
X330405Y589589D01*
X330488Y589666D01*
X330574Y589741D01*
X330662Y589812D01*
X330752Y589880D01*
X330845Y589945D01*
X330940Y590007D01*
X331037Y590065D01*
X331136Y590120D01*
X331237Y590171D01*
X331340Y590219D01*
X331444Y590264D01*
X331550Y590304D01*
X331657Y590341D01*
X331765Y590374D01*
X331875Y590404D01*
X331985Y590429D01*
X332096Y590451D01*
X332208Y590468D01*
X332321Y590482D01*
X332434Y590492D01*
X332547Y590498D01*
X332660Y590500D01*
X332773Y590498D01*
X332886Y590492D01*
X332999Y590482D01*
X333112Y590468D01*
X333224Y590451D01*
X333335Y590429D01*
X333445Y590404D01*
X333555Y590374D01*
X333663Y590341D01*
X333770Y590304D01*
X333876Y590264D01*
X333980Y590219D01*
X334083Y590171D01*
X334184Y590120D01*
X334283Y590065D01*
X334380Y590007D01*
X334475Y589945D01*
X334568Y589880D01*
X334658Y589812D01*
X334746Y589741D01*
X334832Y589666D01*
X334915Y589589D01*
X334995Y589509D01*
X335072Y589426D01*
X335147Y589340D01*
X335218Y589252D01*
X335286Y589162D01*
X335351Y589069D01*
X335413Y588974D01*
X335471Y588877D01*
X335526Y588778D01*
X335577Y588677D01*
X335625Y588574D01*
X335670Y588470D01*
X335710Y588364D01*
X335747Y588257D01*
X335780Y588149D01*
X335810Y588039D01*
X335835Y587929D01*
X335857Y587818D01*
X335874Y587706D01*
X335888Y587593D01*
X335898Y587480D01*
X335904Y587367D01*
X335906Y587254D01*
X335904Y587141D01*
X335898Y587028D01*
X335888Y586915D01*
X335874Y586802D01*
X335857Y586690D01*
X335835Y586579D01*
X335810Y586469D01*
X335780Y586359D01*
X335747Y586251D01*
X335710Y586144D01*
X335670Y586038D01*
X335625Y585934D01*
X335577Y585831D01*
X335526Y585730D01*
X335471Y585631D01*
X335413Y585534D01*
X335351Y585439D01*
X335286Y585346D01*
X335218Y585256D01*
X335147Y585168D01*
X335072Y585082D01*
X334995Y584999D01*
X334915Y584919D01*
X334832Y584842D01*
X334746Y584767D01*
X334658Y584696D01*
X334568Y584628D01*
X334475Y584563D01*
X334380Y584501D01*
X334283Y584443D01*
X334184Y584388D01*
X334083Y584337D01*
X333980Y584289D01*
X333876Y584244D01*
X333770Y584204D01*
X333663Y584167D01*
X333555Y584134D01*
X333445Y584104D01*
X333335Y584079D01*
X333224Y584057D01*
X333112Y584040D01*
X332999Y584026D01*
X332886Y584016D01*
X332773Y584010D01*
X332660Y584008D01*
X332547Y584010D01*
X332434Y584016D01*
X332321Y584026D01*
X332208Y584040D01*
X332096Y584057D01*
X331985Y584079D01*
X331875Y584104D01*
X331765Y584134D01*
X331657Y584167D01*
X331550Y584204D01*
X331444Y584244D01*
X331340Y584289D01*
X331237Y584337D01*
X331136Y584388D01*
X331037Y584443D01*
X330940Y584501D01*
X330845Y584563D01*
X330752Y584628D01*
X330662Y584696D01*
X330574Y584767D01*
X330488Y584842D01*
X330405Y584919D01*
X330325Y584999D01*
X330248Y585082D01*
X330173Y585168D01*
X330102Y585256D01*
X330034Y585346D01*
X329969Y585439D01*
X329907Y585534D01*
X329849Y585631D01*
X329794Y585730D01*
X329743Y585831D01*
X329695Y585934D01*
X329650Y586038D01*
X329610Y586144D01*
X329573Y586251D01*
X329540Y586359D01*
X329510Y586469D01*
X329485Y586579D01*
X329463Y586690D01*
X329446Y586802D01*
X329432Y586915D01*
X329422Y587028D01*
X329416Y587141D01*
X329414Y587254D01*
X330064Y593096D02*
X330066Y593197D01*
X330072Y593297D01*
X330082Y593397D01*
X330095Y593497D01*
X330113Y593596D01*
X330134Y593695D01*
X330159Y593792D01*
X330188Y593889D01*
X330221Y593984D01*
X330257Y594078D01*
X330297Y594170D01*
X330340Y594261D01*
X330387Y594350D01*
X330437Y594437D01*
X330491Y594523D01*
X330548Y594606D01*
X330608Y594686D01*
X330671Y594765D01*
X330738Y594841D01*
X330807Y594914D01*
X330879Y594984D01*
X330953Y595052D01*
X331030Y595117D01*
X331110Y595178D01*
X331192Y595237D01*
X331276Y595292D01*
X331362Y595344D01*
X331450Y595393D01*
X331540Y595438D01*
X331632Y595480D01*
X331725Y595518D01*
X331820Y595552D01*
X331915Y595583D01*
X332012Y595610D01*
X332110Y595633D01*
X332209Y595653D01*
X332309Y595668D01*
X332409Y595680D01*
X332509Y595688D01*
X332610Y595692D01*
X332710Y595692D01*
X332811Y595688D01*
X332911Y595680D01*
X333011Y595668D01*
X333111Y595653D01*
X333210Y595633D01*
X333308Y595610D01*
X333405Y595583D01*
X333500Y595552D01*
X333595Y595518D01*
X333688Y595480D01*
X333780Y595438D01*
X333870Y595393D01*
X333958Y595344D01*
X334044Y595292D01*
X334128Y595237D01*
X334210Y595178D01*
X334290Y595117D01*
X334367Y595052D01*
X334441Y594984D01*
X334513Y594914D01*
X334582Y594841D01*
X334649Y594765D01*
X334712Y594686D01*
X334772Y594606D01*
X334829Y594523D01*
X334883Y594437D01*
X334933Y594350D01*
X334980Y594261D01*
X335023Y594170D01*
X335063Y594078D01*
X335099Y593984D01*
X335132Y593889D01*
X335161Y593792D01*
X335186Y593695D01*
X335207Y593596D01*
X335225Y593497D01*
X335238Y593397D01*
X335248Y593297D01*
X335254Y593197D01*
X335256Y593096D01*
X335254Y592995D01*
X335248Y592895D01*
X335238Y592795D01*
X335225Y592695D01*
X335207Y592596D01*
X335186Y592497D01*
X335161Y592400D01*
X335132Y592303D01*
X335099Y592208D01*
X335063Y592114D01*
X335023Y592022D01*
X334980Y591931D01*
X334933Y591842D01*
X334883Y591755D01*
X334829Y591669D01*
X334772Y591586D01*
X334712Y591506D01*
X334649Y591427D01*
X334582Y591351D01*
X334513Y591278D01*
X334441Y591208D01*
X334367Y591140D01*
X334290Y591075D01*
X334210Y591014D01*
X334128Y590955D01*
X334044Y590900D01*
X333958Y590848D01*
X333870Y590799D01*
X333780Y590754D01*
X333688Y590712D01*
X333595Y590674D01*
X333500Y590640D01*
X333405Y590609D01*
X333308Y590582D01*
X333210Y590559D01*
X333111Y590539D01*
X333011Y590524D01*
X332911Y590512D01*
X332811Y590504D01*
X332710Y590500D01*
X332610Y590500D01*
X332509Y590504D01*
X332409Y590512D01*
X332309Y590524D01*
X332209Y590539D01*
X332110Y590559D01*
X332012Y590582D01*
X331915Y590609D01*
X331820Y590640D01*
X331725Y590674D01*
X331632Y590712D01*
X331540Y590754D01*
X331450Y590799D01*
X331362Y590848D01*
X331276Y590900D01*
X331192Y590955D01*
X331110Y591014D01*
X331030Y591075D01*
X330953Y591140D01*
X330879Y591208D01*
X330807Y591278D01*
X330738Y591351D01*
X330671Y591427D01*
X330608Y591506D01*
X330548Y591586D01*
X330491Y591669D01*
X330437Y591755D01*
X330387Y591842D01*
X330340Y591931D01*
X330297Y592022D01*
X330257Y592114D01*
X330221Y592208D01*
X330188Y592303D01*
X330159Y592400D01*
X330134Y592497D01*
X330113Y592596D01*
X330095Y592695D01*
X330082Y592795D01*
X330072Y592895D01*
X330066Y592995D01*
X330064Y593096D01*
X70095Y613308D02*
X70095Y624992D01*
X73340Y624992D01*
X73453Y624990D01*
X73566Y624984D01*
X73679Y624974D01*
X73792Y624960D01*
X73904Y624943D01*
X74015Y624921D01*
X74125Y624896D01*
X74235Y624866D01*
X74343Y624833D01*
X74450Y624796D01*
X74556Y624756D01*
X74660Y624711D01*
X74763Y624663D01*
X74864Y624612D01*
X74963Y624557D01*
X75060Y624499D01*
X75155Y624437D01*
X75248Y624372D01*
X75338Y624304D01*
X75426Y624233D01*
X75512Y624158D01*
X75595Y624081D01*
X75675Y624001D01*
X75752Y623918D01*
X75827Y623832D01*
X75898Y623744D01*
X75966Y623654D01*
X76031Y623561D01*
X76093Y623466D01*
X76151Y623369D01*
X76206Y623270D01*
X76257Y623169D01*
X76305Y623066D01*
X76350Y622962D01*
X76390Y622856D01*
X76427Y622749D01*
X76460Y622641D01*
X76490Y622531D01*
X76515Y622421D01*
X76537Y622310D01*
X76554Y622198D01*
X76568Y622085D01*
X76578Y621972D01*
X76584Y621859D01*
X76586Y621746D01*
X76584Y621633D01*
X76578Y621520D01*
X76568Y621407D01*
X76554Y621294D01*
X76537Y621182D01*
X76515Y621071D01*
X76490Y620961D01*
X76460Y620851D01*
X76427Y620743D01*
X76390Y620636D01*
X76350Y620530D01*
X76305Y620426D01*
X76257Y620323D01*
X76206Y620222D01*
X76151Y620123D01*
X76093Y620026D01*
X76031Y619931D01*
X75966Y619838D01*
X75898Y619748D01*
X75827Y619660D01*
X75752Y619574D01*
X75675Y619491D01*
X75595Y619411D01*
X75512Y619334D01*
X75426Y619259D01*
X75338Y619188D01*
X75248Y619120D01*
X75155Y619055D01*
X75060Y618993D01*
X74963Y618935D01*
X74864Y618880D01*
X74763Y618829D01*
X74660Y618781D01*
X74556Y618736D01*
X74450Y618696D01*
X74343Y618659D01*
X74235Y618626D01*
X74125Y618596D01*
X74015Y618571D01*
X73904Y618549D01*
X73792Y618532D01*
X73679Y618518D01*
X73566Y618508D01*
X73453Y618502D01*
X73340Y618500D01*
X73340Y618501D02*
X70095Y618501D01*
X73989Y618501D02*
X76586Y613308D01*
X84047Y618501D02*
X87942Y618501D01*
X84047Y618501D02*
X83948Y618503D01*
X83848Y618509D01*
X83749Y618518D01*
X83651Y618531D01*
X83553Y618548D01*
X83455Y618569D01*
X83359Y618594D01*
X83264Y618622D01*
X83170Y618654D01*
X83077Y618689D01*
X82985Y618728D01*
X82895Y618771D01*
X82807Y618816D01*
X82720Y618866D01*
X82636Y618918D01*
X82553Y618974D01*
X82473Y619032D01*
X82395Y619094D01*
X82320Y619159D01*
X82247Y619227D01*
X82177Y619297D01*
X82109Y619370D01*
X82044Y619445D01*
X81982Y619523D01*
X81924Y619603D01*
X81868Y619686D01*
X81816Y619770D01*
X81766Y619857D01*
X81721Y619945D01*
X81678Y620035D01*
X81639Y620127D01*
X81604Y620220D01*
X81572Y620314D01*
X81544Y620409D01*
X81519Y620505D01*
X81498Y620603D01*
X81481Y620701D01*
X81468Y620799D01*
X81459Y620898D01*
X81453Y620998D01*
X81451Y621097D01*
X81451Y621746D01*
X81450Y621746D02*
X81452Y621859D01*
X81458Y621972D01*
X81468Y622085D01*
X81482Y622198D01*
X81499Y622310D01*
X81521Y622421D01*
X81546Y622531D01*
X81576Y622641D01*
X81609Y622749D01*
X81646Y622856D01*
X81686Y622962D01*
X81731Y623066D01*
X81779Y623169D01*
X81830Y623270D01*
X81885Y623369D01*
X81943Y623466D01*
X82005Y623561D01*
X82070Y623654D01*
X82138Y623744D01*
X82209Y623832D01*
X82284Y623918D01*
X82361Y624001D01*
X82441Y624081D01*
X82524Y624158D01*
X82610Y624233D01*
X82698Y624304D01*
X82788Y624372D01*
X82881Y624437D01*
X82976Y624499D01*
X83073Y624557D01*
X83172Y624612D01*
X83273Y624663D01*
X83376Y624711D01*
X83480Y624756D01*
X83586Y624796D01*
X83693Y624833D01*
X83801Y624866D01*
X83911Y624896D01*
X84021Y624921D01*
X84132Y624943D01*
X84244Y624960D01*
X84357Y624974D01*
X84470Y624984D01*
X84583Y624990D01*
X84696Y624992D01*
X84809Y624990D01*
X84922Y624984D01*
X85035Y624974D01*
X85148Y624960D01*
X85260Y624943D01*
X85371Y624921D01*
X85481Y624896D01*
X85591Y624866D01*
X85699Y624833D01*
X85806Y624796D01*
X85912Y624756D01*
X86016Y624711D01*
X86119Y624663D01*
X86220Y624612D01*
X86319Y624557D01*
X86416Y624499D01*
X86511Y624437D01*
X86604Y624372D01*
X86694Y624304D01*
X86782Y624233D01*
X86868Y624158D01*
X86951Y624081D01*
X87031Y624001D01*
X87108Y623918D01*
X87183Y623832D01*
X87254Y623744D01*
X87322Y623654D01*
X87387Y623561D01*
X87449Y623466D01*
X87507Y623369D01*
X87562Y623270D01*
X87613Y623169D01*
X87661Y623066D01*
X87706Y622962D01*
X87746Y622856D01*
X87783Y622749D01*
X87816Y622641D01*
X87846Y622531D01*
X87871Y622421D01*
X87893Y622310D01*
X87910Y622198D01*
X87924Y622085D01*
X87934Y621972D01*
X87940Y621859D01*
X87942Y621746D01*
X87942Y618501D01*
X87940Y618358D01*
X87934Y618215D01*
X87924Y618072D01*
X87910Y617930D01*
X87893Y617788D01*
X87871Y617646D01*
X87846Y617505D01*
X87816Y617365D01*
X87783Y617226D01*
X87746Y617088D01*
X87705Y616951D01*
X87661Y616815D01*
X87612Y616680D01*
X87560Y616547D01*
X87505Y616415D01*
X87445Y616285D01*
X87382Y616156D01*
X87316Y616029D01*
X87246Y615905D01*
X87173Y615782D01*
X87096Y615661D01*
X87016Y615542D01*
X86933Y615426D01*
X86847Y615311D01*
X86758Y615200D01*
X86665Y615090D01*
X86570Y614984D01*
X86471Y614880D01*
X86370Y614779D01*
X86266Y614680D01*
X86160Y614585D01*
X86050Y614492D01*
X85939Y614403D01*
X85824Y614317D01*
X85708Y614234D01*
X85589Y614154D01*
X85468Y614077D01*
X85345Y614004D01*
X85221Y613934D01*
X85094Y613868D01*
X84965Y613805D01*
X84835Y613745D01*
X84703Y613690D01*
X84570Y613638D01*
X84435Y613589D01*
X84299Y613545D01*
X84162Y613504D01*
X84024Y613467D01*
X83885Y613434D01*
X83745Y613404D01*
X83604Y613379D01*
X83462Y613357D01*
X83320Y613340D01*
X83178Y613326D01*
X83035Y613316D01*
X82892Y613310D01*
X82749Y613308D01*
D20*
X163195Y513270D02*
X166243Y513270D01*
X236855Y513270D02*
X236855Y516318D01*
X236855Y586930D02*
X233807Y586930D01*
X163195Y586930D02*
X163195Y583882D01*
X163195Y516318D02*
X163195Y513270D01*
X233807Y513270D02*
X236855Y513270D01*
X236855Y583882D02*
X236855Y586930D01*
X166243Y586930D02*
X163195Y586930D01*
D11*
X142078Y588567D02*
X142078Y584588D01*
X144399Y581603D01*
X142078Y584588D02*
X139756Y581603D01*
X142078Y584588D02*
X145725Y585914D01*
X142078Y584588D02*
X138430Y585914D01*
X250640Y603447D02*
X250640Y612069D01*
X250640Y603447D02*
X250642Y603333D01*
X250648Y603218D01*
X250658Y603104D01*
X250672Y602991D01*
X250689Y602877D01*
X250711Y602765D01*
X250736Y602653D01*
X250766Y602543D01*
X250799Y602433D01*
X250836Y602325D01*
X250876Y602218D01*
X250921Y602112D01*
X250968Y602008D01*
X251020Y601906D01*
X251075Y601806D01*
X251133Y601707D01*
X251195Y601611D01*
X251260Y601516D01*
X251328Y601425D01*
X251400Y601335D01*
X251474Y601248D01*
X251551Y601164D01*
X251632Y601082D01*
X251715Y601003D01*
X251800Y600927D01*
X251889Y600854D01*
X251979Y600785D01*
X252072Y600718D01*
X252168Y600655D01*
X252265Y600595D01*
X252365Y600538D01*
X252466Y600485D01*
X252569Y600435D01*
X252674Y600389D01*
X252780Y600346D01*
X252888Y600308D01*
X252997Y600273D01*
X253107Y600242D01*
X253218Y600214D01*
X253330Y600191D01*
X253443Y600171D01*
X253556Y600155D01*
X253670Y600143D01*
X253784Y600135D01*
X253899Y600131D01*
X254013Y600131D01*
X254128Y600135D01*
X254242Y600143D01*
X254356Y600155D01*
X254469Y600171D01*
X254582Y600191D01*
X254694Y600214D01*
X254805Y600242D01*
X254915Y600273D01*
X255024Y600308D01*
X255132Y600346D01*
X255238Y600389D01*
X255343Y600435D01*
X255446Y600485D01*
X255547Y600538D01*
X255647Y600595D01*
X255744Y600655D01*
X255840Y600718D01*
X255933Y600785D01*
X256023Y600854D01*
X256112Y600927D01*
X256197Y601003D01*
X256280Y601082D01*
X256361Y601164D01*
X256438Y601248D01*
X256512Y601335D01*
X256584Y601425D01*
X256652Y601516D01*
X256717Y601611D01*
X256779Y601707D01*
X256837Y601806D01*
X256892Y601906D01*
X256944Y602008D01*
X256991Y602112D01*
X257036Y602218D01*
X257076Y602325D01*
X257113Y602433D01*
X257146Y602543D01*
X257176Y602653D01*
X257201Y602765D01*
X257223Y602877D01*
X257240Y602991D01*
X257254Y603104D01*
X257264Y603218D01*
X257270Y603333D01*
X257272Y603447D01*
X257272Y612069D01*
X262451Y609416D02*
X265767Y612069D01*
X265767Y600131D01*
X262451Y600131D02*
X269083Y600131D01*
D20*
X57240Y189050D02*
X57240Y150950D01*
X26760Y189050D02*
X26762Y189150D01*
X26768Y189249D01*
X26778Y189349D01*
X26791Y189447D01*
X26809Y189546D01*
X26830Y189643D01*
X26855Y189739D01*
X26884Y189835D01*
X26917Y189929D01*
X26953Y190022D01*
X26993Y190113D01*
X27037Y190203D01*
X27084Y190291D01*
X27134Y190377D01*
X27188Y190461D01*
X27245Y190543D01*
X27305Y190622D01*
X27369Y190700D01*
X27435Y190774D01*
X27504Y190846D01*
X27576Y190915D01*
X27650Y190981D01*
X27728Y191045D01*
X27807Y191105D01*
X27889Y191162D01*
X27973Y191216D01*
X28059Y191266D01*
X28147Y191313D01*
X28237Y191357D01*
X28328Y191397D01*
X28421Y191433D01*
X28515Y191466D01*
X28611Y191495D01*
X28707Y191520D01*
X28804Y191541D01*
X28903Y191559D01*
X29001Y191572D01*
X29101Y191582D01*
X29200Y191588D01*
X29300Y191590D01*
X26760Y150950D02*
X26762Y150850D01*
X26768Y150751D01*
X26778Y150651D01*
X26791Y150553D01*
X26809Y150454D01*
X26830Y150357D01*
X26855Y150261D01*
X26884Y150165D01*
X26917Y150071D01*
X26953Y149978D01*
X26993Y149887D01*
X27037Y149797D01*
X27084Y149709D01*
X27134Y149623D01*
X27188Y149539D01*
X27245Y149457D01*
X27305Y149378D01*
X27369Y149300D01*
X27435Y149226D01*
X27504Y149154D01*
X27576Y149085D01*
X27650Y149019D01*
X27728Y148955D01*
X27807Y148895D01*
X27889Y148838D01*
X27973Y148784D01*
X28059Y148734D01*
X28147Y148687D01*
X28237Y148643D01*
X28328Y148603D01*
X28421Y148567D01*
X28515Y148534D01*
X28611Y148505D01*
X28707Y148480D01*
X28804Y148459D01*
X28903Y148441D01*
X29001Y148428D01*
X29101Y148418D01*
X29200Y148412D01*
X29300Y148410D01*
X54700Y148410D02*
X54800Y148412D01*
X54899Y148418D01*
X54999Y148428D01*
X55097Y148441D01*
X55196Y148459D01*
X55293Y148480D01*
X55389Y148505D01*
X55485Y148534D01*
X55579Y148567D01*
X55672Y148603D01*
X55763Y148643D01*
X55853Y148687D01*
X55941Y148734D01*
X56027Y148784D01*
X56111Y148838D01*
X56193Y148895D01*
X56272Y148955D01*
X56350Y149019D01*
X56424Y149085D01*
X56496Y149154D01*
X56565Y149226D01*
X56631Y149300D01*
X56695Y149378D01*
X56755Y149457D01*
X56812Y149539D01*
X56866Y149623D01*
X56916Y149709D01*
X56963Y149797D01*
X57007Y149887D01*
X57047Y149978D01*
X57083Y150071D01*
X57116Y150165D01*
X57145Y150261D01*
X57170Y150357D01*
X57191Y150454D01*
X57209Y150553D01*
X57222Y150651D01*
X57232Y150751D01*
X57238Y150850D01*
X57240Y150950D01*
X57240Y189050D02*
X57238Y189150D01*
X57232Y189249D01*
X57222Y189349D01*
X57209Y189447D01*
X57191Y189546D01*
X57170Y189643D01*
X57145Y189739D01*
X57116Y189835D01*
X57083Y189929D01*
X57047Y190022D01*
X57007Y190113D01*
X56963Y190203D01*
X56916Y190291D01*
X56866Y190377D01*
X56812Y190461D01*
X56755Y190543D01*
X56695Y190622D01*
X56631Y190700D01*
X56565Y190774D01*
X56496Y190846D01*
X56424Y190915D01*
X56350Y190981D01*
X56272Y191045D01*
X56193Y191105D01*
X56111Y191162D01*
X56027Y191216D01*
X55941Y191266D01*
X55853Y191313D01*
X55763Y191357D01*
X55672Y191397D01*
X55579Y191433D01*
X55485Y191466D01*
X55389Y191495D01*
X55293Y191520D01*
X55196Y191541D01*
X55097Y191559D01*
X54999Y191572D01*
X54899Y191582D01*
X54800Y191588D01*
X54700Y191590D01*
X29300Y191590D01*
X29300Y148410D02*
X54700Y148410D01*
X26760Y150950D02*
X26760Y189050D01*
D14*
X21045Y155395D02*
X21145Y155393D01*
X21244Y155387D01*
X21344Y155377D01*
X21442Y155364D01*
X21541Y155346D01*
X21638Y155325D01*
X21734Y155300D01*
X21830Y155271D01*
X21924Y155238D01*
X22017Y155202D01*
X22108Y155162D01*
X22198Y155118D01*
X22286Y155071D01*
X22372Y155021D01*
X22456Y154967D01*
X22538Y154910D01*
X22617Y154850D01*
X22695Y154786D01*
X22769Y154720D01*
X22841Y154651D01*
X22910Y154579D01*
X22976Y154505D01*
X23040Y154427D01*
X23100Y154348D01*
X23157Y154266D01*
X23211Y154182D01*
X23261Y154096D01*
X23308Y154008D01*
X23352Y153918D01*
X23392Y153827D01*
X23428Y153734D01*
X23461Y153640D01*
X23490Y153544D01*
X23515Y153448D01*
X23536Y153351D01*
X23554Y153252D01*
X23567Y153154D01*
X23577Y153054D01*
X23583Y152955D01*
X23585Y152855D01*
X23583Y152714D01*
X23578Y152573D01*
X23568Y152432D01*
X23555Y152291D01*
X23539Y152151D01*
X23518Y152011D01*
X23494Y151872D01*
X23466Y151733D01*
X23435Y151596D01*
X23400Y151459D01*
X23362Y151323D01*
X23320Y151188D01*
X23274Y151055D01*
X23225Y150922D01*
X23172Y150791D01*
X23116Y150662D01*
X23057Y150533D01*
X22994Y150407D01*
X22928Y150282D01*
X22859Y150159D01*
X22786Y150038D01*
X22710Y149919D01*
X22631Y149801D01*
X22550Y149686D01*
X22465Y149574D01*
X22377Y149463D01*
X22286Y149355D01*
X22193Y149249D01*
X22096Y149146D01*
X21997Y149045D01*
X14695Y149363D02*
X14595Y149365D01*
X14496Y149371D01*
X14396Y149381D01*
X14298Y149394D01*
X14199Y149412D01*
X14102Y149433D01*
X14006Y149458D01*
X13910Y149487D01*
X13816Y149520D01*
X13723Y149556D01*
X13632Y149596D01*
X13542Y149640D01*
X13454Y149687D01*
X13368Y149737D01*
X13284Y149791D01*
X13202Y149848D01*
X13123Y149908D01*
X13045Y149972D01*
X12971Y150038D01*
X12899Y150107D01*
X12830Y150179D01*
X12764Y150253D01*
X12700Y150331D01*
X12640Y150410D01*
X12583Y150492D01*
X12529Y150576D01*
X12479Y150662D01*
X12432Y150750D01*
X12388Y150840D01*
X12348Y150931D01*
X12312Y151024D01*
X12279Y151118D01*
X12250Y151214D01*
X12225Y151310D01*
X12204Y151407D01*
X12186Y151506D01*
X12173Y151604D01*
X12163Y151704D01*
X12157Y151803D01*
X12155Y151903D01*
X12157Y152036D01*
X12162Y152169D01*
X12172Y152302D01*
X12185Y152435D01*
X12202Y152567D01*
X12222Y152699D01*
X12246Y152830D01*
X12274Y152960D01*
X12305Y153090D01*
X12340Y153218D01*
X12379Y153346D01*
X12421Y153472D01*
X12467Y153597D01*
X12516Y153721D01*
X12568Y153844D01*
X12624Y153965D01*
X12684Y154084D01*
X12746Y154202D01*
X12812Y154317D01*
X12881Y154431D01*
X12954Y154543D01*
X13029Y154653D01*
X13108Y154761D01*
X16918Y150632D02*
X16866Y150548D01*
X16811Y150465D01*
X16752Y150385D01*
X16691Y150307D01*
X16627Y150232D01*
X16559Y150159D01*
X16489Y150088D01*
X16417Y150021D01*
X16342Y149956D01*
X16264Y149894D01*
X16184Y149835D01*
X16102Y149779D01*
X16018Y149727D01*
X15932Y149678D01*
X15844Y149632D01*
X15754Y149589D01*
X15663Y149550D01*
X15570Y149515D01*
X15476Y149483D01*
X15381Y149455D01*
X15285Y149430D01*
X15188Y149410D01*
X15090Y149392D01*
X14992Y149379D01*
X14893Y149370D01*
X14794Y149364D01*
X14695Y149362D01*
X18822Y154125D02*
X18874Y154209D01*
X18929Y154292D01*
X18988Y154372D01*
X19049Y154450D01*
X19113Y154525D01*
X19181Y154598D01*
X19251Y154669D01*
X19323Y154736D01*
X19398Y154801D01*
X19476Y154863D01*
X19556Y154922D01*
X19638Y154978D01*
X19722Y155030D01*
X19808Y155079D01*
X19896Y155125D01*
X19986Y155168D01*
X20077Y155207D01*
X20170Y155242D01*
X20264Y155274D01*
X20359Y155302D01*
X20455Y155327D01*
X20552Y155347D01*
X20650Y155365D01*
X20748Y155378D01*
X20847Y155387D01*
X20946Y155393D01*
X21045Y155395D01*
X18823Y154125D02*
X16918Y150633D01*
X21045Y162686D02*
X12155Y162686D01*
X21045Y162686D02*
X21145Y162684D01*
X21244Y162678D01*
X21344Y162668D01*
X21442Y162655D01*
X21541Y162637D01*
X21638Y162616D01*
X21734Y162591D01*
X21830Y162562D01*
X21924Y162529D01*
X22017Y162493D01*
X22108Y162453D01*
X22198Y162409D01*
X22286Y162362D01*
X22372Y162312D01*
X22456Y162258D01*
X22538Y162201D01*
X22617Y162141D01*
X22695Y162077D01*
X22769Y162011D01*
X22841Y161942D01*
X22910Y161870D01*
X22976Y161796D01*
X23040Y161718D01*
X23100Y161639D01*
X23157Y161557D01*
X23211Y161473D01*
X23261Y161387D01*
X23308Y161299D01*
X23352Y161209D01*
X23392Y161118D01*
X23428Y161025D01*
X23461Y160931D01*
X23490Y160835D01*
X23515Y160739D01*
X23536Y160642D01*
X23554Y160543D01*
X23567Y160445D01*
X23577Y160345D01*
X23583Y160246D01*
X23585Y160146D01*
X23585Y158876D01*
X14695Y168095D02*
X12155Y171270D01*
X23585Y171270D01*
X23585Y168095D02*
X23585Y174445D01*
D20*
X49950Y410760D02*
X88050Y410760D01*
X90590Y438700D02*
X90588Y438800D01*
X90582Y438899D01*
X90572Y438999D01*
X90559Y439097D01*
X90541Y439196D01*
X90520Y439293D01*
X90495Y439389D01*
X90466Y439485D01*
X90433Y439579D01*
X90397Y439672D01*
X90357Y439763D01*
X90313Y439853D01*
X90266Y439941D01*
X90216Y440027D01*
X90162Y440111D01*
X90105Y440193D01*
X90045Y440272D01*
X89981Y440350D01*
X89915Y440424D01*
X89846Y440496D01*
X89774Y440565D01*
X89700Y440631D01*
X89622Y440695D01*
X89543Y440755D01*
X89461Y440812D01*
X89377Y440866D01*
X89291Y440916D01*
X89203Y440963D01*
X89113Y441007D01*
X89022Y441047D01*
X88929Y441083D01*
X88835Y441116D01*
X88739Y441145D01*
X88643Y441170D01*
X88546Y441191D01*
X88447Y441209D01*
X88349Y441222D01*
X88249Y441232D01*
X88150Y441238D01*
X88050Y441240D01*
X49950Y441240D02*
X49850Y441238D01*
X49751Y441232D01*
X49651Y441222D01*
X49553Y441209D01*
X49454Y441191D01*
X49357Y441170D01*
X49261Y441145D01*
X49165Y441116D01*
X49071Y441083D01*
X48978Y441047D01*
X48887Y441007D01*
X48797Y440963D01*
X48709Y440916D01*
X48623Y440866D01*
X48539Y440812D01*
X48457Y440755D01*
X48378Y440695D01*
X48300Y440631D01*
X48226Y440565D01*
X48154Y440496D01*
X48085Y440424D01*
X48019Y440350D01*
X47955Y440272D01*
X47895Y440193D01*
X47838Y440111D01*
X47784Y440027D01*
X47734Y439941D01*
X47687Y439853D01*
X47643Y439763D01*
X47603Y439672D01*
X47567Y439579D01*
X47534Y439485D01*
X47505Y439389D01*
X47480Y439293D01*
X47459Y439196D01*
X47441Y439097D01*
X47428Y438999D01*
X47418Y438899D01*
X47412Y438800D01*
X47410Y438700D01*
X47410Y413300D02*
X47412Y413200D01*
X47418Y413101D01*
X47428Y413001D01*
X47441Y412903D01*
X47459Y412804D01*
X47480Y412707D01*
X47505Y412611D01*
X47534Y412515D01*
X47567Y412421D01*
X47603Y412328D01*
X47643Y412237D01*
X47687Y412147D01*
X47734Y412059D01*
X47784Y411973D01*
X47838Y411889D01*
X47895Y411807D01*
X47955Y411728D01*
X48019Y411650D01*
X48085Y411576D01*
X48154Y411504D01*
X48226Y411435D01*
X48300Y411369D01*
X48378Y411305D01*
X48457Y411245D01*
X48539Y411188D01*
X48623Y411134D01*
X48709Y411084D01*
X48797Y411037D01*
X48887Y410993D01*
X48978Y410953D01*
X49071Y410917D01*
X49165Y410884D01*
X49261Y410855D01*
X49357Y410830D01*
X49454Y410809D01*
X49553Y410791D01*
X49651Y410778D01*
X49751Y410768D01*
X49850Y410762D01*
X49950Y410760D01*
X88050Y410760D02*
X88150Y410762D01*
X88249Y410768D01*
X88349Y410778D01*
X88447Y410791D01*
X88546Y410809D01*
X88643Y410830D01*
X88739Y410855D01*
X88835Y410884D01*
X88929Y410917D01*
X89022Y410953D01*
X89113Y410993D01*
X89203Y411037D01*
X89291Y411084D01*
X89377Y411134D01*
X89461Y411188D01*
X89543Y411245D01*
X89622Y411305D01*
X89700Y411369D01*
X89774Y411435D01*
X89846Y411504D01*
X89915Y411576D01*
X89981Y411650D01*
X90045Y411728D01*
X90105Y411807D01*
X90162Y411889D01*
X90216Y411973D01*
X90266Y412059D01*
X90313Y412147D01*
X90357Y412237D01*
X90397Y412328D01*
X90433Y412421D01*
X90466Y412515D01*
X90495Y412611D01*
X90520Y412707D01*
X90541Y412804D01*
X90559Y412903D01*
X90572Y413001D01*
X90582Y413101D01*
X90588Y413200D01*
X90590Y413300D01*
X90590Y438700D01*
X47410Y438700D02*
X47410Y413300D01*
X49950Y441240D02*
X88050Y441240D01*
D14*
X54395Y446955D02*
X54393Y446855D01*
X54387Y446756D01*
X54377Y446656D01*
X54364Y446558D01*
X54346Y446459D01*
X54325Y446362D01*
X54300Y446266D01*
X54271Y446170D01*
X54238Y446076D01*
X54202Y445983D01*
X54162Y445892D01*
X54118Y445802D01*
X54071Y445714D01*
X54021Y445628D01*
X53967Y445544D01*
X53910Y445462D01*
X53850Y445383D01*
X53786Y445305D01*
X53720Y445231D01*
X53651Y445159D01*
X53579Y445090D01*
X53505Y445024D01*
X53427Y444960D01*
X53348Y444900D01*
X53266Y444843D01*
X53182Y444789D01*
X53096Y444739D01*
X53008Y444692D01*
X52918Y444648D01*
X52827Y444608D01*
X52734Y444572D01*
X52640Y444539D01*
X52544Y444510D01*
X52448Y444485D01*
X52351Y444464D01*
X52252Y444446D01*
X52154Y444433D01*
X52054Y444423D01*
X51955Y444417D01*
X51855Y444415D01*
X51714Y444417D01*
X51573Y444422D01*
X51432Y444432D01*
X51291Y444445D01*
X51151Y444461D01*
X51011Y444482D01*
X50872Y444506D01*
X50733Y444534D01*
X50596Y444565D01*
X50459Y444600D01*
X50323Y444638D01*
X50188Y444680D01*
X50055Y444726D01*
X49922Y444775D01*
X49791Y444828D01*
X49662Y444884D01*
X49533Y444943D01*
X49407Y445006D01*
X49282Y445072D01*
X49159Y445141D01*
X49038Y445214D01*
X48919Y445290D01*
X48801Y445369D01*
X48686Y445450D01*
X48574Y445535D01*
X48463Y445623D01*
X48355Y445714D01*
X48249Y445807D01*
X48146Y445904D01*
X48045Y446003D01*
X48363Y453305D02*
X48365Y453405D01*
X48371Y453504D01*
X48381Y453604D01*
X48394Y453702D01*
X48412Y453801D01*
X48433Y453898D01*
X48458Y453994D01*
X48487Y454090D01*
X48520Y454184D01*
X48556Y454277D01*
X48596Y454368D01*
X48640Y454458D01*
X48687Y454546D01*
X48737Y454632D01*
X48791Y454716D01*
X48848Y454798D01*
X48908Y454877D01*
X48972Y454955D01*
X49038Y455029D01*
X49107Y455101D01*
X49179Y455170D01*
X49253Y455236D01*
X49331Y455300D01*
X49410Y455360D01*
X49492Y455417D01*
X49576Y455471D01*
X49662Y455521D01*
X49750Y455568D01*
X49840Y455612D01*
X49931Y455652D01*
X50024Y455688D01*
X50118Y455721D01*
X50214Y455750D01*
X50310Y455775D01*
X50407Y455796D01*
X50506Y455814D01*
X50604Y455827D01*
X50704Y455837D01*
X50803Y455843D01*
X50903Y455845D01*
X50903Y455846D02*
X51036Y455844D01*
X51169Y455839D01*
X51302Y455829D01*
X51435Y455816D01*
X51567Y455799D01*
X51699Y455779D01*
X51830Y455755D01*
X51960Y455727D01*
X52090Y455696D01*
X52218Y455661D01*
X52346Y455622D01*
X52472Y455580D01*
X52597Y455534D01*
X52721Y455485D01*
X52844Y455433D01*
X52965Y455377D01*
X53084Y455317D01*
X53202Y455255D01*
X53317Y455189D01*
X53431Y455120D01*
X53543Y455047D01*
X53653Y454972D01*
X53761Y454893D01*
X49632Y451082D02*
X49548Y451134D01*
X49465Y451189D01*
X49385Y451248D01*
X49307Y451309D01*
X49232Y451373D01*
X49159Y451441D01*
X49088Y451511D01*
X49021Y451583D01*
X48956Y451658D01*
X48894Y451736D01*
X48835Y451816D01*
X48779Y451898D01*
X48727Y451982D01*
X48678Y452068D01*
X48632Y452156D01*
X48589Y452246D01*
X48550Y452337D01*
X48515Y452430D01*
X48483Y452524D01*
X48455Y452619D01*
X48430Y452715D01*
X48410Y452812D01*
X48392Y452910D01*
X48379Y453008D01*
X48370Y453107D01*
X48364Y453206D01*
X48362Y453305D01*
X53125Y449178D02*
X53209Y449126D01*
X53292Y449071D01*
X53372Y449012D01*
X53450Y448951D01*
X53525Y448887D01*
X53598Y448819D01*
X53669Y448749D01*
X53736Y448677D01*
X53801Y448602D01*
X53863Y448524D01*
X53922Y448444D01*
X53978Y448362D01*
X54030Y448278D01*
X54079Y448192D01*
X54125Y448104D01*
X54168Y448014D01*
X54207Y447923D01*
X54242Y447830D01*
X54274Y447736D01*
X54302Y447641D01*
X54327Y447545D01*
X54347Y447448D01*
X54365Y447350D01*
X54378Y447252D01*
X54387Y447153D01*
X54393Y447054D01*
X54395Y446955D01*
X53125Y449178D02*
X49633Y451083D01*
X61686Y446955D02*
X61686Y455845D01*
X61686Y446955D02*
X61684Y446855D01*
X61678Y446756D01*
X61668Y446656D01*
X61655Y446558D01*
X61637Y446459D01*
X61616Y446362D01*
X61591Y446266D01*
X61562Y446170D01*
X61529Y446076D01*
X61493Y445983D01*
X61453Y445892D01*
X61409Y445802D01*
X61362Y445714D01*
X61312Y445628D01*
X61258Y445544D01*
X61201Y445462D01*
X61141Y445383D01*
X61077Y445305D01*
X61011Y445231D01*
X60942Y445159D01*
X60870Y445090D01*
X60796Y445024D01*
X60718Y444960D01*
X60639Y444900D01*
X60557Y444843D01*
X60473Y444789D01*
X60387Y444739D01*
X60299Y444692D01*
X60209Y444648D01*
X60118Y444608D01*
X60025Y444572D01*
X59931Y444539D01*
X59835Y444510D01*
X59739Y444485D01*
X59642Y444464D01*
X59543Y444446D01*
X59445Y444433D01*
X59345Y444423D01*
X59246Y444417D01*
X59146Y444415D01*
X57876Y444415D01*
X70587Y455846D02*
X70691Y455844D01*
X70796Y455838D01*
X70900Y455829D01*
X71003Y455816D01*
X71106Y455798D01*
X71208Y455778D01*
X71310Y455753D01*
X71410Y455725D01*
X71510Y455693D01*
X71608Y455657D01*
X71705Y455618D01*
X71800Y455576D01*
X71894Y455530D01*
X71986Y455480D01*
X72076Y455428D01*
X72164Y455372D01*
X72250Y455312D01*
X72334Y455250D01*
X72415Y455185D01*
X72494Y455117D01*
X72571Y455045D01*
X72644Y454972D01*
X72716Y454895D01*
X72784Y454816D01*
X72849Y454735D01*
X72911Y454651D01*
X72971Y454565D01*
X73027Y454477D01*
X73079Y454387D01*
X73129Y454295D01*
X73175Y454201D01*
X73217Y454106D01*
X73256Y454009D01*
X73292Y453911D01*
X73324Y453811D01*
X73352Y453711D01*
X73377Y453609D01*
X73397Y453507D01*
X73415Y453404D01*
X73428Y453301D01*
X73437Y453197D01*
X73443Y453092D01*
X73445Y452988D01*
X70587Y455845D02*
X70469Y455843D01*
X70350Y455837D01*
X70232Y455828D01*
X70115Y455815D01*
X69998Y455797D01*
X69881Y455777D01*
X69765Y455752D01*
X69650Y455724D01*
X69537Y455691D01*
X69424Y455656D01*
X69312Y455616D01*
X69202Y455574D01*
X69093Y455527D01*
X68985Y455477D01*
X68880Y455424D01*
X68776Y455367D01*
X68674Y455307D01*
X68574Y455244D01*
X68476Y455177D01*
X68380Y455108D01*
X68287Y455035D01*
X68196Y454959D01*
X68107Y454881D01*
X68021Y454799D01*
X67938Y454715D01*
X67857Y454629D01*
X67780Y454539D01*
X67705Y454448D01*
X67633Y454354D01*
X67564Y454257D01*
X67499Y454159D01*
X67436Y454058D01*
X67377Y453955D01*
X67321Y453851D01*
X67269Y453745D01*
X67220Y453637D01*
X67175Y453528D01*
X67133Y453417D01*
X67095Y453305D01*
X72493Y450766D02*
X72569Y450841D01*
X72644Y450920D01*
X72715Y451001D01*
X72784Y451085D01*
X72849Y451171D01*
X72911Y451259D01*
X72971Y451349D01*
X73027Y451441D01*
X73080Y451536D01*
X73129Y451632D01*
X73175Y451730D01*
X73218Y451829D01*
X73257Y451930D01*
X73292Y452032D01*
X73324Y452135D01*
X73352Y452239D01*
X73377Y452344D01*
X73398Y452451D01*
X73415Y452557D01*
X73428Y452664D01*
X73437Y452772D01*
X73443Y452880D01*
X73445Y452988D01*
X72492Y450765D02*
X67095Y444415D01*
X73445Y444415D01*
D20*
X91190Y169732D02*
X91190Y140776D01*
X91190Y169732D02*
X98810Y169732D01*
X98810Y140776D01*
X91190Y140776D01*
D14*
X61345Y144840D02*
X49915Y144840D01*
X49915Y141665D02*
X49915Y148015D01*
X52455Y152333D02*
X49915Y155508D01*
X61345Y155508D01*
X61345Y152333D02*
X61345Y158683D01*
M02*
