G04 EAGLE Gerber RS-274X export*
G75*
%MOMM*%
%FSLAX34Y34*%
%LPD*%
%INSoldermask Top*%
%IPPOS*%
%AMOC8*
5,1,8,0,0,1.08239X$1,22.5*%
G01*
%ADD10R,5.151600X2.201600*%
%ADD11R,4.101600X4.101600*%
%ADD12R,1.566900X1.266200*%
%ADD13C,1.092600*%
%ADD14C,0.888600*%
%ADD15R,1.301600X1.301600*%
%ADD16R,1.001600X0.901600*%
%ADD17R,1.301600X1.001600*%
%ADD18C,0.851600*%
%ADD19R,2.701600X1.501600*%
%ADD20R,1.601600X1.401600*%
%ADD21R,1.401600X1.601600*%
%ADD22R,1.562800X0.602400*%
%ADD23R,0.602400X1.562800*%
%ADD24R,2.641600X1.371600*%
%ADD25R,1.371600X2.641600*%
%ADD26R,0.990600X0.889000*%

G36*
X51792Y939420D02*
X51792Y939420D01*
X51835Y939432D01*
X51901Y939439D01*
X53584Y939890D01*
X53625Y939909D01*
X53688Y939928D01*
X55268Y940665D01*
X55305Y940691D01*
X55364Y940720D01*
X56792Y941720D01*
X56823Y941752D01*
X56876Y941791D01*
X58109Y943024D01*
X58134Y943060D01*
X58180Y943108D01*
X59180Y944536D01*
X59198Y944577D01*
X59235Y944632D01*
X59972Y946212D01*
X59983Y946255D01*
X60010Y946316D01*
X60461Y947999D01*
X60463Y948031D01*
X60470Y948052D01*
X60470Y948067D01*
X60480Y948108D01*
X60632Y949845D01*
X60628Y949889D01*
X60632Y949955D01*
X60480Y951692D01*
X60468Y951735D01*
X60461Y951801D01*
X60010Y953484D01*
X59991Y953525D01*
X59972Y953588D01*
X59235Y955168D01*
X59209Y955205D01*
X59180Y955264D01*
X58180Y956692D01*
X58148Y956723D01*
X58109Y956776D01*
X56876Y958009D01*
X56840Y958034D01*
X56792Y958080D01*
X55364Y959080D01*
X55323Y959098D01*
X55268Y959135D01*
X53688Y959872D01*
X53645Y959883D01*
X53584Y959910D01*
X51901Y960361D01*
X51856Y960364D01*
X51792Y960380D01*
X50055Y960532D01*
X50011Y960528D01*
X49945Y960532D01*
X48208Y960380D01*
X48165Y960368D01*
X48099Y960361D01*
X46416Y959910D01*
X46375Y959891D01*
X46312Y959872D01*
X44732Y959135D01*
X44695Y959109D01*
X44636Y959080D01*
X43208Y958080D01*
X43177Y958048D01*
X43124Y958009D01*
X41891Y956776D01*
X41866Y956740D01*
X41820Y956692D01*
X40820Y955264D01*
X40802Y955223D01*
X40765Y955168D01*
X40028Y953588D01*
X40017Y953545D01*
X39990Y953484D01*
X39539Y951801D01*
X39536Y951756D01*
X39520Y951692D01*
X39368Y949955D01*
X39372Y949911D01*
X39368Y949845D01*
X39520Y948108D01*
X39532Y948065D01*
X39536Y948031D01*
X39536Y948015D01*
X39538Y948010D01*
X39539Y947999D01*
X39990Y946316D01*
X40009Y946275D01*
X40028Y946212D01*
X40765Y944632D01*
X40791Y944595D01*
X40820Y944536D01*
X41820Y943108D01*
X41852Y943077D01*
X41891Y943024D01*
X43124Y941791D01*
X43160Y941766D01*
X43208Y941720D01*
X44636Y940720D01*
X44677Y940702D01*
X44732Y940665D01*
X46312Y939928D01*
X46355Y939917D01*
X46416Y939890D01*
X48099Y939439D01*
X48144Y939436D01*
X48208Y939420D01*
X49945Y939268D01*
X49989Y939272D01*
X50055Y939268D01*
X51792Y939420D01*
G37*
G36*
X401692Y39920D02*
X401692Y39920D01*
X401735Y39932D01*
X401801Y39939D01*
X403484Y40390D01*
X403525Y40409D01*
X403588Y40428D01*
X405168Y41165D01*
X405205Y41191D01*
X405264Y41220D01*
X406692Y42220D01*
X406723Y42252D01*
X406776Y42291D01*
X408009Y43524D01*
X408034Y43560D01*
X408080Y43608D01*
X409080Y45036D01*
X409098Y45077D01*
X409135Y45132D01*
X409872Y46712D01*
X409883Y46755D01*
X409910Y46816D01*
X410361Y48499D01*
X410363Y48531D01*
X410370Y48552D01*
X410370Y48567D01*
X410380Y48608D01*
X410532Y50345D01*
X410528Y50389D01*
X410532Y50455D01*
X410380Y52192D01*
X410368Y52235D01*
X410361Y52301D01*
X409910Y53984D01*
X409891Y54025D01*
X409872Y54088D01*
X409135Y55668D01*
X409109Y55705D01*
X409080Y55764D01*
X408080Y57192D01*
X408048Y57223D01*
X408009Y57276D01*
X406776Y58509D01*
X406740Y58534D01*
X406692Y58580D01*
X405264Y59580D01*
X405223Y59598D01*
X405168Y59635D01*
X403588Y60372D01*
X403545Y60383D01*
X403484Y60410D01*
X401801Y60861D01*
X401756Y60864D01*
X401692Y60880D01*
X399955Y61032D01*
X399911Y61028D01*
X399845Y61032D01*
X398108Y60880D01*
X398065Y60868D01*
X397999Y60861D01*
X396316Y60410D01*
X396275Y60391D01*
X396212Y60372D01*
X394632Y59635D01*
X394595Y59609D01*
X394536Y59580D01*
X393108Y58580D01*
X393077Y58548D01*
X393024Y58509D01*
X391791Y57276D01*
X391766Y57240D01*
X391720Y57192D01*
X390720Y55764D01*
X390702Y55723D01*
X390665Y55668D01*
X389928Y54088D01*
X389917Y54045D01*
X389890Y53984D01*
X389439Y52301D01*
X389436Y52256D01*
X389420Y52192D01*
X389268Y50455D01*
X389272Y50411D01*
X389268Y50345D01*
X389420Y48608D01*
X389432Y48565D01*
X389436Y48531D01*
X389436Y48515D01*
X389438Y48510D01*
X389439Y48499D01*
X389890Y46816D01*
X389909Y46775D01*
X389928Y46712D01*
X390665Y45132D01*
X390691Y45095D01*
X390720Y45036D01*
X391720Y43608D01*
X391752Y43577D01*
X391791Y43524D01*
X393024Y42291D01*
X393060Y42266D01*
X393108Y42220D01*
X394536Y41220D01*
X394577Y41202D01*
X394632Y41165D01*
X396212Y40428D01*
X396255Y40417D01*
X396316Y40390D01*
X397999Y39939D01*
X398044Y39936D01*
X398108Y39920D01*
X399845Y39768D01*
X399889Y39772D01*
X399955Y39768D01*
X401692Y39920D01*
G37*
G36*
X52092Y39920D02*
X52092Y39920D01*
X52135Y39932D01*
X52201Y39939D01*
X53884Y40390D01*
X53925Y40409D01*
X53988Y40428D01*
X55568Y41165D01*
X55605Y41191D01*
X55664Y41220D01*
X57092Y42220D01*
X57123Y42252D01*
X57176Y42291D01*
X58409Y43524D01*
X58434Y43560D01*
X58480Y43608D01*
X59480Y45036D01*
X59498Y45077D01*
X59535Y45132D01*
X60272Y46712D01*
X60283Y46755D01*
X60310Y46816D01*
X60761Y48499D01*
X60763Y48531D01*
X60770Y48552D01*
X60770Y48567D01*
X60780Y48608D01*
X60932Y50345D01*
X60928Y50389D01*
X60932Y50455D01*
X60780Y52192D01*
X60768Y52235D01*
X60761Y52301D01*
X60310Y53984D01*
X60291Y54025D01*
X60272Y54088D01*
X59535Y55668D01*
X59509Y55705D01*
X59480Y55764D01*
X58480Y57192D01*
X58448Y57223D01*
X58409Y57276D01*
X57176Y58509D01*
X57140Y58534D01*
X57092Y58580D01*
X55664Y59580D01*
X55623Y59598D01*
X55568Y59635D01*
X53988Y60372D01*
X53945Y60383D01*
X53884Y60410D01*
X52201Y60861D01*
X52156Y60864D01*
X52092Y60880D01*
X50355Y61032D01*
X50311Y61028D01*
X50245Y61032D01*
X48508Y60880D01*
X48465Y60868D01*
X48399Y60861D01*
X46716Y60410D01*
X46675Y60391D01*
X46612Y60372D01*
X45032Y59635D01*
X44995Y59609D01*
X44936Y59580D01*
X43508Y58580D01*
X43477Y58548D01*
X43424Y58509D01*
X42191Y57276D01*
X42166Y57240D01*
X42120Y57192D01*
X41120Y55764D01*
X41102Y55723D01*
X41065Y55668D01*
X40328Y54088D01*
X40317Y54045D01*
X40290Y53984D01*
X39839Y52301D01*
X39836Y52256D01*
X39820Y52192D01*
X39668Y50455D01*
X39672Y50411D01*
X39668Y50345D01*
X39820Y48608D01*
X39832Y48565D01*
X39836Y48531D01*
X39836Y48515D01*
X39838Y48510D01*
X39839Y48499D01*
X40290Y46816D01*
X40309Y46775D01*
X40328Y46712D01*
X41065Y45132D01*
X41091Y45095D01*
X41120Y45036D01*
X42120Y43608D01*
X42152Y43577D01*
X42191Y43524D01*
X43424Y42291D01*
X43460Y42266D01*
X43508Y42220D01*
X44936Y41220D01*
X44977Y41202D01*
X45032Y41165D01*
X46612Y40428D01*
X46655Y40417D01*
X46716Y40390D01*
X48399Y39939D01*
X48444Y39936D01*
X48508Y39920D01*
X50245Y39768D01*
X50289Y39772D01*
X50355Y39768D01*
X52092Y39920D01*
G37*
D10*
X138900Y422200D03*
X138900Y189700D03*
D11*
X138200Y308600D03*
D12*
X99500Y558854D03*
X99500Y541346D03*
X312000Y533221D03*
X312000Y550729D03*
X288000Y533421D03*
X288000Y550929D03*
D13*
X395500Y631300D03*
X385340Y682100D03*
X405660Y682100D03*
D14*
X401850Y644000D03*
X389150Y644000D03*
X401850Y656700D03*
X389150Y656700D03*
X401850Y669400D03*
X389150Y669400D03*
D15*
X174900Y960600D03*
X174900Y939600D03*
X310550Y749950D03*
X289550Y749950D03*
X310400Y725100D03*
X289400Y725100D03*
X274950Y689450D03*
X274950Y710450D03*
X224825Y689450D03*
X224825Y710450D03*
X174975Y689550D03*
X174975Y710550D03*
X139425Y725025D03*
X160425Y725025D03*
X139425Y750025D03*
X160425Y750025D03*
X139425Y775025D03*
X160425Y775025D03*
X139425Y800025D03*
X160425Y800025D03*
X139425Y850025D03*
X160425Y850025D03*
X225100Y960600D03*
X225100Y939600D03*
X139550Y875025D03*
X160550Y875025D03*
X139425Y900025D03*
X160425Y900025D03*
X139475Y925025D03*
X160475Y925025D03*
X164475Y825025D03*
X185475Y825025D03*
X225100Y814600D03*
X225100Y835600D03*
X285525Y824975D03*
X264525Y824975D03*
X274900Y960600D03*
X274900Y939600D03*
X310600Y925100D03*
X289600Y925100D03*
X310600Y900100D03*
X289600Y900100D03*
X310600Y875100D03*
X289600Y875100D03*
X310600Y850100D03*
X289600Y850100D03*
X310475Y799975D03*
X289475Y799975D03*
X310475Y774975D03*
X289475Y774975D03*
D16*
X46375Y529200D03*
X23725Y529175D03*
X46250Y453350D03*
X23725Y453200D03*
D17*
X56525Y513650D03*
X56525Y468650D03*
X56650Y483650D03*
D18*
X35000Y506700D03*
X35000Y476200D03*
D19*
X37000Y117600D03*
X131000Y117600D03*
X131000Y72600D03*
X37000Y72600D03*
D20*
X224800Y774400D03*
X224800Y755400D03*
D21*
X119800Y585400D03*
X100800Y585400D03*
X309300Y578400D03*
X290300Y578400D03*
X309600Y600200D03*
X290600Y600200D03*
D20*
X99800Y634600D03*
X99800Y615600D03*
D22*
X157525Y578100D03*
X157525Y570100D03*
X157525Y562100D03*
X157525Y554100D03*
X157525Y546100D03*
X157525Y538100D03*
X157525Y530100D03*
X157525Y522100D03*
D23*
X172025Y507600D03*
X180025Y507600D03*
X188025Y507600D03*
X196025Y507600D03*
X204025Y507600D03*
X212025Y507600D03*
X220025Y507600D03*
X228025Y507600D03*
D22*
X242525Y522100D03*
X242525Y530100D03*
X242525Y538100D03*
X242525Y546100D03*
X242525Y554100D03*
X242525Y562100D03*
X242525Y570100D03*
X242525Y578100D03*
D23*
X228025Y592600D03*
X220025Y592600D03*
X212025Y592600D03*
X204025Y592600D03*
X196025Y592600D03*
X188025Y592600D03*
X180025Y592600D03*
X172025Y592600D03*
D24*
X42000Y157300D03*
X42000Y182700D03*
D25*
X56300Y426000D03*
X81700Y426000D03*
D26*
X84840Y164906D03*
X84840Y145602D03*
X105160Y155254D03*
M02*
